<?xml version="1.0" encoding="utf-8"?>
<!-- Generator: Adobe Illustrator 16.0.0, SVG Export Plug-In . SVG Version: 6.00 Build 0)  -->
<!DOCTYPE svg PUBLIC "-//W3C//DTD SVG 1.1//EN" "http://www.w3.org/Graphics/SVG/1.1/DTD/svg11.dtd">
<svg version="1.1" id="Capa_1" xmlns="http://www.w3.org/2000/svg" xmlns:xlink="http://www.w3.org/1999/xlink" x="0px" y="0px"
	 width="205.206px" height="218.588px" viewBox="0 0 205.206 218.588" enable-background="new 0 0 205.206 218.588"
	 xml:space="preserve">
<g>
	<g>
		<path fill="none" stroke="#00BEBE" stroke-miterlimit="10" d="M98.747,170.827"/>
		<line fill="none" stroke="#00BEBE" stroke-miterlimit="10" x1="98.747" y1="0" x2="98.747" y2="118.691"/>
		<g>
			<radialGradient id="SVGID_1_" cx="98.7471" cy="144.7588" r="26.0674" gradientUnits="userSpaceOnUse">
				<stop  offset="0" style="stop-color:#FFFFFF"/>
				<stop  offset="0.0849" style="stop-color:#F6F6F6"/>
				<stop  offset="0.2235" style="stop-color:#DEDEDE"/>
				<stop  offset="0.3985" style="stop-color:#B6B6B6"/>
				<stop  offset="0.6031" style="stop-color:#7F7F7F"/>
				<stop  offset="0.8298" style="stop-color:#393939"/>
				<stop  offset="1" style="stop-color:#000000"/>
			</radialGradient>
			<circle opacity="0.8" fill="url(#SVGID_1_)" fill-opacity="0.1" cx="98.748" cy="144.759" r="26.068"/>
			<circle fill="none" stroke="#00BEBE" stroke-miterlimit="10" cx="98.748" cy="144.759" r="26.068"/>
			<circle fill="#AEAEAE" fill-opacity="0.1" stroke="#00BEBE" stroke-miterlimit="10" cx="98.747" cy="141.385" r="9.977"/>
			<path fill="#AEAEAE" fill-opacity="0.1" stroke="#00BEBE" stroke-miterlimit="10" d="M98.747,151.361
				c-8.176,0-15.078,5.437-17.302,12.889c4.604,4.089,10.66,6.577,17.302,6.577s12.699-2.488,17.302-6.577
				C113.823,156.798,106.923,151.361,98.747,151.361z"/>
		</g>
		<polyline fill="none" stroke="#00BEBE" stroke-miterlimit="10" points="68.945,182.397 73.09,186.542 82.397,177.233 		"/>
		<g>
			<line fill="none" stroke="#00BEBE" stroke-miterlimit="10" x1="111.403" y1="102.659" x2="111.403" y2="113.097"/>
			<line fill="none" stroke="#00BEBE" stroke-miterlimit="10" x1="105.855" y1="107.878" x2="116.951" y2="107.878"/>
		</g>
		<g>
			<line fill="none" stroke="#00BEBE" stroke-miterlimit="10" x1="59.869" y1="129.423" x2="59.869" y2="135.281"/>
			<line fill="none" stroke="#00BEBE" stroke-miterlimit="10" x1="56.755" y1="132.353" x2="62.982" y2="132.353"/>
		</g>
		<g>
			<line fill="none" stroke="#00BEBE" stroke-miterlimit="10" x1="116.534" y1="180.233" x2="116.534" y2="186.091"/>
			<line fill="none" stroke="#00BEBE" stroke-miterlimit="10" x1="113.421" y1="183.161" x2="119.649" y2="183.161"/>
		</g>
		<polygon fill="none" stroke="#00BEBE" stroke-miterlimit="10" points="77.278,100.269 58.236,100.269 58.236,113.007 
			68.729,113.007 73.354,116.974 73.547,113.007 77.278,113.007 		"/>
		<polygon fill="none" stroke="#00BEBE" stroke-miterlimit="10" points="131.581,155.741 150.626,155.741 150.626,168.48 
			140.132,168.48 135.507,172.447 135.315,168.48 131.581,168.48 		"/>
		<g>
			<circle fill="none" stroke="#00BEBE" stroke-miterlimit="10" cx="131.288" cy="118.584" r="5.486"/>
			<line fill="none" stroke="#00BEBE" stroke-miterlimit="10" x1="139.929" y1="127.289" x2="135.134" y2="122.494"/>
		</g>
		<g>
			<g>
				<path fill="#00BEBE" d="M55.021,169.486c-0.692-0.032-1.292-0.182-1.803-0.446c-0.51-0.264-0.96-0.613-1.349-1.045l0.219-0.316
					c0.064-0.08,0.14-0.121,0.227-0.121c0.049,0,0.108,0.03,0.178,0.089c0.071,0.06,0.156,0.134,0.259,0.223
					s0.224,0.187,0.365,0.292c0.14,0.105,0.304,0.205,0.49,0.3c0.187,0.095,0.398,0.177,0.636,0.247
					c0.239,0.07,0.508,0.113,0.811,0.129h0.518c0.432-0.025,0.817-0.113,1.155-0.263c0.337-0.148,0.621-0.343,0.851-0.583
					s0.405-0.519,0.526-0.835c0.122-0.315,0.183-0.654,0.183-1.017c0-0.356-0.067-0.659-0.202-0.908
					c-0.136-0.248-0.317-0.459-0.544-0.631c-0.227-0.174-0.489-0.318-0.786-0.435c-0.296-0.116-0.607-0.226-0.932-0.327l-0.51-0.154
					c-0.367-0.113-0.725-0.24-1.073-0.381c-0.348-0.141-0.659-0.32-0.932-0.539c-0.272-0.219-0.493-0.489-0.66-0.811
					c-0.167-0.32-0.251-0.725-0.251-1.211c0-0.379,0.071-0.742,0.214-1.09c0.144-0.349,0.352-0.658,0.624-0.928
					c0.272-0.271,0.609-0.489,1.009-0.656c0.4-0.168,0.856-0.26,1.37-0.275l0.519,0.008c0.545,0.038,1.022,0.158,1.433,0.36
					c0.411,0.202,0.786,0.474,1.127,0.815l-0.177,0.275c-0.055,0.092-0.128,0.137-0.22,0.137c-0.065,0-0.15-0.045-0.256-0.134
					c-0.105-0.089-0.243-0.188-0.412-0.296c-0.171-0.107-0.381-0.211-0.628-0.312c-0.249-0.101-0.549-0.163-0.9-0.19l-0.518-0.008
					c-0.411,0.021-0.769,0.098-1.073,0.227c-0.306,0.129-0.561,0.296-0.767,0.498c-0.205,0.203-0.359,0.434-0.462,0.693
					c-0.103,0.26-0.154,0.529-0.154,0.811c0,0.334,0.06,0.621,0.179,0.858c0.118,0.237,0.28,0.441,0.485,0.611
					c0.206,0.171,0.442,0.316,0.71,0.438c0.266,0.121,0.551,0.232,0.854,0.336l0.511,0.17c0.383,0.125,0.764,0.254,1.143,0.389
					c0.377,0.135,0.715,0.311,1.013,0.526c0.296,0.217,0.537,0.483,0.721,0.803c0.182,0.318,0.274,0.722,0.274,1.208
					c0,0.465-0.078,0.902-0.234,1.313c-0.156,0.41-0.382,0.771-0.677,1.081c-0.294,0.312-0.657,0.561-1.089,0.749
					c-0.433,0.189-0.924,0.298-1.475,0.325H55.021z"/>
			</g>
			<line fill="none" stroke="#00BEBE" stroke-miterlimit="10" x1="55.441" y1="171.677" x2="55.441" y2="155.602"/>
		</g>
		<line fill="none" stroke="#00BEBE" stroke-miterlimit="10" x1="98.747" y1="170.827" x2="98.747" y2="214.178"/>
		<circle fill="none" stroke="#00BEBE" stroke-miterlimit="10" cx="98.747" cy="216.044" r="2.045"/>
	</g>
	<g>
		<g>
			<path fill="#FFFFFF" d="M8.728,64.012c0.091,0,0.171,0.034,0.24,0.104l0.656,0.72c-0.469,0.55-1.041,0.977-1.716,1.28
				s-1.484,0.456-2.428,0.456c-0.832,0-1.585-0.144-2.26-0.432s-1.251-0.69-1.728-1.208c-0.478-0.518-0.845-1.137-1.104-1.856
				S0,61.564,0,60.7s0.136-1.656,0.408-2.376s0.656-1.337,1.152-1.852s1.089-0.916,1.78-1.204c0.69-0.288,1.452-0.433,2.284-0.433
				c0.816,0,1.54,0.134,2.172,0.4c0.632,0.267,1.183,0.621,1.652,1.064l-0.544,0.768c-0.038,0.054-0.082,0.098-0.132,0.132
				c-0.051,0.035-0.121,0.052-0.212,0.052c-0.101,0-0.22-0.05-0.356-0.151c-0.136-0.102-0.314-0.215-0.536-0.34
				c-0.221-0.126-0.497-0.239-0.828-0.341c-0.331-0.101-0.739-0.151-1.224-0.151c-0.576,0-1.105,0.102-1.588,0.304
				c-0.483,0.203-0.897,0.493-1.244,0.872s-0.616,0.843-0.808,1.392c-0.192,0.55-0.288,1.171-0.288,1.864
				c0,0.704,0.1,1.332,0.3,1.884c0.2,0.553,0.475,1.018,0.824,1.396c0.35,0.379,0.761,0.668,1.236,0.868
				c0.475,0.199,0.984,0.3,1.528,0.3c0.336,0,0.637-0.021,0.904-0.061s0.514-0.1,0.74-0.18s0.438-0.184,0.636-0.312
				s0.395-0.28,0.592-0.456c0.042-0.037,0.086-0.068,0.132-0.093C8.625,64.024,8.675,64.012,8.728,64.012z"/>
			<path fill="#FFFFFF" d="M14.616,65.052h4.904v1.392h-6.552v-11.48h1.648V65.052z"/>
			<path fill="#FFFFFF" d="M24.456,66.444H22.8v-11.48h1.656V66.444z"/>
			<path fill="#FFFFFF" d="M36.032,54.963v1.345h-5.448v3.695h4.392V61.3h-4.392v3.8h5.456l-0.008,1.344h-7.104v-11.48H36.032z"/>
			<path fill="#FFFFFF" d="M40.939,55.012c0.072,0.031,0.153,0.109,0.244,0.231l6.536,8.473c-0.011-0.145-0.02-0.288-0.028-0.433
				c-0.008-0.144-0.012-0.277-0.012-0.399v-7.921h1.448v11.48h-0.832c-0.128,0-0.236-0.022-0.324-0.068
				c-0.088-0.045-0.175-0.121-0.26-0.228l-6.544-8.472c0.011,0.139,0.02,0.275,0.028,0.411c0.008,0.137,0.012,0.264,0.012,0.381
				v7.976H39.76v-11.48h0.856C40.76,54.963,40.868,54.98,40.939,55.012z"/>
			<path fill="#FFFFFF" d="M61.408,54.963v1.385h-3.672v10.096h-1.648V56.348h-3.68v-1.385H61.408z"/>
			<path fill="#FFFFFF" d="M71.776,54.963v1.345h-5.448v3.695h4.392V61.3h-4.392v3.8h5.456l-0.008,1.344h-7.104v-11.48H71.776z"/>
		</g>
	</g>
	<g>
		<g>
			<path fill="#FFFFFF" d="M125.694,66.444h-1.279c-0.145,0-0.262-0.036-0.353-0.108c-0.091-0.071-0.16-0.166-0.208-0.283
				l-1.032-2.696h-5.096l-1.032,2.696c-0.031,0.101-0.098,0.191-0.195,0.271c-0.1,0.08-0.219,0.12-0.356,0.12h-1.28l4.576-11.48
				h1.672L125.694,66.444z M118.183,62.171h4.184l-1.736-4.52c-0.059-0.144-0.118-0.311-0.18-0.5
				c-0.061-0.189-0.121-0.396-0.18-0.62c-0.059,0.224-0.117,0.432-0.176,0.624s-0.117,0.36-0.176,0.504L118.183,62.171z"/>
			<path fill="#FFFFFF" d="M128.751,66.444v-11.48h3.711c0.715,0,1.328,0.07,1.84,0.208c0.513,0.14,0.934,0.338,1.265,0.597
				s0.575,0.574,0.731,0.948c0.158,0.373,0.236,0.792,0.236,1.256c0,0.277-0.044,0.545-0.132,0.804s-0.22,0.499-0.396,0.72
				c-0.176,0.222-0.398,0.422-0.664,0.601c-0.268,0.179-0.579,0.323-0.937,0.436c0.827,0.165,1.452,0.468,1.876,0.908
				c0.424,0.439,0.637,1.012,0.637,1.716c0,0.491-0.092,0.938-0.272,1.34c-0.182,0.403-0.445,0.748-0.792,1.036
				s-0.771,0.512-1.276,0.672c-0.504,0.16-1.079,0.24-1.724,0.24H128.751z M130.398,60.076h1.991c0.428,0,0.798-0.045,1.113-0.136
				c0.314-0.091,0.574-0.219,0.779-0.384c0.205-0.166,0.359-0.365,0.46-0.601c0.102-0.234,0.152-0.496,0.152-0.784
				c0-0.661-0.198-1.145-0.597-1.451c-0.396-0.307-1.009-0.46-1.836-0.46h-2.063V60.076z M130.398,61.244v3.889h2.433
				c0.437,0,0.811-0.051,1.119-0.152c0.31-0.102,0.563-0.241,0.76-0.42s0.344-0.391,0.437-0.636c0.093-0.246,0.14-0.515,0.14-0.809
				c0-0.576-0.203-1.032-0.607-1.368c-0.406-0.336-1.021-0.504-1.848-0.504H130.398z"/>
			<path fill="#FFFFFF" d="M151.391,60.7c0,0.859-0.138,1.648-0.412,2.368s-0.66,1.339-1.156,1.856
				c-0.495,0.517-1.093,0.92-1.792,1.208c-0.699,0.287-1.472,0.432-2.32,0.432c-0.848,0-1.619-0.145-2.315-0.432
				c-0.696-0.288-1.295-0.691-1.796-1.208c-0.502-0.518-0.89-1.137-1.164-1.856c-0.275-0.72-0.412-1.509-0.412-2.368
				c0-0.854,0.137-1.64,0.412-2.359c0.274-0.721,0.662-1.339,1.164-1.856c0.501-0.518,1.1-0.921,1.796-1.212
				s1.468-0.437,2.315-0.437c0.849,0,1.621,0.146,2.32,0.437s1.297,0.694,1.792,1.212c0.496,0.518,0.882,1.136,1.156,1.856
				C151.253,59.06,151.391,59.846,151.391,60.7z M149.702,60.7c0-0.688-0.094-1.307-0.279-1.855
				c-0.188-0.55-0.455-1.015-0.805-1.396c-0.35-0.381-0.77-0.673-1.26-0.876c-0.49-0.202-1.04-0.304-1.648-0.304
				c-0.607,0-1.158,0.102-1.651,0.304c-0.493,0.203-0.915,0.495-1.265,0.876c-0.35,0.382-0.618,0.847-0.808,1.396
				c-0.189,0.549-0.284,1.168-0.284,1.855c0,0.693,0.095,1.314,0.284,1.864c0.189,0.549,0.458,1.014,0.808,1.392
				c0.35,0.379,0.771,0.67,1.265,0.872c0.493,0.203,1.044,0.305,1.651,0.305c0.608,0,1.158-0.102,1.648-0.305
				c0.49-0.202,0.91-0.493,1.26-0.872c0.35-0.378,0.617-0.843,0.805-1.392C149.608,62.014,149.702,61.393,149.702,60.7z"/>
			<path fill="#FFFFFF" d="M162.65,66.264c-0.653,0.205-1.366,0.308-2.14,0.308c-0.924,0-1.758-0.144-2.504-0.432
				c-0.748-0.288-1.385-0.69-1.912-1.208c-0.528-0.518-0.936-1.137-1.221-1.856s-0.428-1.512-0.428-2.376
				c0-0.869,0.137-1.664,0.412-2.384c0.274-0.72,0.668-1.339,1.18-1.856c0.512-0.517,1.131-0.917,1.855-1.199
				c0.727-0.283,1.539-0.425,2.441-0.425c0.458,0,0.883,0.035,1.275,0.104s0.754,0.167,1.088,0.292s0.643,0.277,0.928,0.456
				s0.549,0.38,0.788,0.604l-0.464,0.752c-0.074,0.118-0.172,0.191-0.292,0.221s-0.249,0.001-0.388-0.084
				c-0.139-0.08-0.293-0.172-0.461-0.276c-0.168-0.104-0.367-0.202-0.6-0.296s-0.504-0.173-0.816-0.24
				c-0.312-0.066-0.684-0.1-1.115-0.1c-0.635,0-1.208,0.104-1.721,0.312c-0.512,0.208-0.947,0.504-1.307,0.889
				c-0.361,0.384-0.639,0.849-0.832,1.396c-0.195,0.547-0.293,1.159-0.293,1.836c0,0.715,0.102,1.353,0.305,1.912
				c0.202,0.56,0.492,1.035,0.867,1.424c0.377,0.39,0.832,0.687,1.369,0.893c0.535,0.205,1.134,0.308,1.795,0.308
				c0.256,0,0.498-0.015,0.725-0.044s0.442-0.072,0.648-0.128c0.205-0.056,0.403-0.124,0.596-0.204
				c0.191-0.08,0.384-0.168,0.576-0.264V62.14h-1.721c-0.106,0-0.193-0.031-0.26-0.093c-0.066-0.061-0.1-0.137-0.1-0.228v-0.936
				h3.576v4.447C163.921,65.748,163.304,66.059,162.65,66.264z"/>
			<path fill="#FFFFFF" d="M177.718,66.444h-1.279c-0.145,0-0.262-0.036-0.352-0.108c-0.092-0.071-0.16-0.166-0.209-0.283
				l-1.031-2.696h-5.096l-1.033,2.696c-0.031,0.101-0.097,0.191-0.195,0.271c-0.1,0.08-0.218,0.12-0.355,0.12h-1.281l4.576-11.48
				h1.672L177.718,66.444z M170.206,62.171h4.184l-1.735-4.52c-0.059-0.144-0.118-0.311-0.181-0.5
				c-0.061-0.189-0.121-0.396-0.18-0.62c-0.059,0.224-0.117,0.432-0.176,0.624s-0.117,0.36-0.176,0.504L170.206,62.171z"/>
			<path fill="#FFFFFF" d="M190.766,60.7c0,0.859-0.138,1.642-0.411,2.348c-0.275,0.707-0.662,1.313-1.16,1.816
				c-0.5,0.504-1.098,0.894-1.797,1.168c-0.698,0.274-1.472,0.412-2.32,0.412h-4.303v-11.48h4.303c0.849,0,1.622,0.14,2.32,0.416
				c0.699,0.277,1.297,0.667,1.797,1.168c0.498,0.502,0.885,1.105,1.16,1.813C190.628,59.067,190.766,59.846,190.766,60.7z
				 M189.077,60.7c0-0.688-0.093-1.305-0.279-1.852c-0.188-0.547-0.455-1.008-0.805-1.385c-0.349-0.376-0.77-0.663-1.264-0.863
				c-0.493-0.2-1.043-0.3-1.652-0.3h-2.647v8.808h2.647c0.609,0,1.159-0.1,1.652-0.3c0.494-0.2,0.915-0.488,1.264-0.864
				c0.35-0.376,0.617-0.837,0.805-1.384C188.984,62.013,189.077,61.393,189.077,60.7z"/>
			<path fill="#FFFFFF" d="M205.206,60.7c0,0.859-0.138,1.648-0.412,2.368c-0.275,0.72-0.66,1.339-1.156,1.856
				c-0.496,0.517-1.094,0.92-1.792,1.208c-0.698,0.287-1.472,0.432-2.319,0.432c-0.849,0-1.621-0.145-2.316-0.432
				c-0.696-0.288-1.295-0.691-1.796-1.208c-0.501-0.518-0.89-1.137-1.164-1.856s-0.412-1.509-0.412-2.368
				c0-0.854,0.138-1.64,0.412-2.359c0.274-0.721,0.663-1.339,1.164-1.856s1.1-0.921,1.796-1.212
				c0.695-0.291,1.468-0.437,2.316-0.437c0.848,0,1.621,0.146,2.319,0.437s1.296,0.694,1.792,1.212s0.881,1.136,1.156,1.856
				C205.068,59.06,205.206,59.846,205.206,60.7z M203.519,60.7c0-0.688-0.094-1.307-0.281-1.855
				c-0.186-0.55-0.454-1.015-0.803-1.396c-0.35-0.381-0.77-0.673-1.261-0.876c-0.491-0.202-1.04-0.304-1.647-0.304
				c-0.608,0-1.159,0.102-1.652,0.304c-0.494,0.203-0.915,0.495-1.264,0.876c-0.35,0.382-0.619,0.847-0.809,1.396
				c-0.189,0.549-0.283,1.168-0.283,1.855c0,0.693,0.094,1.314,0.283,1.864c0.189,0.549,0.459,1.014,0.809,1.392
				c0.349,0.379,0.77,0.67,1.264,0.872c0.493,0.203,1.044,0.305,1.652,0.305c0.607,0,1.156-0.102,1.647-0.305
				c0.491-0.202,0.911-0.493,1.261-0.872c0.349-0.378,0.617-0.843,0.803-1.392C203.425,62.014,203.519,61.393,203.519,60.7z"/>
		</g>
	</g>
</g>
</svg>
