<?xml version="1.0" encoding="utf-8"?>
<!-- Generator: Adobe Illustrator 16.0.0, SVG Export Plug-In . SVG Version: 6.00 Build 0)  -->
<!DOCTYPE svg PUBLIC "-//W3C//DTD SVG 1.1//EN" "http://www.w3.org/Graphics/SVG/1.1/DTD/svg11.dtd">
<svg version="1.1" id="Capa_1" xmlns="http://www.w3.org/2000/svg" xmlns:xlink="http://www.w3.org/1999/xlink" x="0px" y="0px"
	 width="109.594px" height="225.421px" viewBox="0 0 109.594 225.421" enable-background="new 0 0 109.594 225.421"
	 xml:space="preserve">
<g>
	<g>
		<g>
			<path fill="#FFFFFF" d="M13.107,200.628c0.371,0,0.711,0.053,1.02,0.158c0.308,0.105,0.572,0.256,0.795,0.451
				c0.222,0.193,0.395,0.426,0.52,0.695c0.123,0.27,0.186,0.568,0.186,0.896c0,0.277-0.034,0.521-0.102,0.736
				c-0.068,0.213-0.166,0.4-0.295,0.561c-0.128,0.16-0.283,0.295-0.465,0.404s-0.387,0.201-0.615,0.273
				c0.557,0.152,0.973,0.4,1.252,0.744c0.277,0.344,0.416,0.777,0.416,1.301c0,0.404-0.076,0.766-0.228,1.084
				c-0.152,0.318-0.358,0.588-0.618,0.811c-0.26,0.221-0.564,0.391-0.915,0.51c-0.351,0.117-0.724,0.176-1.119,0.176
				c-0.452,0-0.84-0.055-1.163-0.168c-0.324-0.111-0.601-0.266-0.828-0.465c-0.229-0.197-0.416-0.434-0.564-0.711
				c-0.148-0.275-0.271-0.578-0.372-0.906l0.492-0.209c0.128-0.057,0.252-0.072,0.372-0.049c0.119,0.025,0.207,0.094,0.264,0.211
				c0.057,0.115,0.124,0.25,0.204,0.402s0.187,0.297,0.317,0.434c0.133,0.139,0.299,0.254,0.502,0.35
				c0.201,0.094,0.457,0.141,0.765,0.141c0.292,0,0.548-0.049,0.769-0.145c0.219-0.096,0.402-0.221,0.549-0.371
				c0.146-0.152,0.254-0.322,0.326-0.508s0.108-0.371,0.108-0.555c0-0.229-0.029-0.436-0.087-0.625
				c-0.059-0.188-0.166-0.35-0.324-0.486c-0.158-0.135-0.378-0.24-0.66-0.316c-0.281-0.076-0.646-0.115-1.095-0.115v-0.828
				c0.368-0.004,0.679-0.043,0.933-0.117c0.254-0.072,0.461-0.176,0.621-0.305c0.16-0.131,0.275-0.285,0.346-0.465
				c0.069-0.18,0.104-0.379,0.104-0.594c0-0.24-0.037-0.449-0.11-0.627c-0.074-0.18-0.178-0.326-0.31-0.445
				c-0.132-0.117-0.288-0.207-0.468-0.266c-0.18-0.061-0.377-0.092-0.588-0.092c-0.213,0-0.407,0.031-0.586,0.094
				c-0.178,0.063-0.336,0.148-0.473,0.258c-0.139,0.111-0.255,0.24-0.349,0.391c-0.095,0.15-0.161,0.314-0.201,0.494
				c-0.056,0.148-0.125,0.248-0.207,0.297c-0.082,0.051-0.2,0.064-0.356,0.039l-0.601-0.107c0.056-0.396,0.166-0.746,0.33-1.051
				c0.164-0.303,0.37-0.559,0.618-0.764c0.248-0.207,0.531-0.361,0.852-0.465C12.389,200.679,12.734,200.628,13.107,200.628z"/>
			<path fill="#FFFFFF" d="M17.115,208.644c0-0.107,0.02-0.209,0.06-0.303s0.094-0.178,0.161-0.25
				c0.068-0.072,0.15-0.127,0.246-0.168c0.097-0.039,0.199-0.059,0.307-0.059s0.209,0.02,0.303,0.059
				c0.094,0.041,0.176,0.096,0.246,0.168s0.125,0.156,0.165,0.25s0.06,0.195,0.06,0.303c0,0.111-0.02,0.215-0.06,0.309
				s-0.095,0.176-0.165,0.246s-0.152,0.125-0.246,0.166c-0.094,0.039-0.195,0.059-0.303,0.059s-0.21-0.02-0.307-0.059
				c-0.096-0.041-0.178-0.096-0.246-0.166c-0.067-0.07-0.121-0.152-0.161-0.246S17.115,208.755,17.115,208.644z"/>
			<path fill="#FFFFFF" d="M27.854,202.11c-0.035,0.063-0.074,0.109-0.116,0.141c-0.042,0.029-0.097,0.045-0.165,0.045
				c-0.072,0-0.154-0.033-0.246-0.1s-0.207-0.141-0.346-0.223c-0.137-0.082-0.303-0.154-0.494-0.221s-0.422-0.1-0.689-0.1
				c-0.257,0-0.482,0.033-0.676,0.1s-0.355,0.156-0.486,0.273c-0.129,0.115-0.228,0.252-0.293,0.41
				c-0.066,0.158-0.1,0.328-0.1,0.514c0,0.236,0.059,0.43,0.178,0.582c0.117,0.15,0.272,0.283,0.465,0.393
				c0.191,0.109,0.41,0.205,0.656,0.285s0.497,0.164,0.754,0.252c0.256,0.088,0.506,0.188,0.752,0.297s0.465,0.25,0.657,0.42
				s0.347,0.377,0.466,0.623c0.117,0.246,0.176,0.547,0.176,0.904c0,0.379-0.064,0.734-0.194,1.064s-0.319,0.617-0.567,0.863
				s-0.552,0.441-0.912,0.582c-0.359,0.143-0.77,0.213-1.229,0.213c-0.276,0-0.543-0.025-0.802-0.08
				c-0.258-0.055-0.502-0.131-0.731-0.229s-0.446-0.215-0.647-0.354c-0.203-0.139-0.384-0.293-0.543-0.465l0.359-0.588
				c0.032-0.049,0.073-0.088,0.123-0.117s0.105-0.045,0.165-0.045c0.084,0,0.181,0.043,0.291,0.131
				c0.11,0.09,0.246,0.186,0.408,0.291c0.161,0.107,0.356,0.203,0.585,0.291c0.229,0.09,0.504,0.133,0.828,0.133
				c0.268,0,0.508-0.035,0.72-0.107s0.392-0.174,0.537-0.307s0.257-0.291,0.333-0.48c0.076-0.188,0.113-0.395,0.113-0.623
				c0-0.256-0.059-0.465-0.176-0.627c-0.119-0.162-0.273-0.297-0.466-0.406c-0.192-0.107-0.409-0.199-0.653-0.275
				s-0.496-0.154-0.754-0.236s-0.509-0.178-0.752-0.285c-0.244-0.107-0.463-0.25-0.654-0.424c-0.192-0.174-0.348-0.391-0.465-0.65
				c-0.119-0.26-0.178-0.582-0.178-0.967c0-0.303,0.061-0.6,0.18-0.887c0.121-0.289,0.295-0.543,0.522-0.762
				c0.228-0.221,0.509-0.398,0.843-0.531c0.334-0.135,0.717-0.201,1.149-0.201c0.483,0,0.927,0.076,1.329,0.229
				c0.402,0.15,0.753,0.371,1.053,0.658L27.854,202.11z"/>
			<path fill="#FFFFFF" d="M32.145,203.147c0.367,0,0.707,0.061,1.02,0.184c0.313,0.121,0.582,0.299,0.811,0.531
				c0.228,0.23,0.406,0.516,0.533,0.854c0.129,0.338,0.192,0.727,0.192,1.162c0,0.176-0.019,0.293-0.058,0.354
				c-0.037,0.061-0.108,0.09-0.213,0.09h-4.02c0.012,0.373,0.064,0.695,0.159,0.973c0.094,0.275,0.222,0.504,0.384,0.688
				c0.162,0.182,0.357,0.316,0.585,0.406s0.481,0.137,0.763,0.137c0.264,0,0.49-0.031,0.681-0.092
				c0.19-0.059,0.354-0.125,0.491-0.197c0.139-0.072,0.256-0.139,0.352-0.197c0.096-0.061,0.18-0.09,0.252-0.09
				c0.096,0,0.166,0.035,0.21,0.107l0.324,0.414c-0.14,0.168-0.302,0.311-0.486,0.43c-0.184,0.117-0.382,0.215-0.594,0.293
				s-0.431,0.135-0.657,0.172c-0.227,0.035-0.449,0.053-0.669,0.053c-0.42,0-0.81-0.07-1.167-0.213
				c-0.357-0.141-0.667-0.35-0.927-0.623c-0.261-0.275-0.464-0.615-0.608-1.021c-0.146-0.404-0.22-0.873-0.22-1.4
				c0-0.424,0.065-0.818,0.198-1.186c0.132-0.365,0.32-0.684,0.566-0.953s0.547-0.482,0.9-0.639S31.7,203.147,32.145,203.147z
				 M32.162,203.981c-0.5,0-0.893,0.145-1.179,0.436c-0.286,0.289-0.466,0.691-0.537,1.203h3.233c0-0.24-0.033-0.461-0.102-0.66
				c-0.068-0.201-0.167-0.373-0.297-0.516c-0.13-0.145-0.289-0.258-0.477-0.34C32.616,204.022,32.402,203.981,32.162,203.981z"/>
			<path fill="#FFFFFF" d="M40.101,203.243v3.883c0,0.439,0.102,0.783,0.306,1.029s0.514,0.369,0.93,0.369
				c0.305,0,0.59-0.072,0.855-0.215c0.266-0.141,0.514-0.338,0.741-0.59v-4.477h1.14v6.09h-0.684c-0.16,0-0.26-0.076-0.301-0.227
				l-0.09-0.631c-0.264,0.283-0.557,0.514-0.879,0.689s-0.695,0.264-1.119,0.264c-0.336,0-0.631-0.055-0.885-0.168
				c-0.254-0.111-0.466-0.268-0.636-0.471c-0.171-0.201-0.3-0.443-0.388-0.725c-0.088-0.283-0.131-0.596-0.131-0.939v-3.883H40.101z
				"/>
			<path fill="#FFFFFF" d="M45.723,209.333v-6.09h0.684c0.16,0,0.26,0.076,0.3,0.229l0.084,0.629
				c0.265-0.283,0.558-0.514,0.882-0.689s0.698-0.264,1.122-0.264c0.332,0,0.625,0.057,0.879,0.168
				c0.255,0.111,0.468,0.27,0.64,0.471c0.172,0.203,0.301,0.445,0.39,0.727c0.088,0.281,0.132,0.596,0.132,0.939v3.881h-1.141
				v-3.881c0-0.441-0.102-0.783-0.305-1.029c-0.205-0.246-0.515-0.369-0.931-0.369c-0.308,0-0.594,0.072-0.858,0.215
				c-0.264,0.145-0.51,0.344-0.738,0.596v4.469H45.723z"/>
			<path fill="#FFFFFF" d="M59.365,209.333c-0.111,0-0.197-0.018-0.258-0.053c-0.061-0.037-0.107-0.107-0.145-0.211l-0.125-0.545
				c-0.156,0.143-0.311,0.271-0.463,0.387c-0.151,0.113-0.311,0.209-0.477,0.285s-0.343,0.133-0.531,0.174
				c-0.188,0.039-0.397,0.059-0.629,0.059c-0.24,0-0.465-0.031-0.673-0.098s-0.39-0.168-0.543-0.303
				c-0.153-0.137-0.276-0.307-0.366-0.508s-0.135-0.441-0.135-0.717c0-0.24,0.064-0.471,0.195-0.689
				c0.13-0.221,0.342-0.418,0.636-0.592s0.679-0.316,1.151-0.43c0.475-0.111,1.058-0.176,1.75-0.191v-0.455
				c0-0.461-0.1-0.809-0.297-1.041c-0.198-0.234-0.489-0.352-0.873-0.352c-0.26,0-0.478,0.033-0.651,0.1
				c-0.174,0.064-0.324,0.137-0.45,0.215s-0.236,0.148-0.333,0.213c-0.096,0.064-0.192,0.096-0.288,0.096
				c-0.08,0-0.146-0.02-0.201-0.063c-0.054-0.041-0.101-0.09-0.141-0.146l-0.204-0.373c0.34-0.318,0.707-0.559,1.101-0.719
				c0.395-0.16,0.83-0.24,1.306-0.24c0.344,0,0.649,0.057,0.918,0.168s0.493,0.27,0.675,0.471s0.32,0.445,0.414,0.729
				c0.094,0.285,0.141,0.598,0.141,0.943v3.887H59.365z M57.08,208.632c0.18,0,0.347-0.018,0.5-0.055
				c0.154-0.035,0.299-0.088,0.433-0.156c0.134-0.066,0.261-0.15,0.381-0.248s0.24-0.209,0.36-0.334v-1.223
				c-0.48,0.016-0.889,0.053-1.225,0.113s-0.609,0.139-0.818,0.234c-0.211,0.096-0.363,0.211-0.459,0.344
				c-0.096,0.135-0.145,0.281-0.145,0.441c0,0.156,0.025,0.291,0.075,0.402s0.119,0.203,0.207,0.273s0.19,0.121,0.31,0.156
				C56.816,208.614,56.943,208.632,57.08,208.632z"/>
			<path fill="#FFFFFF" d="M61.46,209.333v-8.85h1.14v3.617c0.252-0.291,0.539-0.523,0.861-0.695s0.689-0.258,1.102-0.258
				c0.355,0,0.676,0.068,0.963,0.207c0.285,0.139,0.528,0.336,0.729,0.592c0.199,0.256,0.354,0.568,0.459,0.938
				c0.105,0.371,0.159,0.785,0.159,1.246c0,0.492-0.062,0.939-0.183,1.344c-0.123,0.404-0.297,0.75-0.522,1.037
				c-0.226,0.289-0.5,0.512-0.822,0.67c-0.321,0.158-0.685,0.236-1.089,0.236c-0.4,0-0.734-0.074-1.005-0.225
				s-0.507-0.357-0.711-0.621l-0.054,0.521c-0.037,0.16-0.133,0.24-0.289,0.24H61.46z M64.184,204.054
				c-0.34,0-0.635,0.076-0.885,0.23s-0.482,0.373-0.699,0.658v2.908c0.192,0.252,0.402,0.43,0.631,0.531
				c0.228,0.104,0.475,0.154,0.743,0.154c0.556,0,0.981-0.197,1.278-0.588c0.296-0.393,0.443-0.984,0.443-1.777
				c0-0.727-0.131-1.262-0.393-1.604C65.041,204.224,64.668,204.054,64.184,204.054z"/>
			<path fill="#FFFFFF" d="M70.783,203.147c0.448,0,0.853,0.072,1.213,0.219c0.359,0.146,0.666,0.355,0.918,0.627
				s0.445,0.602,0.582,0.988c0.135,0.385,0.203,0.818,0.203,1.299c0,0.479-0.068,0.914-0.203,1.301
				c-0.137,0.389-0.33,0.719-0.582,0.99s-0.559,0.48-0.918,0.627c-0.36,0.146-0.765,0.219-1.213,0.219
				c-0.447,0-0.853-0.072-1.215-0.219c-0.361-0.146-0.67-0.355-0.924-0.627s-0.449-0.602-0.585-0.99
				c-0.136-0.387-0.204-0.822-0.204-1.301c0-0.48,0.068-0.914,0.204-1.299c0.136-0.387,0.331-0.717,0.585-0.988
				s0.563-0.48,0.924-0.627C69.931,203.22,70.336,203.147,70.783,203.147z M70.783,208.53c0.584,0,1.021-0.197,1.309-0.588
				c0.287-0.393,0.432-0.945,0.432-1.656c0-0.709-0.145-1.26-0.432-1.656c-0.288-0.396-0.725-0.594-1.309-0.594
				c-0.592,0-1.033,0.197-1.322,0.594c-0.291,0.396-0.436,0.947-0.436,1.656c0,0.711,0.145,1.264,0.436,1.656
				C69.75,208.333,70.191,208.53,70.783,208.53z"/>
			<path fill="#FFFFFF" d="M77.149,203.142c0.265,0,0.509,0.029,0.735,0.086c0.226,0.059,0.435,0.143,0.627,0.25h1.68v0.42
				c0,0.145-0.088,0.234-0.264,0.27l-0.666,0.096c0.123,0.256,0.186,0.537,0.186,0.84c0,0.301-0.057,0.57-0.171,0.811
				s-0.272,0.447-0.478,0.619c-0.203,0.172-0.446,0.303-0.729,0.395c-0.281,0.094-0.589,0.139-0.921,0.139
				c-0.28,0-0.54-0.029-0.78-0.09c-0.252,0.152-0.377,0.32-0.377,0.504c0,0.141,0.059,0.244,0.176,0.314
				c0.119,0.07,0.273,0.121,0.466,0.154c0.192,0.031,0.409,0.051,0.653,0.059s0.494,0.021,0.75,0.039
				c0.256,0.02,0.506,0.049,0.75,0.094c0.244,0.043,0.463,0.117,0.654,0.219c0.192,0.102,0.348,0.24,0.465,0.418
				c0.118,0.176,0.178,0.404,0.178,0.689c0,0.264-0.065,0.52-0.195,0.766c-0.131,0.244-0.318,0.463-0.564,0.652
				c-0.246,0.191-0.547,0.344-0.902,0.459c-0.356,0.117-0.758,0.174-1.207,0.174c-0.447,0-0.838-0.043-1.172-0.131
				s-0.612-0.207-0.834-0.354c-0.223-0.148-0.389-0.32-0.498-0.514c-0.11-0.193-0.166-0.396-0.166-0.609
				c0-0.299,0.094-0.553,0.279-0.758c0.187-0.207,0.441-0.367,0.766-0.484c-0.18-0.08-0.322-0.189-0.426-0.326
				c-0.104-0.139-0.156-0.322-0.156-0.549c0-0.088,0.016-0.18,0.048-0.273s0.081-0.188,0.147-0.281
				c0.065-0.096,0.147-0.184,0.246-0.268c0.098-0.084,0.211-0.158,0.338-0.223c-0.3-0.168-0.535-0.391-0.707-0.668
				c-0.172-0.279-0.258-0.604-0.258-0.977c0-0.299,0.057-0.568,0.174-0.809c0.115-0.24,0.276-0.447,0.482-0.619
				s0.451-0.303,0.734-0.395C76.498,203.188,76.81,203.142,77.149,203.142z M79.033,209.651c0-0.145-0.041-0.26-0.123-0.348
				s-0.193-0.158-0.332-0.211c-0.141-0.051-0.303-0.088-0.486-0.107s-0.379-0.035-0.582-0.049c-0.204-0.012-0.413-0.023-0.627-0.035
				c-0.215-0.012-0.42-0.031-0.615-0.061c-0.216,0.105-0.393,0.232-0.527,0.385c-0.137,0.152-0.205,0.33-0.205,0.533
				c0,0.133,0.034,0.256,0.103,0.369c0.067,0.115,0.171,0.213,0.31,0.295c0.137,0.082,0.313,0.146,0.527,0.195
				c0.214,0.047,0.467,0.072,0.759,0.072c0.288,0,0.544-0.027,0.769-0.078c0.224-0.053,0.412-0.125,0.563-0.217
				s0.269-0.201,0.349-0.326C78.994,209.942,79.033,209.804,79.033,209.651z M77.149,206.315c0.212,0,0.397-0.029,0.558-0.088
				c0.16-0.057,0.295-0.139,0.402-0.242c0.108-0.104,0.189-0.229,0.243-0.371c0.054-0.145,0.081-0.305,0.081-0.48
				c0-0.359-0.109-0.646-0.327-0.861s-0.537-0.32-0.957-0.32s-0.739,0.105-0.957,0.32s-0.327,0.502-0.327,0.861
				c0,0.172,0.028,0.33,0.084,0.475c0.057,0.143,0.139,0.268,0.246,0.375c0.108,0.105,0.242,0.188,0.402,0.244
				C76.758,206.286,76.941,206.315,77.149,206.315z"/>
			<path fill="#FFFFFF" d="M85.166,209.333c-0.113,0-0.199-0.018-0.259-0.053c-0.06-0.037-0.108-0.107-0.144-0.211l-0.127-0.545
				c-0.155,0.143-0.31,0.271-0.461,0.387c-0.152,0.113-0.312,0.209-0.478,0.285s-0.343,0.133-0.53,0.174
				c-0.188,0.039-0.398,0.059-0.631,0.059c-0.24,0-0.464-0.031-0.672-0.098s-0.389-0.168-0.543-0.303
				c-0.154-0.137-0.275-0.307-0.365-0.508c-0.091-0.201-0.136-0.441-0.136-0.717c0-0.24,0.065-0.471,0.195-0.689
				c0.13-0.221,0.342-0.418,0.636-0.592s0.678-0.316,1.152-0.43c0.474-0.111,1.057-0.176,1.748-0.191v-0.455
				c0-0.461-0.098-0.809-0.297-1.041c-0.197-0.234-0.488-0.352-0.873-0.352c-0.26,0-0.477,0.033-0.65,0.1
				c-0.174,0.064-0.324,0.137-0.45,0.215s-0.237,0.148-0.333,0.213s-0.191,0.096-0.288,0.096c-0.08,0-0.147-0.02-0.2-0.063
				c-0.055-0.041-0.102-0.09-0.142-0.146l-0.204-0.373c0.34-0.318,0.707-0.559,1.102-0.719c0.394-0.16,0.828-0.24,1.305-0.24
				c0.344,0,0.65,0.057,0.918,0.168s0.492,0.27,0.675,0.471s0.32,0.445,0.414,0.729c0.094,0.285,0.142,0.598,0.142,0.943v3.887
				H85.166z M82.879,208.632c0.181,0,0.348-0.018,0.502-0.055c0.153-0.035,0.297-0.088,0.432-0.156
				c0.134-0.066,0.261-0.15,0.381-0.248s0.24-0.209,0.359-0.334v-1.223c-0.479,0.016-0.887,0.053-1.223,0.113
				c-0.337,0.061-0.609,0.139-0.82,0.234c-0.209,0.096-0.362,0.211-0.459,0.344c-0.096,0.135-0.144,0.281-0.144,0.441
				c0,0.156,0.024,0.291,0.075,0.402c0.05,0.111,0.119,0.203,0.207,0.273s0.191,0.121,0.309,0.156
				C82.616,208.614,82.743,208.632,82.879,208.632z"/>
			<path fill="#FFFFFF" d="M91.658,209.333c-0.16,0-0.261-0.076-0.301-0.227l-0.102-0.715c-0.129,0.156-0.266,0.297-0.414,0.424
				c-0.148,0.125-0.307,0.232-0.475,0.322s-0.346,0.16-0.533,0.207c-0.188,0.049-0.391,0.072-0.606,0.072
				c-0.348,0-0.663-0.066-0.944-0.201c-0.283-0.133-0.524-0.332-0.727-0.596s-0.357-0.59-0.465-0.977
				c-0.108-0.385-0.162-0.83-0.162-1.334c0-0.451,0.061-0.871,0.18-1.258c0.12-0.385,0.295-0.721,0.522-1.004
				c0.228-0.285,0.504-0.508,0.827-0.67c0.324-0.162,0.69-0.242,1.099-0.242c0.368,0,0.683,0.061,0.944,0.184
				c0.263,0.121,0.496,0.293,0.699,0.512v-3.348h1.141v8.85H91.658z M89.6,208.499c0.34,0,0.639-0.076,0.895-0.23
				s0.492-0.373,0.707-0.656v-2.904c-0.191-0.256-0.401-0.436-0.629-0.537c-0.229-0.102-0.48-0.154-0.757-0.154
				c-0.548,0-0.97,0.197-1.266,0.59c-0.296,0.391-0.444,0.959-0.444,1.703c0,0.389,0.034,0.721,0.102,0.996
				c0.068,0.275,0.166,0.502,0.295,0.682c0.127,0.178,0.283,0.307,0.468,0.389S89.363,208.499,89.6,208.499z"/>
			<path fill="#FFFFFF" d="M96.584,203.147c0.447,0,0.852,0.072,1.211,0.219c0.36,0.146,0.666,0.355,0.918,0.627
				s0.446,0.602,0.582,0.988c0.137,0.385,0.205,0.818,0.205,1.299c0,0.479-0.068,0.914-0.205,1.301
				c-0.136,0.389-0.33,0.719-0.582,0.99s-0.558,0.48-0.918,0.627c-0.359,0.146-0.764,0.219-1.211,0.219
				c-0.449,0-0.854-0.072-1.215-0.219c-0.363-0.146-0.671-0.355-0.925-0.627s-0.448-0.602-0.585-0.99
				c-0.136-0.387-0.204-0.822-0.204-1.301c0-0.48,0.068-0.914,0.204-1.299c0.137-0.387,0.331-0.717,0.585-0.988
				s0.562-0.48,0.925-0.627C95.73,203.22,96.135,203.147,96.584,203.147z M96.584,208.53c0.584,0,1.02-0.197,1.308-0.588
				c0.288-0.393,0.432-0.945,0.432-1.656c0-0.709-0.144-1.26-0.432-1.656s-0.724-0.594-1.308-0.594
				c-0.593,0-1.033,0.197-1.324,0.594c-0.289,0.396-0.435,0.947-0.435,1.656c0,0.711,0.146,1.264,0.435,1.656
				C95.551,208.333,95.991,208.53,96.584,208.53z"/>
			<path fill="#00BEBE" d="M26.472,218.06c0-0.129,0.022-0.248,0.069-0.357c0.045-0.111,0.108-0.205,0.188-0.285
				s0.176-0.143,0.288-0.189c0.111-0.045,0.232-0.068,0.359-0.068c0.125,0,0.242,0.023,0.354,0.068
				c0.112,0.047,0.209,0.109,0.291,0.189s0.147,0.174,0.195,0.285c0.048,0.109,0.071,0.229,0.071,0.357
				c0,0.127-0.023,0.246-0.071,0.355c-0.048,0.111-0.113,0.205-0.195,0.285s-0.179,0.145-0.291,0.193
				c-0.112,0.047-0.229,0.07-0.354,0.07c-0.127,0-0.248-0.023-0.359-0.07c-0.112-0.049-0.208-0.113-0.288-0.193
				s-0.144-0.174-0.188-0.285C26.494,218.306,26.472,218.187,26.472,218.06z M26.699,225.421v-3.199c0-0.363,0.019-0.721,0.055-1.07
				c0.035-0.35,0.084-0.721,0.144-1.113h1.002c0.06,0.393,0.106,0.764,0.142,1.113c0.033,0.35,0.051,0.707,0.051,1.07v3.199H26.699z
				"/>
			<path fill="#00BEBE" d="M35.447,214.735v1.283h-3.852v2.568h3.252v1.289h-3.252v3.535h-1.621v-8.676H35.447z"/>
			<path fill="#00BEBE" d="M36.047,223.411v-6.156h0.871c0.151,0,0.258,0.027,0.317,0.08c0.06,0.055,0.101,0.152,0.12,0.291
				l0.084,0.697c0.195-0.369,0.426-0.658,0.689-0.867c0.265-0.211,0.576-0.314,0.937-0.314c0.284,0,0.513,0.061,0.685,0.186
				l-0.097,1.109c-0.021,0.072-0.049,0.123-0.087,0.152c-0.038,0.031-0.089,0.045-0.152,0.045c-0.061,0-0.15-0.01-0.268-0.029
				c-0.118-0.02-0.232-0.029-0.346-0.029c-0.164,0-0.31,0.023-0.438,0.072c-0.128,0.047-0.242,0.115-0.345,0.207
				c-0.103,0.09-0.192,0.197-0.271,0.326s-0.15,0.273-0.219,0.438v3.793H36.047z"/>
			<path fill="#00BEBE" d="M42.971,217.159c0.389,0,0.746,0.063,1.074,0.186s0.61,0.305,0.846,0.543
				c0.236,0.238,0.422,0.529,0.556,0.875c0.134,0.348,0.2,0.742,0.2,1.186c0,0.225-0.023,0.375-0.071,0.453s-0.14,0.117-0.276,0.117
				h-3.81c0.024,0.316,0.08,0.59,0.168,0.818c0.088,0.23,0.204,0.42,0.349,0.57c0.144,0.15,0.314,0.262,0.512,0.336
				c0.199,0.074,0.418,0.111,0.658,0.111c0.239,0,0.446-0.027,0.621-0.084c0.174-0.057,0.325-0.117,0.455-0.186
				c0.131-0.068,0.244-0.131,0.342-0.186c0.099-0.057,0.193-0.084,0.285-0.084c0.124,0,0.217,0.045,0.276,0.137l0.426,0.541
				c-0.164,0.191-0.348,0.354-0.552,0.482c-0.204,0.131-0.417,0.234-0.639,0.313c-0.223,0.078-0.448,0.133-0.678,0.164
				c-0.23,0.033-0.453,0.049-0.67,0.049c-0.428,0-0.826-0.072-1.193-0.213c-0.369-0.143-0.688-0.352-0.961-0.631
				c-0.271-0.277-0.485-0.621-0.642-1.031c-0.155-0.41-0.233-0.885-0.233-1.426c0-0.42,0.067-0.814,0.203-1.184
				c0.137-0.371,0.332-0.693,0.586-0.967s0.563-0.49,0.93-0.65C42.098,217.239,42.512,217.159,42.971,217.159z M43.001,218.22
				c-0.432,0-0.771,0.123-1.014,0.367c-0.244,0.244-0.4,0.59-0.468,1.037h2.796c0-0.191-0.027-0.373-0.081-0.543
				c-0.055-0.17-0.135-0.318-0.243-0.447c-0.108-0.127-0.245-0.229-0.411-0.303S43.221,218.22,43.001,218.22z"/>
			<path fill="#00BEBE" d="M49.379,217.159c0.389,0,0.746,0.063,1.074,0.186s0.61,0.305,0.846,0.543
				c0.236,0.238,0.422,0.529,0.556,0.875c0.134,0.348,0.2,0.742,0.2,1.186c0,0.225-0.023,0.375-0.071,0.453s-0.14,0.117-0.276,0.117
				h-3.81c0.024,0.316,0.08,0.59,0.168,0.818c0.088,0.23,0.204,0.42,0.349,0.57c0.144,0.15,0.314,0.262,0.512,0.336
				c0.199,0.074,0.418,0.111,0.658,0.111c0.239,0,0.446-0.027,0.621-0.084c0.174-0.057,0.325-0.117,0.455-0.186
				c0.131-0.068,0.244-0.131,0.342-0.186c0.099-0.057,0.193-0.084,0.285-0.084c0.124,0,0.217,0.045,0.276,0.137l0.426,0.541
				c-0.164,0.191-0.348,0.354-0.552,0.482c-0.204,0.131-0.417,0.234-0.639,0.313c-0.223,0.078-0.448,0.133-0.678,0.164
				c-0.23,0.033-0.453,0.049-0.67,0.049c-0.428,0-0.826-0.072-1.193-0.213c-0.369-0.143-0.688-0.352-0.961-0.631
				c-0.271-0.277-0.485-0.621-0.642-1.031c-0.155-0.41-0.233-0.885-0.233-1.426c0-0.42,0.067-0.814,0.203-1.184
				c0.137-0.371,0.332-0.693,0.586-0.967s0.563-0.49,0.93-0.65C48.506,217.239,48.92,217.159,49.379,217.159z M49.409,218.22
				c-0.432,0-0.771,0.123-1.014,0.367c-0.244,0.244-0.4,0.59-0.468,1.037h2.796c0-0.191-0.027-0.373-0.081-0.543
				c-0.055-0.17-0.135-0.318-0.243-0.447c-0.108-0.127-0.245-0.229-0.411-0.303S49.629,218.22,49.409,218.22z"/>
			<path fill="#00BEBE" d="M54.665,214.495v8.916h-1.481v-8.916H54.665z"/>
			<path fill="#00BEBE" d="M60.173,223.411c-0.14,0-0.248-0.021-0.323-0.064c-0.076-0.041-0.137-0.125-0.181-0.254l-0.132-0.438
				c-0.156,0.139-0.309,0.262-0.456,0.369c-0.147,0.105-0.302,0.193-0.462,0.266s-0.331,0.127-0.514,0.162
				c-0.182,0.037-0.383,0.055-0.603,0.055c-0.26,0-0.5-0.035-0.72-0.105c-0.221-0.07-0.41-0.174-0.57-0.314
				s-0.283-0.314-0.372-0.521c-0.088-0.209-0.132-0.451-0.132-0.727c0-0.232,0.061-0.461,0.184-0.688
				c0.121-0.227,0.324-0.43,0.608-0.611s0.662-0.334,1.134-0.453c0.473-0.121,1.061-0.188,1.764-0.205v-0.359
				c0-0.412-0.088-0.717-0.264-0.914c-0.176-0.199-0.43-0.297-0.762-0.297c-0.24,0-0.439,0.027-0.598,0.084
				c-0.157,0.055-0.297,0.119-0.416,0.188c-0.12,0.07-0.229,0.133-0.327,0.189c-0.099,0.057-0.207,0.084-0.327,0.084
				c-0.104,0-0.191-0.027-0.264-0.08c-0.072-0.055-0.131-0.117-0.174-0.189l-0.265-0.475c0.708-0.648,1.56-0.971,2.556-0.971
				c0.36,0,0.683,0.059,0.967,0.176c0.283,0.119,0.523,0.283,0.72,0.492c0.196,0.211,0.345,0.461,0.446,0.754
				c0.103,0.291,0.154,0.611,0.154,0.959v3.889H60.173z M57.959,222.487c0.305,0,0.566-0.055,0.789-0.166
				c0.223-0.109,0.439-0.277,0.65-0.5v-1.039c-0.432,0.02-0.793,0.057-1.082,0.111c-0.291,0.055-0.523,0.123-0.699,0.207
				s-0.303,0.182-0.378,0.295c-0.076,0.111-0.114,0.232-0.114,0.365c0,0.26,0.077,0.445,0.23,0.559
				C57.51,222.431,57.711,222.487,57.959,222.487z"/>
			<path fill="#00BEBE" d="M62.236,223.411v-6.156h0.906c0.192,0,0.318,0.09,0.379,0.27l0.102,0.486
				c0.123-0.129,0.255-0.244,0.393-0.348c0.139-0.104,0.284-0.195,0.438-0.27c0.153-0.076,0.319-0.135,0.495-0.176
				c0.176-0.039,0.367-0.059,0.576-0.059c0.336,0,0.633,0.057,0.894,0.17c0.26,0.115,0.478,0.275,0.651,0.48
				c0.174,0.207,0.306,0.451,0.396,0.738c0.09,0.285,0.136,0.602,0.136,0.945v3.918h-1.482v-3.918c0-0.377-0.086-0.668-0.258-0.873
				c-0.172-0.207-0.435-0.309-0.787-0.309c-0.256,0-0.496,0.057-0.719,0.174c-0.225,0.115-0.437,0.273-0.637,0.473v4.453H62.236z"/>
			<path fill="#00BEBE" d="M73.415,218.558c-0.044,0.055-0.087,0.1-0.129,0.131c-0.042,0.033-0.103,0.049-0.183,0.049
				c-0.076,0-0.15-0.023-0.223-0.07c-0.072-0.045-0.158-0.098-0.258-0.156c-0.1-0.057-0.219-0.109-0.357-0.154
				c-0.138-0.047-0.309-0.07-0.513-0.07c-0.261,0-0.488,0.047-0.685,0.141c-0.195,0.096-0.358,0.23-0.488,0.406
				c-0.131,0.176-0.227,0.389-0.291,0.639s-0.096,0.533-0.096,0.85c0,0.328,0.035,0.619,0.104,0.875s0.171,0.471,0.304,0.645
				c0.131,0.176,0.291,0.307,0.479,0.396s0.399,0.135,0.636,0.135s0.428-0.029,0.573-0.086c0.146-0.059,0.269-0.123,0.369-0.193
				c0.1-0.068,0.187-0.133,0.261-0.191s0.156-0.086,0.249-0.086c0.12,0,0.21,0.045,0.271,0.137l0.426,0.541
				c-0.164,0.191-0.342,0.354-0.534,0.482c-0.192,0.131-0.392,0.234-0.597,0.313c-0.207,0.078-0.418,0.133-0.637,0.164
				c-0.218,0.033-0.435,0.049-0.65,0.049c-0.381,0-0.738-0.072-1.074-0.213c-0.336-0.143-0.63-0.35-0.883-0.621
				c-0.252-0.271-0.45-0.605-0.596-1c-0.146-0.393-0.22-0.842-0.22-1.346c0-0.453,0.065-0.871,0.195-1.258s0.321-0.721,0.573-1.002
				s0.563-0.502,0.936-0.662s0.8-0.24,1.284-0.24c0.46,0,0.862,0.074,1.209,0.221c0.346,0.148,0.657,0.361,0.933,0.637
				L73.415,218.558z"/>
			<path fill="#00BEBE" d="M77.303,217.159c0.389,0,0.746,0.063,1.074,0.186s0.61,0.305,0.846,0.543
				c0.236,0.238,0.422,0.529,0.556,0.875c0.134,0.348,0.2,0.742,0.2,1.186c0,0.225-0.023,0.375-0.071,0.453s-0.14,0.117-0.276,0.117
				h-3.81c0.024,0.316,0.08,0.59,0.168,0.818c0.088,0.23,0.204,0.42,0.349,0.57c0.144,0.15,0.314,0.262,0.512,0.336
				c0.199,0.074,0.418,0.111,0.658,0.111c0.239,0,0.446-0.027,0.621-0.084c0.174-0.057,0.325-0.117,0.455-0.186
				c0.131-0.068,0.244-0.131,0.342-0.186c0.099-0.057,0.193-0.084,0.285-0.084c0.124,0,0.217,0.045,0.276,0.137l0.426,0.541
				c-0.164,0.191-0.348,0.354-0.552,0.482c-0.204,0.131-0.417,0.234-0.639,0.313c-0.223,0.078-0.448,0.133-0.678,0.164
				c-0.23,0.033-0.453,0.049-0.67,0.049c-0.428,0-0.826-0.072-1.193-0.213c-0.369-0.143-0.688-0.352-0.961-0.631
				c-0.271-0.277-0.485-0.621-0.642-1.031c-0.155-0.41-0.233-0.885-0.233-1.426c0-0.42,0.067-0.814,0.203-1.184
				c0.137-0.371,0.332-0.693,0.586-0.967s0.563-0.49,0.93-0.65C76.43,217.239,76.844,217.159,77.303,217.159z M77.333,218.22
				c-0.432,0-0.771,0.123-1.014,0.367c-0.244,0.244-0.4,0.59-0.468,1.037h2.796c0-0.191-0.027-0.373-0.081-0.543
				c-0.055-0.17-0.135-0.318-0.243-0.447c-0.108-0.127-0.245-0.229-0.411-0.303S77.553,218.22,77.333,218.22z"/>
			<path fill="#00BEBE" d="M81.119,222.595c0-0.123,0.023-0.242,0.068-0.354c0.047-0.113,0.11-0.209,0.192-0.289
				s0.179-0.143,0.291-0.191s0.231-0.072,0.36-0.072c0.123,0,0.242,0.023,0.354,0.072c0.112,0.049,0.209,0.111,0.291,0.191
				s0.146,0.176,0.195,0.289c0.048,0.111,0.072,0.23,0.072,0.354c0,0.129-0.024,0.246-0.072,0.357
				c-0.049,0.109-0.113,0.205-0.195,0.285s-0.179,0.143-0.291,0.188c-0.111,0.047-0.23,0.07-0.354,0.07
				c-0.129,0-0.248-0.023-0.36-0.07c-0.112-0.045-0.209-0.107-0.291-0.188s-0.146-0.176-0.192-0.285
				C81.143,222.841,81.119,222.724,81.119,222.595z M82.745,214.735v3.432c0,0.363-0.019,0.721-0.054,1.07
				c-0.037,0.35-0.082,0.721-0.139,1.113h-1.008c-0.057-0.393-0.102-0.764-0.139-1.113c-0.035-0.35-0.053-0.707-0.053-1.07v-3.432
				H82.745z"/>
		</g>
	</g>
	<g>
		<g>
			<path fill="#FFFFFF" d="M9.983,50.211h1.83v-5.718c0-0.176,0.006-0.358,0.019-0.546l-1.482,1.266
				c-0.057,0.044-0.111,0.072-0.165,0.084s-0.104,0.014-0.153,0.003c-0.048-0.01-0.092-0.026-0.132-0.051S9.83,45.2,9.81,45.171
				l-0.354-0.498l2.574-2.22h0.924v7.758h1.674v0.87H9.983V50.211z"/>
			<path fill="#FFFFFF" d="M16.104,50.391c0-0.107,0.02-0.209,0.061-0.303c0.039-0.094,0.094-0.177,0.161-0.249
				c0.068-0.072,0.15-0.128,0.246-0.168c0.097-0.04,0.198-0.06,0.306-0.06c0.108,0,0.209,0.02,0.304,0.06
				c0.094,0.04,0.176,0.096,0.245,0.168c0.07,0.072,0.125,0.155,0.166,0.249c0.039,0.094,0.06,0.195,0.06,0.303
				c0,0.112-0.021,0.216-0.06,0.31c-0.041,0.094-0.096,0.176-0.166,0.246c-0.069,0.069-0.151,0.125-0.245,0.165
				c-0.095,0.04-0.195,0.06-0.304,0.06c-0.107,0-0.209-0.02-0.306-0.06c-0.096-0.04-0.178-0.096-0.246-0.165
				c-0.067-0.07-0.122-0.152-0.161-0.246C16.123,50.607,16.104,50.503,16.104,50.391z"/>
			<path fill="#FFFFFF" d="M29.902,46.774c0,0.644-0.103,1.23-0.309,1.761s-0.496,0.983-0.869,1.362
				c-0.375,0.378-0.824,0.67-1.348,0.876s-1.104,0.309-1.74,0.309h-3.228v-8.61h3.228c0.637,0,1.217,0.104,1.74,0.313
				s0.973,0.5,1.348,0.876c0.373,0.376,0.663,0.829,0.869,1.358C29.8,45.548,29.902,46.133,29.902,46.774z M28.637,46.774
				c0-0.517-0.07-0.979-0.21-1.39s-0.341-0.756-0.603-1.038c-0.262-0.281-0.578-0.498-0.948-0.647
				c-0.37-0.15-0.783-0.226-1.239-0.226H23.65v6.606h1.986c0.456,0,0.869-0.075,1.239-0.225c0.37-0.15,0.687-0.366,0.948-0.648
				s0.463-0.628,0.603-1.038S28.637,47.293,28.637,46.774z"/>
			<path fill="#FFFFFF" d="M33.719,44.896c0.369,0,0.709,0.061,1.021,0.183s0.582,0.299,0.81,0.531
				c0.229,0.231,0.406,0.517,0.535,0.854c0.127,0.338,0.191,0.726,0.191,1.161c0,0.176-0.02,0.294-0.057,0.354
				c-0.039,0.06-0.109,0.09-0.213,0.09h-4.021c0.013,0.372,0.065,0.695,0.159,0.972s0.222,0.505,0.384,0.688
				c0.162,0.182,0.356,0.317,0.585,0.407s0.482,0.136,0.762,0.136c0.265,0,0.491-0.03,0.682-0.091
				c0.189-0.06,0.354-0.126,0.492-0.197c0.138-0.072,0.254-0.139,0.351-0.198c0.097-0.061,0.181-0.09,0.252-0.09
				c0.097,0,0.166,0.036,0.21,0.107l0.324,0.414c-0.141,0.168-0.303,0.312-0.486,0.43c-0.184,0.117-0.382,0.216-0.594,0.294
				c-0.212,0.077-0.432,0.135-0.657,0.171S34,51.166,33.779,51.166c-0.42,0-0.809-0.071-1.167-0.213s-0.667-0.35-0.927-0.624
				s-0.463-0.614-0.609-1.021c-0.146-0.405-0.219-0.873-0.219-1.4c0-0.424,0.066-0.819,0.198-1.186
				c0.132-0.365,0.321-0.684,0.567-0.954c0.246-0.27,0.545-0.482,0.899-0.639S33.275,44.896,33.719,44.896z M33.737,45.73
				c-0.5,0-0.894,0.145-1.179,0.435c-0.286,0.29-0.465,0.691-0.537,1.203h3.234c0-0.24-0.035-0.46-0.103-0.66
				s-0.167-0.372-0.297-0.516c-0.13-0.145-0.289-0.257-0.478-0.339C34.191,45.771,33.978,45.73,33.737,45.73z"/>
			<path fill="#FFFFFF" d="M37.883,51.082v-5.148l-0.647-0.077c-0.092-0.017-0.165-0.048-0.219-0.094s-0.081-0.11-0.081-0.194
				v-0.475h0.947v-0.306c0-0.372,0.06-0.715,0.178-1.029c0.117-0.313,0.294-0.583,0.527-0.807c0.234-0.224,0.529-0.399,0.883-0.525
				s0.765-0.188,1.232-0.188c0.152,0,0.311,0.01,0.475,0.029c0.164,0.021,0.304,0.049,0.42,0.084l-0.036,0.601
				c-0.004,0.04-0.019,0.069-0.045,0.087s-0.062,0.03-0.108,0.036c-0.046,0.006-0.101,0.008-0.164,0.006
				c-0.064-0.002-0.137-0.003-0.217-0.003c-0.359,0-0.669,0.036-0.927,0.107c-0.259,0.072-0.47,0.182-0.636,0.327
				c-0.166,0.146-0.287,0.328-0.363,0.546c-0.076,0.219-0.114,0.474-0.114,0.766v0.27h3.696v5.988h-1.135v-5.16h-2.525v5.16H37.883z
				"/>
			<path fill="#FFFFFF" d="M44.399,51.082v-6.09h0.685c0.159,0,0.26,0.076,0.299,0.228l0.084,0.63
				c0.265-0.283,0.559-0.514,0.883-0.689s0.697-0.264,1.121-0.264c0.332,0,0.625,0.056,0.879,0.168
				c0.255,0.111,0.468,0.269,0.64,0.471s0.302,0.444,0.39,0.726c0.088,0.282,0.133,0.596,0.133,0.939v3.882h-1.141V47.2
				c0-0.44-0.102-0.783-0.306-1.029s-0.515-0.369-0.931-0.369c-0.308,0-0.594,0.072-0.857,0.216
				c-0.264,0.145-0.51,0.343-0.738,0.595v4.47H44.399z"/>
			<path fill="#FFFFFF" d="M53.621,44.896c0.368,0,0.708,0.061,1.02,0.183c0.313,0.122,0.582,0.299,0.811,0.531
				c0.229,0.231,0.406,0.517,0.534,0.854s0.192,0.726,0.192,1.161c0,0.176-0.02,0.294-0.058,0.354
				c-0.038,0.06-0.108,0.09-0.213,0.09h-4.021c0.013,0.372,0.065,0.695,0.16,0.972c0.094,0.276,0.221,0.505,0.383,0.688
				c0.162,0.182,0.357,0.317,0.586,0.407c0.228,0.09,0.481,0.136,0.762,0.136c0.264,0,0.49-0.03,0.682-0.091
				c0.189-0.06,0.354-0.126,0.491-0.197c0.138-0.072,0.255-0.139,0.351-0.198c0.097-0.061,0.181-0.09,0.252-0.09
				c0.097,0,0.166,0.036,0.211,0.107l0.324,0.414c-0.141,0.168-0.303,0.312-0.486,0.43c-0.184,0.117-0.383,0.216-0.594,0.294
				c-0.213,0.077-0.432,0.135-0.658,0.171c-0.226,0.036-0.448,0.054-0.668,0.054c-0.42,0-0.81-0.071-1.168-0.213
				c-0.357-0.142-0.666-0.35-0.926-0.624c-0.261-0.274-0.464-0.614-0.609-1.021c-0.146-0.405-0.219-0.873-0.219-1.4
				c0-0.424,0.065-0.819,0.197-1.186c0.133-0.365,0.321-0.684,0.567-0.954c0.246-0.27,0.546-0.482,0.899-0.639
				C52.778,44.973,53.178,44.896,53.621,44.896z M53.639,45.73c-0.5,0-0.893,0.145-1.178,0.435c-0.287,0.29-0.466,0.691-0.537,1.203
				h3.233c0-0.24-0.034-0.46-0.103-0.66c-0.067-0.2-0.166-0.372-0.297-0.516c-0.129-0.145-0.289-0.257-0.477-0.339
				S53.879,45.73,53.639,45.73z"/>
			<path fill="#FFFFFF" d="M62.393,51.177c-0.488,0-0.863-0.136-1.127-0.407c-0.265-0.272-0.396-0.664-0.396-1.177v-3.672h-0.715
				c-0.067,0-0.123-0.021-0.168-0.063c-0.043-0.042-0.065-0.104-0.065-0.184v-0.456l0.99-0.132l0.258-1.842
				c0.017-0.064,0.046-0.115,0.09-0.153s0.103-0.057,0.175-0.057h0.575v2.058h1.734v0.828h-1.734v3.594
				c0,0.244,0.06,0.428,0.177,0.55c0.118,0.122,0.273,0.183,0.465,0.183c0.108,0,0.203-0.014,0.283-0.042
				c0.079-0.028,0.147-0.06,0.203-0.096c0.057-0.036,0.105-0.068,0.147-0.097c0.042-0.027,0.079-0.042,0.11-0.042
				c0.037,0,0.065,0.009,0.088,0.024c0.021,0.016,0.045,0.044,0.068,0.084l0.336,0.546c-0.191,0.176-0.419,0.313-0.681,0.408
				C62.943,51.129,62.673,51.177,62.393,51.177z"/>
			<path fill="#FFFFFF" d="M65.903,44.992v3.882c0,0.44,0.102,0.783,0.306,1.029s0.514,0.369,0.93,0.369
				c0.305,0,0.59-0.071,0.855-0.214c0.266-0.142,0.514-0.339,0.741-0.591v-4.476h1.14v6.09h-0.684c-0.16,0-0.26-0.076-0.301-0.228
				l-0.09-0.631c-0.264,0.284-0.557,0.515-0.879,0.69s-0.695,0.264-1.119,0.264c-0.336,0-0.631-0.056-0.885-0.168
				c-0.254-0.111-0.466-0.269-0.636-0.471c-0.171-0.202-0.3-0.444-0.388-0.726c-0.088-0.282-0.131-0.596-0.131-0.939v-3.882H65.903z
				"/>
			<path fill="#FFFFFF" d="M74.566,53.127v-8.136h0.685c0.159,0,0.26,0.076,0.3,0.228l0.096,0.696
				c0.256-0.308,0.551-0.557,0.885-0.747c0.334-0.189,0.717-0.285,1.149-0.285c0.349,0,0.663,0.067,0.945,0.201
				s0.524,0.333,0.726,0.597c0.202,0.265,0.357,0.59,0.465,0.976c0.108,0.386,0.162,0.831,0.162,1.335
				c0,0.452-0.06,0.871-0.18,1.257s-0.294,0.721-0.521,1.005c-0.229,0.284-0.504,0.507-0.828,0.669s-0.69,0.243-1.099,0.243
				c-0.372,0-0.688-0.06-0.948-0.18s-0.492-0.292-0.695-0.517v2.658H74.566z M77.309,45.801c-0.344,0-0.643,0.077-0.896,0.231
				s-0.489,0.373-0.705,0.657v2.909c0.191,0.252,0.4,0.43,0.627,0.531c0.226,0.103,0.479,0.153,0.759,0.153
				c0.548,0,0.97-0.196,1.267-0.588c0.295-0.393,0.443-0.96,0.443-1.704c0-0.388-0.034-0.72-0.102-0.996
				c-0.068-0.276-0.166-0.503-0.295-0.681c-0.127-0.179-0.283-0.309-0.467-0.391C77.755,45.842,77.545,45.801,77.309,45.801z"/>
			<path fill="#FFFFFF" d="M83.824,44.896c0.368,0,0.708,0.061,1.02,0.183c0.313,0.122,0.582,0.299,0.811,0.531
				c0.229,0.231,0.406,0.517,0.534,0.854s0.192,0.726,0.192,1.161c0,0.176-0.02,0.294-0.058,0.354
				c-0.038,0.06-0.108,0.09-0.213,0.09H82.09c0.013,0.372,0.065,0.695,0.16,0.972c0.094,0.276,0.221,0.505,0.383,0.688
				c0.162,0.182,0.357,0.317,0.586,0.407c0.228,0.09,0.481,0.136,0.762,0.136c0.264,0,0.49-0.03,0.682-0.091
				c0.189-0.06,0.354-0.126,0.491-0.197c0.138-0.072,0.255-0.139,0.351-0.198c0.097-0.061,0.181-0.09,0.252-0.09
				c0.097,0,0.166,0.036,0.211,0.107l0.324,0.414c-0.141,0.168-0.303,0.312-0.486,0.43c-0.184,0.117-0.383,0.216-0.594,0.294
				c-0.213,0.077-0.432,0.135-0.658,0.171c-0.226,0.036-0.448,0.054-0.668,0.054c-0.42,0-0.81-0.071-1.168-0.213
				c-0.357-0.142-0.666-0.35-0.926-0.624c-0.261-0.274-0.464-0.614-0.609-1.021c-0.146-0.405-0.219-0.873-0.219-1.4
				c0-0.424,0.065-0.819,0.197-1.186c0.133-0.365,0.321-0.684,0.567-0.954c0.246-0.27,0.546-0.482,0.899-0.639
				C82.981,44.973,83.381,44.896,83.824,44.896z M83.842,45.73c-0.5,0-0.893,0.145-1.178,0.435c-0.287,0.29-0.466,0.691-0.537,1.203
				h3.233c0-0.24-0.034-0.46-0.103-0.66c-0.067-0.2-0.166-0.372-0.297-0.516c-0.129-0.145-0.289-0.257-0.477-0.339
				S84.082,45.73,83.842,45.73z"/>
			<path fill="#FFFFFF" d="M87.658,51.082v-6.09h0.654c0.124,0,0.209,0.021,0.255,0.065c0.046,0.045,0.077,0.124,0.093,0.24
				l0.072,0.888c0.192-0.403,0.428-0.722,0.708-0.953c0.28-0.232,0.616-0.349,1.009-0.349c0.131,0,0.256,0.015,0.375,0.042
				c0.117,0.028,0.221,0.072,0.309,0.132l-0.078,0.853c-0.023,0.107-0.088,0.162-0.191,0.162c-0.057,0-0.14-0.013-0.25-0.036
				C90.504,46.011,90.383,46,90.25,46c-0.188,0-0.354,0.028-0.5,0.084c-0.146,0.056-0.277,0.138-0.394,0.246s-0.219,0.24-0.31,0.396
				c-0.09,0.156-0.172,0.335-0.248,0.534v3.822H87.658z"/>
			<path fill="#FFFFFF" d="M92.452,51.082v-5.148l-0.647-0.077c-0.092-0.017-0.166-0.048-0.219-0.094
				c-0.055-0.046-0.082-0.11-0.082-0.194v-0.475h0.948v-0.306c0-0.372,0.06-0.715,0.177-1.029c0.118-0.313,0.295-0.583,0.528-0.807
				s0.528-0.399,0.882-0.525s0.766-0.188,1.233-0.188c0.151,0,0.31,0.01,0.474,0.029c0.164,0.021,0.305,0.049,0.42,0.084
				l-0.035,0.601c-0.004,0.04-0.02,0.069-0.045,0.087c-0.027,0.018-0.063,0.03-0.108,0.036s-0.101,0.008-0.165,0.006
				s-0.137-0.003-0.217-0.003c-0.359,0-0.668,0.036-0.926,0.107c-0.259,0.072-0.471,0.182-0.637,0.327
				c-0.166,0.146-0.287,0.328-0.363,0.546c-0.076,0.219-0.113,0.474-0.113,0.766v0.27h3.695v5.988h-1.134v-5.16h-2.526v5.16H92.452z
				"/>
			<path fill="#FFFFFF" d="M100.139,42.232v8.85h-1.141v-8.85H100.139z"/>
		</g>
	</g>
	<g>
		<g>
			<path fill="#FFFFFF" d="M3.006,123.841c0.372,0,0.717,0.055,1.032,0.166c0.315,0.109,0.59,0.268,0.821,0.473
				c0.232,0.207,0.414,0.459,0.547,0.758c0.132,0.297,0.197,0.635,0.197,1.01c0,0.32-0.047,0.617-0.141,0.891
				c-0.094,0.275-0.222,0.535-0.384,0.783s-0.351,0.49-0.563,0.727c-0.215,0.236-0.441,0.475-0.682,0.715l-2.214,2.256
				c0.164-0.045,0.33-0.08,0.498-0.109c0.168-0.027,0.327-0.041,0.479-0.041H5.37c0.124,0,0.222,0.035,0.294,0.107
				s0.107,0.166,0.107,0.281v0.691H0v-0.391c0-0.08,0.018-0.162,0.051-0.248c0.034-0.086,0.088-0.164,0.159-0.232l2.729-2.748
				c0.229-0.23,0.435-0.453,0.619-0.666c0.184-0.211,0.342-0.424,0.474-0.635c0.132-0.213,0.233-0.428,0.303-0.646
				c0.07-0.217,0.104-0.449,0.104-0.697c0-0.244-0.037-0.459-0.113-0.643s-0.182-0.338-0.314-0.463
				c-0.135-0.123-0.293-0.215-0.478-0.275s-0.382-0.09-0.595-0.09c-0.211,0-0.405,0.031-0.582,0.094
				c-0.176,0.061-0.332,0.146-0.471,0.258c-0.138,0.109-0.254,0.24-0.348,0.389c-0.094,0.15-0.161,0.316-0.201,0.496
				c-0.052,0.148-0.121,0.246-0.207,0.297c-0.086,0.049-0.207,0.063-0.363,0.039l-0.6-0.107c0.061-0.396,0.171-0.746,0.333-1.051
				s0.367-0.559,0.615-0.766c0.248-0.205,0.532-0.361,0.853-0.465C2.288,123.894,2.635,123.841,3.006,123.841z"/>
			<path fill="#FFFFFF" d="M7.057,131.856c0-0.107,0.02-0.209,0.06-0.303s0.094-0.176,0.161-0.248
				c0.068-0.072,0.15-0.129,0.246-0.168c0.097-0.041,0.199-0.061,0.307-0.061s0.209,0.02,0.303,0.061
				c0.094,0.039,0.176,0.096,0.246,0.168s0.125,0.154,0.165,0.248s0.06,0.195,0.06,0.303c0,0.113-0.02,0.217-0.06,0.311
				s-0.095,0.176-0.165,0.246c-0.07,0.068-0.152,0.125-0.246,0.164c-0.094,0.041-0.195,0.061-0.303,0.061s-0.21-0.02-0.307-0.061
				c-0.096-0.039-0.178-0.096-0.246-0.164c-0.067-0.07-0.121-0.152-0.161-0.246S7.057,131.97,7.057,131.856z"/>
			<path fill="#FFFFFF" d="M19.386,130.724c0.067,0,0.128,0.025,0.18,0.078l0.492,0.539c-0.353,0.412-0.781,0.732-1.287,0.961
				s-1.112,0.342-1.821,0.342c-0.623,0-1.188-0.107-1.695-0.324c-0.506-0.217-0.938-0.518-1.295-0.906
				c-0.358-0.387-0.635-0.852-0.828-1.393c-0.194-0.539-0.291-1.133-0.291-1.781s0.102-1.242,0.306-1.781
				c0.204-0.541,0.492-1.004,0.864-1.389c0.372-0.387,0.816-0.688,1.335-0.904c0.519-0.215,1.089-0.324,1.713-0.324
				c0.612,0,1.155,0.1,1.629,0.301c0.474,0.199,0.888,0.465,1.239,0.797l-0.408,0.576c-0.027,0.041-0.061,0.074-0.1,0.1
				c-0.037,0.025-0.09,0.039-0.158,0.039c-0.076,0-0.165-0.037-0.268-0.113c-0.102-0.076-0.236-0.162-0.401-0.256
				c-0.166-0.094-0.373-0.18-0.621-0.254c-0.248-0.076-0.554-0.115-0.918-0.115c-0.433,0-0.829,0.076-1.19,0.229
				c-0.363,0.152-0.674,0.369-0.934,0.654c-0.26,0.283-0.462,0.631-0.605,1.043c-0.145,0.412-0.217,0.879-0.217,1.398
				c0,0.527,0.075,1,0.225,1.414c0.15,0.412,0.356,0.762,0.619,1.047c0.262,0.283,0.57,0.5,0.926,0.65
				c0.356,0.15,0.738,0.225,1.146,0.225c0.252,0,0.479-0.016,0.678-0.045c0.2-0.029,0.385-0.074,0.555-0.135
				c0.171-0.061,0.33-0.139,0.478-0.234s0.296-0.209,0.444-0.342c0.031-0.027,0.064-0.051,0.099-0.068
				C19.309,130.731,19.346,130.724,19.386,130.724z"/>
			<path fill="#FFFFFF" d="M23.586,126.362c0.447,0,0.852,0.072,1.212,0.219c0.36,0.145,0.666,0.354,0.918,0.627
				c0.252,0.271,0.446,0.6,0.582,0.986s0.204,0.818,0.204,1.299s-0.068,0.914-0.204,1.303c-0.136,0.387-0.33,0.717-0.582,0.99
				c-0.252,0.271-0.558,0.48-0.918,0.627c-0.36,0.145-0.765,0.219-1.212,0.219c-0.448,0-0.854-0.074-1.215-0.219
				c-0.362-0.146-0.67-0.355-0.924-0.627c-0.254-0.273-0.449-0.604-0.586-0.99c-0.135-0.389-0.203-0.822-0.203-1.303
				s0.068-0.912,0.203-1.299c0.137-0.387,0.332-0.715,0.586-0.986c0.254-0.273,0.562-0.482,0.924-0.627
				C22.732,126.435,23.138,126.362,23.586,126.362z M23.586,131.743c0.584,0,1.02-0.195,1.309-0.588
				c0.287-0.393,0.432-0.943,0.432-1.656c0-0.707-0.145-1.26-0.432-1.656c-0.289-0.395-0.725-0.594-1.309-0.594
				c-0.592,0-1.033,0.199-1.323,0.594c-0.29,0.396-0.435,0.949-0.435,1.656c0,0.713,0.145,1.264,0.435,1.656
				S22.994,131.743,23.586,131.743z"/>
			<path fill="#FFFFFF" d="M27.816,132.548v-6.09H28.5c0.16,0,0.26,0.076,0.3,0.227l0.084,0.631
				c0.265-0.283,0.558-0.514,0.882-0.689s0.698-0.264,1.122-0.264c0.332,0,0.625,0.055,0.879,0.168
				c0.255,0.111,0.468,0.268,0.64,0.471c0.172,0.201,0.301,0.443,0.39,0.725c0.088,0.283,0.132,0.596,0.132,0.939v3.883h-1.141
				v-3.883c0-0.439-0.102-0.783-0.305-1.029c-0.205-0.246-0.515-0.369-0.931-0.369c-0.308,0-0.594,0.072-0.858,0.217
				c-0.264,0.145-0.51,0.342-0.738,0.594v4.471H27.816z"/>
			<path fill="#FFFFFF" d="M36.336,132.644c-0.488,0-0.864-0.137-1.128-0.408c-0.265-0.271-0.396-0.664-0.396-1.176v-3.672h-0.715
				c-0.068,0-0.124-0.021-0.168-0.063c-0.044-0.043-0.066-0.104-0.066-0.184v-0.457l0.99-0.131l0.258-1.842
				c0.017-0.064,0.047-0.115,0.09-0.154c0.045-0.037,0.103-0.057,0.175-0.057h0.575v2.059h1.734v0.828h-1.734v3.594
				c0,0.244,0.06,0.428,0.178,0.549c0.117,0.123,0.273,0.184,0.465,0.184c0.107,0,0.202-0.014,0.282-0.043
				c0.079-0.027,0.147-0.059,0.204-0.096c0.056-0.035,0.105-0.068,0.146-0.096c0.043-0.027,0.079-0.043,0.111-0.043
				c0.036,0,0.064,0.01,0.087,0.025s0.045,0.043,0.069,0.084l0.336,0.545c-0.192,0.176-0.42,0.313-0.682,0.408
				S36.615,132.644,36.336,132.644z"/>
			<path fill="#FFFFFF" d="M42.66,132.548c-0.113,0-0.199-0.018-0.259-0.055c-0.06-0.035-0.108-0.105-0.144-0.209l-0.127-0.547
				c-0.155,0.145-0.31,0.273-0.461,0.387c-0.152,0.115-0.312,0.209-0.478,0.285s-0.343,0.135-0.53,0.174
				c-0.188,0.041-0.398,0.061-0.631,0.061c-0.24,0-0.464-0.033-0.672-0.1s-0.389-0.166-0.543-0.303s-0.275-0.305-0.365-0.508
				c-0.091-0.201-0.136-0.439-0.136-0.717c0-0.238,0.065-0.469,0.195-0.689c0.13-0.219,0.342-0.416,0.636-0.59
				c0.294-0.176,0.678-0.318,1.152-0.43c0.474-0.111,1.057-0.176,1.748-0.191v-0.457c0-0.459-0.098-0.807-0.297-1.041
				c-0.197-0.234-0.488-0.352-0.873-0.352c-0.26,0-0.477,0.033-0.65,0.1s-0.324,0.139-0.45,0.217s-0.237,0.148-0.333,0.213
				s-0.191,0.096-0.288,0.096c-0.08,0-0.147-0.021-0.2-0.063c-0.055-0.043-0.102-0.092-0.142-0.148l-0.204-0.371
				c0.34-0.32,0.707-0.561,1.102-0.721c0.394-0.16,0.828-0.24,1.305-0.24c0.344,0,0.65,0.057,0.918,0.168
				c0.268,0.113,0.492,0.27,0.675,0.473c0.183,0.201,0.32,0.443,0.414,0.729c0.094,0.283,0.142,0.598,0.142,0.941v3.889H42.66z
				 M40.373,131.845c0.181,0,0.348-0.018,0.502-0.053c0.153-0.037,0.297-0.088,0.432-0.156c0.134-0.068,0.261-0.15,0.381-0.25
				c0.12-0.098,0.24-0.209,0.359-0.332v-1.225c-0.479,0.016-0.887,0.055-1.223,0.115c-0.337,0.059-0.609,0.137-0.82,0.232
				c-0.209,0.096-0.362,0.211-0.459,0.346c-0.096,0.135-0.144,0.281-0.144,0.441c0,0.156,0.024,0.289,0.075,0.402
				c0.05,0.111,0.119,0.203,0.207,0.271c0.088,0.07,0.191,0.123,0.309,0.156C40.11,131.829,40.237,131.845,40.373,131.845z"/>
			<path fill="#FFFFFF" d="M49.014,127.579c-0.032,0.045-0.065,0.078-0.1,0.102c-0.033,0.025-0.08,0.037-0.141,0.037
				c-0.064,0-0.133-0.025-0.204-0.076c-0.072-0.049-0.16-0.104-0.265-0.162c-0.104-0.057-0.231-0.111-0.383-0.16
				c-0.152-0.051-0.339-0.076-0.559-0.076c-0.292,0-0.55,0.053-0.773,0.156c-0.225,0.104-0.412,0.254-0.562,0.449
				c-0.149,0.197-0.263,0.434-0.339,0.709s-0.114,0.588-0.114,0.936c0,0.359,0.041,0.68,0.123,0.961
				c0.082,0.279,0.198,0.516,0.349,0.707c0.149,0.191,0.332,0.338,0.545,0.438c0.215,0.102,0.453,0.15,0.717,0.15
				c0.257,0,0.467-0.031,0.631-0.092c0.164-0.063,0.3-0.129,0.408-0.201c0.107-0.072,0.199-0.139,0.272-0.201
				c0.074-0.063,0.149-0.094,0.226-0.094c0.096,0,0.168,0.037,0.216,0.107l0.323,0.414c-0.14,0.168-0.295,0.313-0.467,0.434
				c-0.173,0.119-0.357,0.217-0.553,0.293s-0.4,0.133-0.611,0.168c-0.213,0.037-0.429,0.055-0.648,0.055
				c-0.381,0-0.734-0.07-1.063-0.211c-0.328-0.139-0.613-0.344-0.854-0.611c-0.242-0.268-0.433-0.598-0.57-0.986
				c-0.138-0.391-0.207-0.834-0.207-1.33c0-0.451,0.063-0.869,0.188-1.25c0.127-0.383,0.312-0.713,0.556-0.994
				c0.244-0.279,0.545-0.498,0.903-0.654c0.357-0.156,0.769-0.232,1.232-0.232c0.436,0,0.819,0.068,1.149,0.209
				s0.621,0.336,0.873,0.588L49.014,127.579z"/>
			<path fill="#FFFFFF" d="M52.386,132.644c-0.488,0-0.864-0.137-1.128-0.408s-0.396-0.664-0.396-1.176v-3.672h-0.714
				c-0.067,0-0.124-0.021-0.168-0.063c-0.044-0.043-0.065-0.104-0.065-0.184v-0.457l0.99-0.131l0.258-1.842
				c0.016-0.064,0.045-0.115,0.09-0.154c0.043-0.037,0.102-0.057,0.174-0.057h0.576v2.059h1.734v0.828h-1.734v3.594
				c0,0.244,0.059,0.428,0.177,0.549c0.118,0.123,0.272,0.184,0.465,0.184c0.108,0,0.202-0.014,0.282-0.043
				c0.08-0.027,0.148-0.059,0.203-0.096c0.057-0.035,0.105-0.068,0.148-0.096c0.041-0.027,0.078-0.043,0.11-0.043
				c0.036,0,0.065,0.01,0.087,0.025s0.045,0.043,0.068,0.084l0.336,0.545c-0.191,0.176-0.418,0.313-0.68,0.408
				C52.937,132.595,52.666,132.644,52.386,132.644z"/>
			<path fill="#FFFFFF" d="M58.709,132.548c-0.111,0-0.197-0.018-0.258-0.055c-0.061-0.035-0.107-0.105-0.145-0.209l-0.125-0.547
				c-0.156,0.145-0.311,0.273-0.463,0.387c-0.151,0.115-0.311,0.209-0.477,0.285s-0.343,0.135-0.531,0.174
				c-0.188,0.041-0.397,0.061-0.629,0.061c-0.24,0-0.465-0.033-0.673-0.1s-0.39-0.166-0.543-0.303s-0.276-0.305-0.366-0.508
				c-0.09-0.201-0.135-0.439-0.135-0.717c0-0.238,0.064-0.469,0.195-0.689c0.13-0.219,0.342-0.416,0.636-0.59
				c0.294-0.176,0.679-0.318,1.151-0.43c0.475-0.111,1.058-0.176,1.75-0.191v-0.457c0-0.459-0.1-0.807-0.297-1.041
				c-0.198-0.234-0.489-0.352-0.873-0.352c-0.26,0-0.478,0.033-0.651,0.1s-0.324,0.139-0.45,0.217s-0.236,0.148-0.333,0.213
				c-0.096,0.064-0.192,0.096-0.288,0.096c-0.08,0-0.146-0.021-0.201-0.063c-0.054-0.043-0.101-0.092-0.141-0.148l-0.204-0.371
				c0.34-0.32,0.707-0.561,1.101-0.721c0.395-0.16,0.83-0.24,1.306-0.24c0.344,0,0.649,0.057,0.918,0.168
				c0.269,0.113,0.493,0.27,0.675,0.473c0.182,0.201,0.32,0.443,0.414,0.729c0.094,0.283,0.141,0.598,0.141,0.941v3.889H58.709z
				 M56.424,131.845c0.18,0,0.347-0.018,0.5-0.053c0.154-0.037,0.299-0.088,0.433-0.156s0.261-0.15,0.381-0.25
				c0.12-0.098,0.24-0.209,0.36-0.332v-1.225c-0.48,0.016-0.889,0.055-1.225,0.115c-0.336,0.059-0.609,0.137-0.818,0.232
				c-0.211,0.096-0.363,0.211-0.459,0.346s-0.145,0.281-0.145,0.441c0,0.156,0.025,0.289,0.075,0.402
				c0.05,0.111,0.119,0.203,0.207,0.271c0.088,0.07,0.19,0.123,0.31,0.156C56.16,131.829,56.287,131.845,56.424,131.845z"/>
			<path fill="#FFFFFF" d="M67.739,132.548c-0.112,0-0.198-0.018-0.259-0.055c-0.06-0.035-0.107-0.105-0.144-0.209l-0.126-0.547
				c-0.156,0.145-0.311,0.273-0.462,0.387c-0.151,0.115-0.312,0.209-0.478,0.285s-0.342,0.135-0.53,0.174
				c-0.188,0.041-0.397,0.061-0.63,0.061c-0.24,0-0.465-0.033-0.672-0.1c-0.209-0.066-0.39-0.166-0.543-0.303
				c-0.154-0.137-0.276-0.305-0.366-0.508c-0.091-0.201-0.136-0.439-0.136-0.717c0-0.238,0.065-0.469,0.195-0.689
				c0.131-0.219,0.342-0.416,0.637-0.59c0.293-0.176,0.678-0.318,1.151-0.43s1.058-0.176,1.749-0.191v-0.457
				c0-0.459-0.099-0.807-0.297-1.041c-0.197-0.234-0.488-0.352-0.873-0.352c-0.26,0-0.477,0.033-0.65,0.1s-0.324,0.139-0.451,0.217
				c-0.125,0.078-0.236,0.148-0.332,0.213s-0.192,0.096-0.289,0.096c-0.08,0-0.146-0.021-0.2-0.063
				c-0.054-0.043-0.101-0.092-0.142-0.148l-0.203-0.371c0.34-0.32,0.707-0.561,1.101-0.721s0.829-0.24,1.306-0.24
				c0.344,0,0.649,0.057,0.918,0.168c0.268,0.113,0.492,0.27,0.674,0.473c0.183,0.201,0.32,0.443,0.414,0.729
				c0.094,0.283,0.142,0.598,0.142,0.941v3.889H67.739z M65.453,131.845c0.18,0,0.348-0.018,0.501-0.053
				c0.153-0.037,0.298-0.088,0.433-0.156c0.133-0.068,0.26-0.15,0.381-0.25c0.119-0.098,0.24-0.209,0.359-0.332v-1.225
				c-0.48,0.016-0.888,0.055-1.224,0.115c-0.337,0.059-0.609,0.137-0.819,0.232s-0.363,0.211-0.459,0.346s-0.145,0.281-0.145,0.441
				c0,0.156,0.025,0.289,0.076,0.402c0.049,0.111,0.119,0.203,0.207,0.271c0.088,0.07,0.19,0.123,0.309,0.156
				C65.189,131.829,65.316,131.845,65.453,131.845z"/>
			<path fill="#FFFFFF" d="M71.003,123.698v8.85h-1.14v-8.85H71.003z"/>
			<path fill="#FFFFFF" d="M79.99,127.579c-0.031,0.045-0.064,0.078-0.099,0.102c-0.034,0.025-0.081,0.037-0.141,0.037
				c-0.063,0-0.132-0.025-0.204-0.076c-0.072-0.049-0.16-0.104-0.264-0.162c-0.104-0.057-0.232-0.111-0.385-0.16
				c-0.152-0.051-0.338-0.076-0.558-0.076c-0.292,0-0.55,0.053-0.774,0.156c-0.224,0.104-0.41,0.254-0.561,0.449
				c-0.15,0.197-0.264,0.434-0.339,0.709c-0.076,0.275-0.114,0.588-0.114,0.936c0,0.359,0.041,0.68,0.123,0.961
				c0.082,0.279,0.198,0.516,0.348,0.707c0.15,0.191,0.332,0.338,0.547,0.438c0.213,0.102,0.453,0.15,0.717,0.15
				c0.256,0,0.466-0.031,0.63-0.092c0.163-0.063,0.3-0.129,0.407-0.201c0.108-0.072,0.199-0.139,0.273-0.201
				s0.148-0.094,0.225-0.094c0.097,0,0.168,0.037,0.217,0.107l0.324,0.414c-0.141,0.168-0.297,0.313-0.469,0.434
				c-0.172,0.119-0.355,0.217-0.552,0.293s-0.399,0.133-0.612,0.168c-0.212,0.037-0.428,0.055-0.647,0.055
				c-0.38,0-0.734-0.07-1.062-0.211c-0.328-0.139-0.613-0.344-0.855-0.611s-0.432-0.598-0.57-0.986
				c-0.138-0.391-0.207-0.834-0.207-1.33c0-0.451,0.063-0.869,0.189-1.25c0.125-0.383,0.311-0.713,0.555-0.994
				c0.244-0.279,0.545-0.498,0.902-0.654c0.358-0.156,0.77-0.232,1.234-0.232c0.436,0,0.818,0.068,1.148,0.209
				s0.621,0.336,0.873,0.588L79.99,127.579z"/>
			<path fill="#FFFFFF" d="M82.637,123.698v8.85h-1.141v-8.85H82.637z"/>
			<path fill="#FFFFFF" d="M85.738,124.567c0,0.107-0.021,0.209-0.063,0.303s-0.1,0.178-0.174,0.25
				c-0.074,0.07-0.16,0.129-0.258,0.17c-0.099,0.043-0.201,0.063-0.31,0.063c-0.104,0-0.203-0.02-0.297-0.063
				c-0.095-0.041-0.177-0.1-0.249-0.17c-0.072-0.072-0.129-0.156-0.171-0.25s-0.063-0.195-0.063-0.303s0.021-0.211,0.063-0.309
				s0.099-0.184,0.171-0.256s0.154-0.129,0.249-0.17c0.094-0.043,0.192-0.064,0.297-0.064c0.108,0,0.211,0.021,0.31,0.064
				c0.098,0.041,0.184,0.098,0.258,0.17s0.132,0.158,0.174,0.256S85.738,124.46,85.738,124.567z M85.517,126.458v6.09h-1.14v-6.09
				H85.517z"/>
			<path fill="#FFFFFF" d="M89.74,126.362c0.368,0,0.708,0.061,1.02,0.182c0.313,0.123,0.582,0.299,0.811,0.531
				s0.406,0.518,0.534,0.855s0.192,0.725,0.192,1.16c0,0.176-0.02,0.295-0.058,0.355c-0.038,0.059-0.108,0.09-0.213,0.09h-4.021
				c0.013,0.371,0.065,0.695,0.16,0.971c0.094,0.277,0.221,0.506,0.383,0.688s0.357,0.318,0.586,0.408
				c0.228,0.09,0.481,0.135,0.762,0.135c0.264,0,0.49-0.029,0.682-0.09c0.189-0.061,0.354-0.127,0.491-0.197
				c0.138-0.072,0.255-0.139,0.351-0.199c0.097-0.061,0.181-0.09,0.252-0.09c0.097,0,0.166,0.037,0.211,0.107l0.324,0.414
				c-0.141,0.168-0.303,0.313-0.486,0.43s-0.383,0.217-0.594,0.295c-0.213,0.076-0.432,0.135-0.658,0.17
				c-0.226,0.037-0.448,0.055-0.668,0.055c-0.42,0-0.81-0.072-1.168-0.213c-0.357-0.143-0.666-0.35-0.926-0.625
				c-0.261-0.273-0.464-0.613-0.609-1.02c-0.146-0.406-0.219-0.873-0.219-1.4c0-0.424,0.065-0.82,0.197-1.186
				c0.133-0.365,0.321-0.684,0.567-0.955c0.246-0.27,0.546-0.482,0.899-0.639C88.897,126.438,89.297,126.362,89.74,126.362z
				 M89.758,127.196c-0.5,0-0.893,0.145-1.178,0.434c-0.287,0.291-0.466,0.691-0.537,1.203h3.233c0-0.24-0.034-0.459-0.103-0.66
				c-0.067-0.199-0.166-0.371-0.297-0.516c-0.129-0.145-0.289-0.256-0.477-0.338S89.998,127.196,89.758,127.196z"/>
			<path fill="#FFFFFF" d="M93.574,132.548v-6.09h0.685c0.159,0,0.26,0.076,0.3,0.227l0.084,0.631
				c0.264-0.283,0.559-0.514,0.882-0.689c0.324-0.176,0.698-0.264,1.122-0.264c0.332,0,0.625,0.055,0.879,0.168
				c0.254,0.111,0.467,0.268,0.639,0.471c0.172,0.201,0.303,0.443,0.391,0.725c0.088,0.283,0.132,0.596,0.132,0.939v3.883h-1.14
				v-3.883c0-0.439-0.102-0.783-0.307-1.029c-0.203-0.246-0.514-0.369-0.93-0.369c-0.309,0-0.594,0.072-0.857,0.217
				c-0.265,0.145-0.511,0.342-0.738,0.594v4.471H93.574z"/>
			<path fill="#FFFFFF" d="M102.095,132.644c-0.488,0-0.864-0.137-1.128-0.408s-0.396-0.664-0.396-1.176v-3.672h-0.714
				c-0.067,0-0.124-0.021-0.168-0.063c-0.044-0.043-0.065-0.104-0.065-0.184v-0.457l0.99-0.131l0.258-1.842
				c0.016-0.064,0.045-0.115,0.09-0.154c0.043-0.037,0.102-0.057,0.174-0.057h0.576v2.059h1.734v0.828h-1.734v3.594
				c0,0.244,0.059,0.428,0.177,0.549c0.118,0.123,0.272,0.184,0.465,0.184c0.108,0,0.202-0.014,0.282-0.043
				c0.08-0.027,0.148-0.059,0.203-0.096c0.057-0.035,0.105-0.068,0.148-0.096c0.041-0.027,0.078-0.043,0.11-0.043
				c0.036,0,0.065,0.01,0.087,0.025s0.045,0.043,0.068,0.084l0.336,0.545c-0.191,0.176-0.418,0.313-0.68,0.408
				C102.646,132.595,102.375,132.644,102.095,132.644z"/>
			<path fill="#FFFFFF" d="M107.038,126.362c0.368,0,0.708,0.061,1.021,0.182c0.312,0.123,0.582,0.299,0.81,0.531
				s0.406,0.518,0.534,0.855s0.191,0.725,0.191,1.16c0,0.176-0.019,0.295-0.057,0.355c-0.038,0.059-0.109,0.09-0.213,0.09h-4.02
				c0.012,0.371,0.064,0.695,0.158,0.971c0.094,0.277,0.223,0.506,0.385,0.688s0.356,0.318,0.584,0.408
				c0.229,0.09,0.482,0.135,0.763,0.135c0.265,0,0.491-0.029,0.681-0.09c0.19-0.061,0.354-0.127,0.492-0.197
				c0.139-0.072,0.255-0.139,0.352-0.199c0.096-0.061,0.18-0.09,0.252-0.09c0.096,0,0.166,0.037,0.209,0.107l0.324,0.414
				c-0.14,0.168-0.302,0.313-0.486,0.43c-0.184,0.117-0.381,0.217-0.594,0.295c-0.211,0.076-0.431,0.135-0.656,0.17
				c-0.227,0.037-0.449,0.055-0.67,0.055c-0.42,0-0.809-0.072-1.166-0.213c-0.358-0.143-0.668-0.35-0.928-0.625
				c-0.26-0.273-0.463-0.613-0.608-1.02c-0.146-0.406-0.22-0.873-0.22-1.4c0-0.424,0.066-0.82,0.199-1.186
				c0.131-0.365,0.32-0.684,0.566-0.955c0.246-0.27,0.546-0.482,0.9-0.639C106.195,126.438,106.594,126.362,107.038,126.362z
				 M107.057,127.196c-0.5,0-0.894,0.145-1.18,0.434c-0.285,0.291-0.465,0.691-0.537,1.203h3.234c0-0.24-0.034-0.459-0.102-0.66
				c-0.068-0.199-0.168-0.371-0.297-0.516c-0.131-0.145-0.289-0.256-0.478-0.338S107.297,127.196,107.057,127.196z"/>
		</g>
	</g>
	<g>
		<circle fill="none" stroke="#00BEBE" stroke-miterlimit="10" cx="54.749" cy="16.869" r="16.37"/>
		<circle fill="none" stroke="#00BEBE" stroke-miterlimit="10" cx="54.748" cy="14.75" r="6.264"/>
		<g>
			<path fill="none" stroke="#00BEBE" stroke-miterlimit="10" d="M54.748,21.016c-5.133,0-9.466,3.413-10.864,8.092
				c2.892,2.568,6.694,4.129,10.864,4.129s7.975-1.561,10.865-4.129C64.216,24.429,59.883,21.016,54.748,21.016z"/>
		</g>
	</g>
	<g>
		<polygon fill="none" stroke="#00BEBE" stroke-miterlimit="10" points="75.975,93.422 51.938,93.422 51.938,109.501 
			65.184,109.501 71.021,114.509 71.266,109.501 75.975,109.501 		"/>
		<polygon fill="none" stroke="#00BEBE" stroke-miterlimit="10" points="57.561,82.159 33.523,82.159 33.523,98.241 37.347,98.241 
			43.186,103.247 43.43,98.241 57.561,98.241 		"/>
	</g>
	<g>
		<circle fill="none" stroke="#00BEBE" stroke-miterlimit="10" cx="54.749" cy="175.12" r="16.369"/>
	</g>
	<polyline fill="none" stroke="#00BEBE" stroke-miterlimit="10" points="45.752,175.802 51.295,181.347 63.746,168.895 	"/>
</g>
</svg>
