<?xml version="1.0" encoding="utf-8"?>
<!-- Generator: Adobe Illustrator 16.0.0, SVG Export Plug-In . SVG Version: 6.00 Build 0)  -->
<!DOCTYPE svg PUBLIC "-//W3C//DTD SVG 1.1//EN" "http://www.w3.org/Graphics/SVG/1.1/DTD/svg11.dtd">
<svg version="1.1" id="Capa_1" xmlns="http://www.w3.org/2000/svg" xmlns:xlink="http://www.w3.org/1999/xlink" x="0px" y="0px"
	 width="124.743px" height="206.625px" viewBox="0 0 124.743 206.625" enable-background="new 0 0 124.743 206.625"
	 xml:space="preserve">
<g>
	<g>
		<path fill="#333333" d="M24.716,183.746c0.371,0,0.712,0.053,1.02,0.158c0.309,0.105,0.573,0.256,0.795,0.451
			c0.223,0.193,0.396,0.426,0.52,0.695c0.123,0.27,0.186,0.568,0.186,0.896c0,0.277-0.033,0.521-0.102,0.736
			c-0.068,0.213-0.166,0.4-0.295,0.561c-0.127,0.16-0.282,0.295-0.465,0.404c-0.182,0.109-0.387,0.201-0.614,0.273
			c0.556,0.152,0.973,0.4,1.251,0.744c0.277,0.344,0.417,0.777,0.417,1.301c0,0.404-0.076,0.766-0.228,1.084
			c-0.152,0.318-0.359,0.588-0.619,0.811c-0.26,0.221-0.564,0.391-0.914,0.51c-0.351,0.117-0.724,0.176-1.119,0.176
			c-0.452,0-0.84-0.055-1.164-0.168c-0.324-0.111-0.6-0.266-0.828-0.465c-0.229-0.197-0.416-0.434-0.564-0.711
			c-0.147-0.275-0.271-0.578-0.371-0.906l0.492-0.209c0.127-0.057,0.252-0.072,0.371-0.049c0.12,0.025,0.208,0.094,0.264,0.211
			c0.057,0.115,0.125,0.25,0.205,0.402s0.186,0.297,0.317,0.434c0.132,0.139,0.299,0.254,0.501,0.35
			c0.202,0.094,0.457,0.141,0.766,0.141c0.291,0,0.547-0.049,0.768-0.145c0.22-0.096,0.402-0.221,0.549-0.371
			c0.146-0.152,0.255-0.322,0.327-0.508c0.071-0.186,0.108-0.371,0.108-0.555c0-0.229-0.029-0.436-0.088-0.625
			c-0.058-0.188-0.166-0.35-0.324-0.486c-0.157-0.135-0.377-0.24-0.659-0.316s-0.647-0.115-1.095-0.115v-0.828
			c0.367-0.004,0.678-0.043,0.933-0.117c0.254-0.072,0.461-0.176,0.621-0.305c0.159-0.131,0.274-0.285,0.345-0.465
			s0.105-0.379,0.105-0.594c0-0.24-0.037-0.449-0.111-0.627c-0.074-0.18-0.178-0.326-0.309-0.445
			c-0.133-0.117-0.289-0.207-0.469-0.266c-0.18-0.061-0.376-0.092-0.588-0.092s-0.406,0.031-0.585,0.094
			c-0.178,0.063-0.336,0.148-0.474,0.258c-0.139,0.111-0.254,0.24-0.348,0.391c-0.095,0.15-0.162,0.314-0.201,0.494
			c-0.057,0.148-0.125,0.248-0.207,0.297c-0.082,0.051-0.201,0.064-0.357,0.039l-0.6-0.107c0.056-0.396,0.166-0.746,0.33-1.051
			c0.164-0.303,0.369-0.559,0.617-0.764c0.248-0.207,0.532-0.361,0.853-0.465C23.997,183.797,24.344,183.746,24.716,183.746z"/>
		<path fill="#333333" d="M28.724,191.762c0-0.107,0.02-0.209,0.061-0.303c0.039-0.094,0.094-0.178,0.161-0.25
			c0.068-0.072,0.15-0.127,0.246-0.168c0.097-0.039,0.198-0.059,0.306-0.059c0.108,0,0.209,0.02,0.304,0.059
			c0.094,0.041,0.176,0.096,0.245,0.168c0.07,0.072,0.125,0.156,0.166,0.25c0.039,0.094,0.06,0.195,0.06,0.303
			c0,0.111-0.021,0.215-0.06,0.309c-0.041,0.094-0.096,0.176-0.166,0.246c-0.069,0.07-0.151,0.125-0.245,0.166
			c-0.095,0.039-0.195,0.059-0.304,0.059c-0.107,0-0.209-0.02-0.306-0.059c-0.096-0.041-0.178-0.096-0.246-0.166
			c-0.067-0.07-0.122-0.152-0.161-0.246C28.743,191.977,28.724,191.873,28.724,191.762z"/>
		<path fill="#333333" d="M40.525,183.842v1.037h-2.755v7.572h-1.235v-7.572h-2.76v-1.037H40.525z"/>
		<path fill="#333333" d="M40.208,192.451v-6.09h0.653c0.124,0,0.209,0.021,0.255,0.066s0.077,0.123,0.094,0.24l0.071,0.887
			c0.192-0.402,0.429-0.721,0.708-0.953c0.28-0.232,0.616-0.348,1.008-0.348c0.133,0,0.258,0.014,0.375,0.041
			c0.118,0.029,0.221,0.072,0.309,0.133l-0.077,0.852c-0.024,0.107-0.089,0.162-0.192,0.162c-0.056,0-0.139-0.012-0.248-0.035
			c-0.111-0.025-0.232-0.037-0.363-0.037c-0.188,0-0.355,0.029-0.502,0.084c-0.146,0.057-0.276,0.139-0.393,0.246
			c-0.115,0.109-0.219,0.24-0.309,0.396s-0.174,0.334-0.25,0.533v3.822H40.208z"/>
		<path fill="#333333" d="M48.392,192.451c-0.112,0-0.198-0.018-0.258-0.053c-0.061-0.037-0.108-0.107-0.145-0.211l-0.126-0.545
			c-0.155,0.143-0.31,0.271-0.462,0.387c-0.152,0.113-0.311,0.209-0.477,0.285s-0.344,0.133-0.531,0.174
			c-0.188,0.039-0.398,0.059-0.63,0.059c-0.24,0-0.464-0.031-0.673-0.098c-0.207-0.066-0.389-0.168-0.543-0.303
			c-0.153-0.137-0.275-0.307-0.365-0.508s-0.135-0.441-0.135-0.717c0-0.24,0.064-0.471,0.195-0.689
			c0.129-0.221,0.342-0.418,0.635-0.592c0.295-0.174,0.679-0.316,1.152-0.43c0.475-0.111,1.057-0.176,1.749-0.191v-0.455
			c0-0.461-0.099-0.809-0.297-1.041c-0.198-0.234-0.489-0.352-0.873-0.352c-0.26,0-0.478,0.033-0.651,0.1
			c-0.174,0.064-0.324,0.137-0.449,0.215c-0.127,0.078-0.237,0.148-0.334,0.213c-0.096,0.064-0.191,0.096-0.287,0.096
			c-0.08,0-0.147-0.02-0.201-0.063c-0.055-0.041-0.102-0.09-0.141-0.146l-0.205-0.373c0.34-0.318,0.707-0.559,1.102-0.719
			s0.829-0.24,1.305-0.24c0.344,0,0.65,0.057,0.918,0.168c0.269,0.111,0.493,0.27,0.676,0.471c0.182,0.201,0.32,0.445,0.414,0.729
			c0.094,0.285,0.141,0.598,0.141,0.943v3.887H48.392z M46.105,191.75c0.181,0,0.347-0.018,0.501-0.055
			c0.154-0.035,0.298-0.088,0.432-0.156c0.135-0.066,0.262-0.15,0.381-0.248c0.121-0.098,0.24-0.209,0.36-0.334v-1.223
			c-0.479,0.016-0.888,0.053-1.224,0.113s-0.609,0.139-0.819,0.234s-0.362,0.211-0.459,0.344c-0.096,0.135-0.144,0.281-0.144,0.441
			c0,0.156,0.024,0.291,0.074,0.402c0.051,0.111,0.119,0.203,0.207,0.273s0.191,0.121,0.31,0.156
			C45.843,191.732,45.97,191.75,46.105,191.75z"/>
		<path fill="#333333" d="M50.485,192.451v-6.09h0.684c0.16,0,0.26,0.076,0.301,0.229l0.078,0.594
			c0.223-0.268,0.473-0.488,0.75-0.66c0.275-0.172,0.598-0.258,0.965-0.258c0.408,0,0.738,0.111,0.99,0.334
			c0.252,0.221,0.434,0.521,0.547,0.902c0.088-0.217,0.201-0.402,0.342-0.559c0.14-0.156,0.295-0.283,0.468-0.383
			c0.172-0.102,0.354-0.176,0.549-0.223c0.194-0.049,0.392-0.072,0.591-0.072c0.652,0,1.156,0.199,1.512,0.598
			c0.356,0.396,0.535,0.967,0.535,1.707v3.881h-1.141v-3.881c0-0.461-0.102-0.809-0.303-1.045c-0.202-0.236-0.495-0.354-0.879-0.354
			c-0.172,0-0.336,0.029-0.489,0.09c-0.154,0.061-0.289,0.148-0.405,0.264c-0.115,0.117-0.208,0.262-0.275,0.438
			c-0.068,0.178-0.103,0.379-0.103,0.607v3.881h-1.14v-3.881c0-0.473-0.096-0.824-0.285-1.053c-0.189-0.23-0.469-0.346-0.837-0.346
			c-0.253,0-0.489,0.066-0.712,0.201c-0.221,0.133-0.422,0.318-0.603,0.555v4.523H50.485z"/>
		<path fill="#333333" d="M61.802,184.471c0,0.109-0.021,0.211-0.063,0.305s-0.101,0.176-0.175,0.248
			c-0.073,0.072-0.159,0.129-0.258,0.172c-0.098,0.041-0.201,0.063-0.309,0.063c-0.104,0-0.203-0.021-0.297-0.063
			c-0.094-0.043-0.178-0.1-0.249-0.172c-0.072-0.072-0.129-0.154-0.171-0.248s-0.063-0.195-0.063-0.305
			c0-0.107,0.021-0.211,0.063-0.309s0.099-0.182,0.171-0.254c0.071-0.072,0.155-0.129,0.249-0.172
			c0.094-0.041,0.193-0.063,0.297-0.063c0.107,0,0.211,0.021,0.309,0.063c0.099,0.043,0.185,0.1,0.258,0.172
			c0.074,0.072,0.133,0.156,0.175,0.254S61.802,184.363,61.802,184.471z M61.579,186.361v6.09h-1.141v-6.09H61.579z"/>
		<path fill="#333333" d="M65.185,192.547c-0.488,0-0.863-0.135-1.127-0.406c-0.265-0.273-0.396-0.664-0.396-1.178v-3.672h-0.715
			c-0.067,0-0.123-0.02-0.168-0.063c-0.043-0.041-0.065-0.104-0.065-0.184v-0.455l0.99-0.133l0.258-1.842
			c0.017-0.064,0.046-0.115,0.09-0.152c0.044-0.039,0.103-0.057,0.175-0.057h0.575v2.057h1.734v0.828h-1.734v3.594
			c0,0.244,0.06,0.428,0.177,0.551c0.118,0.121,0.273,0.182,0.465,0.182c0.108,0,0.203-0.014,0.283-0.041
			c0.079-0.029,0.147-0.061,0.203-0.096c0.057-0.037,0.105-0.068,0.147-0.098c0.042-0.027,0.079-0.041,0.11-0.041
			c0.037,0,0.065,0.008,0.088,0.023c0.021,0.016,0.045,0.045,0.068,0.084l0.336,0.547c-0.191,0.176-0.419,0.313-0.681,0.408
			C65.735,192.5,65.465,192.547,65.185,192.547z"/>
		<path fill="#333333" d="M70.129,186.266c0.368,0,0.708,0.061,1.021,0.184c0.312,0.121,0.582,0.299,0.81,0.531
			c0.228,0.23,0.406,0.516,0.534,0.854s0.191,0.727,0.191,1.162c0,0.176-0.019,0.293-0.057,0.354s-0.109,0.09-0.213,0.09h-4.02
			c0.012,0.373,0.064,0.695,0.158,0.973c0.094,0.275,0.223,0.504,0.385,0.688c0.162,0.182,0.356,0.316,0.584,0.406
			c0.229,0.09,0.482,0.137,0.763,0.137c0.265,0,0.491-0.031,0.681-0.092c0.19-0.059,0.354-0.125,0.492-0.197
			c0.139-0.072,0.255-0.139,0.352-0.197c0.096-0.061,0.18-0.09,0.252-0.09c0.096,0,0.166,0.035,0.209,0.107l0.324,0.414
			c-0.14,0.168-0.302,0.311-0.486,0.43c-0.184,0.117-0.381,0.215-0.594,0.293c-0.211,0.078-0.431,0.135-0.656,0.172
			c-0.227,0.035-0.449,0.053-0.67,0.053c-0.42,0-0.809-0.07-1.166-0.213c-0.358-0.141-0.668-0.35-0.928-0.623
			c-0.26-0.275-0.463-0.615-0.608-1.021c-0.146-0.404-0.22-0.873-0.22-1.4c0-0.424,0.066-0.818,0.199-1.186
			c0.131-0.365,0.32-0.684,0.566-0.953s0.546-0.482,0.9-0.639C69.286,186.344,69.685,186.266,70.129,186.266z M70.147,187.1
			c-0.5,0-0.894,0.145-1.18,0.436c-0.285,0.289-0.465,0.691-0.537,1.203h3.234c0-0.24-0.034-0.461-0.102-0.66
			c-0.068-0.201-0.168-0.373-0.297-0.516c-0.131-0.145-0.289-0.258-0.478-0.34S70.388,187.1,70.147,187.1z"/>
		<path fill="#333333" d="M78.175,183.602v8.85h-1.141v-8.85H78.175z"/>
		<path fill="#333333" d="M82.374,186.266c0.369,0,0.709,0.061,1.021,0.184c0.312,0.121,0.582,0.299,0.81,0.531
			c0.229,0.23,0.406,0.516,0.535,0.854c0.127,0.338,0.191,0.727,0.191,1.162c0,0.176-0.02,0.293-0.057,0.354
			c-0.039,0.061-0.109,0.09-0.213,0.09h-4.021c0.013,0.373,0.065,0.695,0.159,0.973c0.094,0.275,0.222,0.504,0.384,0.688
			c0.162,0.182,0.356,0.316,0.585,0.406s0.482,0.137,0.762,0.137c0.265,0,0.491-0.031,0.682-0.092
			c0.189-0.059,0.354-0.125,0.492-0.197c0.138-0.072,0.254-0.139,0.351-0.197c0.097-0.061,0.181-0.09,0.252-0.09
			c0.097,0,0.166,0.035,0.21,0.107l0.324,0.414c-0.141,0.168-0.303,0.311-0.486,0.43c-0.184,0.117-0.382,0.215-0.594,0.293
			s-0.432,0.135-0.657,0.172c-0.226,0.035-0.448,0.053-0.669,0.053c-0.42,0-0.809-0.07-1.167-0.213
			c-0.358-0.141-0.667-0.35-0.927-0.623c-0.26-0.275-0.463-0.615-0.609-1.021c-0.146-0.404-0.219-0.873-0.219-1.4
			c0-0.424,0.066-0.818,0.198-1.186c0.132-0.365,0.321-0.684,0.567-0.953s0.545-0.482,0.899-0.639S81.931,186.266,82.374,186.266z
			 M82.393,187.1c-0.5,0-0.894,0.145-1.179,0.436c-0.286,0.289-0.465,0.691-0.537,1.203h3.234c0-0.24-0.035-0.461-0.103-0.66
			c-0.067-0.201-0.167-0.373-0.297-0.516c-0.13-0.145-0.289-0.258-0.478-0.34C82.847,187.141,82.633,187.1,82.393,187.1z"/>
		<path fill="#333333" d="M88.345,186.26c0.264,0,0.509,0.029,0.734,0.086c0.227,0.059,0.436,0.143,0.627,0.25h1.68v0.42
			c0,0.145-0.088,0.234-0.264,0.27l-0.666,0.096c0.124,0.256,0.187,0.537,0.187,0.84c0,0.301-0.058,0.57-0.171,0.811
			c-0.114,0.24-0.273,0.447-0.478,0.619s-0.446,0.303-0.729,0.395c-0.281,0.094-0.588,0.139-0.92,0.139
			c-0.28,0-0.541-0.029-0.78-0.09c-0.252,0.152-0.378,0.32-0.378,0.504c0,0.141,0.059,0.244,0.177,0.314s0.272,0.121,0.466,0.154
			c0.191,0.031,0.409,0.051,0.653,0.059c0.243,0.008,0.494,0.021,0.75,0.039c0.256,0.02,0.506,0.049,0.75,0.094
			c0.243,0.043,0.462,0.117,0.653,0.219c0.193,0.102,0.348,0.24,0.466,0.418c0.118,0.176,0.177,0.404,0.177,0.689
			c0,0.264-0.064,0.52-0.195,0.766c-0.13,0.244-0.318,0.463-0.563,0.652c-0.246,0.191-0.548,0.344-0.903,0.459
			c-0.355,0.117-0.758,0.174-1.206,0.174s-0.839-0.043-1.173-0.131s-0.611-0.207-0.834-0.354c-0.223-0.148-0.389-0.32-0.498-0.514
			s-0.165-0.396-0.165-0.609c0-0.299,0.093-0.553,0.279-0.758c0.187-0.207,0.44-0.367,0.765-0.484
			c-0.18-0.08-0.322-0.189-0.426-0.326c-0.104-0.139-0.156-0.322-0.156-0.549c0-0.088,0.016-0.18,0.049-0.273
			c0.031-0.094,0.08-0.188,0.146-0.281c0.066-0.096,0.148-0.184,0.246-0.268s0.211-0.158,0.339-0.223
			c-0.3-0.168-0.536-0.391-0.708-0.668c-0.172-0.279-0.258-0.604-0.258-0.977c0-0.299,0.058-0.568,0.174-0.809
			c0.115-0.24,0.277-0.447,0.482-0.619c0.207-0.172,0.451-0.303,0.735-0.395S88.005,186.26,88.345,186.26z M90.229,192.77
			c0-0.145-0.041-0.26-0.123-0.348s-0.193-0.158-0.333-0.211c-0.141-0.051-0.303-0.088-0.486-0.107s-0.378-0.035-0.582-0.049
			c-0.203-0.012-0.412-0.023-0.627-0.035c-0.214-0.012-0.419-0.031-0.615-0.061c-0.215,0.105-0.392,0.232-0.527,0.385
			c-0.137,0.152-0.204,0.33-0.204,0.533c0,0.133,0.034,0.256,0.103,0.369c0.067,0.115,0.17,0.213,0.309,0.295
			c0.138,0.082,0.314,0.146,0.527,0.195c0.215,0.047,0.467,0.072,0.76,0.072c0.287,0,0.543-0.027,0.768-0.078
			c0.225-0.053,0.412-0.125,0.564-0.217c0.151-0.092,0.268-0.201,0.348-0.326C90.188,193.061,90.229,192.922,90.229,192.77z
			 M88.345,189.434c0.211,0,0.397-0.029,0.558-0.088c0.16-0.057,0.294-0.139,0.401-0.242c0.109-0.104,0.189-0.229,0.244-0.371
			c0.054-0.145,0.08-0.305,0.08-0.48c0-0.359-0.108-0.646-0.326-0.861c-0.219-0.215-0.537-0.32-0.957-0.32s-0.739,0.105-0.957,0.32
			c-0.219,0.215-0.327,0.502-0.327,0.861c0,0.172,0.028,0.33,0.084,0.475c0.056,0.143,0.138,0.268,0.245,0.375
			c0.109,0.105,0.242,0.188,0.402,0.244C87.952,189.404,88.136,189.434,88.345,189.434z"/>
		<path fill="#333333" d="M96.36,192.451c-0.111,0-0.197-0.018-0.258-0.053c-0.061-0.037-0.107-0.107-0.145-0.211l-0.125-0.545
			c-0.156,0.143-0.311,0.271-0.463,0.387c-0.151,0.113-0.311,0.209-0.477,0.285s-0.343,0.133-0.531,0.174
			c-0.188,0.039-0.397,0.059-0.629,0.059c-0.24,0-0.465-0.031-0.673-0.098s-0.39-0.168-0.543-0.303
			c-0.153-0.137-0.276-0.307-0.366-0.508s-0.135-0.441-0.135-0.717c0-0.24,0.064-0.471,0.195-0.689
			c0.13-0.221,0.342-0.418,0.636-0.592s0.679-0.316,1.151-0.43c0.475-0.111,1.058-0.176,1.75-0.191v-0.455
			c0-0.461-0.1-0.809-0.297-1.041c-0.198-0.234-0.489-0.352-0.873-0.352c-0.26,0-0.478,0.033-0.651,0.1
			c-0.174,0.064-0.324,0.137-0.45,0.215s-0.236,0.148-0.333,0.213c-0.096,0.064-0.192,0.096-0.288,0.096
			c-0.08,0-0.146-0.02-0.201-0.063c-0.054-0.041-0.101-0.09-0.141-0.146l-0.204-0.373c0.34-0.318,0.707-0.559,1.101-0.719
			c0.395-0.16,0.83-0.24,1.306-0.24c0.344,0,0.649,0.057,0.918,0.168s0.493,0.27,0.675,0.471s0.32,0.445,0.414,0.729
			c0.094,0.285,0.141,0.598,0.141,0.943v3.887H96.36z M94.075,191.75c0.18,0,0.347-0.018,0.5-0.055
			c0.154-0.035,0.299-0.088,0.433-0.156c0.134-0.066,0.261-0.15,0.381-0.248s0.24-0.209,0.36-0.334v-1.223
			c-0.48,0.016-0.889,0.053-1.225,0.113s-0.609,0.139-0.818,0.234c-0.211,0.096-0.363,0.211-0.459,0.344
			c-0.096,0.135-0.145,0.281-0.145,0.441c0,0.156,0.025,0.291,0.075,0.402s0.119,0.203,0.207,0.273s0.19,0.121,0.31,0.156
			C93.812,191.732,93.938,191.75,94.075,191.75z"/>
		<path fill="#333333" d="M99.624,183.602v8.85h-1.14v-8.85H99.624z"/>
		<path fill="#333333" d="M101.214,187.303c0-0.107,0.021-0.209,0.061-0.303s0.094-0.176,0.162-0.248s0.15-0.129,0.246-0.168
			c0.096-0.041,0.197-0.061,0.306-0.061s0.209,0.02,0.304,0.061c0.094,0.039,0.176,0.096,0.246,0.168
			c0.069,0.072,0.125,0.154,0.164,0.248c0.04,0.094,0.061,0.195,0.061,0.303c0,0.113-0.021,0.217-0.061,0.311
			c-0.039,0.094-0.095,0.176-0.164,0.246c-0.07,0.068-0.152,0.125-0.246,0.164c-0.095,0.041-0.195,0.061-0.304,0.061
			s-0.21-0.02-0.306-0.061c-0.096-0.039-0.178-0.096-0.246-0.164c-0.068-0.07-0.122-0.152-0.162-0.246
			S101.214,187.416,101.214,187.303z M101.214,191.762c0-0.107,0.021-0.209,0.061-0.303s0.094-0.178,0.162-0.25
			s0.15-0.127,0.246-0.168c0.096-0.039,0.197-0.059,0.306-0.059s0.209,0.02,0.304,0.059c0.094,0.041,0.176,0.096,0.246,0.168
			c0.069,0.072,0.125,0.156,0.164,0.25c0.04,0.094,0.061,0.195,0.061,0.303c0,0.111-0.021,0.215-0.061,0.309
			c-0.039,0.094-0.095,0.176-0.164,0.246c-0.07,0.07-0.152,0.125-0.246,0.166c-0.095,0.039-0.195,0.059-0.304,0.059
			s-0.21-0.02-0.306-0.059c-0.096-0.041-0.178-0.096-0.246-0.166s-0.122-0.152-0.162-0.246S101.214,191.873,101.214,191.762z"/>
		<path fill="#00BEBE" d="M41.632,203.139v3.391h-1.613v-8.676h2.646c0.589,0,1.093,0.061,1.515,0.182
			c0.422,0.123,0.769,0.293,1.039,0.514c0.27,0.221,0.469,0.482,0.597,0.789s0.192,0.643,0.192,1.012
			c0,0.291-0.043,0.566-0.129,0.828c-0.087,0.26-0.211,0.494-0.373,0.707s-0.361,0.398-0.6,0.559s-0.51,0.287-0.813,0.383
			c0.203,0.117,0.379,0.283,0.527,0.498l2.172,3.205h-1.457c-0.277,0-0.477-0.109-0.601-0.324l-1.824-2.777
			c-0.067-0.105-0.144-0.18-0.226-0.223c-0.082-0.045-0.202-0.066-0.362-0.066H41.632z M41.632,201.98h1.008
			c0.305,0,0.569-0.037,0.795-0.113c0.227-0.076,0.412-0.182,0.559-0.314c0.146-0.135,0.255-0.293,0.327-0.479
			c0.071-0.184,0.108-0.385,0.108-0.605c0-0.439-0.146-0.777-0.436-1.014s-0.732-0.354-1.329-0.354h-1.032V201.98z"/>
		<path fill="#00BEBE" d="M49.72,200.277c0.389,0,0.746,0.063,1.074,0.186s0.61,0.305,0.846,0.543
			c0.236,0.238,0.422,0.529,0.556,0.875c0.134,0.348,0.2,0.742,0.2,1.186c0,0.225-0.023,0.375-0.071,0.453s-0.14,0.117-0.276,0.117
			h-3.81c0.024,0.316,0.08,0.59,0.168,0.818c0.088,0.23,0.204,0.42,0.349,0.57c0.144,0.15,0.314,0.262,0.512,0.336
			c0.199,0.074,0.418,0.111,0.658,0.111c0.239,0,0.446-0.027,0.621-0.084c0.174-0.057,0.325-0.117,0.455-0.186
			c0.131-0.068,0.244-0.131,0.342-0.186c0.099-0.057,0.193-0.084,0.285-0.084c0.124,0,0.217,0.045,0.276,0.137l0.426,0.541
			c-0.164,0.191-0.348,0.354-0.552,0.482c-0.204,0.131-0.417,0.234-0.639,0.313c-0.223,0.078-0.448,0.133-0.678,0.164
			c-0.23,0.033-0.453,0.049-0.67,0.049c-0.428,0-0.826-0.072-1.193-0.213c-0.369-0.143-0.688-0.352-0.961-0.631
			c-0.271-0.277-0.485-0.621-0.642-1.031c-0.155-0.41-0.233-0.885-0.233-1.426c0-0.42,0.067-0.814,0.203-1.184
			c0.137-0.371,0.332-0.693,0.586-0.967s0.563-0.49,0.93-0.65C48.847,200.357,49.261,200.277,49.72,200.277z M49.75,201.338
			c-0.432,0-0.771,0.123-1.014,0.367c-0.244,0.244-0.4,0.59-0.468,1.037h2.796c0-0.191-0.027-0.373-0.081-0.543
			c-0.055-0.17-0.135-0.318-0.243-0.447c-0.108-0.127-0.245-0.229-0.411-0.303S49.97,201.338,49.75,201.338z"/>
		<path fill="#00BEBE" d="M57.262,201.572c-0.04,0.064-0.082,0.109-0.126,0.135c-0.044,0.027-0.1,0.039-0.168,0.039
			c-0.072,0-0.148-0.02-0.23-0.059c-0.082-0.041-0.178-0.086-0.285-0.135c-0.108-0.051-0.231-0.096-0.369-0.137
			c-0.139-0.039-0.301-0.059-0.489-0.059c-0.292,0-0.521,0.061-0.687,0.186c-0.166,0.123-0.25,0.285-0.25,0.486
			c0,0.131,0.043,0.242,0.13,0.332c0.086,0.09,0.2,0.17,0.342,0.238c0.142,0.066,0.304,0.129,0.483,0.182
			c0.18,0.055,0.363,0.113,0.549,0.178s0.369,0.137,0.549,0.219s0.341,0.186,0.482,0.313c0.143,0.125,0.256,0.277,0.343,0.453
			c0.086,0.176,0.129,0.387,0.129,0.635c0,0.297-0.054,0.57-0.159,0.82s-0.264,0.465-0.471,0.646
			c-0.209,0.184-0.465,0.324-0.771,0.428c-0.306,0.102-0.658,0.152-1.059,0.152c-0.213,0-0.42-0.02-0.621-0.057
			c-0.202-0.039-0.396-0.092-0.582-0.16c-0.186-0.066-0.357-0.146-0.516-0.24c-0.158-0.092-0.297-0.191-0.418-0.299l0.343-0.564
			c0.044-0.068,0.096-0.119,0.155-0.156c0.061-0.035,0.137-0.053,0.229-0.053s0.179,0.025,0.261,0.076
			c0.082,0.053,0.177,0.109,0.285,0.168c0.108,0.061,0.235,0.117,0.381,0.17c0.146,0.051,0.331,0.076,0.556,0.076
			c0.176,0,0.326-0.02,0.453-0.063c0.125-0.041,0.229-0.096,0.312-0.164s0.142-0.148,0.18-0.238s0.058-0.182,0.058-0.277
			c0-0.145-0.043-0.264-0.129-0.355s-0.201-0.172-0.342-0.24c-0.143-0.066-0.305-0.129-0.486-0.182
			c-0.183-0.055-0.369-0.113-0.559-0.178s-0.376-0.139-0.558-0.225c-0.183-0.086-0.345-0.195-0.486-0.328
			c-0.142-0.131-0.256-0.293-0.342-0.484c-0.086-0.193-0.129-0.424-0.129-0.697c0-0.252,0.05-0.492,0.149-0.719
			c0.101-0.229,0.248-0.428,0.441-0.598s0.436-0.307,0.727-0.408c0.289-0.102,0.625-0.152,1.004-0.152
			c0.424,0,0.811,0.07,1.158,0.209c0.348,0.141,0.639,0.324,0.871,0.553L57.262,201.572z"/>
		<path fill="#00BEBE" d="M60.202,200.373v3.912c0,0.375,0.088,0.666,0.262,0.873c0.174,0.205,0.435,0.309,0.783,0.309
			c0.256,0,0.495-0.057,0.719-0.172c0.225-0.113,0.437-0.27,0.637-0.471v-4.451h1.482v6.156h-0.906c-0.196,0-0.32-0.09-0.373-0.27
			l-0.102-0.492c-0.128,0.127-0.26,0.244-0.396,0.35c-0.135,0.107-0.281,0.197-0.438,0.273s-0.322,0.135-0.498,0.174
			c-0.176,0.041-0.367,0.061-0.576,0.061c-0.336,0-0.633-0.057-0.891-0.172c-0.258-0.113-0.475-0.273-0.65-0.482
			c-0.177-0.207-0.31-0.455-0.399-0.74c-0.091-0.287-0.136-0.602-0.136-0.945v-3.912H60.202z"/>
		<path fill="#00BEBE" d="M68.17,200.277c0.388,0,0.746,0.063,1.074,0.186c0.327,0.123,0.61,0.305,0.846,0.543
			s0.421,0.529,0.556,0.875c0.133,0.348,0.2,0.742,0.2,1.186c0,0.225-0.024,0.375-0.071,0.453c-0.049,0.078-0.141,0.117-0.276,0.117
			h-3.81c0.023,0.316,0.08,0.59,0.168,0.818c0.088,0.23,0.203,0.42,0.348,0.57s0.314,0.262,0.513,0.336s0.417,0.111,0.657,0.111
			s0.447-0.027,0.621-0.084s0.326-0.117,0.455-0.186c0.131-0.068,0.244-0.131,0.343-0.186c0.099-0.057,0.192-0.084,0.285-0.084
			c0.124,0,0.216,0.045,0.276,0.137l0.426,0.541c-0.164,0.191-0.348,0.354-0.553,0.482c-0.203,0.131-0.416,0.234-0.639,0.313
			s-0.447,0.133-0.678,0.164c-0.23,0.033-0.453,0.049-0.67,0.049c-0.428,0-0.825-0.072-1.193-0.213
			c-0.368-0.143-0.688-0.352-0.96-0.631c-0.272-0.277-0.485-0.621-0.642-1.031s-0.234-0.885-0.234-1.426
			c0-0.42,0.068-0.814,0.204-1.184c0.136-0.371,0.331-0.693,0.585-0.967s0.564-0.49,0.93-0.65
			C67.297,200.357,67.71,200.277,68.17,200.277z M68.2,201.338c-0.432,0-0.771,0.123-1.014,0.367c-0.244,0.244-0.4,0.59-0.469,1.037
			h2.797c0-0.191-0.027-0.373-0.082-0.543c-0.054-0.17-0.135-0.318-0.242-0.447c-0.108-0.127-0.246-0.229-0.412-0.303
			S68.42,201.338,68.2,201.338z"/>
		<path fill="#00BEBE" d="M73.456,197.613v8.916h-1.482v-8.916H73.456z"/>
		<path fill="#00BEBE" d="M76.99,206.625c-0.536,0-0.947-0.15-1.233-0.453c-0.285-0.303-0.429-0.719-0.429-1.252v-3.438h-0.63
			c-0.08,0-0.148-0.025-0.204-0.078c-0.056-0.051-0.084-0.129-0.084-0.234v-0.588l0.989-0.162l0.313-1.68
			c0.02-0.08,0.059-0.141,0.114-0.186c0.056-0.043,0.128-0.066,0.216-0.066h0.768v1.939h1.645v1.055H76.81v3.336
			c0,0.193,0.047,0.342,0.142,0.451c0.094,0.107,0.223,0.162,0.387,0.162c0.093,0,0.169-0.012,0.231-0.033
			c0.062-0.023,0.115-0.045,0.162-0.07c0.045-0.023,0.086-0.047,0.123-0.068c0.035-0.021,0.072-0.033,0.107-0.033
			c0.044,0,0.08,0.012,0.107,0.033c0.029,0.021,0.059,0.055,0.091,0.1l0.444,0.719c-0.217,0.182-0.465,0.316-0.744,0.408
			C77.58,206.578,77.29,206.625,76.99,206.625z"/>
		<path fill="#00BEBE" d="M82.126,200.277c0.456,0,0.871,0.074,1.245,0.221c0.374,0.148,0.694,0.359,0.96,0.631
			s0.471,0.604,0.615,0.996c0.144,0.393,0.216,0.83,0.216,1.314c0,0.488-0.072,0.928-0.216,1.32
			c-0.145,0.391-0.35,0.725-0.615,1.002c-0.266,0.275-0.586,0.486-0.96,0.635s-0.789,0.223-1.245,0.223
			c-0.46,0-0.878-0.074-1.254-0.223s-0.697-0.359-0.963-0.635c-0.266-0.277-0.473-0.611-0.618-1.002
			c-0.146-0.393-0.22-0.832-0.22-1.32c0-0.484,0.074-0.922,0.22-1.314s0.353-0.725,0.618-0.996s0.587-0.482,0.963-0.631
			C81.248,200.352,81.666,200.277,82.126,200.277z M82.126,205.479c0.512,0,0.891-0.172,1.137-0.516s0.369-0.848,0.369-1.512
			s-0.123-1.17-0.369-1.518c-0.246-0.35-0.625-0.523-1.137-0.523c-0.52,0-0.905,0.176-1.155,0.525s-0.375,0.855-0.375,1.516
			s0.125,1.162,0.375,1.508C81.221,205.307,81.606,205.479,82.126,205.479z"/>
	</g>
	<g>
		<g>
			<circle fill="none" stroke="#00BEBE" stroke-miterlimit="10" cx="62.309" cy="162.062" r="14.54"/>
		</g>
		<polyline fill="none" stroke="#00BEBE" stroke-miterlimit="10" points="54.316,162.667 59.24,167.592 70.301,156.531 		"/>
	</g>
	<g>
		<path fill="#333333" d="M0.528,44.509h1.83v-5.718c0-0.176,0.006-0.358,0.018-0.546l-1.482,1.266
			c-0.056,0.044-0.111,0.072-0.164,0.084c-0.055,0.012-0.105,0.014-0.154,0.003c-0.047-0.01-0.092-0.026-0.131-0.051
			c-0.041-0.024-0.07-0.05-0.09-0.078L0,38.971l2.573-2.22h0.925v7.758h1.674v0.87H0.528V44.509z"/>
		<path fill="#333333" d="M6.647,44.688c0-0.107,0.021-0.209,0.061-0.303c0.039-0.094,0.094-0.177,0.162-0.249
			s0.15-0.128,0.246-0.168s0.197-0.06,0.306-0.06s0.209,0.02,0.304,0.06c0.094,0.04,0.176,0.096,0.245,0.168
			c0.07,0.072,0.125,0.155,0.165,0.249s0.061,0.195,0.061,0.303c0,0.112-0.021,0.216-0.061,0.31s-0.095,0.176-0.165,0.246
			c-0.069,0.069-0.151,0.125-0.245,0.165c-0.095,0.04-0.195,0.06-0.304,0.06s-0.21-0.02-0.306-0.06s-0.178-0.096-0.246-0.165
			c-0.068-0.07-0.123-0.152-0.162-0.246C6.668,44.904,6.647,44.801,6.647,44.688z"/>
		<path fill="#333333" d="M18.978,43.555c0.068,0,0.128,0.026,0.18,0.078l0.492,0.54c-0.352,0.412-0.781,0.732-1.287,0.96
			c-0.506,0.229-1.113,0.342-1.82,0.342c-0.625,0-1.189-0.107-1.695-0.323c-0.506-0.217-0.938-0.519-1.297-0.906
			c-0.357-0.388-0.633-0.853-0.828-1.393c-0.193-0.54-0.291-1.134-0.291-1.781c0-0.648,0.103-1.242,0.307-1.782
			s0.492-1.003,0.864-1.389c0.372-0.387,0.817-0.688,1.335-0.903s1.089-0.324,1.713-0.324c0.611,0,1.154,0.1,1.629,0.3
			s0.887,0.466,1.239,0.798l-0.408,0.576c-0.028,0.04-0.062,0.073-0.099,0.1c-0.039,0.025-0.092,0.039-0.159,0.039
			c-0.076,0-0.165-0.038-0.267-0.114c-0.103-0.076-0.236-0.161-0.402-0.255c-0.166-0.095-0.373-0.18-0.621-0.255
			c-0.248-0.076-0.555-0.114-0.918-0.114c-0.432,0-0.829,0.076-1.191,0.228c-0.361,0.152-0.673,0.37-0.933,0.654
			c-0.261,0.284-0.462,0.632-0.606,1.044c-0.144,0.412-0.216,0.878-0.216,1.398c0,0.527,0.075,0.999,0.226,1.413
			c0.149,0.413,0.355,0.763,0.617,1.047s0.571,0.501,0.928,0.65c0.355,0.15,0.738,0.226,1.146,0.226
			c0.252,0,0.478-0.016,0.679-0.045c0.199-0.03,0.385-0.075,0.555-0.136c0.17-0.06,0.328-0.138,0.477-0.233
			c0.148-0.097,0.296-0.21,0.444-0.342c0.032-0.028,0.065-0.052,0.099-0.069C18.9,43.563,18.938,43.555,18.978,43.555z"/>
		<path fill="#333333" d="M23.178,39.193c0.448,0,0.853,0.072,1.212,0.219c0.359,0.146,0.666,0.354,0.918,0.627
			c0.252,0.271,0.445,0.601,0.582,0.987c0.136,0.386,0.204,0.818,0.204,1.299c0,0.479-0.068,0.914-0.204,1.302
			c-0.137,0.388-0.33,0.718-0.582,0.99c-0.252,0.271-0.559,0.48-0.918,0.627c-0.359,0.146-0.764,0.219-1.212,0.219
			s-0.853-0.073-1.215-0.219c-0.362-0.146-0.671-0.355-0.925-0.627c-0.254-0.272-0.448-0.603-0.584-0.99
			c-0.137-0.388-0.205-0.822-0.205-1.302c0-0.48,0.068-0.913,0.205-1.299c0.136-0.387,0.33-0.716,0.584-0.987
			c0.254-0.272,0.563-0.481,0.925-0.627C22.325,39.266,22.729,39.193,23.178,39.193z M23.178,44.575
			c0.584,0,1.021-0.196,1.308-0.588c0.288-0.393,0.432-0.944,0.432-1.656c0-0.708-0.144-1.26-0.432-1.656
			c-0.287-0.396-0.724-0.594-1.308-0.594c-0.593,0-1.033,0.198-1.323,0.594c-0.29,0.396-0.436,0.948-0.436,1.656
			c0,0.712,0.146,1.264,0.436,1.656C22.145,44.379,22.585,44.575,23.178,44.575z"/>
		<path fill="#333333" d="M27.407,45.379v-6.09h0.685c0.159,0,0.26,0.076,0.3,0.228l0.078,0.595c0.224-0.269,0.474-0.488,0.75-0.66
			c0.275-0.172,0.598-0.258,0.966-0.258c0.408,0,0.738,0.11,0.99,0.333c0.252,0.222,0.434,0.522,0.546,0.902
			c0.088-0.216,0.201-0.401,0.342-0.558s0.296-0.284,0.469-0.384c0.172-0.101,0.354-0.175,0.549-0.223
			c0.193-0.048,0.391-0.071,0.59-0.071c0.652,0,1.156,0.198,1.513,0.597c0.356,0.397,0.534,0.967,0.534,1.707v3.882h-1.141v-3.882
			c0-0.46-0.101-0.808-0.303-1.044c-0.201-0.236-0.494-0.354-0.879-0.354c-0.172,0-0.335,0.03-0.488,0.09
			c-0.154,0.061-0.289,0.148-0.406,0.265c-0.115,0.116-0.207,0.262-0.275,0.438c-0.068,0.177-0.102,0.378-0.102,0.606v3.882h-1.141
			v-3.882c0-0.472-0.095-0.823-0.285-1.053c-0.189-0.23-0.469-0.346-0.836-0.346c-0.253,0-0.49,0.067-0.712,0.201
			s-0.423,0.319-0.603,0.555v4.524H27.407z"/>
		<path fill="#333333" d="M37.308,47.425v-8.136h0.684c0.16,0,0.26,0.076,0.301,0.228l0.096,0.696
			c0.256-0.308,0.551-0.557,0.885-0.747c0.334-0.189,0.717-0.285,1.148-0.285c0.349,0,0.664,0.067,0.945,0.201
			c0.282,0.134,0.524,0.333,0.727,0.597c0.201,0.265,0.357,0.59,0.465,0.976s0.162,0.831,0.162,1.335
			c0,0.452-0.061,0.871-0.18,1.257c-0.121,0.386-0.295,0.721-0.522,1.005s-0.504,0.507-0.828,0.669
			c-0.323,0.162-0.69,0.243-1.099,0.243c-0.371,0-0.688-0.06-0.947-0.18s-0.492-0.292-0.696-0.517v2.658H37.308z M40.05,40.099
			c-0.344,0-0.644,0.077-0.897,0.231s-0.489,0.373-0.705,0.657v2.909c0.192,0.252,0.401,0.43,0.628,0.531
			c0.225,0.103,0.479,0.153,0.758,0.153c0.549,0,0.971-0.196,1.267-0.588c0.296-0.393,0.444-0.96,0.444-1.704
			c0-0.388-0.035-0.72-0.103-0.996s-0.166-0.503-0.294-0.681c-0.128-0.179-0.284-0.309-0.468-0.391
			C40.495,40.14,40.286,40.099,40.05,40.099z"/>
		<path fill="#333333" d="M47.946,45.379c-0.113,0-0.199-0.018-0.259-0.054s-0.108-0.106-0.144-0.21l-0.127-0.546
			c-0.155,0.144-0.31,0.272-0.461,0.387c-0.152,0.114-0.312,0.209-0.478,0.285s-0.343,0.134-0.53,0.174
			c-0.188,0.04-0.398,0.06-0.631,0.06c-0.24,0-0.464-0.032-0.672-0.099s-0.389-0.167-0.543-0.303
			c-0.154-0.137-0.275-0.306-0.365-0.508c-0.091-0.201-0.136-0.44-0.136-0.717c0-0.239,0.065-0.47,0.195-0.689
			s0.342-0.417,0.636-0.591c0.294-0.175,0.678-0.317,1.152-0.43c0.474-0.111,1.057-0.176,1.748-0.191v-0.456
			c0-0.46-0.098-0.808-0.297-1.041c-0.197-0.234-0.488-0.352-0.873-0.352c-0.26,0-0.477,0.033-0.65,0.1
			c-0.174,0.065-0.324,0.138-0.45,0.216s-0.237,0.148-0.333,0.213s-0.191,0.096-0.288,0.096c-0.08,0-0.147-0.021-0.2-0.063
			c-0.055-0.042-0.102-0.091-0.142-0.147l-0.204-0.372c0.34-0.319,0.707-0.56,1.102-0.72c0.394-0.16,0.828-0.24,1.305-0.24
			c0.344,0,0.65,0.057,0.918,0.168c0.268,0.112,0.492,0.27,0.675,0.472c0.183,0.201,0.32,0.444,0.414,0.729s0.142,0.598,0.142,0.942
			v3.888H47.946z M45.659,44.677c0.181,0,0.348-0.018,0.502-0.054c0.153-0.036,0.297-0.088,0.432-0.156
			c0.134-0.067,0.261-0.15,0.381-0.249c0.12-0.098,0.24-0.209,0.359-0.333v-1.224c-0.479,0.016-0.887,0.054-1.223,0.114
			c-0.337,0.06-0.609,0.138-0.82,0.233c-0.209,0.096-0.362,0.211-0.459,0.345c-0.096,0.135-0.144,0.281-0.144,0.441
			c0,0.156,0.024,0.29,0.075,0.402c0.05,0.111,0.119,0.203,0.207,0.272c0.088,0.07,0.191,0.122,0.309,0.156
			C45.396,44.66,45.523,44.677,45.659,44.677z"/>
		<path fill="#333333" d="M50.04,45.379v-6.09h0.653c0.124,0,0.209,0.021,0.255,0.065c0.046,0.045,0.077,0.124,0.094,0.24
			l0.071,0.888c0.192-0.403,0.429-0.722,0.708-0.953c0.28-0.232,0.616-0.349,1.008-0.349c0.133,0,0.258,0.015,0.375,0.042
			c0.118,0.028,0.221,0.072,0.309,0.132l-0.077,0.853c-0.024,0.107-0.089,0.162-0.192,0.162c-0.056,0-0.139-0.013-0.248-0.036
			c-0.111-0.024-0.232-0.036-0.363-0.036c-0.188,0-0.355,0.028-0.502,0.084c-0.146,0.056-0.276,0.138-0.393,0.246
			c-0.115,0.108-0.219,0.24-0.309,0.396c-0.09,0.156-0.174,0.335-0.25,0.534v3.822H50.04z"/>
		<path fill="#333333" d="M56.321,45.475c-0.488,0-0.864-0.136-1.128-0.407c-0.265-0.272-0.396-0.664-0.396-1.177v-3.672h-0.715
			c-0.068,0-0.124-0.021-0.168-0.063s-0.066-0.104-0.066-0.184v-0.456l0.99-0.132l0.258-1.842c0.017-0.064,0.047-0.115,0.09-0.153
			c0.045-0.038,0.103-0.057,0.175-0.057h0.575v2.058h1.734v0.828h-1.734v3.594c0,0.244,0.06,0.428,0.178,0.55
			c0.117,0.122,0.273,0.183,0.465,0.183c0.107,0,0.202-0.014,0.282-0.042c0.079-0.028,0.147-0.06,0.204-0.096
			c0.056-0.036,0.105-0.068,0.146-0.097c0.043-0.027,0.079-0.042,0.111-0.042c0.036,0,0.064,0.009,0.087,0.024
			s0.045,0.044,0.069,0.084l0.336,0.546c-0.192,0.176-0.42,0.313-0.682,0.408S56.601,45.475,56.321,45.475z"/>
		<path fill="#333333" d="M61.265,39.193c0.368,0,0.708,0.061,1.02,0.183c0.313,0.122,0.582,0.299,0.811,0.531
			c0.229,0.231,0.406,0.517,0.534,0.854s0.192,0.726,0.192,1.161c0,0.176-0.02,0.294-0.058,0.354c-0.038,0.06-0.108,0.09-0.213,0.09
			H59.53c0.013,0.372,0.065,0.695,0.16,0.972c0.094,0.276,0.221,0.505,0.383,0.688c0.162,0.182,0.357,0.317,0.586,0.407
			c0.228,0.09,0.481,0.136,0.762,0.136c0.264,0,0.49-0.03,0.682-0.091c0.189-0.06,0.354-0.126,0.491-0.197
			c0.138-0.072,0.255-0.139,0.351-0.198c0.097-0.061,0.181-0.09,0.252-0.09c0.097,0,0.166,0.036,0.211,0.107l0.324,0.414
			c-0.141,0.168-0.303,0.312-0.486,0.43c-0.184,0.117-0.383,0.216-0.594,0.294c-0.213,0.077-0.432,0.135-0.658,0.171
			c-0.226,0.036-0.448,0.054-0.668,0.054c-0.42,0-0.81-0.071-1.168-0.213c-0.357-0.142-0.666-0.35-0.926-0.624
			c-0.261-0.274-0.464-0.614-0.609-1.021c-0.146-0.405-0.219-0.873-0.219-1.4c0-0.424,0.065-0.819,0.197-1.186
			c0.133-0.365,0.321-0.684,0.567-0.954c0.246-0.27,0.546-0.482,0.899-0.639C60.422,39.271,60.821,39.193,61.265,39.193z
			 M61.282,40.027c-0.5,0-0.893,0.145-1.178,0.435c-0.287,0.29-0.466,0.691-0.537,1.203h3.233c0-0.24-0.034-0.46-0.103-0.66
			c-0.067-0.2-0.166-0.372-0.297-0.516c-0.129-0.145-0.289-0.257-0.477-0.339S61.522,40.027,61.282,40.027z"/>
		<path fill="#333333" d="M70.037,45.475c-0.488,0-0.864-0.136-1.128-0.407c-0.264-0.272-0.396-0.664-0.396-1.177v-3.672h-0.714
			c-0.067,0-0.124-0.021-0.168-0.063s-0.065-0.104-0.065-0.184v-0.456l0.99-0.132l0.258-1.842c0.016-0.064,0.045-0.115,0.09-0.153
			c0.043-0.038,0.102-0.057,0.174-0.057h0.576v2.058h1.734v0.828h-1.734v3.594c0,0.244,0.059,0.428,0.177,0.55
			s0.272,0.183,0.465,0.183c0.108,0,0.202-0.014,0.282-0.042s0.148-0.06,0.203-0.096c0.057-0.036,0.105-0.068,0.148-0.097
			c0.041-0.027,0.078-0.042,0.11-0.042c0.036,0,0.065,0.009,0.087,0.024s0.045,0.044,0.068,0.084l0.336,0.546
			c-0.191,0.176-0.418,0.313-0.68,0.408C70.588,45.427,70.317,45.475,70.037,45.475z"/>
		<path fill="#333333" d="M73.547,39.289v3.882c0,0.44,0.102,0.783,0.306,1.029s0.514,0.369,0.93,0.369
			c0.305,0,0.59-0.071,0.855-0.214c0.266-0.142,0.514-0.339,0.741-0.591v-4.476h1.14v6.09h-0.684c-0.16,0-0.26-0.076-0.301-0.228
			l-0.09-0.631c-0.264,0.284-0.557,0.515-0.879,0.69s-0.695,0.264-1.119,0.264c-0.336,0-0.631-0.056-0.885-0.168
			c-0.254-0.111-0.466-0.269-0.636-0.471c-0.171-0.202-0.3-0.444-0.388-0.726c-0.088-0.282-0.131-0.596-0.131-0.939v-3.882H73.547z"
			/>
		<path fill="#333333" d="M85.786,40.321c-0.055,0.096-0.133,0.144-0.233,0.144c-0.063,0-0.135-0.021-0.213-0.066
			c-0.078-0.044-0.171-0.093-0.278-0.146c-0.109-0.054-0.238-0.103-0.388-0.147c-0.149-0.044-0.327-0.065-0.531-0.065
			c-0.172,0-0.327,0.021-0.468,0.065c-0.141,0.045-0.259,0.104-0.357,0.181c-0.098,0.076-0.174,0.165-0.228,0.267
			c-0.054,0.103-0.081,0.213-0.081,0.333c0,0.152,0.045,0.279,0.135,0.381c0.09,0.103,0.208,0.19,0.354,0.265
			c0.146,0.073,0.313,0.14,0.501,0.197c0.188,0.059,0.38,0.119,0.576,0.184c0.195,0.063,0.388,0.137,0.576,0.219
			c0.188,0.082,0.354,0.183,0.5,0.303c0.146,0.12,0.265,0.268,0.354,0.441s0.135,0.383,0.135,0.627c0,0.284-0.051,0.546-0.153,0.786
			c-0.102,0.24-0.252,0.448-0.449,0.624c-0.198,0.176-0.441,0.313-0.729,0.414c-0.288,0.1-0.62,0.149-0.995,0.149
			c-0.425,0-0.812-0.069-1.162-0.21c-0.35-0.14-0.645-0.317-0.885-0.534l0.264-0.432c0.033-0.056,0.072-0.099,0.121-0.129
			c0.047-0.03,0.107-0.045,0.18-0.045c0.076,0,0.154,0.028,0.234,0.084s0.176,0.117,0.291,0.183
			c0.113,0.066,0.252,0.127,0.414,0.184c0.161,0.056,0.362,0.084,0.603,0.084c0.204,0,0.381-0.026,0.53-0.078
			c0.15-0.052,0.275-0.121,0.375-0.207c0.101-0.086,0.174-0.188,0.223-0.303c0.048-0.116,0.072-0.238,0.072-0.366
			c0-0.164-0.045-0.3-0.135-0.408c-0.091-0.108-0.209-0.2-0.354-0.276c-0.146-0.075-0.313-0.142-0.501-0.197
			c-0.188-0.057-0.381-0.116-0.579-0.181c-0.198-0.063-0.392-0.137-0.579-0.219s-0.355-0.187-0.501-0.314
			c-0.146-0.129-0.265-0.283-0.354-0.466c-0.09-0.182-0.135-0.404-0.135-0.669c0-0.235,0.049-0.462,0.145-0.678
			s0.236-0.406,0.423-0.57s0.415-0.294,0.687-0.39c0.272-0.096,0.582-0.144,0.93-0.144c0.4,0,0.764,0.063,1.09,0.188
			s0.604,0.301,0.83,0.525L85.786,40.321z"/>
		<path fill="#333333" d="M90.005,39.193c0.447,0,0.852,0.072,1.211,0.219c0.36,0.146,0.666,0.354,0.918,0.627
			c0.252,0.271,0.446,0.601,0.582,0.987c0.137,0.386,0.205,0.818,0.205,1.299c0,0.479-0.068,0.914-0.205,1.302
			c-0.136,0.388-0.33,0.718-0.582,0.99c-0.252,0.271-0.558,0.48-0.918,0.627c-0.359,0.146-0.764,0.219-1.211,0.219
			c-0.449,0-0.854-0.073-1.215-0.219c-0.363-0.146-0.671-0.355-0.925-0.627c-0.254-0.272-0.448-0.603-0.585-0.99
			c-0.136-0.388-0.204-0.822-0.204-1.302c0-0.48,0.068-0.913,0.204-1.299c0.137-0.387,0.331-0.716,0.585-0.987
			c0.254-0.272,0.562-0.481,0.925-0.627C89.151,39.266,89.556,39.193,90.005,39.193z M90.005,44.575c0.584,0,1.02-0.196,1.308-0.588
			c0.288-0.393,0.432-0.944,0.432-1.656c0-0.708-0.144-1.26-0.432-1.656c-0.288-0.396-0.724-0.594-1.308-0.594
			c-0.593,0-1.033,0.198-1.324,0.594c-0.289,0.396-0.435,0.948-0.435,1.656c0,0.712,0.146,1.264,0.435,1.656
			C88.972,44.379,89.412,44.575,90.005,44.575z"/>
		<path fill="#333333" d="M95.404,36.529v8.85h-1.14v-8.85H95.404z"/>
		<path fill="#333333" d="M98.507,37.398c0,0.108-0.021,0.21-0.063,0.304s-0.101,0.177-0.175,0.249
			c-0.073,0.071-0.159,0.129-0.258,0.171c-0.098,0.042-0.201,0.063-0.309,0.063c-0.104,0-0.203-0.021-0.297-0.063
			s-0.178-0.1-0.249-0.171c-0.072-0.072-0.129-0.155-0.171-0.249s-0.063-0.195-0.063-0.304c0-0.107,0.021-0.211,0.063-0.309
			s0.099-0.183,0.171-0.255c0.071-0.072,0.155-0.129,0.249-0.171s0.193-0.063,0.297-0.063c0.107,0,0.211,0.021,0.309,0.063
			c0.099,0.042,0.185,0.099,0.258,0.171c0.074,0.072,0.133,0.157,0.175,0.255S98.507,37.291,98.507,37.398z M98.284,39.289v6.09
			h-1.141v-6.09H98.284z"/>
		<path fill="#333333" d="M104.254,40.411c-0.032,0.044-0.065,0.078-0.099,0.102c-0.034,0.024-0.081,0.036-0.141,0.036
			c-0.064,0-0.133-0.024-0.205-0.075c-0.072-0.05-0.16-0.104-0.264-0.162c-0.104-0.058-0.232-0.111-0.384-0.161
			c-0.152-0.051-0.339-0.075-0.558-0.075c-0.293,0-0.551,0.052-0.774,0.155c-0.224,0.104-0.411,0.255-0.562,0.45
			c-0.149,0.196-0.263,0.433-0.338,0.708c-0.076,0.276-0.115,0.588-0.115,0.937c0,0.359,0.041,0.68,0.123,0.96
			c0.082,0.279,0.199,0.516,0.349,0.708c0.149,0.191,0.332,0.338,0.546,0.438c0.214,0.101,0.453,0.15,0.717,0.15
			c0.256,0,0.467-0.031,0.631-0.093c0.163-0.063,0.299-0.129,0.407-0.201s0.199-0.139,0.272-0.201
			c0.074-0.062,0.149-0.093,0.226-0.093c0.097,0,0.168,0.036,0.216,0.107l0.324,0.414c-0.141,0.168-0.296,0.313-0.468,0.433
			c-0.173,0.12-0.356,0.218-0.552,0.294c-0.196,0.076-0.4,0.132-0.612,0.168s-0.429,0.054-0.647,0.054
			c-0.381,0-0.734-0.07-1.063-0.21s-0.613-0.344-0.855-0.612c-0.242-0.268-0.432-0.597-0.57-0.986
			c-0.137-0.391-0.207-0.833-0.207-1.329c0-0.452,0.063-0.869,0.189-1.251s0.311-0.713,0.555-0.993s0.545-0.498,0.903-0.654
			s0.769-0.233,1.233-0.233c0.436,0,0.818,0.069,1.148,0.21c0.33,0.14,0.621,0.336,0.873,0.588L104.254,40.411z"/>
		<path fill="#333333" d="M107.146,37.398c0,0.108-0.021,0.21-0.063,0.304c-0.041,0.094-0.1,0.177-0.174,0.249
			c-0.074,0.071-0.16,0.129-0.258,0.171s-0.201,0.063-0.309,0.063c-0.104,0-0.203-0.021-0.297-0.063
			c-0.095-0.042-0.178-0.1-0.25-0.171c-0.072-0.072-0.129-0.155-0.17-0.249c-0.043-0.094-0.063-0.195-0.063-0.304
			c0-0.107,0.021-0.211,0.063-0.309c0.041-0.098,0.098-0.183,0.17-0.255s0.155-0.129,0.25-0.171
			c0.094-0.042,0.192-0.063,0.297-0.063c0.107,0,0.211,0.021,0.309,0.063s0.184,0.099,0.258,0.171s0.133,0.157,0.174,0.255
			C107.126,37.188,107.146,37.291,107.146,37.398z M106.925,39.289v6.09h-1.141v-6.09H106.925z"/>
		<path fill="#333333" d="M110.53,45.475c-0.488,0-0.864-0.136-1.128-0.407c-0.265-0.272-0.396-0.664-0.396-1.177v-3.672h-0.715
			c-0.068,0-0.124-0.021-0.168-0.063s-0.066-0.104-0.066-0.184v-0.456l0.99-0.132l0.258-1.842c0.017-0.064,0.047-0.115,0.09-0.153
			c0.045-0.038,0.103-0.057,0.175-0.057h0.575v2.058h1.734v0.828h-1.734v3.594c0,0.244,0.06,0.428,0.178,0.55
			c0.117,0.122,0.273,0.183,0.465,0.183c0.107,0,0.202-0.014,0.282-0.042c0.079-0.028,0.147-0.06,0.204-0.096
			c0.056-0.036,0.105-0.068,0.146-0.097c0.043-0.027,0.079-0.042,0.111-0.042c0.036,0,0.064,0.009,0.087,0.024
			s0.045,0.044,0.069,0.084l0.336,0.546c-0.192,0.176-0.42,0.313-0.682,0.408S110.81,45.475,110.53,45.475z"/>
		<path fill="#333333" d="M114.04,39.289v3.882c0,0.44,0.102,0.783,0.306,1.029s0.515,0.369,0.931,0.369
			c0.303,0,0.588-0.071,0.854-0.214c0.267-0.142,0.513-0.339,0.741-0.591v-4.476h1.14v6.09h-0.685c-0.159,0-0.26-0.076-0.299-0.228
			l-0.09-0.631c-0.265,0.284-0.558,0.515-0.88,0.69c-0.321,0.176-0.694,0.264-1.118,0.264c-0.336,0-0.632-0.056-0.886-0.168
			c-0.254-0.111-0.466-0.269-0.636-0.471s-0.299-0.444-0.387-0.726c-0.088-0.282-0.133-0.596-0.133-0.939v-3.882H114.04z"/>
		<path fill="#333333" d="M124.06,45.379c-0.16,0-0.26-0.076-0.301-0.228l-0.102-0.715c-0.128,0.156-0.266,0.298-0.414,0.424
			c-0.147,0.126-0.306,0.233-0.474,0.323s-0.347,0.159-0.534,0.207s-0.39,0.072-0.605,0.072c-0.348,0-0.664-0.067-0.945-0.201
			c-0.282-0.134-0.523-0.333-0.727-0.597c-0.201-0.264-0.356-0.589-0.465-0.976c-0.107-0.386-0.162-0.83-0.162-1.335
			c0-0.451,0.061-0.87,0.181-1.257c0.12-0.386,0.294-0.721,0.522-1.005c0.228-0.284,0.504-0.507,0.827-0.669
			c0.324-0.162,0.69-0.243,1.099-0.243c0.367,0,0.683,0.062,0.944,0.184c0.263,0.122,0.495,0.293,0.699,0.513v-3.348h1.14v8.85
			H124.06z M122.001,44.545c0.34,0,0.639-0.077,0.895-0.231c0.256-0.153,0.492-0.372,0.708-0.656v-2.904
			c-0.192-0.256-0.401-0.435-0.63-0.537c-0.229-0.102-0.48-0.153-0.756-0.153c-0.549,0-0.971,0.196-1.266,0.589
			c-0.297,0.392-0.445,0.96-0.445,1.703c0,0.389,0.035,0.721,0.103,0.996c0.067,0.276,0.166,0.503,0.294,0.682
			c0.128,0.178,0.284,0.308,0.469,0.39C121.556,44.504,121.766,44.545,122.001,44.545z"/>
	</g>
	<g>
		<path fill="#333333" d="M19.799,110.209c0.372,0,0.716,0.055,1.032,0.165s0.59,0.268,0.822,0.474
			c0.231,0.206,0.414,0.458,0.546,0.757c0.132,0.298,0.198,0.635,0.198,1.011c0,0.32-0.047,0.617-0.142,0.891
			c-0.094,0.274-0.222,0.535-0.384,0.783s-0.35,0.49-0.564,0.726c-0.213,0.236-0.44,0.475-0.681,0.715l-2.214,2.256
			c0.164-0.044,0.33-0.08,0.498-0.108s0.328-0.042,0.48-0.042h2.771c0.124,0,0.223,0.036,0.294,0.108
			c0.072,0.071,0.108,0.166,0.108,0.281v0.69h-5.772v-0.39c0-0.08,0.017-0.163,0.052-0.249c0.033-0.086,0.086-0.163,0.158-0.231
			l2.73-2.748c0.228-0.231,0.434-0.454,0.617-0.666c0.185-0.212,0.342-0.424,0.475-0.636c0.132-0.212,0.232-0.427,0.303-0.646
			c0.07-0.218,0.105-0.45,0.105-0.698c0-0.244-0.039-0.458-0.114-0.643c-0.076-0.184-0.181-0.338-0.315-0.462
			c-0.134-0.124-0.293-0.216-0.477-0.275c-0.184-0.061-0.383-0.091-0.594-0.091c-0.213,0-0.406,0.031-0.582,0.094
			c-0.176,0.062-0.334,0.147-0.471,0.258c-0.139,0.11-0.255,0.24-0.349,0.39c-0.094,0.15-0.161,0.315-0.201,0.495
			c-0.052,0.148-0.12,0.247-0.207,0.297c-0.086,0.05-0.206,0.063-0.362,0.039l-0.601-0.107c0.06-0.396,0.171-0.746,0.333-1.051
			c0.162-0.304,0.367-0.559,0.615-0.765s0.531-0.361,0.852-0.465C19.081,110.261,19.427,110.209,19.799,110.209z"/>
		<path fill="#333333" d="M23.849,118.225c0-0.107,0.021-0.209,0.061-0.303c0.039-0.094,0.094-0.177,0.162-0.249
			s0.15-0.128,0.246-0.168s0.197-0.06,0.306-0.06s0.209,0.02,0.304,0.06c0.094,0.04,0.176,0.096,0.245,0.168
			c0.07,0.072,0.125,0.155,0.165,0.249s0.061,0.195,0.061,0.303c0,0.112-0.021,0.216-0.061,0.31s-0.095,0.176-0.165,0.246
			c-0.069,0.069-0.151,0.125-0.245,0.165c-0.095,0.04-0.195,0.06-0.304,0.06s-0.21-0.02-0.306-0.06s-0.178-0.096-0.246-0.165
			c-0.068-0.07-0.123-0.152-0.162-0.246C23.869,118.44,23.849,118.337,23.849,118.225z"/>
		<path fill="#333333" d="M36.821,118.915H35.86c-0.107,0-0.195-0.027-0.264-0.081s-0.12-0.125-0.156-0.213l-0.773-2.022h-3.822
			l-0.773,2.022c-0.024,0.076-0.074,0.144-0.147,0.204c-0.074,0.06-0.163,0.09-0.267,0.09h-0.961l3.433-8.61h1.254L36.821,118.915z
			 M31.187,115.711h3.139l-1.303-3.39c-0.044-0.108-0.089-0.233-0.135-0.375c-0.046-0.143-0.091-0.297-0.135-0.465
			c-0.045,0.168-0.088,0.323-0.133,0.468c-0.043,0.144-0.088,0.27-0.131,0.378L31.187,115.711z"/>
		<path fill="#333333" d="M41.765,113.947c-0.031,0.044-0.064,0.078-0.1,0.102c-0.033,0.024-0.08,0.036-0.141,0.036
			c-0.063,0-0.132-0.024-0.203-0.075c-0.072-0.05-0.16-0.104-0.265-0.162c-0.104-0.058-0.231-0.111-0.384-0.161
			c-0.152-0.051-0.338-0.075-0.559-0.075c-0.291,0-0.549,0.052-0.773,0.155c-0.225,0.104-0.411,0.255-0.561,0.45
			c-0.15,0.196-0.264,0.433-0.34,0.708c-0.076,0.276-0.113,0.588-0.113,0.937c0,0.359,0.041,0.68,0.123,0.96
			c0.082,0.279,0.197,0.516,0.348,0.708c0.15,0.191,0.332,0.338,0.546,0.438c0.214,0.101,0.453,0.15,0.717,0.15
			c0.257,0,0.466-0.031,0.63-0.093c0.164-0.063,0.301-0.129,0.408-0.201s0.199-0.139,0.273-0.201
			c0.074-0.062,0.148-0.093,0.225-0.093c0.096,0,0.168,0.036,0.217,0.107l0.323,0.414c-0.14,0.168-0.296,0.313-0.468,0.433
			s-0.356,0.218-0.553,0.294c-0.195,0.076-0.399,0.132-0.611,0.168c-0.213,0.036-0.428,0.054-0.648,0.054
			c-0.38,0-0.734-0.07-1.062-0.21c-0.328-0.14-0.613-0.344-0.854-0.612c-0.242-0.268-0.433-0.597-0.57-0.986
			c-0.139-0.391-0.207-0.833-0.207-1.329c0-0.452,0.063-0.869,0.188-1.251s0.312-0.713,0.556-0.993s0.545-0.498,0.902-0.654
			s0.77-0.233,1.233-0.233c0.436,0,0.819,0.069,1.149,0.21c0.33,0.14,0.621,0.336,0.873,0.588L41.765,113.947z"/>
		<path fill="#333333" d="M45.647,112.729c0.367,0,0.707,0.061,1.02,0.183s0.582,0.299,0.811,0.531
			c0.228,0.231,0.406,0.517,0.533,0.854c0.129,0.338,0.192,0.726,0.192,1.161c0,0.176-0.019,0.294-0.058,0.354
			c-0.037,0.06-0.108,0.09-0.213,0.09h-4.02c0.012,0.372,0.064,0.695,0.159,0.972c0.094,0.276,0.222,0.505,0.384,0.688
			c0.162,0.182,0.357,0.317,0.585,0.407s0.481,0.136,0.763,0.136c0.264,0,0.49-0.03,0.681-0.091c0.19-0.06,0.354-0.126,0.491-0.197
			c0.139-0.072,0.256-0.139,0.352-0.198c0.096-0.061,0.18-0.09,0.252-0.09c0.096,0,0.166,0.036,0.21,0.107l0.324,0.414
			c-0.14,0.168-0.302,0.312-0.486,0.43c-0.184,0.117-0.382,0.216-0.594,0.294c-0.212,0.077-0.431,0.135-0.657,0.171
			s-0.449,0.054-0.669,0.054c-0.42,0-0.81-0.071-1.167-0.213s-0.667-0.35-0.927-0.624c-0.261-0.274-0.464-0.614-0.608-1.021
			c-0.146-0.405-0.22-0.873-0.22-1.4c0-0.424,0.065-0.819,0.198-1.186c0.132-0.365,0.32-0.684,0.566-0.954
			c0.246-0.27,0.547-0.482,0.9-0.639S45.203,112.729,45.647,112.729z M45.665,113.563c-0.5,0-0.893,0.145-1.179,0.435
			s-0.466,0.691-0.537,1.203h3.233c0-0.24-0.033-0.46-0.102-0.66s-0.167-0.372-0.297-0.516c-0.13-0.145-0.289-0.257-0.477-0.339
			C46.119,113.604,45.905,113.563,45.665,113.563z"/>
		<path fill="#333333" d="M49.481,120.961v-8.136h0.684c0.16,0,0.26,0.076,0.3,0.228l0.097,0.696
			c0.256-0.308,0.551-0.557,0.885-0.747c0.334-0.189,0.717-0.285,1.148-0.285c0.348,0,0.663,0.067,0.945,0.201
			c0.281,0.134,0.523,0.333,0.726,0.597c0.202,0.265,0.357,0.59,0.466,0.976c0.107,0.386,0.162,0.831,0.162,1.335
			c0,0.452-0.061,0.871-0.181,1.257s-0.294,0.721-0.522,1.005c-0.228,0.284-0.504,0.507-0.828,0.669
			c-0.323,0.162-0.689,0.243-1.098,0.243c-0.371,0-0.688-0.06-0.947-0.18c-0.261-0.12-0.492-0.292-0.697-0.517v2.658H49.481z
			 M52.223,113.635c-0.344,0-0.644,0.077-0.897,0.231s-0.488,0.373-0.705,0.657v2.909c0.193,0.252,0.402,0.43,0.628,0.531
			c0.226,0.103,0.479,0.153,0.759,0.153c0.548,0,0.97-0.196,1.266-0.588c0.297-0.393,0.444-0.96,0.444-1.704
			c0-0.388-0.034-0.72-0.103-0.996c-0.067-0.276-0.166-0.503-0.293-0.681c-0.129-0.179-0.285-0.309-0.469-0.391
			S52.459,113.635,52.223,113.635z"/>
		<path fill="#333333" d="M58.043,119.011c-0.488,0-0.864-0.136-1.128-0.407c-0.264-0.272-0.396-0.664-0.396-1.177v-3.672h-0.714
			c-0.067,0-0.124-0.021-0.168-0.063s-0.065-0.104-0.065-0.184v-0.456l0.99-0.132l0.258-1.842c0.016-0.064,0.045-0.115,0.09-0.153
			c0.043-0.038,0.102-0.057,0.174-0.057h0.576v2.058h1.734v0.828h-1.734v3.594c0,0.244,0.059,0.428,0.177,0.55
			s0.272,0.183,0.465,0.183c0.108,0,0.202-0.014,0.282-0.042s0.148-0.06,0.203-0.096c0.057-0.036,0.105-0.068,0.148-0.097
			c0.041-0.027,0.078-0.042,0.11-0.042c0.036,0,0.065,0.009,0.087,0.024s0.045,0.044,0.068,0.084l0.336,0.546
			c-0.191,0.176-0.418,0.313-0.68,0.408C58.594,118.963,58.323,119.011,58.043,119.011z"/>
		<path fill="#333333" d="M64.367,118.915c-0.112,0-0.198-0.018-0.259-0.054c-0.06-0.036-0.107-0.106-0.144-0.21l-0.126-0.546
			c-0.156,0.144-0.311,0.272-0.462,0.387s-0.312,0.209-0.478,0.285s-0.342,0.134-0.53,0.174s-0.397,0.06-0.63,0.06
			c-0.24,0-0.465-0.032-0.672-0.099c-0.209-0.066-0.39-0.167-0.543-0.303c-0.154-0.137-0.276-0.306-0.366-0.508
			c-0.091-0.201-0.136-0.44-0.136-0.717c0-0.239,0.065-0.47,0.195-0.689c0.131-0.22,0.342-0.417,0.637-0.591
			c0.293-0.175,0.678-0.317,1.151-0.43c0.474-0.111,1.058-0.176,1.749-0.191v-0.456c0-0.46-0.099-0.808-0.297-1.041
			c-0.197-0.234-0.488-0.352-0.873-0.352c-0.26,0-0.477,0.033-0.65,0.1c-0.174,0.065-0.324,0.138-0.451,0.216
			c-0.125,0.078-0.236,0.148-0.332,0.213s-0.192,0.096-0.289,0.096c-0.08,0-0.146-0.021-0.2-0.063s-0.101-0.091-0.142-0.147
			l-0.203-0.372c0.34-0.319,0.707-0.56,1.101-0.72s0.829-0.24,1.306-0.24c0.344,0,0.649,0.057,0.918,0.168
			c0.268,0.112,0.492,0.27,0.674,0.472c0.183,0.201,0.32,0.444,0.414,0.729s0.142,0.598,0.142,0.942v3.888H64.367z M62.081,118.213
			c0.18,0,0.348-0.018,0.501-0.054s0.298-0.088,0.433-0.156c0.133-0.067,0.26-0.15,0.381-0.249c0.119-0.098,0.24-0.209,0.359-0.333
			v-1.224c-0.48,0.016-0.888,0.054-1.224,0.114c-0.337,0.06-0.609,0.138-0.819,0.233s-0.363,0.211-0.459,0.345
			c-0.096,0.135-0.145,0.281-0.145,0.441c0,0.156,0.025,0.29,0.076,0.402c0.049,0.111,0.119,0.203,0.207,0.272
			c0.088,0.07,0.19,0.122,0.309,0.156C61.817,118.196,61.944,118.213,62.081,118.213z"/>
		<path fill="#333333" d="M70.673,110.065v8.85h-1.141v-8.85H70.673z"/>
		<path fill="#333333" d="M76.253,118.915c-0.112,0-0.198-0.018-0.258-0.054c-0.061-0.036-0.108-0.106-0.145-0.21l-0.126-0.546
			c-0.155,0.144-0.31,0.272-0.462,0.387s-0.311,0.209-0.477,0.285s-0.344,0.134-0.531,0.174s-0.398,0.06-0.63,0.06
			c-0.24,0-0.464-0.032-0.673-0.099c-0.207-0.066-0.389-0.167-0.543-0.303c-0.153-0.137-0.275-0.306-0.365-0.508
			c-0.09-0.201-0.135-0.44-0.135-0.717c0-0.239,0.064-0.47,0.195-0.689c0.129-0.22,0.342-0.417,0.635-0.591
			c0.295-0.175,0.679-0.317,1.152-0.43c0.475-0.111,1.057-0.176,1.749-0.191v-0.456c0-0.46-0.099-0.808-0.297-1.041
			c-0.198-0.234-0.489-0.352-0.873-0.352c-0.26,0-0.478,0.033-0.651,0.1c-0.174,0.065-0.324,0.138-0.449,0.216
			c-0.127,0.078-0.237,0.148-0.334,0.213c-0.096,0.064-0.191,0.096-0.287,0.096c-0.08,0-0.147-0.021-0.201-0.063
			c-0.055-0.042-0.102-0.091-0.141-0.147l-0.205-0.372c0.34-0.319,0.707-0.56,1.102-0.72s0.829-0.24,1.305-0.24
			c0.344,0,0.65,0.057,0.918,0.168c0.269,0.112,0.493,0.27,0.676,0.472c0.182,0.201,0.32,0.444,0.414,0.729s0.141,0.598,0.141,0.942
			v3.888H76.253z M73.967,118.213c0.181,0,0.347-0.018,0.501-0.054s0.298-0.088,0.432-0.156c0.135-0.067,0.262-0.15,0.381-0.249
			c0.121-0.098,0.24-0.209,0.36-0.333v-1.224c-0.479,0.016-0.888,0.054-1.224,0.114c-0.336,0.06-0.609,0.138-0.819,0.233
			s-0.362,0.211-0.459,0.345c-0.096,0.135-0.144,0.281-0.144,0.441c0,0.156,0.024,0.29,0.074,0.402
			c0.051,0.111,0.119,0.203,0.207,0.272c0.088,0.07,0.191,0.122,0.31,0.156S73.831,118.213,73.967,118.213z"/>
		<path fill="#333333" d="M83.284,119.011c-0.488,0-0.863-0.136-1.127-0.407c-0.265-0.272-0.396-0.664-0.396-1.177v-3.672h-0.715
			c-0.067,0-0.123-0.021-0.168-0.063c-0.043-0.042-0.065-0.104-0.065-0.184v-0.456l0.99-0.132l0.258-1.842
			c0.017-0.064,0.046-0.115,0.09-0.153s0.103-0.057,0.175-0.057H82.9v2.058h1.734v0.828H82.9v3.594c0,0.244,0.06,0.428,0.177,0.55
			c0.118,0.122,0.273,0.183,0.465,0.183c0.108,0,0.203-0.014,0.283-0.042c0.079-0.028,0.147-0.06,0.203-0.096
			c0.057-0.036,0.105-0.068,0.147-0.097c0.042-0.027,0.079-0.042,0.11-0.042c0.037,0,0.065,0.009,0.088,0.024
			c0.021,0.016,0.045,0.044,0.068,0.084l0.336,0.546c-0.191,0.176-0.419,0.313-0.681,0.408
			C83.835,118.963,83.564,119.011,83.284,119.011z"/>
		<path fill="#333333" d="M89.608,118.915c-0.112,0-0.198-0.018-0.258-0.054c-0.061-0.036-0.108-0.106-0.145-0.21l-0.126-0.546
			c-0.155,0.144-0.31,0.272-0.462,0.387s-0.311,0.209-0.477,0.285s-0.344,0.134-0.531,0.174s-0.398,0.06-0.63,0.06
			c-0.24,0-0.464-0.032-0.673-0.099c-0.207-0.066-0.389-0.167-0.543-0.303c-0.153-0.137-0.275-0.306-0.365-0.508
			c-0.09-0.201-0.135-0.44-0.135-0.717c0-0.239,0.064-0.47,0.195-0.689c0.129-0.22,0.342-0.417,0.635-0.591
			c0.295-0.175,0.679-0.317,1.152-0.43c0.475-0.111,1.057-0.176,1.749-0.191v-0.456c0-0.46-0.099-0.808-0.297-1.041
			c-0.198-0.234-0.489-0.352-0.873-0.352c-0.26,0-0.478,0.033-0.651,0.1c-0.174,0.065-0.324,0.138-0.449,0.216
			c-0.127,0.078-0.237,0.148-0.334,0.213c-0.096,0.064-0.191,0.096-0.287,0.096c-0.08,0-0.147-0.021-0.201-0.063
			c-0.055-0.042-0.102-0.091-0.141-0.147l-0.205-0.372c0.34-0.319,0.707-0.56,1.102-0.72s0.829-0.24,1.305-0.24
			c0.344,0,0.65,0.057,0.918,0.168c0.269,0.112,0.493,0.27,0.676,0.472c0.182,0.201,0.32,0.444,0.414,0.729s0.141,0.598,0.141,0.942
			v3.888H89.608z M87.322,118.213c0.181,0,0.347-0.018,0.501-0.054s0.298-0.088,0.432-0.156c0.135-0.067,0.262-0.15,0.381-0.249
			c0.121-0.098,0.24-0.209,0.36-0.333v-1.224c-0.479,0.016-0.888,0.054-1.224,0.114c-0.336,0.06-0.609,0.138-0.819,0.233
			s-0.362,0.211-0.459,0.345c-0.096,0.135-0.144,0.281-0.144,0.441c0,0.156,0.024,0.29,0.074,0.402
			c0.051,0.111,0.119,0.203,0.207,0.272c0.088,0.07,0.191,0.122,0.31,0.156S87.187,118.213,87.322,118.213z M89.632,110.209
			l-1.41,1.548c-0.056,0.064-0.112,0.109-0.17,0.135c-0.059,0.026-0.131,0.039-0.22,0.039h-0.684l0.888-1.451
			c0.057-0.093,0.117-0.16,0.184-0.204c0.065-0.044,0.166-0.066,0.303-0.066H89.632z"/>
		<path fill="#333333" d="M91.702,118.915v-6.09h0.654c0.123,0,0.209,0.021,0.254,0.065c0.047,0.045,0.078,0.124,0.094,0.24
			l0.072,0.888c0.191-0.403,0.428-0.722,0.707-0.953c0.281-0.232,0.617-0.349,1.009-0.349c0.132,0,0.257,0.015,0.375,0.042
			c0.118,0.028,0.221,0.072,0.309,0.132l-0.077,0.853c-0.024,0.107-0.089,0.162-0.192,0.162c-0.056,0-0.14-0.013-0.249-0.036
			c-0.11-0.024-0.231-0.036-0.363-0.036c-0.188,0-0.355,0.028-0.501,0.084s-0.276,0.138-0.394,0.246
			c-0.115,0.108-0.219,0.24-0.309,0.396c-0.09,0.156-0.173,0.335-0.249,0.534v3.822H91.702z"/>
		<path fill="#333333" d="M97.505,110.935c0,0.108-0.021,0.21-0.063,0.304s-0.101,0.177-0.175,0.249
			c-0.073,0.071-0.159,0.129-0.258,0.171c-0.098,0.042-0.201,0.063-0.309,0.063c-0.104,0-0.203-0.021-0.297-0.063
			s-0.178-0.1-0.249-0.171c-0.072-0.072-0.129-0.155-0.171-0.249s-0.063-0.195-0.063-0.304c0-0.107,0.021-0.211,0.063-0.309
			s0.099-0.183,0.171-0.255c0.071-0.072,0.155-0.129,0.249-0.171s0.193-0.063,0.297-0.063c0.107,0,0.211,0.021,0.309,0.063
			c0.099,0.042,0.185,0.099,0.258,0.171c0.074,0.072,0.133,0.157,0.175,0.255S97.505,110.827,97.505,110.935z M97.282,112.825v6.09
			h-1.141v-6.09H97.282z"/>
		<path fill="#333333" d="M99.394,118.915v-5.148l-0.647-0.077c-0.093-0.017-0.166-0.048-0.222-0.094
			c-0.057-0.046-0.084-0.11-0.084-0.194v-0.475h0.953v-0.563c0-0.349,0.051-0.658,0.15-0.931c0.1-0.271,0.242-0.501,0.426-0.687
			c0.184-0.187,0.407-0.328,0.67-0.426c0.262-0.099,0.555-0.147,0.879-0.147c0.131,0,0.262,0.01,0.39,0.03
			c0.128,0.02,0.25,0.048,0.366,0.084l-0.024,0.576c-0.004,0.048-0.021,0.085-0.048,0.11c-0.028,0.026-0.066,0.045-0.114,0.058
			c-0.048,0.012-0.104,0.018-0.168,0.018s-0.136,0-0.216,0c-0.184,0-0.35,0.023-0.498,0.069s-0.275,0.121-0.381,0.225
			c-0.105,0.104-0.188,0.243-0.243,0.417s-0.084,0.388-0.084,0.64v0.527h1.728v0.828h-1.691v5.16H99.394z"/>
		<path fill="#333333" d="M107.104,118.915c-0.113,0-0.199-0.018-0.259-0.054s-0.108-0.106-0.144-0.21l-0.127-0.546
			c-0.155,0.144-0.31,0.272-0.461,0.387c-0.152,0.114-0.312,0.209-0.478,0.285s-0.343,0.134-0.53,0.174
			c-0.188,0.04-0.398,0.06-0.631,0.06c-0.24,0-0.464-0.032-0.672-0.099s-0.389-0.167-0.543-0.303
			c-0.154-0.137-0.275-0.306-0.365-0.508c-0.091-0.201-0.136-0.44-0.136-0.717c0-0.239,0.065-0.47,0.195-0.689
			s0.342-0.417,0.636-0.591c0.294-0.175,0.678-0.317,1.152-0.43c0.474-0.111,1.057-0.176,1.748-0.191v-0.456
			c0-0.46-0.098-0.808-0.297-1.041c-0.197-0.234-0.488-0.352-0.873-0.352c-0.26,0-0.477,0.033-0.65,0.1
			c-0.174,0.065-0.324,0.138-0.45,0.216s-0.237,0.148-0.333,0.213s-0.191,0.096-0.288,0.096c-0.08,0-0.147-0.021-0.2-0.063
			c-0.055-0.042-0.102-0.091-0.142-0.147l-0.204-0.372c0.34-0.319,0.707-0.56,1.102-0.72c0.394-0.16,0.828-0.24,1.305-0.24
			c0.344,0,0.65,0.057,0.918,0.168c0.268,0.112,0.492,0.27,0.675,0.472c0.183,0.201,0.32,0.444,0.414,0.729s0.142,0.598,0.142,0.942
			v3.888H107.104z M104.817,118.213c0.181,0,0.348-0.018,0.502-0.054c0.153-0.036,0.297-0.088,0.432-0.156
			c0.134-0.067,0.261-0.15,0.381-0.249c0.12-0.098,0.24-0.209,0.359-0.333v-1.224c-0.479,0.016-0.887,0.054-1.223,0.114
			c-0.337,0.06-0.609,0.138-0.82,0.233c-0.209,0.096-0.362,0.211-0.459,0.345c-0.096,0.135-0.144,0.281-0.144,0.441
			c0,0.156,0.024,0.29,0.075,0.402c0.05,0.111,0.119,0.203,0.207,0.272c0.088,0.07,0.191,0.122,0.309,0.156
			C104.555,118.196,104.682,118.213,104.817,118.213z"/>
	</g>
	<g>
		<rect x="46.471" y="0.5" fill="none" stroke="#00BEBE" stroke-miterlimit="10" width="31.675" height="22.877"/>
		<line fill="none" stroke="#00BEBE" stroke-miterlimit="10" x1="68.649" y1="19.672" x2="74.974" y2="19.672"/>
		<line fill="none" stroke="#00BEBE" stroke-miterlimit="10" x1="50.503" y1="4.555" x2="74.974" y2="4.555"/>
		<line fill="none" stroke="#00BEBE" stroke-miterlimit="10" x1="50.503" y1="8.334" x2="74.974" y2="8.334"/>
		<line fill="none" stroke="#00BEBE" stroke-miterlimit="10" x1="50.503" y1="12.113" x2="74.974" y2="12.113"/>
		<line fill="none" stroke="#00BEBE" stroke-miterlimit="10" x1="50.503" y1="15.893" x2="74.974" y2="15.893"/>
	</g>
	<g>
		<g>
			<g>
				<path fill="none" stroke="#00BEBE" stroke-miterlimit="10" d="M72.965,95.877c1.229-2.143,1.933-4.624,1.933-7.271
					c0-8.075-6.546-14.621-14.623-14.621c-8.075,0-14.621,6.546-14.621,14.621c0,8.076,6.546,14.622,14.621,14.622
					c2.862,0,5.534-0.822,7.789-2.244"/>
				<g>
					<path fill="#00BEBE" d="M59.841,94.627c-0.712-0.033-1.33-0.187-1.856-0.46c-0.525-0.271-0.988-0.631-1.389-1.075l0.226-0.327
						c0.065-0.083,0.145-0.124,0.233-0.124c0.05,0,0.109,0.03,0.183,0.092c0.073,0.061,0.162,0.138,0.267,0.229
						c0.106,0.094,0.23,0.192,0.375,0.302c0.146,0.108,0.314,0.211,0.506,0.309c0.192,0.097,0.411,0.182,0.655,0.254
						c0.245,0.072,0.523,0.118,0.834,0.134h0.535c0.445-0.028,0.842-0.118,1.189-0.271c0.346-0.154,0.64-0.354,0.875-0.601
						c0.237-0.248,0.418-0.535,0.543-0.861c0.126-0.325,0.188-0.674,0.188-1.047c0-0.367-0.07-0.679-0.209-0.935
						s-0.326-0.473-0.56-0.65s-0.504-0.327-0.809-0.446c-0.307-0.12-0.626-0.232-0.961-0.339l-0.524-0.157
						c-0.38-0.118-0.747-0.248-1.106-0.393c-0.358-0.146-0.68-0.331-0.959-0.555c-0.281-0.226-0.508-0.504-0.681-0.836
						c-0.173-0.33-0.259-0.747-0.259-1.247c0-0.39,0.073-0.764,0.221-1.122c0.146-0.359,0.361-0.678,0.643-0.956
						c0.281-0.277,0.628-0.504,1.039-0.675c0.412-0.173,0.882-0.269,1.41-0.284l0.534,0.008c0.563,0.04,1.055,0.163,1.478,0.371
						c0.423,0.209,0.81,0.488,1.159,0.839l-0.183,0.283c-0.056,0.096-0.132,0.143-0.226,0.143c-0.067,0-0.154-0.045-0.263-0.139
						c-0.108-0.091-0.251-0.191-0.426-0.303c-0.175-0.112-0.392-0.22-0.647-0.323c-0.256-0.102-0.564-0.167-0.926-0.196
						l-0.534-0.008c-0.422,0.022-0.792,0.102-1.105,0.233c-0.314,0.134-0.577,0.306-0.789,0.514c-0.211,0.21-0.37,0.447-0.475,0.714
						c-0.106,0.268-0.159,0.545-0.159,0.834c0,0.346,0.061,0.641,0.183,0.885c0.124,0.245,0.289,0.455,0.502,0.63
						c0.211,0.175,0.455,0.326,0.73,0.451c0.274,0.126,0.567,0.241,0.88,0.346l0.526,0.176c0.394,0.128,0.786,0.263,1.177,0.401
						c0.389,0.139,0.737,0.318,1.042,0.541c0.307,0.224,0.555,0.499,0.743,0.827c0.188,0.329,0.284,0.742,0.284,1.244
						c0,0.479-0.081,0.928-0.243,1.352c-0.16,0.423-0.393,0.794-0.696,1.114c-0.303,0.319-0.677,0.576-1.122,0.771
						c-0.446,0.195-0.951,0.305-1.519,0.334H59.841z"/>
				</g>
				<line fill="none" stroke="#00BEBE" stroke-miterlimit="10" x1="60.274" y1="96.884" x2="60.274" y2="80.327"/>
			</g>
		</g>
		<polyline fill="none" stroke="#00BEBE" stroke-miterlimit="10" points="69.663,97.868 72.106,100.313 78.964,93.455 		"/>
	</g>
</g>
</svg>
