<?xml version="1.0" encoding="utf-8"?>
<!-- Generator: Adobe Illustrator 16.0.0, SVG Export Plug-In . SVG Version: 6.00 Build 0)  -->
<!DOCTYPE svg PUBLIC "-//W3C//DTD SVG 1.1//EN" "http://www.w3.org/Graphics/SVG/1.1/DTD/svg11.dtd">
<svg version="1.1" id="Capa_1" xmlns="http://www.w3.org/2000/svg" xmlns:xlink="http://www.w3.org/1999/xlink" x="0px" y="0px"
	 width="879.555px" height="104.475px" viewBox="0 0 879.555 104.475" enable-background="new 0 0 879.555 104.475"
	 xml:space="preserve">
<g>
	<g>
		<g>
			<path fill="#FFFFFF" d="M783.38,71.767c-0.048,0.085-0.1,0.147-0.155,0.188c-0.057,0.04-0.13,0.061-0.221,0.061
				c-0.096,0-0.205-0.044-0.328-0.132c-0.122-0.088-0.275-0.187-0.46-0.296c-0.184-0.109-0.403-0.208-0.66-0.297
				c-0.256-0.088-0.563-0.132-0.92-0.132c-0.341,0-0.641,0.044-0.899,0.132c-0.259,0.089-0.475,0.21-0.648,0.364
				c-0.173,0.155-0.304,0.338-0.392,0.548c-0.088,0.211-0.132,0.439-0.132,0.685c0,0.314,0.078,0.573,0.235,0.775
				c0.157,0.203,0.364,0.378,0.62,0.524s0.548,0.273,0.876,0.38s0.663,0.219,1.004,0.336c0.342,0.117,0.677,0.249,1.004,0.396
				c0.328,0.146,0.62,0.333,0.876,0.56c0.257,0.227,0.463,0.504,0.62,0.832s0.236,0.729,0.236,1.204c0,0.507-0.087,0.979-0.26,1.42
				c-0.174,0.44-0.426,0.824-0.756,1.152c-0.331,0.328-0.736,0.586-1.217,0.775c-0.479,0.189-1.026,0.284-1.64,0.284
				c-0.368,0-0.724-0.036-1.068-0.108c-0.344-0.071-0.669-0.173-0.976-0.304s-0.595-0.288-0.864-0.472
				c-0.27-0.185-0.511-0.391-0.724-0.62l0.479-0.784c0.043-0.063,0.098-0.116,0.164-0.156c0.067-0.04,0.141-0.06,0.221-0.06
				c0.111,0,0.241,0.059,0.388,0.176s0.328,0.247,0.544,0.389c0.216,0.141,0.476,0.271,0.78,0.388
				c0.304,0.117,0.672,0.176,1.104,0.176c0.357,0,0.678-0.048,0.96-0.144c0.283-0.097,0.521-0.232,0.716-0.408
				c0.195-0.176,0.343-0.39,0.444-0.641c0.102-0.25,0.152-0.527,0.152-0.832c0-0.341-0.079-0.619-0.236-0.836
				c-0.157-0.216-0.364-0.396-0.62-0.54c-0.256-0.144-0.547-0.267-0.872-0.367c-0.325-0.102-0.66-0.207-1.004-0.316
				s-0.679-0.236-1.004-0.38c-0.325-0.145-0.616-0.332-0.872-0.564c-0.256-0.231-0.463-0.521-0.62-0.867s-0.235-0.776-0.235-1.288
				c0-0.405,0.08-0.801,0.239-1.185c0.16-0.384,0.393-0.723,0.696-1.016s0.679-0.529,1.124-0.708s0.956-0.269,1.532-0.269
				c0.646,0,1.235,0.102,1.771,0.305c0.536,0.202,1.004,0.496,1.404,0.88L783.38,71.767z"/>
			<path fill="#FFFFFF" d="M789.1,73.15c0.49,0,0.944,0.081,1.36,0.244s0.775,0.398,1.08,0.708c0.304,0.31,0.541,0.689,0.712,1.14
				c0.17,0.451,0.256,0.967,0.256,1.548c0,0.235-0.025,0.393-0.076,0.473s-0.146,0.12-0.284,0.12h-5.36
				c0.017,0.496,0.087,0.928,0.213,1.296c0.125,0.368,0.296,0.673,0.512,0.916c0.216,0.242,0.476,0.424,0.78,0.544
				c0.304,0.12,0.643,0.18,1.016,0.18c0.352,0,0.654-0.04,0.908-0.12c0.253-0.08,0.472-0.168,0.655-0.264
				c0.185-0.096,0.341-0.185,0.469-0.264c0.128-0.08,0.239-0.12,0.336-0.12c0.128,0,0.221,0.048,0.279,0.144l0.433,0.552
				c-0.187,0.225-0.403,0.415-0.648,0.572s-0.509,0.288-0.792,0.392c-0.282,0.104-0.574,0.181-0.876,0.229
				c-0.301,0.048-0.599,0.072-0.892,0.072c-0.561,0-1.079-0.095-1.556-0.284c-0.478-0.189-0.89-0.467-1.236-0.832
				s-0.617-0.818-0.813-1.36c-0.194-0.541-0.292-1.164-0.292-1.868c0-0.564,0.088-1.092,0.265-1.579
				c0.176-0.488,0.428-0.912,0.756-1.272s0.728-0.644,1.2-0.852C787.976,73.255,788.508,73.15,789.1,73.15z M789.125,74.263
				c-0.667,0-1.191,0.193-1.572,0.58c-0.382,0.387-0.62,0.921-0.716,1.604h4.312c0-0.32-0.045-0.613-0.136-0.88
				s-0.223-0.496-0.396-0.688c-0.173-0.192-0.385-0.343-0.636-0.452S789.444,74.263,789.125,74.263z"/>
			<path fill="#FFFFFF" d="M799.708,73.278v5.176c0,0.587,0.136,1.044,0.408,1.372c0.271,0.328,0.686,0.492,1.24,0.492
				c0.405,0,0.785-0.095,1.14-0.284s0.684-0.452,0.988-0.788v-5.968h1.52v8.12h-0.912c-0.213,0-0.347-0.102-0.399-0.304l-0.12-0.84
				c-0.353,0.378-0.743,0.685-1.172,0.92c-0.43,0.234-0.927,0.352-1.492,0.352c-0.448,0-0.842-0.074-1.18-0.224
				c-0.339-0.149-0.622-0.359-0.849-0.628c-0.227-0.27-0.398-0.593-0.516-0.969s-0.176-0.793-0.176-1.252v-5.176H799.708z"/>
			<path fill="#FFFFFF" d="M807.204,81.398v-8.12h0.912c0.214,0,0.347,0.102,0.4,0.304l0.112,0.841
				c0.352-0.379,0.744-0.686,1.176-0.921c0.432-0.234,0.931-0.352,1.496-0.352c0.442,0,0.833,0.075,1.172,0.224
				c0.339,0.149,0.622,0.359,0.852,0.628c0.229,0.27,0.403,0.593,0.521,0.969s0.176,0.793,0.176,1.252v5.176h-1.52v-5.176
				c0-0.587-0.137-1.044-0.408-1.372c-0.272-0.328-0.686-0.492-1.24-0.492c-0.411,0-0.792,0.096-1.144,0.288
				c-0.353,0.192-0.681,0.456-0.984,0.792v5.96H807.204z"/>
			<path fill="#FFFFFF" d="M825.396,81.398c-0.149,0-0.264-0.024-0.344-0.072s-0.145-0.141-0.192-0.279l-0.168-0.729
				c-0.208,0.192-0.413,0.364-0.616,0.516c-0.202,0.152-0.414,0.279-0.636,0.381c-0.222,0.101-0.457,0.179-0.708,0.231
				c-0.251,0.054-0.53,0.08-0.84,0.08c-0.32,0-0.619-0.044-0.896-0.132c-0.278-0.088-0.52-0.223-0.725-0.404
				c-0.205-0.181-0.368-0.406-0.488-0.676c-0.119-0.27-0.18-0.588-0.18-0.956c0-0.32,0.087-0.627,0.26-0.92
				c0.174-0.293,0.456-0.556,0.849-0.788c0.392-0.232,0.903-0.423,1.536-0.572c0.632-0.149,1.409-0.234,2.332-0.256v-0.607
				c0-0.613-0.133-1.076-0.396-1.389c-0.264-0.312-0.652-0.468-1.164-0.468c-0.347,0-0.636,0.044-0.868,0.132
				c-0.231,0.088-0.432,0.185-0.6,0.288c-0.168,0.104-0.316,0.199-0.444,0.284s-0.256,0.128-0.384,0.128
				c-0.106,0-0.196-0.028-0.268-0.084c-0.072-0.056-0.135-0.121-0.188-0.196l-0.271-0.496c0.453-0.426,0.942-0.746,1.468-0.96
				c0.525-0.213,1.105-0.319,1.739-0.319c0.459,0,0.867,0.074,1.225,0.224s0.657,0.358,0.899,0.628
				c0.243,0.27,0.427,0.594,0.553,0.972c0.125,0.379,0.188,0.798,0.188,1.257v5.184H825.396z M822.348,80.463
				c0.24,0,0.463-0.024,0.668-0.072s0.397-0.117,0.576-0.208s0.348-0.201,0.508-0.332s0.32-0.278,0.48-0.444v-1.632
				c-0.641,0.021-1.185,0.072-1.633,0.152c-0.447,0.08-0.812,0.184-1.092,0.312s-0.483,0.281-0.612,0.46
				c-0.128,0.179-0.191,0.375-0.191,0.588c0,0.208,0.033,0.387,0.1,0.536s0.159,0.271,0.276,0.364s0.255,0.163,0.412,0.208
				S822.167,80.463,822.348,80.463z"/>
			<path fill="#FFFFFF" d="M828.187,81.398v-11.8h1.521v4.824c0.336-0.39,0.719-0.699,1.148-0.929
				c0.429-0.229,0.918-0.344,1.468-0.344c0.475,0,0.902,0.092,1.284,0.276c0.381,0.184,0.705,0.446,0.972,0.788
				c0.267,0.341,0.471,0.759,0.612,1.252c0.141,0.493,0.212,1.047,0.212,1.659c0,0.656-0.082,1.254-0.244,1.792
				c-0.163,0.539-0.395,1-0.696,1.385c-0.301,0.384-0.667,0.681-1.096,0.892c-0.43,0.211-0.913,0.316-1.452,0.316
				c-0.533,0-0.98-0.101-1.34-0.301c-0.36-0.199-0.676-0.476-0.948-0.827l-0.072,0.695c-0.048,0.214-0.176,0.32-0.384,0.32H828.187z
				 M831.82,74.358c-0.454,0-0.847,0.103-1.181,0.308c-0.333,0.206-0.644,0.498-0.932,0.876v3.881
				c0.256,0.336,0.536,0.571,0.84,0.708c0.304,0.136,0.635,0.203,0.992,0.203c0.741,0,1.31-0.261,1.704-0.783
				c0.395-0.523,0.592-1.313,0.592-2.368c0-0.971-0.175-1.685-0.524-2.141C832.962,74.587,832.464,74.358,831.82,74.358z"/>
			<path fill="#FFFFFF" d="M840.62,73.15c0.598,0,1.137,0.098,1.616,0.292c0.48,0.194,0.888,0.474,1.224,0.836
				c0.336,0.363,0.595,0.802,0.776,1.316s0.272,1.092,0.272,1.731c0,0.641-0.091,1.219-0.272,1.736s-0.44,0.957-0.776,1.32
				c-0.336,0.362-0.743,0.641-1.224,0.836c-0.479,0.194-1.019,0.292-1.616,0.292c-0.597,0-1.137-0.098-1.62-0.292
				c-0.482-0.195-0.893-0.474-1.231-0.836c-0.339-0.363-0.599-0.803-0.78-1.32s-0.271-1.096-0.271-1.736
				c0-0.64,0.09-1.217,0.271-1.731s0.441-0.953,0.78-1.316c0.339-0.362,0.749-0.642,1.231-0.836
				C839.483,73.248,840.023,73.15,840.62,73.15z M840.62,80.326c0.779,0,1.36-0.261,1.744-0.784
				c0.384-0.522,0.576-1.258,0.576-2.208c0-0.943-0.192-1.68-0.576-2.208c-0.384-0.527-0.965-0.792-1.744-0.792
				c-0.789,0-1.377,0.265-1.764,0.792c-0.387,0.528-0.58,1.265-0.58,2.208c0,0.95,0.193,1.686,0.58,2.208
				C839.243,80.065,839.831,80.326,840.62,80.326z"/>
			<path fill="#FFFFFF" d="M849.108,73.143c0.352,0,0.679,0.039,0.979,0.116c0.302,0.077,0.58,0.188,0.836,0.332h2.24v0.56
				c0,0.192-0.117,0.313-0.352,0.36l-0.889,0.128c0.166,0.341,0.248,0.715,0.248,1.12c0,0.399-0.075,0.76-0.228,1.08
				c-0.152,0.319-0.364,0.595-0.636,0.823c-0.272,0.229-0.597,0.405-0.973,0.528s-0.785,0.184-1.228,0.184
				c-0.373,0-0.72-0.04-1.04-0.119c-0.336,0.202-0.504,0.427-0.504,0.672c0,0.187,0.078,0.326,0.235,0.42
				c0.157,0.093,0.364,0.161,0.62,0.204c0.256,0.042,0.547,0.069,0.872,0.08s0.659,0.027,1,0.052c0.342,0.023,0.675,0.065,1,0.124
				s0.616,0.156,0.872,0.292s0.463,0.321,0.62,0.556c0.157,0.235,0.236,0.542,0.236,0.92c0,0.353-0.087,0.692-0.261,1.021
				c-0.173,0.328-0.424,0.618-0.752,0.872c-0.327,0.253-0.729,0.457-1.203,0.611c-0.476,0.155-1.011,0.232-1.608,0.232
				s-1.119-0.059-1.564-0.176c-0.445-0.118-0.815-0.275-1.111-0.473s-0.518-0.425-0.664-0.684s-0.22-0.529-0.22-0.813
				c0-0.399,0.123-0.737,0.371-1.012s0.589-0.489,1.021-0.644c-0.24-0.106-0.43-0.252-0.568-0.437
				c-0.139-0.184-0.208-0.428-0.208-0.731c0-0.117,0.021-0.239,0.064-0.364c0.042-0.125,0.107-0.251,0.196-0.376
				c0.088-0.125,0.197-0.244,0.327-0.356c0.131-0.111,0.281-0.21,0.452-0.296c-0.399-0.224-0.715-0.521-0.943-0.892
				c-0.229-0.371-0.345-0.804-0.345-1.3c0-0.4,0.077-0.761,0.232-1.08c0.154-0.32,0.369-0.595,0.644-0.824
				c0.275-0.229,0.602-0.405,0.98-0.528C848.239,73.204,848.655,73.143,849.108,73.143z M851.62,81.822
				c0-0.191-0.055-0.347-0.164-0.464s-0.257-0.211-0.443-0.28c-0.188-0.069-0.403-0.117-0.648-0.144s-0.504-0.048-0.776-0.064
				c-0.271-0.016-0.551-0.031-0.836-0.048c-0.285-0.016-0.559-0.042-0.819-0.08c-0.288,0.139-0.523,0.31-0.704,0.513
				c-0.182,0.202-0.272,0.439-0.272,0.712c0,0.176,0.046,0.34,0.136,0.491c0.091,0.152,0.229,0.283,0.412,0.393
				c0.185,0.109,0.419,0.196,0.704,0.26c0.285,0.064,0.623,0.096,1.013,0.096c0.384,0,0.725-0.034,1.023-0.104
				s0.55-0.165,0.752-0.288c0.203-0.123,0.357-0.268,0.464-0.436C851.566,82.21,851.62,82.025,851.62,81.822z M849.108,77.374
				c0.282,0,0.53-0.038,0.744-0.115c0.213-0.077,0.392-0.186,0.536-0.324c0.144-0.139,0.252-0.304,0.323-0.496
				c0.072-0.192,0.108-0.405,0.108-0.64c0-0.48-0.146-0.863-0.437-1.148c-0.29-0.285-0.716-0.428-1.275-0.428
				c-0.561,0-0.985,0.143-1.276,0.428s-0.436,0.668-0.436,1.148c0,0.229,0.037,0.439,0.111,0.632c0.075,0.191,0.185,0.358,0.328,0.5
				c0.145,0.142,0.323,0.251,0.536,0.328C848.585,77.336,848.831,77.374,849.108,77.374z"/>
			<path fill="#FFFFFF" d="M859.795,81.398c-0.149,0-0.264-0.024-0.344-0.072s-0.145-0.141-0.192-0.279l-0.168-0.729
				c-0.208,0.192-0.413,0.364-0.616,0.516c-0.202,0.152-0.414,0.279-0.636,0.381c-0.222,0.101-0.457,0.179-0.708,0.231
				c-0.251,0.054-0.53,0.08-0.84,0.08c-0.32,0-0.619-0.044-0.896-0.132c-0.278-0.088-0.52-0.223-0.725-0.404
				c-0.205-0.181-0.368-0.406-0.488-0.676c-0.119-0.27-0.18-0.588-0.18-0.956c0-0.32,0.087-0.627,0.26-0.92
				c0.174-0.293,0.456-0.556,0.849-0.788c0.392-0.232,0.903-0.423,1.536-0.572c0.632-0.149,1.409-0.234,2.332-0.256v-0.607
				c0-0.613-0.133-1.076-0.396-1.389c-0.264-0.312-0.652-0.468-1.164-0.468c-0.347,0-0.636,0.044-0.868,0.132
				c-0.231,0.088-0.432,0.185-0.6,0.288c-0.168,0.104-0.316,0.199-0.444,0.284s-0.256,0.128-0.384,0.128
				c-0.106,0-0.196-0.028-0.268-0.084c-0.072-0.056-0.135-0.121-0.188-0.196l-0.271-0.496c0.453-0.426,0.942-0.746,1.468-0.96
				c0.525-0.213,1.105-0.319,1.739-0.319c0.459,0,0.867,0.074,1.225,0.224s0.657,0.358,0.899,0.628
				c0.243,0.27,0.427,0.594,0.553,0.972c0.125,0.379,0.188,0.798,0.188,1.257v5.184H859.795z M856.748,80.463
				c0.24,0,0.463-0.024,0.668-0.072s0.397-0.117,0.576-0.208s0.348-0.201,0.508-0.332s0.32-0.278,0.48-0.444v-1.632
				c-0.641,0.021-1.185,0.072-1.633,0.152c-0.447,0.08-0.812,0.184-1.092,0.312s-0.483,0.281-0.612,0.46
				c-0.128,0.179-0.191,0.375-0.191,0.588c0,0.208,0.033,0.387,0.1,0.536s0.159,0.271,0.276,0.364s0.255,0.163,0.412,0.208
				S856.566,80.463,856.748,80.463z"/>
			<path fill="#FFFFFF" d="M868.452,81.398c-0.213,0-0.347-0.102-0.399-0.304l-0.137-0.952c-0.17,0.208-0.354,0.396-0.552,0.563
				s-0.408,0.313-0.632,0.433s-0.461,0.212-0.712,0.275c-0.251,0.064-0.521,0.097-0.809,0.097c-0.464,0-0.884-0.09-1.26-0.269
				s-0.698-0.443-0.968-0.796c-0.27-0.352-0.476-0.785-0.62-1.3c-0.144-0.515-0.216-1.108-0.216-1.78c0-0.603,0.08-1.161,0.24-1.676
				s0.392-0.961,0.695-1.34c0.305-0.379,0.673-0.676,1.104-0.893c0.432-0.216,0.92-0.323,1.464-0.323c0.49,0,0.911,0.081,1.26,0.244
				c0.35,0.162,0.66,0.391,0.933,0.684v-4.464h1.52v11.8H868.452z M865.708,80.286c0.454,0,0.851-0.103,1.192-0.308
				c0.341-0.205,0.656-0.497,0.944-0.876V75.23c-0.257-0.341-0.536-0.58-0.841-0.716c-0.304-0.136-0.64-0.204-1.008-0.204
				c-0.73,0-1.293,0.262-1.688,0.784s-0.592,1.279-0.592,2.271c0,0.518,0.045,0.96,0.136,1.328s0.221,0.671,0.392,0.908
				s0.379,0.411,0.624,0.52C865.113,80.231,865.393,80.286,865.708,80.286z"/>
			<path fill="#FFFFFF" d="M875.019,73.15c0.598,0,1.137,0.098,1.616,0.292c0.48,0.194,0.888,0.474,1.224,0.836
				c0.336,0.363,0.595,0.802,0.776,1.316s0.272,1.092,0.272,1.731c0,0.641-0.091,1.219-0.272,1.736s-0.44,0.957-0.776,1.32
				c-0.336,0.362-0.743,0.641-1.224,0.836c-0.479,0.194-1.019,0.292-1.616,0.292c-0.597,0-1.137-0.098-1.62-0.292
				c-0.482-0.195-0.893-0.474-1.231-0.836c-0.339-0.363-0.599-0.803-0.78-1.32s-0.271-1.096-0.271-1.736
				c0-0.64,0.09-1.217,0.271-1.731s0.441-0.953,0.78-1.316c0.339-0.362,0.749-0.642,1.231-0.836
				C873.882,73.248,874.422,73.15,875.019,73.15z M875.019,80.326c0.779,0,1.36-0.261,1.744-0.784
				c0.384-0.522,0.576-1.258,0.576-2.208c0-0.943-0.192-1.68-0.576-2.208c-0.384-0.527-0.965-0.792-1.744-0.792
				c-0.789,0-1.377,0.265-1.764,0.792c-0.387,0.528-0.58,1.265-0.58,2.208c0,0.95,0.193,1.686,0.58,2.208
				C873.642,80.065,874.23,80.326,875.019,80.326z"/>
			<path fill="#00BEBE" d="M790.091,92.778c0-0.171,0.031-0.329,0.093-0.477c0.061-0.146,0.145-0.272,0.252-0.38
				c0.106-0.106,0.234-0.19,0.384-0.252s0.31-0.092,0.479-0.092c0.166,0,0.323,0.03,0.473,0.092s0.278,0.146,0.388,0.252
				c0.109,0.107,0.196,0.233,0.26,0.38c0.064,0.147,0.097,0.306,0.097,0.477s-0.032,0.329-0.097,0.476
				c-0.063,0.146-0.15,0.273-0.26,0.38c-0.109,0.107-0.238,0.192-0.388,0.256c-0.149,0.064-0.307,0.097-0.473,0.097
				c-0.17,0-0.33-0.032-0.479-0.097c-0.149-0.063-0.277-0.148-0.384-0.256c-0.107-0.106-0.191-0.233-0.252-0.38
				C790.123,93.107,790.091,92.949,790.091,92.778z M790.396,102.594V98.33c0-0.485,0.023-0.961,0.071-1.428
				c0.049-0.467,0.112-0.962,0.192-1.484h1.336c0.08,0.522,0.143,1.018,0.188,1.484c0.045,0.467,0.067,0.942,0.067,1.428v4.264
				H790.396z"/>
			<path fill="#00BEBE" d="M802.06,88.346v1.712h-5.136v3.425h4.336v1.72h-4.336v4.712h-2.16V88.346H802.06z"/>
			<path fill="#00BEBE" d="M802.859,99.914v-8.208h1.16c0.203,0,0.345,0.036,0.424,0.108c0.08,0.071,0.134,0.201,0.16,0.388
				l0.112,0.928c0.261-0.49,0.568-0.876,0.92-1.156c0.352-0.279,0.768-0.42,1.248-0.42c0.379,0,0.683,0.083,0.912,0.248l-0.128,1.48
				c-0.027,0.096-0.065,0.164-0.116,0.204s-0.119,0.06-0.204,0.06c-0.08,0-0.198-0.013-0.355-0.04
				c-0.158-0.026-0.312-0.04-0.46-0.04c-0.219,0-0.414,0.032-0.584,0.097c-0.171,0.063-0.324,0.155-0.461,0.275
				c-0.136,0.12-0.256,0.266-0.359,0.437c-0.104,0.17-0.201,0.365-0.292,0.584v5.056H802.859z"/>
			<path fill="#00BEBE" d="M812.091,91.578c0.518,0,0.995,0.083,1.433,0.248c0.437,0.165,0.813,0.406,1.128,0.724
				c0.314,0.317,0.561,0.707,0.74,1.168c0.178,0.462,0.268,0.988,0.268,1.58c0,0.299-0.032,0.5-0.096,0.604
				c-0.064,0.104-0.188,0.155-0.368,0.155h-5.08c0.032,0.422,0.106,0.786,0.224,1.093s0.272,0.56,0.464,0.76
				c0.192,0.2,0.42,0.35,0.685,0.448c0.264,0.099,0.556,0.147,0.876,0.147s0.596-0.037,0.828-0.111
				c0.231-0.075,0.435-0.158,0.607-0.248c0.174-0.091,0.325-0.174,0.456-0.248c0.131-0.075,0.258-0.112,0.38-0.112
				c0.166,0,0.288,0.062,0.368,0.184l0.568,0.721c-0.219,0.256-0.464,0.471-0.736,0.644c-0.271,0.174-0.556,0.313-0.852,0.416
				c-0.296,0.104-0.598,0.178-0.904,0.22c-0.307,0.043-0.604,0.064-0.892,0.064c-0.571,0-1.102-0.095-1.593-0.284
				c-0.49-0.189-0.917-0.469-1.279-0.84c-0.363-0.371-0.648-0.829-0.856-1.376s-0.312-1.18-0.312-1.9c0-0.56,0.09-1.086,0.271-1.58
				c0.182-0.493,0.441-0.922,0.78-1.288c0.339-0.365,0.752-0.654,1.24-0.867C810.927,91.685,811.478,91.578,812.091,91.578z
				 M812.131,92.994c-0.576,0-1.026,0.163-1.352,0.488s-0.533,0.786-0.624,1.384h3.728c0-0.256-0.036-0.497-0.107-0.725
				c-0.072-0.227-0.181-0.425-0.324-0.596s-0.327-0.305-0.548-0.404C812.682,93.043,812.425,92.994,812.131,92.994z"/>
			<path fill="#00BEBE" d="M820.635,91.578c0.518,0,0.995,0.083,1.433,0.248c0.437,0.165,0.813,0.406,1.128,0.724
				c0.314,0.317,0.561,0.707,0.74,1.168c0.178,0.462,0.268,0.988,0.268,1.58c0,0.299-0.032,0.5-0.096,0.604
				c-0.064,0.104-0.188,0.155-0.368,0.155h-5.08c0.032,0.422,0.106,0.786,0.224,1.093s0.272,0.56,0.464,0.76
				c0.192,0.2,0.42,0.35,0.685,0.448c0.264,0.099,0.556,0.147,0.876,0.147s0.596-0.037,0.828-0.111
				c0.231-0.075,0.435-0.158,0.607-0.248c0.174-0.091,0.325-0.174,0.456-0.248c0.131-0.075,0.258-0.112,0.38-0.112
				c0.166,0,0.288,0.062,0.368,0.184l0.568,0.721c-0.219,0.256-0.464,0.471-0.736,0.644c-0.271,0.174-0.556,0.313-0.852,0.416
				c-0.296,0.104-0.598,0.178-0.904,0.22c-0.307,0.043-0.604,0.064-0.892,0.064c-0.571,0-1.102-0.095-1.593-0.284
				c-0.49-0.189-0.917-0.469-1.279-0.84c-0.363-0.371-0.648-0.829-0.856-1.376s-0.312-1.18-0.312-1.9c0-0.56,0.09-1.086,0.271-1.58
				c0.182-0.493,0.441-0.922,0.78-1.288c0.339-0.365,0.752-0.654,1.24-0.867C819.471,91.685,820.022,91.578,820.635,91.578z
				 M820.675,92.994c-0.576,0-1.026,0.163-1.352,0.488s-0.533,0.786-0.624,1.384h3.728c0-0.256-0.036-0.497-0.107-0.725
				c-0.072-0.227-0.181-0.425-0.324-0.596s-0.327-0.305-0.548-0.404C821.226,93.043,820.969,92.994,820.675,92.994z"/>
			<path fill="#00BEBE" d="M827.683,88.026v11.888h-1.976V88.026H827.683z"/>
			<path fill="#00BEBE" d="M835.027,99.914c-0.187,0-0.33-0.028-0.432-0.084s-0.182-0.169-0.24-0.34l-0.176-0.584
				c-0.208,0.187-0.411,0.351-0.608,0.492c-0.197,0.141-0.402,0.26-0.615,0.355c-0.214,0.096-0.441,0.168-0.685,0.216
				c-0.242,0.048-0.511,0.072-0.804,0.072c-0.347,0-0.667-0.047-0.96-0.14c-0.294-0.094-0.547-0.233-0.76-0.42
				c-0.214-0.187-0.379-0.419-0.496-0.696c-0.118-0.277-0.177-0.6-0.177-0.968c0-0.31,0.082-0.615,0.244-0.916
				c0.163-0.302,0.434-0.573,0.813-0.816c0.378-0.242,0.883-0.444,1.512-0.604c0.629-0.16,1.413-0.251,2.352-0.272V94.73
				c0-0.55-0.117-0.956-0.352-1.221c-0.234-0.264-0.573-0.396-1.016-0.396c-0.32,0-0.586,0.037-0.796,0.111
				c-0.211,0.075-0.396,0.159-0.557,0.253c-0.16,0.093-0.305,0.177-0.436,0.252c-0.131,0.074-0.276,0.111-0.437,0.111
				c-0.139,0-0.256-0.036-0.352-0.107c-0.096-0.072-0.174-0.156-0.232-0.252l-0.352-0.633c0.943-0.863,2.08-1.296,3.408-1.296
				c0.479,0,0.909,0.079,1.288,0.236c0.378,0.157,0.698,0.376,0.96,0.656c0.261,0.279,0.46,0.614,0.596,1.004
				s0.204,0.815,0.204,1.28v5.184H835.027z M832.075,98.682c0.405,0,0.757-0.073,1.053-0.22s0.585-0.369,0.867-0.668V96.41
				c-0.575,0.026-1.057,0.076-1.443,0.147c-0.387,0.072-0.697,0.164-0.933,0.276c-0.234,0.112-0.402,0.243-0.504,0.392
				c-0.101,0.149-0.151,0.313-0.151,0.488c0,0.347,0.103,0.595,0.308,0.744S831.745,98.682,832.075,98.682z"/>
			<path fill="#00BEBE" d="M837.779,99.914v-8.208h1.208c0.257,0,0.425,0.12,0.505,0.36l0.136,0.647
				c0.165-0.171,0.34-0.325,0.523-0.464c0.185-0.139,0.379-0.259,0.584-0.36c0.206-0.101,0.426-0.178,0.66-0.231
				s0.491-0.08,0.769-0.08c0.447,0,0.845,0.076,1.191,0.228c0.347,0.152,0.637,0.366,0.868,0.641
				c0.232,0.274,0.408,0.603,0.528,0.983c0.12,0.382,0.18,0.802,0.18,1.261v5.224h-1.976V94.69c0-0.502-0.115-0.89-0.345-1.164
				c-0.229-0.275-0.578-0.412-1.048-0.412c-0.341,0-0.661,0.077-0.96,0.231c-0.299,0.155-0.581,0.366-0.848,0.633v5.936H837.779z"/>
			<path fill="#00BEBE" d="M852.683,93.442c-0.06,0.074-0.116,0.133-0.173,0.176c-0.056,0.043-0.137,0.063-0.243,0.063
				c-0.102,0-0.2-0.03-0.297-0.092c-0.096-0.061-0.21-0.131-0.344-0.208c-0.133-0.077-0.292-0.146-0.476-0.208
				c-0.185-0.061-0.412-0.092-0.685-0.092c-0.347,0-0.65,0.063-0.912,0.188c-0.261,0.125-0.479,0.305-0.651,0.54
				c-0.174,0.234-0.303,0.519-0.388,0.852c-0.086,0.333-0.129,0.711-0.129,1.132c0,0.438,0.047,0.827,0.141,1.168
				c0.093,0.342,0.228,0.628,0.403,0.86c0.177,0.231,0.39,0.408,0.641,0.527c0.25,0.12,0.533,0.181,0.848,0.181
				s0.569-0.039,0.765-0.116c0.194-0.077,0.358-0.163,0.491-0.256c0.134-0.094,0.25-0.179,0.349-0.256s0.209-0.116,0.332-0.116
				c0.16,0,0.279,0.062,0.359,0.184l0.568,0.721c-0.219,0.256-0.456,0.471-0.712,0.644c-0.256,0.174-0.521,0.313-0.796,0.416
				c-0.275,0.104-0.558,0.178-0.849,0.22c-0.29,0.043-0.58,0.064-0.867,0.064c-0.507,0-0.984-0.095-1.433-0.284
				s-0.84-0.465-1.176-0.828c-0.336-0.362-0.602-0.807-0.796-1.332c-0.195-0.525-0.292-1.124-0.292-1.796
				c0-0.603,0.087-1.161,0.26-1.676c0.174-0.515,0.428-0.96,0.764-1.336c0.337-0.376,0.752-0.671,1.248-0.884
				c0.496-0.214,1.067-0.32,1.712-0.32c0.613,0,1.151,0.099,1.612,0.296s0.876,0.48,1.244,0.848L852.683,93.442z"/>
			<path fill="#00BEBE" d="M857.867,91.578c0.518,0,0.995,0.083,1.433,0.248c0.437,0.165,0.813,0.406,1.128,0.724
				c0.314,0.317,0.561,0.707,0.74,1.168c0.178,0.462,0.268,0.988,0.268,1.58c0,0.299-0.032,0.5-0.096,0.604
				c-0.064,0.104-0.188,0.155-0.368,0.155h-5.08c0.032,0.422,0.106,0.786,0.224,1.093s0.272,0.56,0.464,0.76
				c0.192,0.2,0.42,0.35,0.685,0.448c0.264,0.099,0.556,0.147,0.876,0.147s0.596-0.037,0.828-0.111
				c0.231-0.075,0.435-0.158,0.607-0.248c0.174-0.091,0.325-0.174,0.456-0.248c0.131-0.075,0.258-0.112,0.38-0.112
				c0.166,0,0.288,0.062,0.368,0.184l0.568,0.721c-0.219,0.256-0.464,0.471-0.736,0.644c-0.271,0.174-0.556,0.313-0.852,0.416
				c-0.296,0.104-0.598,0.178-0.904,0.22c-0.307,0.043-0.604,0.064-0.892,0.064c-0.571,0-1.102-0.095-1.593-0.284
				c-0.49-0.189-0.917-0.469-1.279-0.84c-0.363-0.371-0.648-0.829-0.856-1.376s-0.312-1.18-0.312-1.9c0-0.56,0.09-1.086,0.271-1.58
				c0.182-0.493,0.441-0.922,0.78-1.288c0.339-0.365,0.752-0.654,1.24-0.867C856.703,91.685,857.253,91.578,857.867,91.578z
				 M857.907,92.994c-0.576,0-1.026,0.163-1.352,0.488s-0.533,0.786-0.624,1.384h3.728c0-0.256-0.036-0.497-0.107-0.725
				c-0.072-0.227-0.181-0.425-0.324-0.596s-0.327-0.305-0.548-0.404C858.458,93.043,858.201,92.994,857.907,92.994z"/>
			<path fill="#00BEBE" d="M862.955,98.826c0-0.165,0.031-0.322,0.093-0.472c0.061-0.149,0.146-0.277,0.256-0.385
				c0.109-0.106,0.238-0.191,0.388-0.256c0.149-0.063,0.31-0.096,0.48-0.096c0.165,0,0.322,0.032,0.472,0.096
				c0.149,0.064,0.278,0.149,0.388,0.256c0.109,0.107,0.196,0.235,0.26,0.385c0.064,0.149,0.097,0.307,0.097,0.472
				c0,0.171-0.032,0.329-0.097,0.476c-0.063,0.147-0.15,0.273-0.26,0.38c-0.109,0.107-0.238,0.191-0.388,0.252
				c-0.149,0.062-0.307,0.093-0.472,0.093c-0.171,0-0.331-0.031-0.48-0.093c-0.149-0.061-0.278-0.145-0.388-0.252
				c-0.109-0.106-0.195-0.232-0.256-0.38C862.986,99.155,862.955,98.997,862.955,98.826z M865.123,88.346v4.576
				c0,0.485-0.023,0.962-0.071,1.428c-0.048,0.467-0.109,0.962-0.185,1.484h-1.344c-0.075-0.522-0.136-1.018-0.184-1.484
				c-0.049-0.466-0.072-0.942-0.072-1.428v-4.576H865.123z"/>
		</g>
	</g>
	<g>
		<g>
			<path fill="#FFFFFF" d="M3.44,77.002v4.52H1.288V69.953h3.528c0.784,0,1.458,0.082,2.02,0.244
				c0.563,0.163,1.024,0.391,1.384,0.685c0.36,0.293,0.625,0.644,0.796,1.052c0.17,0.408,0.256,0.857,0.256,1.348
				c0,0.39-0.057,0.758-0.172,1.104s-0.28,0.661-0.496,0.943c-0.216,0.283-0.483,0.531-0.8,0.744
				c-0.317,0.214-0.679,0.384-1.084,0.513c0.272,0.154,0.506,0.376,0.704,0.663l2.896,4.272H8.376c-0.368,0-0.635-0.144-0.8-0.432
				l-2.432-3.704c-0.091-0.139-0.191-0.237-0.3-0.296c-0.109-0.059-0.271-0.088-0.484-0.088H3.44z M3.44,75.457h1.344
				c0.405,0,0.758-0.05,1.06-0.151c0.301-0.102,0.549-0.241,0.744-0.42s0.34-0.391,0.436-0.637c0.096-0.245,0.144-0.515,0.144-0.808
				c0-0.587-0.193-1.037-0.58-1.352c-0.387-0.315-0.977-0.473-1.772-0.473H3.44V75.457z"/>
			<path fill="#FFFFFF" d="M14.224,73.186c0.517,0,0.995,0.083,1.432,0.248c0.438,0.165,0.813,0.406,1.128,0.724
				c0.314,0.317,0.561,0.707,0.74,1.168c0.179,0.462,0.268,0.988,0.268,1.58c0,0.299-0.032,0.5-0.096,0.604
				c-0.064,0.104-0.187,0.155-0.368,0.155h-5.08c0.032,0.422,0.106,0.786,0.224,1.093c0.117,0.307,0.272,0.56,0.464,0.76
				s0.42,0.35,0.684,0.448c0.264,0.099,0.556,0.147,0.876,0.147c0.32,0,0.596-0.037,0.828-0.111
				c0.232-0.075,0.435-0.158,0.608-0.248c0.173-0.091,0.325-0.174,0.456-0.248c0.13-0.075,0.257-0.112,0.38-0.112
				c0.165,0,0.288,0.062,0.368,0.184l0.568,0.721c-0.219,0.256-0.464,0.471-0.736,0.644c-0.272,0.174-0.556,0.313-0.852,0.416
				c-0.296,0.104-0.597,0.178-0.904,0.22c-0.307,0.043-0.604,0.064-0.892,0.064c-0.571,0-1.101-0.095-1.592-0.284
				s-0.917-0.469-1.28-0.84s-0.648-0.829-0.856-1.376s-0.312-1.18-0.312-1.9c0-0.56,0.091-1.086,0.272-1.58
				c0.182-0.493,0.441-0.922,0.78-1.288c0.338-0.365,0.752-0.654,1.24-0.867C13.06,73.292,13.61,73.186,14.224,73.186z
				 M14.264,74.602c-0.576,0-1.027,0.163-1.352,0.488c-0.326,0.325-0.534,0.786-0.624,1.384h3.728c0-0.256-0.036-0.497-0.108-0.725
				c-0.072-0.227-0.18-0.425-0.324-0.596s-0.327-0.305-0.548-0.404C14.814,74.65,14.557,74.602,14.264,74.602z"/>
			<path fill="#FFFFFF" d="M22.272,73.17c0.352,0,0.681,0.035,0.988,0.107s0.591,0.178,0.852,0.316h2.36v0.735
				c0,0.235-0.141,0.379-0.424,0.433l-0.736,0.136c0.053,0.139,0.095,0.285,0.124,0.44c0.029,0.154,0.044,0.317,0.044,0.487
				c0,0.405-0.082,0.772-0.244,1.101s-0.388,0.606-0.676,0.836c-0.288,0.229-0.628,0.406-1.02,0.532
				c-0.392,0.125-0.815,0.188-1.268,0.188c-0.31,0-0.611-0.029-0.904-0.088c-0.256,0.154-0.384,0.328-0.384,0.52
				c0,0.166,0.076,0.287,0.228,0.364s0.353,0.132,0.604,0.164c0.25,0.032,0.536,0.052,0.856,0.061
				c0.32,0.008,0.648,0.025,0.984,0.052s0.664,0.073,0.984,0.14c0.32,0.066,0.605,0.172,0.856,0.316
				c0.25,0.144,0.452,0.34,0.604,0.588c0.152,0.248,0.228,0.566,0.228,0.956c0,0.362-0.09,0.715-0.268,1.056
				c-0.179,0.342-0.438,0.646-0.776,0.912c-0.338,0.267-0.754,0.481-1.248,0.644c-0.494,0.163-1.055,0.244-1.684,0.244
				c-0.619,0-1.158-0.06-1.616-0.18s-0.84-0.28-1.144-0.48c-0.304-0.199-0.531-0.431-0.68-0.691
				c-0.149-0.262-0.224-0.533-0.224-0.816c0-0.379,0.116-0.698,0.348-0.96c0.232-0.261,0.548-0.469,0.948-0.624
				c-0.213-0.111-0.384-0.261-0.512-0.447c-0.128-0.188-0.192-0.433-0.192-0.736c0-0.123,0.021-0.249,0.064-0.38
				c0.043-0.131,0.108-0.261,0.196-0.389c0.088-0.128,0.2-0.249,0.336-0.363c0.136-0.115,0.294-0.218,0.476-0.309
				c-0.416-0.224-0.743-0.522-0.98-0.896s-0.356-0.811-0.356-1.313c0-0.405,0.081-0.771,0.244-1.1s0.389-0.608,0.68-0.84
				c0.291-0.232,0.635-0.409,1.032-0.532C21.369,73.23,21.803,73.17,22.272,73.17z M24.504,81.89c0-0.16-0.048-0.289-0.144-0.388
				s-0.227-0.178-0.392-0.236c-0.165-0.059-0.358-0.102-0.58-0.128c-0.221-0.026-0.456-0.047-0.704-0.061
				c-0.248-0.013-0.504-0.025-0.768-0.036c-0.264-0.01-0.521-0.031-0.772-0.063c-0.219,0.123-0.396,0.267-0.532,0.432
				c-0.136,0.166-0.204,0.357-0.204,0.576c0,0.145,0.036,0.278,0.108,0.404c0.072,0.125,0.187,0.233,0.344,0.324
				c0.157,0.09,0.361,0.161,0.612,0.212c0.251,0.051,0.558,0.076,0.92,0.076c0.368,0,0.685-0.028,0.952-0.084
				c0.267-0.057,0.487-0.134,0.66-0.232s0.3-0.216,0.38-0.353C24.464,82.197,24.504,82.05,24.504,81.89z M22.272,77.218
				c0.245,0,0.458-0.033,0.64-0.101c0.181-0.066,0.332-0.158,0.452-0.275c0.12-0.117,0.211-0.259,0.272-0.424
				c0.062-0.166,0.092-0.347,0.092-0.545c0-0.405-0.122-0.727-0.364-0.964s-0.606-0.355-1.092-0.355s-0.85,0.118-1.092,0.355
				s-0.364,0.559-0.364,0.964c0,0.192,0.031,0.371,0.092,0.536c0.062,0.166,0.152,0.309,0.272,0.429
				c0.12,0.119,0.272,0.213,0.456,0.279C21.82,77.185,22.032,77.218,22.272,77.218z"/>
			<path fill="#FFFFFF" d="M31.608,69.825l-1.976,2.088c-0.102,0.107-0.199,0.181-0.292,0.221c-0.094,0.04-0.215,0.06-0.364,0.06
				h-1.184l1.136-1.944c0.08-0.138,0.173-0.243,0.28-0.315c0.107-0.072,0.267-0.108,0.48-0.108H31.608z M29.768,73.313v8.208h-1.976
				v-8.208H29.768z"/>
			<path fill="#FFFFFF" d="M36.799,74.913c-0.053,0.086-0.109,0.146-0.168,0.181c-0.059,0.034-0.133,0.052-0.224,0.052
				c-0.096,0-0.199-0.026-0.308-0.08c-0.109-0.053-0.236-0.113-0.38-0.18s-0.308-0.127-0.492-0.181
				c-0.184-0.053-0.401-0.08-0.652-0.08c-0.389,0-0.694,0.083-0.916,0.248c-0.222,0.166-0.332,0.382-0.332,0.648
				c0,0.176,0.057,0.324,0.172,0.444s0.267,0.225,0.456,0.315c0.189,0.091,0.404,0.172,0.644,0.244
				c0.24,0.072,0.484,0.15,0.732,0.236c0.248,0.085,0.492,0.183,0.732,0.292c0.24,0.109,0.455,0.248,0.644,0.416
				c0.189,0.168,0.341,0.369,0.456,0.604c0.114,0.235,0.172,0.518,0.172,0.849c0,0.395-0.071,0.759-0.212,1.092
				c-0.142,0.333-0.351,0.621-0.628,0.864c-0.277,0.242-0.62,0.432-1.028,0.567c-0.408,0.136-0.878,0.204-1.412,0.204
				c-0.283,0-0.559-0.025-0.828-0.076c-0.27-0.051-0.528-0.121-0.776-0.212c-0.248-0.091-0.478-0.197-0.688-0.32
				c-0.211-0.122-0.396-0.256-0.556-0.399l0.456-0.752c0.059-0.091,0.128-0.16,0.208-0.208s0.181-0.072,0.304-0.072
				s0.239,0.035,0.348,0.104s0.236,0.144,0.38,0.224s0.313,0.154,0.508,0.224c0.194,0.069,0.441,0.104,0.74,0.104
				c0.235,0,0.436-0.028,0.604-0.084c0.168-0.057,0.307-0.13,0.416-0.22c0.109-0.091,0.189-0.196,0.24-0.316
				c0.05-0.12,0.076-0.244,0.076-0.372c0-0.192-0.057-0.35-0.172-0.472c-0.115-0.123-0.267-0.229-0.456-0.32
				s-0.405-0.172-0.648-0.244s-0.491-0.15-0.744-0.235c-0.253-0.086-0.501-0.186-0.744-0.301c-0.243-0.114-0.459-0.26-0.648-0.436
				c-0.189-0.176-0.341-0.393-0.456-0.648c-0.115-0.256-0.172-0.565-0.172-0.928c0-0.336,0.067-0.656,0.2-0.96
				s0.329-0.569,0.588-0.796s0.582-0.408,0.968-0.544c0.386-0.136,0.833-0.204,1.34-0.204c0.565,0,1.08,0.094,1.544,0.28
				s0.851,0.432,1.16,0.735L36.799,74.913z"/>
			<path fill="#FFFFFF" d="M41.56,81.649c-0.715,0-1.263-0.201-1.644-0.604c-0.381-0.403-0.572-0.959-0.572-1.668v-4.584h-0.84
				c-0.106,0-0.197-0.035-0.272-0.104s-0.112-0.173-0.112-0.312v-0.784l1.32-0.216l0.416-2.24c0.027-0.106,0.078-0.189,0.152-0.248
				s0.17-0.088,0.288-0.088h1.024v2.584h2.192v1.408H41.32v4.447c0,0.256,0.063,0.456,0.188,0.601
				c0.125,0.144,0.297,0.216,0.516,0.216c0.123,0,0.226-0.015,0.308-0.044s0.155-0.061,0.216-0.092
				c0.061-0.032,0.116-0.063,0.164-0.093c0.048-0.029,0.096-0.044,0.144-0.044c0.059,0,0.107,0.015,0.144,0.044
				c0.038,0.029,0.078,0.074,0.12,0.133l0.592,0.96c-0.288,0.239-0.619,0.421-0.992,0.544C42.346,81.588,41.959,81.649,41.56,81.649
				z"/>
			<path fill="#FFFFFF" d="M44.776,81.521v-8.208h1.16c0.203,0,0.344,0.036,0.424,0.108c0.08,0.071,0.133,0.201,0.16,0.388
				l0.112,0.928c0.261-0.49,0.568-0.876,0.92-1.156c0.352-0.279,0.768-0.42,1.248-0.42c0.378,0,0.683,0.083,0.912,0.248l-0.128,1.48
				c-0.027,0.096-0.065,0.164-0.116,0.204s-0.119,0.06-0.204,0.06c-0.08,0-0.199-0.013-0.356-0.04
				c-0.157-0.026-0.311-0.04-0.46-0.04c-0.219,0-0.413,0.032-0.584,0.097c-0.171,0.063-0.324,0.155-0.46,0.275
				s-0.256,0.266-0.36,0.437c-0.104,0.17-0.202,0.365-0.292,0.584v5.056H44.776z"/>
			<path fill="#FFFFFF" d="M56.008,81.521c-0.187,0-0.331-0.028-0.432-0.084c-0.102-0.056-0.182-0.169-0.24-0.34l-0.176-0.584
				c-0.208,0.187-0.411,0.351-0.608,0.492c-0.198,0.141-0.403,0.26-0.616,0.355s-0.441,0.168-0.684,0.216s-0.511,0.072-0.804,0.072
				c-0.347,0-0.667-0.047-0.96-0.14c-0.293-0.094-0.547-0.233-0.76-0.42s-0.379-0.419-0.496-0.696s-0.176-0.6-0.176-0.968
				c0-0.31,0.081-0.615,0.244-0.916c0.163-0.302,0.433-0.573,0.812-0.816c0.378-0.242,0.882-0.444,1.512-0.604
				c0.629-0.16,1.413-0.251,2.352-0.272v-0.479c0-0.55-0.117-0.956-0.352-1.221c-0.235-0.264-0.573-0.396-1.016-0.396
				c-0.32,0-0.585,0.037-0.796,0.111c-0.211,0.075-0.396,0.159-0.556,0.253c-0.16,0.093-0.305,0.177-0.436,0.252
				c-0.13,0.074-0.276,0.111-0.436,0.111c-0.139,0-0.256-0.036-0.352-0.107c-0.096-0.072-0.173-0.156-0.232-0.252l-0.352-0.633
				c0.944-0.863,2.08-1.296,3.408-1.296c0.48,0,0.909,0.079,1.288,0.236c0.378,0.157,0.699,0.376,0.96,0.656
				c0.261,0.279,0.46,0.614,0.596,1.004c0.136,0.39,0.204,0.815,0.204,1.28v5.184H56.008z M53.056,80.289
				c0.405,0,0.756-0.073,1.052-0.22c0.296-0.146,0.585-0.369,0.868-0.668v-1.384c-0.576,0.026-1.058,0.076-1.444,0.147
				c-0.387,0.072-0.698,0.164-0.932,0.276c-0.235,0.112-0.403,0.243-0.504,0.392c-0.102,0.149-0.152,0.313-0.152,0.488
				c0,0.347,0.103,0.595,0.308,0.744C52.457,80.215,52.725,80.289,53.056,80.289z"/>
			<path fill="#FFFFFF" d="M61.384,81.649c-0.715,0-1.263-0.201-1.644-0.604c-0.381-0.403-0.572-0.959-0.572-1.668v-4.584h-0.84
				c-0.106,0-0.197-0.035-0.272-0.104s-0.112-0.173-0.112-0.312v-0.784l1.32-0.216l0.416-2.24c0.027-0.106,0.078-0.189,0.152-0.248
				s0.17-0.088,0.288-0.088h1.024v2.584h2.192v1.408h-2.192v4.447c0,0.256,0.063,0.456,0.188,0.601
				c0.125,0.144,0.297,0.216,0.516,0.216c0.123,0,0.226-0.015,0.308-0.044s0.155-0.061,0.216-0.092
				c0.061-0.032,0.116-0.063,0.164-0.093c0.048-0.029,0.096-0.044,0.144-0.044c0.059,0,0.107,0.015,0.144,0.044
				c0.038,0.029,0.078,0.074,0.12,0.133l0.592,0.96c-0.288,0.239-0.619,0.421-0.992,0.544C62.17,81.588,61.784,81.649,61.384,81.649
				z"/>
			<path fill="#FFFFFF" d="M68.096,73.186c0.517,0,0.995,0.083,1.432,0.248c0.438,0.165,0.813,0.406,1.128,0.724
				c0.314,0.317,0.561,0.707,0.74,1.168c0.179,0.462,0.268,0.988,0.268,1.58c0,0.299-0.032,0.5-0.096,0.604
				c-0.064,0.104-0.187,0.155-0.368,0.155h-5.08c0.032,0.422,0.106,0.786,0.224,1.093c0.117,0.307,0.272,0.56,0.464,0.76
				s0.42,0.35,0.684,0.448c0.264,0.099,0.556,0.147,0.876,0.147c0.32,0,0.596-0.037,0.828-0.111
				c0.232-0.075,0.435-0.158,0.608-0.248c0.173-0.091,0.325-0.174,0.456-0.248c0.13-0.075,0.257-0.112,0.38-0.112
				c0.165,0,0.288,0.062,0.368,0.184l0.568,0.721c-0.219,0.256-0.464,0.471-0.736,0.644c-0.272,0.174-0.556,0.313-0.852,0.416
				c-0.296,0.104-0.597,0.178-0.904,0.22c-0.307,0.043-0.604,0.064-0.892,0.064c-0.571,0-1.101-0.095-1.592-0.284
				s-0.917-0.469-1.28-0.84s-0.648-0.829-0.856-1.376s-0.312-1.18-0.312-1.9c0-0.56,0.091-1.086,0.272-1.58
				c0.182-0.493,0.441-0.922,0.78-1.288c0.338-0.365,0.752-0.654,1.24-0.867C66.932,73.292,67.482,73.186,68.096,73.186z
				 M68.136,74.602c-0.576,0-1.027,0.163-1.352,0.488c-0.326,0.325-0.534,0.786-0.624,1.384h3.728c0-0.256-0.036-0.497-0.108-0.725
				c-0.072-0.227-0.18-0.425-0.324-0.596s-0.327-0.305-0.548-0.404C68.686,74.65,68.429,74.602,68.136,74.602z"/>
			<path fill="#FFFFFF" d="M80.032,73.17c0.352,0,0.681,0.035,0.988,0.107s0.591,0.178,0.852,0.316h2.36v0.735
				c0,0.235-0.141,0.379-0.424,0.433l-0.736,0.136c0.053,0.139,0.095,0.285,0.124,0.44c0.029,0.154,0.044,0.317,0.044,0.487
				c0,0.405-0.082,0.772-0.244,1.101s-0.388,0.606-0.676,0.836c-0.288,0.229-0.628,0.406-1.02,0.532
				c-0.392,0.125-0.815,0.188-1.268,0.188c-0.31,0-0.611-0.029-0.904-0.088c-0.256,0.154-0.384,0.328-0.384,0.52
				c0,0.166,0.076,0.287,0.228,0.364s0.353,0.132,0.604,0.164c0.25,0.032,0.536,0.052,0.856,0.061
				c0.32,0.008,0.648,0.025,0.984,0.052s0.664,0.073,0.984,0.14c0.32,0.066,0.605,0.172,0.856,0.316
				c0.25,0.144,0.452,0.34,0.604,0.588c0.152,0.248,0.228,0.566,0.228,0.956c0,0.362-0.09,0.715-0.268,1.056
				c-0.179,0.342-0.438,0.646-0.776,0.912c-0.338,0.267-0.754,0.481-1.248,0.644c-0.494,0.163-1.055,0.244-1.684,0.244
				c-0.619,0-1.158-0.06-1.616-0.18s-0.84-0.28-1.144-0.48c-0.304-0.199-0.531-0.431-0.68-0.691
				c-0.149-0.262-0.224-0.533-0.224-0.816c0-0.379,0.116-0.698,0.348-0.96c0.232-0.261,0.548-0.469,0.948-0.624
				c-0.213-0.111-0.384-0.261-0.512-0.447c-0.128-0.188-0.192-0.433-0.192-0.736c0-0.123,0.021-0.249,0.064-0.38
				c0.043-0.131,0.108-0.261,0.196-0.389c0.088-0.128,0.2-0.249,0.336-0.363c0.136-0.115,0.294-0.218,0.476-0.309
				c-0.416-0.224-0.743-0.522-0.98-0.896s-0.356-0.811-0.356-1.313c0-0.405,0.081-0.771,0.244-1.1s0.389-0.608,0.68-0.84
				c0.291-0.232,0.635-0.409,1.032-0.532C79.129,73.23,79.563,73.17,80.032,73.17z M82.264,81.89c0-0.16-0.048-0.289-0.144-0.388
				s-0.227-0.178-0.392-0.236c-0.165-0.059-0.358-0.102-0.58-0.128c-0.221-0.026-0.456-0.047-0.704-0.061
				c-0.248-0.013-0.504-0.025-0.768-0.036c-0.264-0.01-0.521-0.031-0.772-0.063c-0.219,0.123-0.396,0.267-0.532,0.432
				c-0.136,0.166-0.204,0.357-0.204,0.576c0,0.145,0.036,0.278,0.108,0.404c0.072,0.125,0.187,0.233,0.344,0.324
				c0.157,0.09,0.361,0.161,0.612,0.212c0.251,0.051,0.558,0.076,0.92,0.076c0.368,0,0.685-0.028,0.952-0.084
				c0.267-0.057,0.487-0.134,0.66-0.232s0.3-0.216,0.38-0.353C82.224,82.197,82.264,82.05,82.264,81.89z M80.032,77.218
				c0.245,0,0.458-0.033,0.64-0.101c0.181-0.066,0.332-0.158,0.452-0.275c0.12-0.117,0.211-0.259,0.272-0.424
				c0.062-0.166,0.092-0.347,0.092-0.545c0-0.405-0.122-0.727-0.364-0.964s-0.606-0.355-1.092-0.355s-0.85,0.118-1.092,0.355
				s-0.364,0.559-0.364,0.964c0,0.192,0.031,0.371,0.092,0.536c0.062,0.166,0.152,0.309,0.272,0.429
				c0.12,0.119,0.272,0.213,0.456,0.279C79.58,77.185,79.792,77.218,80.032,77.218z"/>
			<path fill="#FFFFFF" d="M85.479,81.521v-8.208h1.16c0.203,0,0.344,0.036,0.424,0.108c0.08,0.071,0.133,0.201,0.16,0.388
				l0.112,0.928c0.261-0.49,0.568-0.876,0.92-1.156c0.352-0.279,0.768-0.42,1.248-0.42c0.378,0,0.683,0.083,0.912,0.248l-0.128,1.48
				c-0.027,0.096-0.065,0.164-0.116,0.204s-0.119,0.06-0.204,0.06c-0.08,0-0.199-0.013-0.356-0.04
				c-0.157-0.026-0.311-0.04-0.46-0.04c-0.219,0-0.413,0.032-0.584,0.097c-0.171,0.063-0.324,0.155-0.46,0.275
				s-0.256,0.266-0.36,0.437c-0.104,0.17-0.202,0.365-0.292,0.584v5.056H85.479z"/>
			<path fill="#FFFFFF" d="M96.711,81.521c-0.187,0-0.331-0.028-0.432-0.084c-0.102-0.056-0.182-0.169-0.24-0.34l-0.176-0.584
				c-0.208,0.187-0.411,0.351-0.608,0.492c-0.198,0.141-0.403,0.26-0.616,0.355s-0.441,0.168-0.684,0.216s-0.511,0.072-0.804,0.072
				c-0.347,0-0.667-0.047-0.96-0.14c-0.293-0.094-0.547-0.233-0.76-0.42s-0.379-0.419-0.496-0.696s-0.176-0.6-0.176-0.968
				c0-0.31,0.081-0.615,0.244-0.916c0.163-0.302,0.433-0.573,0.812-0.816c0.378-0.242,0.882-0.444,1.512-0.604
				c0.629-0.16,1.413-0.251,2.352-0.272v-0.479c0-0.55-0.117-0.956-0.352-1.221c-0.235-0.264-0.573-0.396-1.016-0.396
				c-0.32,0-0.585,0.037-0.796,0.111c-0.211,0.075-0.396,0.159-0.556,0.253c-0.16,0.093-0.305,0.177-0.436,0.252
				c-0.13,0.074-0.276,0.111-0.436,0.111c-0.139,0-0.256-0.036-0.352-0.107c-0.096-0.072-0.173-0.156-0.232-0.252l-0.352-0.633
				c0.944-0.863,2.08-1.296,3.408-1.296c0.48,0,0.909,0.079,1.288,0.236c0.378,0.157,0.699,0.376,0.96,0.656
				c0.261,0.279,0.46,0.614,0.596,1.004c0.136,0.39,0.204,0.815,0.204,1.28v5.184H96.711z M93.759,80.289
				c0.405,0,0.756-0.073,1.052-0.22c0.296-0.146,0.585-0.369,0.868-0.668v-1.384c-0.576,0.026-1.058,0.076-1.444,0.147
				c-0.387,0.072-0.698,0.164-0.932,0.276c-0.235,0.112-0.403,0.243-0.504,0.392c-0.102,0.149-0.152,0.313-0.152,0.488
				c0,0.347,0.103,0.595,0.308,0.744C93.161,80.215,93.428,80.289,93.759,80.289z"/>
			<path fill="#FFFFFF" d="M102.087,81.649c-0.715,0-1.263-0.201-1.644-0.604c-0.381-0.403-0.572-0.959-0.572-1.668v-4.584h-0.84
				c-0.106,0-0.197-0.035-0.272-0.104s-0.112-0.173-0.112-0.312v-0.784l1.32-0.216l0.416-2.24c0.027-0.106,0.078-0.189,0.152-0.248
				s0.17-0.088,0.288-0.088h1.024v2.584h5.784v8.136h-1.976v-6.728h-3.808v4.447c0,0.256,0.063,0.456,0.188,0.601
				c0.125,0.144,0.297,0.216,0.516,0.216c0.123,0,0.226-0.015,0.308-0.044s0.155-0.061,0.216-0.092
				c0.061-0.032,0.116-0.063,0.164-0.093c0.048-0.029,0.096-0.044,0.144-0.044c0.059,0,0.107,0.015,0.144,0.044
				c0.038,0.029,0.078,0.074,0.12,0.133l0.592,0.96c-0.288,0.239-0.619,0.421-0.992,0.544
				C102.874,81.588,102.487,81.649,102.087,81.649z M107.976,70.89c0,0.171-0.035,0.332-0.104,0.483
				c-0.069,0.152-0.162,0.284-0.276,0.396c-0.115,0.112-0.251,0.201-0.408,0.268c-0.157,0.067-0.324,0.101-0.5,0.101
				c-0.171,0-0.331-0.033-0.48-0.101c-0.149-0.066-0.28-0.155-0.392-0.268s-0.201-0.244-0.268-0.396
				c-0.066-0.151-0.1-0.313-0.1-0.483c0-0.176,0.034-0.34,0.1-0.492c0.067-0.152,0.156-0.285,0.268-0.4
				c0.112-0.114,0.243-0.205,0.392-0.271s0.309-0.101,0.48-0.101c0.176,0,0.343,0.034,0.5,0.101s0.293,0.157,0.408,0.271
				c0.114,0.115,0.207,0.248,0.276,0.4S107.976,70.714,107.976,70.89z"/>
			<path fill="#FFFFFF" d="M114.655,74.913c-0.053,0.086-0.109,0.146-0.168,0.181c-0.059,0.034-0.133,0.052-0.224,0.052
				c-0.096,0-0.199-0.026-0.308-0.08c-0.109-0.053-0.236-0.113-0.38-0.18s-0.308-0.127-0.492-0.181
				c-0.184-0.053-0.401-0.08-0.652-0.08c-0.389,0-0.694,0.083-0.916,0.248c-0.222,0.166-0.332,0.382-0.332,0.648
				c0,0.176,0.057,0.324,0.172,0.444s0.267,0.225,0.456,0.315c0.189,0.091,0.404,0.172,0.644,0.244
				c0.24,0.072,0.484,0.15,0.732,0.236c0.248,0.085,0.492,0.183,0.732,0.292c0.24,0.109,0.455,0.248,0.644,0.416
				c0.189,0.168,0.341,0.369,0.456,0.604c0.114,0.235,0.172,0.518,0.172,0.849c0,0.395-0.071,0.759-0.212,1.092
				c-0.142,0.333-0.351,0.621-0.628,0.864c-0.277,0.242-0.62,0.432-1.028,0.567c-0.408,0.136-0.878,0.204-1.412,0.204
				c-0.283,0-0.559-0.025-0.828-0.076c-0.27-0.051-0.528-0.121-0.776-0.212c-0.248-0.091-0.478-0.197-0.688-0.32
				c-0.211-0.122-0.396-0.256-0.556-0.399l0.456-0.752c0.059-0.091,0.128-0.16,0.208-0.208s0.181-0.072,0.304-0.072
				s0.239,0.035,0.348,0.104s0.236,0.144,0.38,0.224s0.313,0.154,0.508,0.224c0.194,0.069,0.441,0.104,0.74,0.104
				c0.235,0,0.436-0.028,0.604-0.084c0.168-0.057,0.307-0.13,0.416-0.22c0.109-0.091,0.189-0.196,0.24-0.316
				c0.05-0.12,0.076-0.244,0.076-0.372c0-0.192-0.057-0.35-0.172-0.472c-0.115-0.123-0.267-0.229-0.456-0.32
				s-0.405-0.172-0.648-0.244s-0.491-0.15-0.744-0.235c-0.253-0.086-0.501-0.186-0.744-0.301c-0.243-0.114-0.459-0.26-0.648-0.436
				c-0.189-0.176-0.341-0.393-0.456-0.648c-0.115-0.256-0.172-0.565-0.172-0.928c0-0.336,0.067-0.656,0.2-0.96
				s0.329-0.569,0.588-0.796s0.582-0.408,0.968-0.544c0.386-0.136,0.833-0.204,1.34-0.204c0.565,0,1.08,0.094,1.544,0.28
				s0.851,0.432,1.16,0.735L114.655,74.913z"/>
		</g>
	</g>
	<g>
		<g>
			<path fill="#FFFFFF" d="M170.672,75.654c0,0.859-0.137,1.642-0.412,2.348c-0.275,0.707-0.662,1.313-1.16,1.816
				c-0.499,0.504-1.098,0.894-1.796,1.168c-0.699,0.274-1.472,0.412-2.32,0.412h-4.304v-11.48h4.304c0.848,0,1.622,0.14,2.32,0.416
				c0.698,0.277,1.297,0.667,1.796,1.168c0.499,0.502,0.885,1.105,1.16,1.813C170.535,74.021,170.672,74.801,170.672,75.654z
				 M168.984,75.654c0-0.688-0.093-1.305-0.28-1.852c-0.187-0.547-0.455-1.008-0.804-1.385c-0.349-0.376-0.771-0.663-1.264-0.863
				c-0.494-0.2-1.044-0.3-1.652-0.3h-2.648v8.808h2.648c0.608,0,1.159-0.1,1.652-0.3c0.493-0.2,0.915-0.488,1.264-0.864
				c0.35-0.376,0.617-0.837,0.804-1.384C168.891,76.968,168.984,76.348,168.984,75.654z"/>
			<path fill="#FFFFFF" d="M175.76,73.15c0.491,0,0.944,0.081,1.36,0.244s0.776,0.398,1.08,0.708s0.541,0.689,0.712,1.14
				c0.171,0.451,0.256,0.967,0.256,1.548c0,0.235-0.025,0.393-0.076,0.473s-0.146,0.12-0.284,0.12h-5.36
				c0.016,0.496,0.086,0.928,0.212,1.296s0.296,0.673,0.512,0.916c0.216,0.242,0.476,0.424,0.78,0.544
				c0.304,0.12,0.643,0.18,1.016,0.18c0.352,0,0.655-0.04,0.908-0.12c0.253-0.08,0.472-0.168,0.656-0.264s0.34-0.185,0.468-0.264
				c0.128-0.08,0.24-0.12,0.336-0.12c0.128,0,0.221,0.048,0.28,0.144l0.432,0.552c-0.187,0.225-0.403,0.415-0.648,0.572
				c-0.246,0.157-0.51,0.288-0.792,0.392c-0.283,0.104-0.575,0.181-0.876,0.229c-0.302,0.048-0.599,0.072-0.892,0.072
				c-0.56,0-1.079-0.095-1.556-0.284c-0.478-0.189-0.889-0.467-1.236-0.832s-0.618-0.818-0.812-1.36
				c-0.195-0.541-0.292-1.164-0.292-1.868c0-0.564,0.088-1.092,0.264-1.579c0.176-0.488,0.428-0.912,0.756-1.272
				c0.328-0.36,0.728-0.644,1.2-0.852C174.636,73.255,175.168,73.15,175.76,73.15z M175.784,74.263c-0.667,0-1.191,0.193-1.572,0.58
				c-0.381,0.387-0.62,0.921-0.716,1.604h4.312c0-0.32-0.045-0.613-0.136-0.88c-0.091-0.267-0.223-0.496-0.396-0.688
				c-0.173-0.192-0.386-0.343-0.636-0.452S176.104,74.263,175.784,74.263z"/>
			<path fill="#FFFFFF" d="M181.313,81.398v-6.864l-0.864-0.104c-0.123-0.021-0.22-0.063-0.292-0.124
				c-0.072-0.062-0.108-0.148-0.108-0.26v-0.633h1.264v-0.407c0-0.496,0.079-0.954,0.236-1.372c0.157-0.419,0.392-0.777,0.704-1.076
				s0.704-0.532,1.176-0.7c0.472-0.168,1.02-0.252,1.644-0.252c0.203,0,0.413,0.014,0.632,0.04s0.405,0.063,0.56,0.112l-0.048,0.8
				c-0.005,0.053-0.025,0.092-0.06,0.116c-0.035,0.023-0.083,0.04-0.144,0.048c-0.062,0.008-0.135,0.011-0.22,0.008
				s-0.181-0.004-0.288-0.004c-0.48,0-0.892,0.048-1.236,0.144c-0.344,0.097-0.627,0.241-0.848,0.437
				c-0.221,0.194-0.383,0.438-0.484,0.728c-0.102,0.291-0.152,0.631-0.152,1.021v0.359h4.928v7.984h-1.512v-6.88h-3.368v6.88
				H181.313z"/>
			<path fill="#FFFFFF" d="M190,81.398v-8.12h0.912c0.213,0,0.347,0.102,0.4,0.304l0.112,0.841c0.352-0.379,0.744-0.686,1.176-0.921
				c0.432-0.234,0.931-0.352,1.496-0.352c0.442,0,0.833,0.075,1.172,0.224c0.338,0.149,0.623,0.359,0.852,0.628
				c0.229,0.27,0.402,0.593,0.52,0.969c0.117,0.376,0.176,0.793,0.176,1.252v5.176h-1.52v-5.176c0-0.587-0.136-1.044-0.408-1.372
				s-0.686-0.492-1.24-0.492c-0.411,0-0.792,0.096-1.144,0.288s-0.68,0.456-0.984,0.792v5.96H190z"/>
			<path fill="#FFFFFF" d="M202.296,73.15c0.491,0,0.944,0.081,1.36,0.244s0.776,0.398,1.08,0.708s0.541,0.689,0.712,1.14
				c0.171,0.451,0.256,0.967,0.256,1.548c0,0.235-0.025,0.393-0.076,0.473s-0.146,0.12-0.284,0.12h-5.36
				c0.016,0.496,0.086,0.928,0.212,1.296s0.296,0.673,0.512,0.916c0.216,0.242,0.476,0.424,0.78,0.544
				c0.304,0.12,0.643,0.18,1.016,0.18c0.352,0,0.655-0.04,0.908-0.12c0.253-0.08,0.472-0.168,0.656-0.264s0.34-0.185,0.468-0.264
				c0.128-0.08,0.24-0.12,0.336-0.12c0.128,0,0.221,0.048,0.28,0.144l0.432,0.552c-0.187,0.225-0.403,0.415-0.648,0.572
				c-0.246,0.157-0.51,0.288-0.792,0.392c-0.283,0.104-0.575,0.181-0.876,0.229c-0.302,0.048-0.599,0.072-0.892,0.072
				c-0.56,0-1.079-0.095-1.556-0.284c-0.478-0.189-0.889-0.467-1.236-0.832s-0.618-0.818-0.812-1.36
				c-0.195-0.541-0.292-1.164-0.292-1.868c0-0.564,0.088-1.092,0.264-1.579c0.176-0.488,0.428-0.912,0.756-1.272
				c0.328-0.36,0.728-0.644,1.2-0.852C201.172,73.255,201.704,73.15,202.296,73.15z M202.32,74.263c-0.667,0-1.191,0.193-1.572,0.58
				c-0.381,0.387-0.62,0.921-0.716,1.604h4.312c0-0.32-0.045-0.613-0.136-0.88c-0.091-0.267-0.223-0.496-0.396-0.688
				c-0.173-0.192-0.386-0.343-0.636-0.452S202.64,74.263,202.32,74.263z"/>
			<path fill="#FFFFFF" d="M213.992,81.526c-0.65,0-1.152-0.182-1.504-0.544s-0.528-0.885-0.528-1.568v-4.896h-0.952
				c-0.091,0-0.166-0.028-0.224-0.084s-0.088-0.138-0.088-0.244v-0.608l1.32-0.176l0.344-2.456c0.021-0.085,0.061-0.153,0.12-0.204
				c0.059-0.05,0.136-0.075,0.232-0.075h0.768v2.743h2.312v1.104h-2.312v4.792c0,0.325,0.079,0.569,0.236,0.731
				c0.157,0.163,0.364,0.244,0.62,0.244c0.144,0,0.269-0.019,0.376-0.056c0.106-0.037,0.197-0.08,0.272-0.128
				s0.14-0.091,0.196-0.128c0.056-0.037,0.105-0.057,0.148-0.057c0.048,0,0.087,0.011,0.116,0.032s0.06,0.059,0.092,0.112
				l0.448,0.728c-0.256,0.235-0.559,0.416-0.908,0.544C214.727,81.463,214.365,81.526,213.992,81.526z"/>
			<path fill="#FFFFFF" d="M218.671,73.278v5.176c0,0.587,0.136,1.044,0.408,1.372s0.685,0.492,1.24,0.492
				c0.405,0,0.785-0.095,1.14-0.284c0.354-0.189,0.684-0.452,0.988-0.788v-5.968h1.52v8.12h-0.912c-0.213,0-0.347-0.102-0.4-0.304
				l-0.12-0.84c-0.352,0.378-0.743,0.685-1.172,0.92c-0.429,0.234-0.927,0.352-1.492,0.352c-0.448,0-0.841-0.074-1.18-0.224
				s-0.622-0.359-0.848-0.628c-0.227-0.27-0.398-0.593-0.516-0.969c-0.118-0.376-0.176-0.793-0.176-1.252v-5.176H218.671z"/>
			<path fill="#FFFFFF" d="M230.224,84.126V73.278h0.912c0.213,0,0.347,0.102,0.4,0.304l0.128,0.929
				c0.341-0.411,0.735-0.743,1.18-0.996c0.445-0.254,0.956-0.38,1.532-0.38c0.464,0,0.884,0.089,1.26,0.268s0.699,0.444,0.968,0.796
				c0.27,0.353,0.476,0.785,0.62,1.3c0.144,0.516,0.216,1.108,0.216,1.78c0,0.603-0.08,1.161-0.24,1.676s-0.392,0.962-0.696,1.341
				c-0.304,0.378-0.672,0.676-1.104,0.892c-0.432,0.216-0.92,0.324-1.464,0.324c-0.496,0-0.917-0.08-1.264-0.24
				s-0.656-0.39-0.928-0.688v3.544H230.224z M233.879,74.358c-0.458,0-0.857,0.103-1.196,0.308c-0.339,0.206-0.652,0.498-0.94,0.876
				v3.881c0.256,0.336,0.535,0.571,0.836,0.708c0.301,0.136,0.639,0.203,1.012,0.203c0.73,0,1.293-0.261,1.688-0.783
				c0.395-0.523,0.592-1.28,0.592-2.272c0-0.518-0.045-0.96-0.136-1.328c-0.091-0.368-0.222-0.67-0.392-0.908
				c-0.171-0.236-0.379-0.41-0.624-0.52C234.474,74.413,234.194,74.358,233.879,74.358z"/>
			<path fill="#FFFFFF" d="M242.567,73.15c0.491,0,0.944,0.081,1.36,0.244s0.776,0.398,1.08,0.708s0.541,0.689,0.712,1.14
				c0.171,0.451,0.256,0.967,0.256,1.548c0,0.235-0.025,0.393-0.076,0.473s-0.146,0.12-0.284,0.12h-5.36
				c0.016,0.496,0.086,0.928,0.212,1.296s0.296,0.673,0.512,0.916c0.216,0.242,0.476,0.424,0.78,0.544
				c0.304,0.12,0.643,0.18,1.016,0.18c0.352,0,0.655-0.04,0.908-0.12c0.253-0.08,0.472-0.168,0.656-0.264s0.34-0.185,0.468-0.264
				c0.128-0.08,0.24-0.12,0.336-0.12c0.128,0,0.221,0.048,0.28,0.144l0.432,0.552c-0.187,0.225-0.403,0.415-0.648,0.572
				c-0.246,0.157-0.51,0.288-0.792,0.392c-0.283,0.104-0.575,0.181-0.876,0.229c-0.302,0.048-0.599,0.072-0.892,0.072
				c-0.56,0-1.079-0.095-1.556-0.284c-0.478-0.189-0.889-0.467-1.236-0.832s-0.618-0.818-0.812-1.36
				c-0.195-0.541-0.292-1.164-0.292-1.868c0-0.564,0.088-1.092,0.264-1.579c0.176-0.488,0.428-0.912,0.756-1.272
				c0.328-0.36,0.728-0.644,1.2-0.852C241.443,73.255,241.975,73.15,242.567,73.15z M242.591,74.263
				c-0.667,0-1.191,0.193-1.572,0.58c-0.381,0.387-0.62,0.921-0.716,1.604h4.312c0-0.32-0.045-0.613-0.136-0.88
				c-0.091-0.267-0.223-0.496-0.396-0.688c-0.173-0.192-0.386-0.343-0.636-0.452S242.911,74.263,242.591,74.263z"/>
			<path fill="#FFFFFF" d="M247.679,81.398v-8.12h0.872c0.165,0,0.278,0.029,0.34,0.088s0.103,0.166,0.124,0.32l0.096,1.184
				c0.256-0.538,0.57-0.962,0.944-1.271c0.373-0.31,0.821-0.464,1.344-0.464c0.176,0,0.342,0.019,0.5,0.056
				c0.157,0.037,0.294,0.096,0.412,0.176l-0.104,1.136c-0.032,0.145-0.117,0.217-0.256,0.217c-0.075,0-0.186-0.017-0.332-0.048
				c-0.146-0.032-0.308-0.049-0.484-0.049c-0.251,0-0.474,0.038-0.668,0.112c-0.195,0.075-0.37,0.184-0.524,0.328
				c-0.155,0.144-0.292,0.32-0.412,0.528s-0.231,0.445-0.332,0.712v5.096H247.679z"/>
			<path fill="#FFFFFF" d="M254.071,81.398v-6.864l-0.864-0.104c-0.123-0.021-0.22-0.063-0.292-0.124
				c-0.072-0.062-0.108-0.148-0.108-0.26v-0.633h1.264v-0.407c0-0.496,0.079-0.954,0.236-1.372c0.157-0.419,0.392-0.777,0.704-1.076
				s0.704-0.532,1.176-0.7c0.472-0.168,1.02-0.252,1.644-0.252c0.203,0,0.413,0.014,0.632,0.04s0.405,0.063,0.56,0.112l-0.048,0.8
				c-0.005,0.053-0.025,0.092-0.06,0.116c-0.035,0.023-0.083,0.04-0.144,0.048c-0.062,0.008-0.135,0.011-0.22,0.008
				s-0.181-0.004-0.288-0.004c-0.48,0-0.892,0.048-1.236,0.144c-0.344,0.097-0.627,0.241-0.848,0.437
				c-0.221,0.194-0.383,0.438-0.484,0.728c-0.102,0.291-0.152,0.631-0.152,1.021v0.359h4.928v7.984h-1.512v-6.88h-3.368v6.88
				H254.071z"/>
			<path fill="#FFFFFF" d="M264.319,69.599v11.8h-1.52v-11.8H264.319z"/>
		</g>
	</g>
	<g>
		<g>
			<path fill="#FFFFFF" d="M305.488,81.398v-11.48h3.712c0.714,0,1.328,0.07,1.84,0.208c0.512,0.14,0.934,0.338,1.264,0.597
				s0.575,0.574,0.732,0.948c0.157,0.373,0.236,0.792,0.236,1.256c0,0.277-0.044,0.545-0.132,0.804s-0.22,0.499-0.396,0.72
				c-0.176,0.222-0.397,0.422-0.664,0.601s-0.579,0.323-0.936,0.436c0.827,0.165,1.452,0.468,1.876,0.908
				c0.424,0.439,0.636,1.012,0.636,1.716c0,0.491-0.091,0.938-0.272,1.34c-0.182,0.403-0.445,0.748-0.792,1.036
				s-0.772,0.512-1.276,0.672c-0.504,0.16-1.079,0.24-1.724,0.24H305.488z M307.136,75.03h1.992c0.427,0,0.797-0.045,1.112-0.136
				c0.314-0.091,0.575-0.219,0.78-0.384c0.206-0.166,0.359-0.365,0.46-0.601c0.102-0.234,0.152-0.496,0.152-0.784
				c0-0.661-0.199-1.145-0.596-1.451s-1.009-0.46-1.836-0.46h-2.064V75.03z M307.136,76.198v3.889h2.432
				c0.437,0,0.811-0.051,1.12-0.152c0.31-0.102,0.563-0.241,0.76-0.42s0.343-0.391,0.436-0.636c0.093-0.246,0.14-0.515,0.14-0.809
				c0-0.576-0.203-1.032-0.608-1.368s-1.021-0.504-1.848-0.504H307.136z"/>
			<path fill="#FFFFFF" d="M316.808,73.278v5.176c0,0.587,0.136,1.044,0.408,1.372s0.685,0.492,1.24,0.492
				c0.405,0,0.785-0.095,1.14-0.284c0.354-0.189,0.684-0.452,0.988-0.788v-5.968h1.52v8.12h-0.912c-0.213,0-0.347-0.102-0.4-0.304
				l-0.12-0.84c-0.352,0.378-0.743,0.685-1.172,0.92c-0.429,0.234-0.927,0.352-1.492,0.352c-0.448,0-0.841-0.074-1.18-0.224
				s-0.622-0.359-0.848-0.628c-0.227-0.27-0.398-0.593-0.516-0.969c-0.118-0.376-0.176-0.793-0.176-1.252v-5.176H316.808z"/>
			<path fill="#FFFFFF" d="M329.071,74.654c-0.075,0.128-0.179,0.192-0.312,0.192c-0.085,0-0.18-0.029-0.284-0.088
				s-0.228-0.124-0.372-0.196s-0.316-0.138-0.516-0.196c-0.2-0.059-0.436-0.088-0.708-0.088c-0.229,0-0.438,0.029-0.624,0.088
				c-0.187,0.059-0.346,0.139-0.476,0.24c-0.131,0.102-0.232,0.22-0.304,0.356c-0.072,0.136-0.108,0.283-0.108,0.443
				c0,0.203,0.06,0.372,0.18,0.508c0.12,0.137,0.277,0.254,0.472,0.353c0.195,0.099,0.417,0.187,0.668,0.264
				c0.251,0.077,0.507,0.159,0.768,0.244s0.518,0.183,0.768,0.292s0.473,0.244,0.668,0.404s0.352,0.355,0.472,0.588
				c0.12,0.231,0.18,0.511,0.18,0.836c0,0.379-0.068,0.728-0.204,1.048c-0.136,0.32-0.336,0.598-0.6,0.832s-0.588,0.419-0.972,0.552
				c-0.384,0.134-0.827,0.2-1.328,0.2c-0.565,0-1.082-0.094-1.548-0.28s-0.86-0.424-1.18-0.712l0.352-0.576
				c0.043-0.074,0.096-0.132,0.16-0.172s0.144-0.06,0.24-0.06c0.101,0,0.205,0.037,0.312,0.112c0.106,0.074,0.236,0.155,0.388,0.243
				c0.152,0.089,0.336,0.17,0.552,0.244c0.216,0.075,0.484,0.112,0.804,0.112c0.272,0,0.508-0.034,0.708-0.104
				c0.2-0.068,0.367-0.161,0.5-0.275c0.133-0.115,0.232-0.249,0.296-0.404c0.064-0.154,0.096-0.317,0.096-0.488
				c0-0.218-0.06-0.399-0.18-0.544c-0.12-0.144-0.278-0.267-0.472-0.367c-0.195-0.102-0.417-0.189-0.668-0.265
				c-0.251-0.074-0.508-0.154-0.772-0.24c-0.264-0.085-0.521-0.183-0.772-0.292c-0.251-0.108-0.474-0.249-0.668-0.42
				c-0.195-0.17-0.352-0.377-0.472-0.62c-0.12-0.242-0.18-0.539-0.18-0.892c0-0.314,0.064-0.616,0.192-0.904
				c0.128-0.288,0.316-0.541,0.564-0.76s0.553-0.392,0.916-0.52c0.362-0.128,0.776-0.192,1.24-0.192
				c0.533,0,1.017,0.084,1.452,0.252c0.435,0.168,0.804,0.401,1.108,0.7L329.071,74.654z"/>
			<path fill="#FFFFFF" d="M336.928,74.774c-0.043,0.059-0.087,0.104-0.132,0.136c-0.045,0.032-0.108,0.048-0.188,0.048
				c-0.085,0-0.176-0.033-0.272-0.1c-0.096-0.066-0.213-0.139-0.352-0.216s-0.309-0.149-0.512-0.216
				c-0.203-0.067-0.451-0.101-0.744-0.101c-0.389,0-0.733,0.069-1.032,0.208c-0.298,0.139-0.548,0.339-0.748,0.601
				c-0.2,0.261-0.351,0.575-0.452,0.943c-0.102,0.368-0.152,0.784-0.152,1.248c0,0.48,0.054,0.907,0.164,1.28
				s0.264,0.688,0.464,0.944c0.2,0.256,0.442,0.45,0.728,0.584c0.285,0.133,0.604,0.199,0.956,0.199c0.341,0,0.621-0.041,0.84-0.124
				c0.219-0.082,0.4-0.172,0.544-0.268s0.265-0.186,0.364-0.268c0.099-0.083,0.199-0.124,0.3-0.124c0.128,0,0.224,0.048,0.288,0.144
				l0.432,0.552c-0.187,0.225-0.395,0.416-0.624,0.576c-0.229,0.16-0.475,0.291-0.736,0.393c-0.261,0.101-0.533,0.176-0.816,0.224
				s-0.571,0.072-0.864,0.072c-0.507,0-0.979-0.094-1.416-0.28c-0.438-0.187-0.817-0.459-1.14-0.816
				c-0.323-0.356-0.576-0.796-0.76-1.315c-0.184-0.521-0.276-1.11-0.276-1.772c0-0.603,0.084-1.158,0.252-1.668
				c0.168-0.509,0.415-0.95,0.74-1.324c0.325-0.373,0.727-0.663,1.204-0.871c0.477-0.208,1.025-0.313,1.644-0.313
				c0.582,0,1.092,0.094,1.532,0.28s0.828,0.448,1.164,0.784L336.928,74.774z"/>
			<path fill="#FFFFFF" d="M344.087,81.398c-0.149,0-0.264-0.024-0.344-0.072s-0.144-0.141-0.192-0.279l-0.168-0.729
				c-0.208,0.192-0.413,0.364-0.616,0.516c-0.203,0.152-0.415,0.279-0.636,0.381c-0.221,0.101-0.457,0.179-0.708,0.231
				c-0.25,0.054-0.531,0.08-0.84,0.08c-0.32,0-0.619-0.044-0.896-0.132s-0.519-0.223-0.724-0.404
				c-0.205-0.181-0.368-0.406-0.488-0.676s-0.18-0.588-0.18-0.956c0-0.32,0.087-0.627,0.26-0.92
				c0.173-0.293,0.456-0.556,0.848-0.788c0.392-0.232,0.904-0.423,1.536-0.572s1.409-0.234,2.332-0.256v-0.607
				c0-0.613-0.132-1.076-0.396-1.389c-0.264-0.312-0.652-0.468-1.164-0.468c-0.347,0-0.636,0.044-0.868,0.132
				c-0.232,0.088-0.432,0.185-0.6,0.288c-0.168,0.104-0.316,0.199-0.444,0.284c-0.128,0.085-0.256,0.128-0.384,0.128
				c-0.107,0-0.196-0.028-0.268-0.084c-0.072-0.056-0.135-0.121-0.188-0.196l-0.272-0.496c0.453-0.426,0.943-0.746,1.468-0.96
				c0.525-0.213,1.105-0.319,1.74-0.319c0.458,0,0.867,0.074,1.224,0.224c0.357,0.149,0.657,0.358,0.9,0.628
				s0.427,0.594,0.552,0.972c0.125,0.379,0.188,0.798,0.188,1.257v5.184H344.087z M341.039,80.463c0.24,0,0.462-0.024,0.668-0.072
				c0.205-0.048,0.397-0.117,0.576-0.208c0.178-0.091,0.348-0.201,0.508-0.332s0.32-0.278,0.48-0.444v-1.632
				c-0.64,0.021-1.184,0.072-1.632,0.152c-0.448,0.08-0.812,0.184-1.092,0.312c-0.28,0.128-0.484,0.281-0.612,0.46
				s-0.192,0.375-0.192,0.588c0,0.208,0.033,0.387,0.1,0.536c0.067,0.149,0.159,0.271,0.276,0.364
				c0.117,0.094,0.254,0.163,0.412,0.208C340.688,80.439,340.857,80.463,341.039,80.463z"/>
			<path fill="#FFFFFF" d="M356.615,74.774c-0.043,0.059-0.087,0.104-0.132,0.136c-0.045,0.032-0.108,0.048-0.188,0.048
				c-0.085,0-0.176-0.033-0.272-0.1c-0.096-0.066-0.213-0.139-0.352-0.216s-0.309-0.149-0.512-0.216
				c-0.203-0.067-0.451-0.101-0.744-0.101c-0.389,0-0.733,0.069-1.032,0.208c-0.298,0.139-0.548,0.339-0.748,0.601
				c-0.2,0.261-0.351,0.575-0.452,0.943c-0.102,0.368-0.152,0.784-0.152,1.248c0,0.48,0.054,0.907,0.164,1.28
				s0.264,0.688,0.464,0.944c0.2,0.256,0.442,0.45,0.728,0.584c0.285,0.133,0.604,0.199,0.956,0.199c0.341,0,0.621-0.041,0.84-0.124
				c0.219-0.082,0.4-0.172,0.544-0.268s0.265-0.186,0.364-0.268c0.099-0.083,0.199-0.124,0.3-0.124c0.128,0,0.224,0.048,0.288,0.144
				l0.432,0.552c-0.187,0.225-0.395,0.416-0.624,0.576c-0.229,0.16-0.475,0.291-0.736,0.393c-0.261,0.101-0.533,0.176-0.816,0.224
				s-0.571,0.072-0.864,0.072c-0.507,0-0.979-0.094-1.416-0.28c-0.438-0.187-0.817-0.459-1.14-0.816
				c-0.323-0.356-0.576-0.796-0.76-1.315c-0.184-0.521-0.276-1.11-0.276-1.772c0-0.603,0.084-1.158,0.252-1.668
				c0.168-0.509,0.415-0.95,0.74-1.324c0.325-0.373,0.727-0.663,1.204-0.871c0.477-0.208,1.025-0.313,1.644-0.313
				c0.582,0,1.092,0.094,1.532,0.28s0.828,0.448,1.164,0.784L356.615,74.774z"/>
			<path fill="#FFFFFF" d="M360.143,69.599v11.8h-1.52v-11.8H360.143z"/>
			<path fill="#FFFFFF" d="M364.279,70.759c0,0.144-0.028,0.278-0.084,0.403c-0.056,0.126-0.134,0.236-0.232,0.332
				c-0.099,0.097-0.213,0.172-0.344,0.229c-0.131,0.056-0.268,0.084-0.412,0.084c-0.139,0-0.271-0.028-0.396-0.084
				c-0.125-0.057-0.236-0.132-0.332-0.229c-0.096-0.096-0.172-0.206-0.228-0.332c-0.056-0.125-0.084-0.26-0.084-0.403
				c0-0.145,0.028-0.281,0.084-0.412c0.056-0.131,0.132-0.244,0.228-0.34c0.096-0.097,0.207-0.173,0.332-0.229
				s0.257-0.084,0.396-0.084c0.144,0,0.281,0.028,0.412,0.084c0.13,0.056,0.245,0.132,0.344,0.229
				c0.099,0.096,0.176,0.209,0.232,0.34C364.251,70.478,364.279,70.614,364.279,70.759z M363.983,73.278v8.12h-1.52v-8.12H363.983z"
				/>
			<path fill="#FFFFFF" d="M369.615,73.15c0.491,0,0.944,0.081,1.36,0.244s0.776,0.398,1.08,0.708s0.541,0.689,0.712,1.14
				c0.171,0.451,0.256,0.967,0.256,1.548c0,0.235-0.025,0.393-0.076,0.473s-0.146,0.12-0.284,0.12h-5.36
				c0.016,0.496,0.086,0.928,0.212,1.296s0.296,0.673,0.512,0.916c0.216,0.242,0.476,0.424,0.78,0.544
				c0.304,0.12,0.643,0.18,1.016,0.18c0.352,0,0.655-0.04,0.908-0.12c0.253-0.08,0.472-0.168,0.656-0.264s0.34-0.185,0.468-0.264
				c0.128-0.08,0.24-0.12,0.336-0.12c0.128,0,0.221,0.048,0.28,0.144l0.432,0.552c-0.187,0.225-0.403,0.415-0.648,0.572
				c-0.246,0.157-0.51,0.288-0.792,0.392c-0.283,0.104-0.575,0.181-0.876,0.229c-0.302,0.048-0.599,0.072-0.892,0.072
				c-0.56,0-1.079-0.095-1.556-0.284c-0.478-0.189-0.889-0.467-1.236-0.832s-0.618-0.818-0.812-1.36
				c-0.195-0.541-0.292-1.164-0.292-1.868c0-0.564,0.088-1.092,0.264-1.579c0.176-0.488,0.428-0.912,0.756-1.272
				c0.328-0.36,0.728-0.644,1.2-0.852C368.491,73.255,369.022,73.15,369.615,73.15z M369.639,74.263
				c-0.667,0-1.191,0.193-1.572,0.58c-0.381,0.387-0.62,0.921-0.716,1.604h4.312c0-0.32-0.045-0.613-0.136-0.88
				c-0.091-0.267-0.223-0.496-0.396-0.688c-0.173-0.192-0.386-0.343-0.636-0.452S369.958,74.263,369.639,74.263z"/>
			<path fill="#FFFFFF" d="M374.727,81.398v-8.12h0.912c0.213,0,0.347,0.102,0.4,0.304l0.112,0.841
				c0.352-0.379,0.744-0.686,1.176-0.921c0.432-0.234,0.931-0.352,1.496-0.352c0.442,0,0.833,0.075,1.172,0.224
				c0.338,0.149,0.623,0.359,0.852,0.628c0.229,0.27,0.402,0.593,0.52,0.969c0.117,0.376,0.176,0.793,0.176,1.252v5.176h-1.52
				v-5.176c0-0.587-0.136-1.044-0.408-1.372s-0.686-0.492-1.24-0.492c-0.411,0-0.792,0.096-1.144,0.288s-0.68,0.456-0.984,0.792
				v5.96H374.727z"/>
			<path fill="#FFFFFF" d="M386.086,81.526c-0.65,0-1.152-0.182-1.504-0.544s-0.528-0.885-0.528-1.568v-4.896h-0.952
				c-0.091,0-0.166-0.028-0.224-0.084s-0.088-0.138-0.088-0.244v-0.608l1.32-0.176l0.344-2.456c0.021-0.085,0.061-0.153,0.12-0.204
				c0.059-0.05,0.136-0.075,0.232-0.075h0.768v2.743h2.312v1.104h-2.312v4.792c0,0.325,0.079,0.569,0.236,0.731
				c0.157,0.163,0.364,0.244,0.62,0.244c0.144,0,0.269-0.019,0.376-0.056c0.106-0.037,0.197-0.08,0.272-0.128
				s0.14-0.091,0.196-0.128c0.056-0.037,0.105-0.057,0.148-0.057c0.048,0,0.087,0.011,0.116,0.032s0.06,0.059,0.092,0.112
				l0.448,0.728c-0.256,0.235-0.559,0.416-0.908,0.544C386.821,81.463,386.46,81.526,386.086,81.526z"/>
			<path fill="#FFFFFF" d="M392.679,73.15c0.491,0,0.944,0.081,1.36,0.244s0.776,0.398,1.08,0.708s0.541,0.689,0.712,1.14
				c0.171,0.451,0.256,0.967,0.256,1.548c0,0.235-0.025,0.393-0.076,0.473s-0.146,0.12-0.284,0.12h-5.36
				c0.016,0.496,0.086,0.928,0.212,1.296s0.296,0.673,0.512,0.916c0.216,0.242,0.476,0.424,0.78,0.544
				c0.304,0.12,0.643,0.18,1.016,0.18c0.352,0,0.655-0.04,0.908-0.12c0.253-0.08,0.472-0.168,0.656-0.264s0.34-0.185,0.468-0.264
				c0.128-0.08,0.24-0.12,0.336-0.12c0.128,0,0.221,0.048,0.28,0.144l0.432,0.552c-0.187,0.225-0.403,0.415-0.648,0.572
				c-0.246,0.157-0.51,0.288-0.792,0.392c-0.283,0.104-0.575,0.181-0.876,0.229c-0.302,0.048-0.599,0.072-0.892,0.072
				c-0.56,0-1.079-0.095-1.556-0.284c-0.478-0.189-0.889-0.467-1.236-0.832s-0.618-0.818-0.812-1.36
				c-0.195-0.541-0.292-1.164-0.292-1.868c0-0.564,0.088-1.092,0.264-1.579c0.176-0.488,0.428-0.912,0.756-1.272
				c0.328-0.36,0.728-0.644,1.2-0.852C391.555,73.255,392.086,73.15,392.679,73.15z M392.703,74.263
				c-0.667,0-1.191,0.193-1.572,0.58c-0.381,0.387-0.62,0.921-0.716,1.604h4.312c0-0.32-0.045-0.613-0.136-0.88
				c-0.091-0.267-0.223-0.496-0.396-0.688c-0.173-0.192-0.386-0.343-0.636-0.452S393.022,74.263,392.703,74.263z"/>
			<path fill="#FFFFFF" d="M402.559,74.654c-0.075,0.128-0.179,0.192-0.312,0.192c-0.085,0-0.18-0.029-0.284-0.088
				s-0.228-0.124-0.372-0.196s-0.316-0.138-0.516-0.196c-0.2-0.059-0.436-0.088-0.708-0.088c-0.229,0-0.438,0.029-0.624,0.088
				c-0.187,0.059-0.346,0.139-0.476,0.24c-0.131,0.102-0.232,0.22-0.304,0.356c-0.072,0.136-0.108,0.283-0.108,0.443
				c0,0.203,0.06,0.372,0.18,0.508c0.12,0.137,0.277,0.254,0.472,0.353c0.195,0.099,0.417,0.187,0.668,0.264
				c0.251,0.077,0.507,0.159,0.768,0.244s0.518,0.183,0.768,0.292s0.473,0.244,0.668,0.404s0.352,0.355,0.472,0.588
				c0.12,0.231,0.18,0.511,0.18,0.836c0,0.379-0.068,0.728-0.204,1.048c-0.136,0.32-0.336,0.598-0.6,0.832s-0.588,0.419-0.972,0.552
				c-0.384,0.134-0.827,0.2-1.328,0.2c-0.565,0-1.082-0.094-1.548-0.28s-0.86-0.424-1.18-0.712l0.352-0.576
				c0.043-0.074,0.096-0.132,0.16-0.172s0.144-0.06,0.24-0.06c0.101,0,0.205,0.037,0.312,0.112c0.106,0.074,0.236,0.155,0.388,0.243
				c0.152,0.089,0.336,0.17,0.552,0.244c0.216,0.075,0.484,0.112,0.804,0.112c0.272,0,0.508-0.034,0.708-0.104
				c0.2-0.068,0.367-0.161,0.5-0.275c0.133-0.115,0.232-0.249,0.296-0.404c0.064-0.154,0.096-0.317,0.096-0.488
				c0-0.218-0.06-0.399-0.18-0.544c-0.12-0.144-0.278-0.267-0.472-0.367c-0.195-0.102-0.417-0.189-0.668-0.265
				c-0.251-0.074-0.508-0.154-0.772-0.24c-0.264-0.085-0.521-0.183-0.772-0.292c-0.251-0.108-0.474-0.249-0.668-0.42
				c-0.195-0.17-0.352-0.377-0.472-0.62c-0.12-0.242-0.18-0.539-0.18-0.892c0-0.314,0.064-0.616,0.192-0.904
				c0.128-0.288,0.316-0.541,0.564-0.76s0.553-0.392,0.916-0.52c0.362-0.128,0.776-0.192,1.24-0.192
				c0.533,0,1.017,0.084,1.452,0.252c0.435,0.168,0.804,0.401,1.108,0.7L402.559,74.654z"/>
		</g>
	</g>
	<g>
		<g>
			<path fill="#FFFFFF" d="M451.491,78.967c0.091,0,0.171,0.034,0.24,0.104l0.655,0.72c-0.469,0.55-1.041,0.977-1.715,1.28
				c-0.676,0.304-1.484,0.456-2.429,0.456c-0.832,0-1.585-0.144-2.26-0.432s-1.251-0.69-1.728-1.208
				c-0.479-0.518-0.846-1.137-1.104-1.856s-0.388-1.512-0.388-2.376s0.136-1.656,0.408-2.376c0.271-0.72,0.655-1.337,1.151-1.852
				s1.089-0.916,1.78-1.204c0.69-0.288,1.451-0.433,2.283-0.433c0.816,0,1.541,0.134,2.173,0.4s1.183,0.621,1.651,1.064
				l-0.543,0.768c-0.038,0.054-0.082,0.098-0.133,0.132c-0.051,0.035-0.121,0.052-0.212,0.052c-0.101,0-0.22-0.05-0.356-0.151
				c-0.135-0.102-0.314-0.215-0.535-0.34c-0.222-0.126-0.498-0.239-0.828-0.341c-0.331-0.101-0.738-0.151-1.225-0.151
				c-0.576,0-1.105,0.102-1.588,0.304c-0.482,0.203-0.896,0.493-1.244,0.872c-0.346,0.379-0.615,0.843-0.808,1.392
				c-0.192,0.55-0.288,1.171-0.288,1.864c0,0.704,0.1,1.332,0.301,1.884c0.199,0.553,0.475,1.018,0.823,1.396
				c0.35,0.379,0.761,0.668,1.236,0.868c0.475,0.199,0.983,0.3,1.528,0.3c0.336,0,0.637-0.021,0.903-0.061s0.514-0.1,0.74-0.18
				s0.438-0.184,0.636-0.312s0.395-0.28,0.592-0.456c0.043-0.037,0.087-0.068,0.133-0.093
				C451.388,78.979,451.437,78.967,451.491,78.967z"/>
			<path fill="#FFFFFF" d="M457.09,73.15c0.598,0,1.136,0.098,1.616,0.292s0.889,0.474,1.225,0.836
				c0.336,0.363,0.594,0.802,0.775,1.316s0.271,1.092,0.271,1.731c0,0.641-0.09,1.219-0.271,1.736s-0.439,0.957-0.775,1.32
				c-0.336,0.362-0.744,0.641-1.225,0.836c-0.48,0.194-1.019,0.292-1.616,0.292c-0.597,0-1.138-0.098-1.62-0.292
				c-0.482-0.195-0.893-0.474-1.231-0.836c-0.339-0.363-0.599-0.803-0.78-1.32s-0.271-1.096-0.271-1.736
				c0-0.64,0.09-1.217,0.271-1.731s0.441-0.953,0.78-1.316c0.339-0.362,0.749-0.642,1.231-0.836S456.494,73.15,457.09,73.15z
				 M457.09,80.326c0.778,0,1.36-0.261,1.744-0.784c0.384-0.522,0.576-1.258,0.576-2.208c0-0.943-0.192-1.68-0.576-2.208
				c-0.384-0.527-0.966-0.792-1.744-0.792c-0.789,0-1.377,0.265-1.764,0.792c-0.387,0.528-0.58,1.265-0.58,2.208
				c0,0.95,0.193,1.686,0.58,2.208C455.713,80.065,456.301,80.326,457.09,80.326z"/>
			<path fill="#FFFFFF" d="M462.73,81.398v-8.12h0.912c0.214,0,0.348,0.102,0.4,0.304l0.111,0.841
				c0.353-0.379,0.744-0.686,1.177-0.921c0.433-0.234,0.931-0.352,1.496-0.352c0.442,0,0.833,0.075,1.172,0.224
				c0.339,0.149,0.622,0.359,0.853,0.628c0.229,0.27,0.402,0.593,0.52,0.969s0.176,0.793,0.176,1.252v5.176h-1.52v-5.176
				c0-0.587-0.137-1.044-0.408-1.372s-0.686-0.492-1.24-0.492c-0.41,0-0.792,0.096-1.145,0.288c-0.352,0.192-0.68,0.456-0.983,0.792
				v5.96H462.73z"/>
			<path fill="#FFFFFF" d="M474.09,81.526c-0.65,0-1.151-0.182-1.504-0.544s-0.528-0.885-0.528-1.568v-4.896h-0.951
				c-0.092,0-0.166-0.028-0.225-0.084s-0.088-0.138-0.088-0.244v-0.608l1.32-0.176l0.344-2.456c0.021-0.085,0.061-0.153,0.12-0.204
				c0.059-0.05,0.136-0.075,0.231-0.075h0.769v2.743h2.312v1.104h-2.312v4.792c0,0.325,0.079,0.569,0.235,0.731
				c0.158,0.163,0.365,0.244,0.621,0.244c0.144,0,0.269-0.019,0.375-0.056c0.107-0.037,0.197-0.08,0.272-0.128
				s0.14-0.091,0.196-0.128c0.056-0.037,0.105-0.057,0.147-0.057c0.048,0,0.087,0.011,0.116,0.032s0.061,0.059,0.092,0.112
				l0.448,0.728c-0.256,0.235-0.559,0.416-0.908,0.544C474.826,81.463,474.464,81.526,474.09,81.526z"/>
			<path fill="#FFFFFF" d="M482.523,81.398c-0.15,0-0.264-0.024-0.344-0.072s-0.145-0.141-0.193-0.279l-0.168-0.729
				c-0.207,0.192-0.412,0.364-0.615,0.516c-0.203,0.152-0.415,0.279-0.637,0.381c-0.221,0.101-0.457,0.179-0.707,0.231
				c-0.251,0.054-0.531,0.08-0.84,0.08c-0.32,0-0.619-0.044-0.896-0.132s-0.519-0.223-0.725-0.404
				c-0.205-0.181-0.367-0.406-0.487-0.676s-0.181-0.588-0.181-0.956c0-0.32,0.088-0.627,0.261-0.92s0.456-0.556,0.848-0.788
				s0.904-0.423,1.536-0.572s1.409-0.234,2.332-0.256v-0.607c0-0.613-0.132-1.076-0.396-1.389c-0.264-0.312-0.651-0.468-1.164-0.468
				c-0.346,0-0.635,0.044-0.867,0.132s-0.432,0.185-0.6,0.288c-0.168,0.104-0.316,0.199-0.445,0.284
				c-0.127,0.085-0.256,0.128-0.383,0.128c-0.107,0-0.196-0.028-0.269-0.084c-0.071-0.056-0.135-0.121-0.188-0.196l-0.271-0.496
				c0.453-0.426,0.943-0.746,1.468-0.96c0.525-0.213,1.105-0.319,1.74-0.319c0.458,0,0.866,0.074,1.224,0.224s0.658,0.358,0.9,0.628
				s0.427,0.594,0.552,0.972c0.126,0.379,0.188,0.798,0.188,1.257v5.184H482.523z M479.474,80.463c0.24,0,0.463-0.024,0.668-0.072
				s0.398-0.117,0.576-0.208c0.179-0.091,0.348-0.201,0.508-0.332s0.32-0.278,0.48-0.444v-1.632
				c-0.641,0.021-1.184,0.072-1.632,0.152s-0.812,0.184-1.093,0.312c-0.279,0.128-0.483,0.281-0.611,0.46s-0.191,0.375-0.191,0.588
				c0,0.208,0.033,0.387,0.1,0.536s0.158,0.271,0.275,0.364s0.255,0.163,0.412,0.208C479.125,80.439,479.292,80.463,479.474,80.463z
				"/>
			<path fill="#FFFFFF" d="M490.995,74.774c-0.043,0.059-0.087,0.104-0.132,0.136c-0.046,0.032-0.108,0.048-0.188,0.048
				c-0.085,0-0.176-0.033-0.271-0.1c-0.097-0.066-0.214-0.139-0.353-0.216s-0.31-0.149-0.512-0.216
				c-0.203-0.067-0.451-0.101-0.744-0.101c-0.39,0-0.733,0.069-1.032,0.208s-0.548,0.339-0.748,0.601
				c-0.2,0.261-0.351,0.575-0.452,0.943c-0.101,0.368-0.151,0.784-0.151,1.248c0,0.48,0.055,0.907,0.164,1.28
				s0.264,0.688,0.464,0.944s0.442,0.45,0.728,0.584c0.285,0.133,0.604,0.199,0.956,0.199c0.342,0,0.621-0.041,0.84-0.124
				c0.219-0.082,0.4-0.172,0.545-0.268c0.144-0.096,0.265-0.186,0.363-0.268c0.099-0.083,0.199-0.124,0.3-0.124
				c0.129,0,0.225,0.048,0.288,0.144l0.433,0.552c-0.188,0.225-0.396,0.416-0.624,0.576c-0.229,0.16-0.475,0.291-0.736,0.393
				c-0.262,0.101-0.533,0.176-0.816,0.224c-0.282,0.048-0.57,0.072-0.863,0.072c-0.507,0-0.979-0.094-1.416-0.28
				s-0.817-0.459-1.141-0.816c-0.322-0.356-0.575-0.796-0.76-1.315c-0.184-0.521-0.275-1.11-0.275-1.772
				c0-0.603,0.084-1.158,0.252-1.668c0.168-0.509,0.414-0.95,0.739-1.324c0.325-0.373,0.727-0.663,1.204-0.871
				s1.025-0.313,1.645-0.313c0.581,0,1.092,0.094,1.531,0.28c0.44,0.187,0.828,0.448,1.164,0.784L490.995,74.774z"/>
			<path fill="#FFFFFF" d="M495.491,81.526c-0.65,0-1.151-0.182-1.504-0.544c-0.352-0.362-0.528-0.885-0.528-1.568v-4.896h-0.951
				c-0.091,0-0.166-0.028-0.225-0.084s-0.088-0.138-0.088-0.244v-0.608l1.32-0.176l0.344-2.456c0.021-0.085,0.062-0.153,0.12-0.204
				c0.059-0.05,0.136-0.075,0.231-0.075h0.769v2.743h2.312v1.104h-2.312v4.792c0,0.325,0.078,0.569,0.236,0.731
				c0.157,0.163,0.363,0.244,0.619,0.244c0.145,0,0.27-0.019,0.376-0.056c0.107-0.037,0.197-0.08,0.272-0.128
				c0.074-0.048,0.14-0.091,0.196-0.128c0.056-0.037,0.104-0.057,0.147-0.057c0.048,0,0.087,0.011,0.116,0.032
				s0.06,0.059,0.092,0.112l0.448,0.728c-0.256,0.235-0.559,0.416-0.908,0.544C496.225,81.463,495.864,81.526,495.491,81.526z"/>
			<path fill="#FFFFFF" d="M503.922,81.398c-0.149,0-0.264-0.024-0.344-0.072s-0.145-0.141-0.192-0.279l-0.168-0.729
				c-0.208,0.192-0.413,0.364-0.616,0.516c-0.202,0.152-0.414,0.279-0.636,0.381c-0.222,0.101-0.457,0.179-0.708,0.231
				c-0.251,0.054-0.53,0.08-0.84,0.08c-0.32,0-0.619-0.044-0.896-0.132c-0.278-0.088-0.52-0.223-0.725-0.404
				c-0.205-0.181-0.368-0.406-0.488-0.676c-0.119-0.27-0.18-0.588-0.18-0.956c0-0.32,0.087-0.627,0.26-0.92
				c0.174-0.293,0.456-0.556,0.849-0.788c0.392-0.232,0.903-0.423,1.536-0.572c0.632-0.149,1.409-0.234,2.332-0.256v-0.607
				c0-0.613-0.133-1.076-0.396-1.389c-0.264-0.312-0.652-0.468-1.164-0.468c-0.347,0-0.636,0.044-0.868,0.132
				c-0.231,0.088-0.432,0.185-0.6,0.288c-0.168,0.104-0.316,0.199-0.444,0.284s-0.256,0.128-0.384,0.128
				c-0.106,0-0.196-0.028-0.268-0.084c-0.072-0.056-0.135-0.121-0.188-0.196l-0.271-0.496c0.453-0.426,0.942-0.746,1.468-0.96
				c0.525-0.213,1.105-0.319,1.739-0.319c0.459,0,0.867,0.074,1.225,0.224s0.657,0.358,0.899,0.628
				c0.243,0.27,0.427,0.594,0.553,0.972c0.125,0.379,0.188,0.798,0.188,1.257v5.184H503.922z M500.875,80.463
				c0.24,0,0.463-0.024,0.668-0.072s0.397-0.117,0.576-0.208s0.348-0.201,0.508-0.332s0.32-0.278,0.48-0.444v-1.632
				c-0.641,0.021-1.185,0.072-1.633,0.152c-0.447,0.08-0.812,0.184-1.092,0.312s-0.483,0.281-0.612,0.46
				c-0.128,0.179-0.191,0.375-0.191,0.588c0,0.208,0.033,0.387,0.1,0.536s0.159,0.271,0.276,0.364s0.255,0.163,0.412,0.208
				S500.693,80.463,500.875,80.463z"/>
			<path fill="#FFFFFF" d="M515.961,81.398c-0.149,0-0.264-0.024-0.344-0.072s-0.145-0.141-0.192-0.279l-0.168-0.729
				c-0.208,0.192-0.413,0.364-0.616,0.516c-0.202,0.152-0.414,0.279-0.636,0.381c-0.222,0.101-0.457,0.179-0.708,0.231
				c-0.251,0.054-0.53,0.08-0.84,0.08c-0.32,0-0.619-0.044-0.896-0.132c-0.278-0.088-0.52-0.223-0.725-0.404
				c-0.205-0.181-0.368-0.406-0.488-0.676c-0.119-0.27-0.18-0.588-0.18-0.956c0-0.32,0.087-0.627,0.26-0.92
				c0.174-0.293,0.456-0.556,0.849-0.788c0.392-0.232,0.903-0.423,1.536-0.572c0.632-0.149,1.409-0.234,2.332-0.256v-0.607
				c0-0.613-0.133-1.076-0.396-1.389c-0.264-0.312-0.652-0.468-1.164-0.468c-0.347,0-0.636,0.044-0.868,0.132
				c-0.231,0.088-0.432,0.185-0.6,0.288c-0.168,0.104-0.316,0.199-0.444,0.284s-0.256,0.128-0.384,0.128
				c-0.106,0-0.196-0.028-0.268-0.084c-0.072-0.056-0.135-0.121-0.188-0.196l-0.271-0.496c0.453-0.426,0.942-0.746,1.468-0.96
				c0.525-0.213,1.105-0.319,1.739-0.319c0.459,0,0.867,0.074,1.225,0.224s0.657,0.358,0.899,0.628
				c0.243,0.27,0.427,0.594,0.553,0.972c0.125,0.379,0.188,0.798,0.188,1.257v5.184H515.961z M512.914,80.463
				c0.24,0,0.463-0.024,0.668-0.072s0.397-0.117,0.576-0.208s0.348-0.201,0.508-0.332s0.32-0.278,0.48-0.444v-1.632
				c-0.641,0.021-1.185,0.072-1.633,0.152c-0.447,0.08-0.812,0.184-1.092,0.312s-0.483,0.281-0.612,0.46
				c-0.128,0.179-0.191,0.375-0.191,0.588c0,0.208,0.033,0.387,0.1,0.536s0.159,0.271,0.276,0.364s0.255,0.163,0.412,0.208
				S512.732,80.463,512.914,80.463z"/>
			<path fill="#FFFFFF" d="M520.314,69.599v11.8h-1.521v-11.8H520.314z"/>
			<path fill="#FFFFFF" d="M532.297,74.774c-0.043,0.059-0.087,0.104-0.132,0.136c-0.046,0.032-0.108,0.048-0.188,0.048
				c-0.085,0-0.176-0.033-0.271-0.1c-0.097-0.066-0.214-0.139-0.353-0.216s-0.31-0.149-0.512-0.216
				c-0.203-0.067-0.451-0.101-0.744-0.101c-0.39,0-0.733,0.069-1.032,0.208s-0.548,0.339-0.748,0.601
				c-0.2,0.261-0.351,0.575-0.452,0.943c-0.101,0.368-0.151,0.784-0.151,1.248c0,0.48,0.055,0.907,0.164,1.28
				s0.264,0.688,0.464,0.944s0.442,0.45,0.728,0.584c0.285,0.133,0.604,0.199,0.956,0.199c0.342,0,0.621-0.041,0.84-0.124
				c0.219-0.082,0.4-0.172,0.545-0.268c0.144-0.096,0.265-0.186,0.363-0.268c0.099-0.083,0.199-0.124,0.3-0.124
				c0.129,0,0.225,0.048,0.288,0.144l0.433,0.552c-0.188,0.225-0.396,0.416-0.624,0.576c-0.229,0.16-0.475,0.291-0.736,0.393
				c-0.262,0.101-0.533,0.176-0.816,0.224c-0.282,0.048-0.57,0.072-0.863,0.072c-0.507,0-0.979-0.094-1.416-0.28
				s-0.817-0.459-1.141-0.816c-0.322-0.356-0.575-0.796-0.76-1.315c-0.184-0.521-0.275-1.11-0.275-1.772
				c0-0.603,0.084-1.158,0.252-1.668c0.168-0.509,0.414-0.95,0.739-1.324c0.325-0.373,0.727-0.663,1.204-0.871
				s1.025-0.313,1.645-0.313c0.581,0,1.092,0.094,1.531,0.28c0.44,0.187,0.828,0.448,1.164,0.784L532.297,74.774z"/>
			<path fill="#FFFFFF" d="M535.826,69.599v11.8h-1.521v-11.8H535.826z"/>
			<path fill="#FFFFFF" d="M539.961,70.759c0,0.144-0.028,0.278-0.084,0.403c-0.057,0.126-0.134,0.236-0.232,0.332
				c-0.099,0.097-0.213,0.172-0.344,0.229c-0.131,0.056-0.268,0.084-0.412,0.084c-0.139,0-0.271-0.028-0.396-0.084
				c-0.126-0.057-0.236-0.132-0.332-0.229c-0.097-0.096-0.173-0.206-0.229-0.332c-0.056-0.125-0.084-0.26-0.084-0.403
				c0-0.145,0.028-0.281,0.084-0.412s0.132-0.244,0.229-0.34c0.096-0.097,0.206-0.173,0.332-0.229
				c0.125-0.056,0.257-0.084,0.396-0.084c0.145,0,0.281,0.028,0.412,0.084s0.245,0.132,0.344,0.229
				c0.099,0.096,0.176,0.209,0.232,0.34C539.933,70.478,539.961,70.614,539.961,70.759z M539.666,73.278v8.12h-1.521v-8.12H539.666z
				"/>
			<path fill="#FFFFFF" d="M545.297,73.15c0.49,0,0.944,0.081,1.36,0.244s0.775,0.398,1.08,0.708c0.304,0.31,0.541,0.689,0.712,1.14
				c0.17,0.451,0.256,0.967,0.256,1.548c0,0.235-0.025,0.393-0.076,0.473s-0.146,0.12-0.284,0.12h-5.36
				c0.017,0.496,0.087,0.928,0.213,1.296c0.125,0.368,0.296,0.673,0.512,0.916c0.216,0.242,0.476,0.424,0.78,0.544
				c0.304,0.12,0.643,0.18,1.016,0.18c0.352,0,0.654-0.04,0.908-0.12c0.253-0.08,0.472-0.168,0.655-0.264
				c0.185-0.096,0.341-0.185,0.469-0.264c0.128-0.08,0.239-0.12,0.336-0.12c0.128,0,0.221,0.048,0.279,0.144l0.433,0.552
				c-0.187,0.225-0.403,0.415-0.648,0.572s-0.509,0.288-0.792,0.392c-0.282,0.104-0.574,0.181-0.876,0.229
				c-0.301,0.048-0.599,0.072-0.892,0.072c-0.561,0-1.079-0.095-1.556-0.284c-0.478-0.189-0.89-0.467-1.236-0.832
				s-0.617-0.818-0.813-1.36c-0.194-0.541-0.292-1.164-0.292-1.868c0-0.564,0.088-1.092,0.265-1.579
				c0.176-0.488,0.428-0.912,0.756-1.272s0.728-0.644,1.2-0.852C544.173,73.255,544.706,73.15,545.297,73.15z M545.322,74.263
				c-0.667,0-1.191,0.193-1.572,0.58c-0.382,0.387-0.62,0.921-0.716,1.604h4.312c0-0.32-0.045-0.613-0.136-0.88
				s-0.223-0.496-0.396-0.688c-0.173-0.192-0.385-0.343-0.636-0.452S545.641,74.263,545.322,74.263z"/>
			<path fill="#FFFFFF" d="M550.409,81.398v-8.12h0.912c0.214,0,0.347,0.102,0.4,0.304l0.112,0.841
				c0.352-0.379,0.744-0.686,1.176-0.921c0.432-0.234,0.931-0.352,1.496-0.352c0.442,0,0.833,0.075,1.172,0.224
				c0.339,0.149,0.622,0.359,0.852,0.628c0.229,0.27,0.403,0.593,0.521,0.969s0.176,0.793,0.176,1.252v5.176h-1.52v-5.176
				c0-0.587-0.137-1.044-0.408-1.372c-0.272-0.328-0.686-0.492-1.24-0.492c-0.411,0-0.792,0.096-1.144,0.288
				c-0.353,0.192-0.681,0.456-0.984,0.792v5.96H550.409z"/>
			<path fill="#FFFFFF" d="M561.769,81.526c-0.65,0-1.151-0.182-1.504-0.544c-0.352-0.362-0.528-0.885-0.528-1.568v-4.896h-0.951
				c-0.091,0-0.166-0.028-0.225-0.084s-0.088-0.138-0.088-0.244v-0.608l1.32-0.176l0.344-2.456c0.021-0.085,0.062-0.153,0.12-0.204
				c0.059-0.05,0.136-0.075,0.231-0.075h0.769v2.743h2.312v1.104h-2.312v4.792c0,0.325,0.078,0.569,0.236,0.731
				c0.157,0.163,0.363,0.244,0.619,0.244c0.145,0,0.27-0.019,0.376-0.056c0.107-0.037,0.197-0.08,0.272-0.128
				c0.074-0.048,0.14-0.091,0.196-0.128c0.056-0.037,0.104-0.057,0.147-0.057c0.048,0,0.087,0.011,0.116,0.032
				s0.06,0.059,0.092,0.112l0.448,0.728c-0.256,0.235-0.559,0.416-0.908,0.544C562.503,81.463,562.142,81.526,561.769,81.526z"/>
			<path fill="#FFFFFF" d="M568.361,73.15c0.49,0,0.944,0.081,1.36,0.244s0.775,0.398,1.08,0.708c0.304,0.31,0.541,0.689,0.712,1.14
				c0.17,0.451,0.256,0.967,0.256,1.548c0,0.235-0.025,0.393-0.076,0.473s-0.146,0.12-0.284,0.12h-5.36
				c0.017,0.496,0.087,0.928,0.213,1.296c0.125,0.368,0.296,0.673,0.512,0.916c0.216,0.242,0.476,0.424,0.78,0.544
				c0.304,0.12,0.643,0.18,1.016,0.18c0.352,0,0.654-0.04,0.908-0.12c0.253-0.08,0.472-0.168,0.655-0.264
				c0.185-0.096,0.341-0.185,0.469-0.264c0.128-0.08,0.239-0.12,0.336-0.12c0.128,0,0.221,0.048,0.279,0.144l0.433,0.552
				c-0.187,0.225-0.403,0.415-0.648,0.572s-0.509,0.288-0.792,0.392c-0.282,0.104-0.574,0.181-0.876,0.229
				c-0.301,0.048-0.599,0.072-0.892,0.072c-0.561,0-1.079-0.095-1.556-0.284c-0.478-0.189-0.89-0.467-1.236-0.832
				s-0.617-0.818-0.813-1.36c-0.194-0.541-0.292-1.164-0.292-1.868c0-0.564,0.088-1.092,0.265-1.579
				c0.176-0.488,0.428-0.912,0.756-1.272s0.728-0.644,1.2-0.852C567.237,73.255,567.769,73.15,568.361,73.15z M568.385,74.263
				c-0.667,0-1.191,0.193-1.572,0.58c-0.382,0.387-0.62,0.921-0.716,1.604h4.312c0-0.32-0.045-0.613-0.136-0.88
				s-0.223-0.496-0.396-0.688c-0.173-0.192-0.385-0.343-0.636-0.452S568.705,74.263,568.385,74.263z"/>
		</g>
	</g>
	<g>
		<g>
			<path fill="#FFFFFF" d="M618.955,69.918v1.345h-5.448v3.695h4.393v1.297h-4.393v3.8h5.456l-0.008,1.344h-7.104v-11.48H618.955z"
				/>
			<path fill="#FFFFFF" d="M625.394,74.654c-0.075,0.128-0.179,0.192-0.313,0.192c-0.085,0-0.18-0.029-0.283-0.088
				c-0.104-0.059-0.229-0.124-0.372-0.196c-0.145-0.072-0.316-0.138-0.517-0.196c-0.199-0.059-0.436-0.088-0.708-0.088
				c-0.229,0-0.438,0.029-0.624,0.088s-0.345,0.139-0.476,0.24s-0.232,0.22-0.304,0.356c-0.072,0.136-0.108,0.283-0.108,0.443
				c0,0.203,0.06,0.372,0.18,0.508c0.12,0.137,0.277,0.254,0.473,0.353c0.194,0.099,0.417,0.187,0.668,0.264
				c0.25,0.077,0.506,0.159,0.768,0.244s0.518,0.183,0.769,0.292c0.25,0.109,0.473,0.244,0.668,0.404
				c0.194,0.16,0.352,0.355,0.472,0.588c0.12,0.231,0.18,0.511,0.18,0.836c0,0.379-0.067,0.728-0.204,1.048
				c-0.136,0.32-0.336,0.598-0.6,0.832s-0.588,0.419-0.972,0.552c-0.385,0.134-0.827,0.2-1.328,0.2c-0.565,0-1.082-0.094-1.548-0.28
				c-0.467-0.187-0.86-0.424-1.181-0.712l0.353-0.576c0.042-0.074,0.096-0.132,0.16-0.172c0.063-0.04,0.144-0.06,0.239-0.06
				c0.102,0,0.206,0.037,0.313,0.112c0.106,0.074,0.235,0.155,0.388,0.243c0.152,0.089,0.336,0.17,0.552,0.244
				c0.217,0.075,0.484,0.112,0.805,0.112c0.271,0,0.508-0.034,0.708-0.104c0.199-0.068,0.366-0.161,0.5-0.275
				c0.133-0.115,0.231-0.249,0.296-0.404c0.063-0.154,0.096-0.317,0.096-0.488c0-0.218-0.06-0.399-0.18-0.544
				c-0.12-0.144-0.277-0.267-0.473-0.367c-0.194-0.102-0.417-0.189-0.668-0.265c-0.25-0.074-0.508-0.154-0.771-0.24
				c-0.264-0.085-0.521-0.183-0.772-0.292c-0.25-0.108-0.473-0.249-0.668-0.42c-0.194-0.17-0.352-0.377-0.472-0.62
				c-0.12-0.242-0.18-0.539-0.18-0.892c0-0.314,0.063-0.616,0.191-0.904s0.316-0.541,0.564-0.76s0.553-0.392,0.916-0.52
				c0.362-0.128,0.775-0.192,1.24-0.192c0.533,0,1.017,0.084,1.451,0.252s0.805,0.401,1.108,0.7L625.394,74.654z"/>
			<path fill="#FFFFFF" d="M630.098,81.526c-0.65,0-1.151-0.182-1.504-0.544c-0.352-0.362-0.528-0.885-0.528-1.568v-4.896h-0.951
				c-0.091,0-0.166-0.028-0.225-0.084s-0.088-0.138-0.088-0.244v-0.608l1.32-0.176l0.344-2.456c0.021-0.085,0.062-0.153,0.12-0.204
				c0.059-0.05,0.136-0.075,0.231-0.075h0.769v2.743h2.312v1.104h-2.312v4.792c0,0.325,0.078,0.569,0.236,0.731
				c0.157,0.163,0.363,0.244,0.619,0.244c0.145,0,0.27-0.019,0.376-0.056c0.107-0.037,0.197-0.08,0.272-0.128
				c0.074-0.048,0.14-0.091,0.196-0.128c0.056-0.037,0.104-0.057,0.147-0.057c0.048,0,0.087,0.011,0.116,0.032
				s0.06,0.059,0.092,0.112l0.448,0.728c-0.256,0.235-0.559,0.416-0.908,0.544C630.833,81.463,630.471,81.526,630.098,81.526z"/>
			<path fill="#FFFFFF" d="M638.53,81.398c-0.149,0-0.264-0.024-0.344-0.072s-0.145-0.141-0.192-0.279l-0.168-0.729
				c-0.208,0.192-0.413,0.364-0.616,0.516c-0.202,0.152-0.414,0.279-0.636,0.381c-0.222,0.101-0.457,0.179-0.708,0.231
				c-0.251,0.054-0.53,0.08-0.84,0.08c-0.32,0-0.619-0.044-0.896-0.132c-0.278-0.088-0.52-0.223-0.725-0.404
				c-0.205-0.181-0.368-0.406-0.488-0.676c-0.119-0.27-0.18-0.588-0.18-0.956c0-0.32,0.087-0.627,0.26-0.92
				c0.174-0.293,0.456-0.556,0.849-0.788c0.392-0.232,0.903-0.423,1.536-0.572c0.632-0.149,1.409-0.234,2.332-0.256v-0.607
				c0-0.613-0.133-1.076-0.396-1.389c-0.264-0.312-0.652-0.468-1.164-0.468c-0.347,0-0.636,0.044-0.868,0.132
				c-0.231,0.088-0.432,0.185-0.6,0.288c-0.168,0.104-0.316,0.199-0.444,0.284s-0.256,0.128-0.384,0.128
				c-0.106,0-0.196-0.028-0.268-0.084c-0.072-0.056-0.135-0.121-0.188-0.196l-0.271-0.496c0.453-0.426,0.942-0.746,1.468-0.96
				c0.525-0.213,1.105-0.319,1.739-0.319c0.459,0,0.867,0.074,1.225,0.224s0.657,0.358,0.899,0.628
				c0.243,0.27,0.427,0.594,0.553,0.972c0.125,0.379,0.188,0.798,0.188,1.257v5.184H638.53z M635.482,80.463
				c0.24,0,0.463-0.024,0.668-0.072s0.397-0.117,0.576-0.208s0.348-0.201,0.508-0.332s0.32-0.278,0.48-0.444v-1.632
				c-0.641,0.021-1.185,0.072-1.633,0.152c-0.447,0.08-0.812,0.184-1.092,0.312s-0.483,0.281-0.612,0.46
				c-0.128,0.179-0.191,0.375-0.191,0.588c0,0.208,0.033,0.387,0.1,0.536s0.159,0.271,0.276,0.364s0.255,0.163,0.412,0.208
				S635.3,80.463,635.482,80.463z"/>
			<path fill="#FFFFFF" d="M641.322,81.398v-11.8h1.521v4.824c0.336-0.39,0.719-0.699,1.148-0.929
				c0.429-0.229,0.918-0.344,1.468-0.344c0.475,0,0.902,0.092,1.284,0.276c0.381,0.184,0.705,0.446,0.972,0.788
				c0.267,0.341,0.471,0.759,0.612,1.252c0.141,0.493,0.212,1.047,0.212,1.659c0,0.656-0.082,1.254-0.244,1.792
				c-0.163,0.539-0.395,1-0.696,1.385c-0.301,0.384-0.667,0.681-1.096,0.892c-0.43,0.211-0.913,0.316-1.452,0.316
				c-0.533,0-0.98-0.101-1.34-0.301c-0.36-0.199-0.676-0.476-0.948-0.827l-0.072,0.695c-0.048,0.214-0.176,0.32-0.384,0.32H641.322z
				 M644.955,74.358c-0.454,0-0.847,0.103-1.181,0.308c-0.333,0.206-0.644,0.498-0.932,0.876v3.881
				c0.256,0.336,0.536,0.571,0.84,0.708c0.304,0.136,0.635,0.203,0.992,0.203c0.741,0,1.31-0.261,1.704-0.783
				c0.395-0.523,0.592-1.313,0.592-2.368c0-0.971-0.175-1.685-0.524-2.141C646.097,74.587,645.599,74.358,644.955,74.358z"/>
			<path fill="#FFFFFF" d="M651.866,69.599v11.8h-1.521v-11.8H651.866z"/>
			<path fill="#FFFFFF" d="M657.466,73.15c0.49,0,0.944,0.081,1.36,0.244s0.775,0.398,1.08,0.708c0.304,0.31,0.541,0.689,0.712,1.14
				c0.17,0.451,0.256,0.967,0.256,1.548c0,0.235-0.025,0.393-0.076,0.473s-0.146,0.12-0.284,0.12h-5.36
				c0.017,0.496,0.087,0.928,0.213,1.296c0.125,0.368,0.296,0.673,0.512,0.916c0.216,0.242,0.476,0.424,0.78,0.544
				c0.304,0.12,0.643,0.18,1.016,0.18c0.352,0,0.654-0.04,0.908-0.12c0.253-0.08,0.472-0.168,0.655-0.264
				c0.185-0.096,0.341-0.185,0.469-0.264c0.128-0.08,0.239-0.12,0.336-0.12c0.128,0,0.221,0.048,0.279,0.144l0.433,0.552
				c-0.187,0.225-0.403,0.415-0.648,0.572s-0.509,0.288-0.792,0.392c-0.282,0.104-0.574,0.181-0.876,0.229
				c-0.301,0.048-0.599,0.072-0.892,0.072c-0.561,0-1.079-0.095-1.556-0.284c-0.478-0.189-0.89-0.467-1.236-0.832
				s-0.617-0.818-0.813-1.36c-0.194-0.541-0.292-1.164-0.292-1.868c0-0.564,0.088-1.092,0.265-1.579
				c0.176-0.488,0.428-0.912,0.756-1.272s0.728-0.644,1.2-0.852C656.342,73.255,656.875,73.15,657.466,73.15z M657.491,74.263
				c-0.667,0-1.191,0.193-1.572,0.58c-0.382,0.387-0.62,0.921-0.716,1.604h4.312c0-0.32-0.045-0.613-0.136-0.88
				s-0.223-0.496-0.396-0.688c-0.173-0.192-0.385-0.343-0.636-0.452S657.81,74.263,657.491,74.263z"/>
			<path fill="#FFFFFF" d="M668.257,74.774c-0.043,0.059-0.087,0.104-0.132,0.136c-0.046,0.032-0.108,0.048-0.188,0.048
				c-0.085,0-0.176-0.033-0.271-0.1c-0.097-0.066-0.214-0.139-0.353-0.216s-0.31-0.149-0.512-0.216
				c-0.203-0.067-0.451-0.101-0.744-0.101c-0.39,0-0.733,0.069-1.032,0.208s-0.548,0.339-0.748,0.601
				c-0.2,0.261-0.351,0.575-0.452,0.943c-0.101,0.368-0.151,0.784-0.151,1.248c0,0.48,0.055,0.907,0.164,1.28
				s0.264,0.688,0.464,0.944s0.442,0.45,0.728,0.584c0.285,0.133,0.604,0.199,0.956,0.199c0.342,0,0.621-0.041,0.84-0.124
				c0.219-0.082,0.4-0.172,0.545-0.268c0.144-0.096,0.265-0.186,0.363-0.268c0.099-0.083,0.199-0.124,0.3-0.124
				c0.129,0,0.225,0.048,0.288,0.144l0.433,0.552c-0.188,0.225-0.396,0.416-0.624,0.576c-0.229,0.16-0.475,0.291-0.736,0.393
				c-0.262,0.101-0.533,0.176-0.816,0.224c-0.282,0.048-0.57,0.072-0.863,0.072c-0.507,0-0.979-0.094-1.416-0.28
				s-0.817-0.459-1.141-0.816c-0.322-0.356-0.575-0.796-0.76-1.315c-0.184-0.521-0.275-1.11-0.275-1.772
				c0-0.603,0.084-1.158,0.252-1.668c0.168-0.509,0.414-0.95,0.739-1.324c0.325-0.373,0.727-0.663,1.204-0.871
				s1.025-0.313,1.645-0.313c0.581,0,1.092,0.094,1.531,0.28c0.44,0.187,0.828,0.448,1.164,0.784L668.257,74.774z"/>
			<path fill="#FFFFFF" d="M673.434,73.15c0.49,0,0.944,0.081,1.36,0.244s0.775,0.398,1.08,0.708c0.304,0.31,0.541,0.689,0.712,1.14
				c0.17,0.451,0.256,0.967,0.256,1.548c0,0.235-0.025,0.393-0.076,0.473s-0.146,0.12-0.284,0.12h-5.36
				c0.017,0.496,0.087,0.928,0.213,1.296c0.125,0.368,0.296,0.673,0.512,0.916c0.216,0.242,0.476,0.424,0.78,0.544
				c0.304,0.12,0.643,0.18,1.016,0.18c0.352,0,0.654-0.04,0.908-0.12c0.253-0.08,0.472-0.168,0.655-0.264
				c0.185-0.096,0.341-0.185,0.469-0.264c0.128-0.08,0.239-0.12,0.336-0.12c0.128,0,0.221,0.048,0.279,0.144l0.433,0.552
				c-0.187,0.225-0.403,0.415-0.648,0.572s-0.509,0.288-0.792,0.392c-0.282,0.104-0.574,0.181-0.876,0.229
				c-0.301,0.048-0.599,0.072-0.892,0.072c-0.561,0-1.079-0.095-1.556-0.284c-0.478-0.189-0.89-0.467-1.236-0.832
				s-0.617-0.818-0.813-1.36c-0.194-0.541-0.292-1.164-0.292-1.868c0-0.564,0.088-1.092,0.265-1.579
				c0.176-0.488,0.428-0.912,0.756-1.272s0.728-0.644,1.2-0.852C672.31,73.255,672.842,73.15,673.434,73.15z M673.458,74.263
				c-0.667,0-1.191,0.193-1.572,0.58c-0.382,0.387-0.62,0.921-0.716,1.604h4.312c0-0.32-0.045-0.613-0.136-0.88
				s-0.223-0.496-0.396-0.688c-0.173-0.192-0.385-0.343-0.636-0.452S673.778,74.263,673.458,74.263z"/>
			<path fill="#FFFFFF" d="M685.129,81.526c-0.65,0-1.151-0.182-1.504-0.544c-0.352-0.362-0.528-0.885-0.528-1.568v-4.896h-0.951
				c-0.091,0-0.166-0.028-0.225-0.084s-0.088-0.138-0.088-0.244v-0.608l1.32-0.176l0.344-2.456c0.021-0.085,0.062-0.153,0.12-0.204
				c0.059-0.05,0.136-0.075,0.231-0.075h0.769v2.743h2.312v1.104h-2.312v4.792c0,0.325,0.078,0.569,0.236,0.731
				c0.157,0.163,0.363,0.244,0.619,0.244c0.145,0,0.27-0.019,0.376-0.056c0.107-0.037,0.197-0.08,0.272-0.128
				c0.074-0.048,0.14-0.091,0.196-0.128c0.056-0.037,0.104-0.057,0.147-0.057c0.048,0,0.087,0.011,0.116,0.032
				s0.06,0.059,0.092,0.112l0.448,0.728c-0.256,0.235-0.559,0.416-0.908,0.544C685.864,81.463,685.502,81.526,685.129,81.526z"/>
			<path fill="#FFFFFF" d="M689.809,73.278v5.176c0,0.587,0.136,1.044,0.408,1.372c0.271,0.328,0.686,0.492,1.24,0.492
				c0.405,0,0.785-0.095,1.14-0.284s0.684-0.452,0.988-0.788v-5.968h1.52v8.12h-0.912c-0.213,0-0.347-0.102-0.399-0.304l-0.12-0.84
				c-0.353,0.378-0.743,0.685-1.172,0.92c-0.43,0.234-0.927,0.352-1.492,0.352c-0.448,0-0.842-0.074-1.18-0.224
				c-0.339-0.149-0.622-0.359-0.849-0.628c-0.227-0.27-0.398-0.593-0.516-0.969s-0.176-0.793-0.176-1.252v-5.176H689.809z"/>
			<path fill="#FFFFFF" d="M703.889,81.526c-0.65,0-1.151-0.182-1.504-0.544c-0.352-0.362-0.528-0.885-0.528-1.568v-4.896h-0.951
				c-0.091,0-0.166-0.028-0.225-0.084s-0.088-0.138-0.088-0.244v-0.608l1.32-0.176l0.344-2.456c0.021-0.085,0.062-0.153,0.12-0.204
				c0.059-0.05,0.136-0.075,0.231-0.075h0.769v2.743h2.312v1.104h-2.312v4.792c0,0.325,0.078,0.569,0.236,0.731
				c0.157,0.163,0.363,0.244,0.619,0.244c0.145,0,0.27-0.019,0.376-0.056c0.107-0.037,0.197-0.08,0.272-0.128
				c0.074-0.048,0.14-0.091,0.196-0.128c0.056-0.037,0.104-0.057,0.147-0.057c0.048,0,0.087,0.011,0.116,0.032
				s0.06,0.059,0.092,0.112l0.448,0.728c-0.256,0.235-0.559,0.416-0.908,0.544C704.624,81.463,704.262,81.526,703.889,81.526z"/>
			<path fill="#FFFFFF" d="M712.321,81.398c-0.149,0-0.264-0.024-0.344-0.072s-0.145-0.141-0.192-0.279l-0.168-0.729
				c-0.208,0.192-0.413,0.364-0.616,0.516c-0.202,0.152-0.414,0.279-0.636,0.381c-0.222,0.101-0.457,0.179-0.708,0.231
				c-0.251,0.054-0.53,0.08-0.84,0.08c-0.32,0-0.619-0.044-0.896-0.132c-0.278-0.088-0.52-0.223-0.725-0.404
				c-0.205-0.181-0.368-0.406-0.488-0.676c-0.119-0.27-0.18-0.588-0.18-0.956c0-0.32,0.087-0.627,0.26-0.92
				c0.174-0.293,0.456-0.556,0.849-0.788c0.392-0.232,0.903-0.423,1.536-0.572c0.632-0.149,1.409-0.234,2.332-0.256v-0.607
				c0-0.613-0.133-1.076-0.396-1.389c-0.264-0.312-0.652-0.468-1.164-0.468c-0.347,0-0.636,0.044-0.868,0.132
				c-0.231,0.088-0.432,0.185-0.6,0.288c-0.168,0.104-0.316,0.199-0.444,0.284s-0.256,0.128-0.384,0.128
				c-0.106,0-0.196-0.028-0.268-0.084c-0.072-0.056-0.135-0.121-0.188-0.196l-0.271-0.496c0.453-0.426,0.942-0.746,1.468-0.96
				c0.525-0.213,1.105-0.319,1.739-0.319c0.459,0,0.867,0.074,1.225,0.224s0.657,0.358,0.899,0.628
				c0.243,0.27,0.427,0.594,0.553,0.972c0.125,0.379,0.188,0.798,0.188,1.257v5.184H712.321z M709.273,80.463
				c0.24,0,0.463-0.024,0.668-0.072s0.397-0.117,0.576-0.208s0.348-0.201,0.508-0.332s0.32-0.278,0.48-0.444v-1.632
				c-0.641,0.021-1.185,0.072-1.633,0.152c-0.447,0.08-0.812,0.184-1.092,0.312s-0.483,0.281-0.612,0.46
				c-0.128,0.179-0.191,0.375-0.191,0.588c0,0.208,0.033,0.387,0.1,0.536s0.159,0.271,0.276,0.364s0.255,0.163,0.412,0.208
				S709.091,80.463,709.273,80.463z"/>
			<path fill="#FFFFFF" d="M715.112,81.398v-8.12h0.872c0.166,0,0.279,0.029,0.341,0.088c0.061,0.059,0.103,0.166,0.124,0.32
				l0.096,1.184c0.256-0.538,0.57-0.962,0.944-1.271c0.373-0.31,0.82-0.464,1.344-0.464c0.176,0,0.343,0.019,0.5,0.056
				s0.294,0.096,0.412,0.176l-0.104,1.136c-0.032,0.145-0.117,0.217-0.256,0.217c-0.075,0-0.186-0.017-0.332-0.048
				c-0.146-0.032-0.308-0.049-0.484-0.049c-0.25,0-0.473,0.038-0.668,0.112c-0.194,0.075-0.369,0.184-0.523,0.328
				c-0.155,0.144-0.292,0.32-0.412,0.528s-0.23,0.445-0.332,0.712v5.096H715.112z"/>
			<path fill="#FFFFFF" d="M722.849,70.759c0,0.144-0.028,0.278-0.084,0.403c-0.057,0.126-0.134,0.236-0.232,0.332
				c-0.099,0.097-0.213,0.172-0.344,0.229c-0.131,0.056-0.268,0.084-0.412,0.084c-0.139,0-0.271-0.028-0.396-0.084
				c-0.126-0.057-0.236-0.132-0.332-0.229c-0.097-0.096-0.173-0.206-0.229-0.332c-0.056-0.125-0.084-0.26-0.084-0.403
				c0-0.145,0.028-0.281,0.084-0.412s0.132-0.244,0.229-0.34c0.096-0.097,0.206-0.173,0.332-0.229
				c0.125-0.056,0.257-0.084,0.396-0.084c0.145,0,0.281,0.028,0.412,0.084s0.245,0.132,0.344,0.229
				c0.099,0.096,0.176,0.209,0.232,0.34C722.821,70.478,722.849,70.614,722.849,70.759z M722.553,73.278v8.12h-1.521v-8.12H722.553z
				"/>
			<path fill="#FFFFFF" d="M725.369,81.398v-6.864l-0.863-0.104c-0.123-0.021-0.222-0.063-0.296-0.124
				c-0.075-0.062-0.112-0.148-0.112-0.26v-0.633h1.271v-0.752c0-0.464,0.067-0.877,0.2-1.239c0.134-0.363,0.323-0.668,0.568-0.916
				s0.542-0.438,0.892-0.568s0.74-0.196,1.172-0.196c0.177,0,0.35,0.014,0.521,0.04c0.171,0.027,0.333,0.064,0.488,0.112
				l-0.032,0.768c-0.006,0.064-0.027,0.113-0.064,0.148c-0.037,0.034-0.088,0.06-0.151,0.076c-0.064,0.016-0.14,0.023-0.225,0.023
				s-0.182,0-0.288,0c-0.245,0-0.467,0.031-0.664,0.092c-0.197,0.062-0.366,0.162-0.508,0.301s-0.249,0.323-0.324,0.556
				c-0.074,0.232-0.111,0.516-0.111,0.852v0.704h2.304v1.104h-2.256v6.88H725.369z"/>
			<path fill="#FFFFFF" d="M735.648,81.398c-0.149,0-0.264-0.024-0.344-0.072s-0.145-0.141-0.192-0.279l-0.168-0.729
				c-0.208,0.192-0.413,0.364-0.616,0.516c-0.202,0.152-0.414,0.279-0.636,0.381c-0.222,0.101-0.457,0.179-0.708,0.231
				c-0.251,0.054-0.53,0.08-0.84,0.08c-0.32,0-0.619-0.044-0.896-0.132c-0.278-0.088-0.52-0.223-0.725-0.404
				c-0.205-0.181-0.368-0.406-0.488-0.676c-0.119-0.27-0.18-0.588-0.18-0.956c0-0.32,0.087-0.627,0.26-0.92
				c0.174-0.293,0.456-0.556,0.849-0.788c0.392-0.232,0.903-0.423,1.536-0.572c0.632-0.149,1.409-0.234,2.332-0.256v-0.607
				c0-0.613-0.133-1.076-0.396-1.389c-0.264-0.312-0.652-0.468-1.164-0.468c-0.347,0-0.636,0.044-0.868,0.132
				c-0.231,0.088-0.432,0.185-0.6,0.288c-0.168,0.104-0.316,0.199-0.444,0.284s-0.256,0.128-0.384,0.128
				c-0.106,0-0.196-0.028-0.268-0.084c-0.072-0.056-0.135-0.121-0.188-0.196l-0.271-0.496c0.453-0.426,0.942-0.746,1.468-0.96
				c0.525-0.213,1.105-0.319,1.739-0.319c0.459,0,0.867,0.074,1.225,0.224s0.657,0.358,0.899,0.628
				c0.243,0.27,0.427,0.594,0.553,0.972c0.125,0.379,0.188,0.798,0.188,1.257v5.184H735.648z M732.6,80.463
				c0.24,0,0.463-0.024,0.668-0.072s0.397-0.117,0.576-0.208s0.348-0.201,0.508-0.332s0.32-0.278,0.48-0.444v-1.632
				c-0.641,0.021-1.185,0.072-1.633,0.152c-0.447,0.08-0.812,0.184-1.092,0.312s-0.483,0.281-0.612,0.46
				c-0.128,0.179-0.191,0.375-0.191,0.588c0,0.208,0.033,0.387,0.1,0.536s0.159,0.271,0.276,0.364s0.255,0.163,0.412,0.208
				S732.418,80.463,732.6,80.463z"/>
		</g>
	</g>
	<g>
		<line fill="none" stroke="#00BEBE" stroke-miterlimit="10" x1="59.795" y1="10.465" x2="59.795" y2="34.936"/>
		<line fill="none" stroke="#00BEBE" stroke-miterlimit="10" x1="46.789" y1="22.701" x2="72.802" y2="22.701"/>
		<circle fill="none" stroke="#00BEBE" stroke-miterlimit="10" cx="59.796" cy="22.701" r="21.531"/>
	</g>
	<g>
		<circle fill="none" stroke="#00BEBE" stroke-miterlimit="10" cx="212.355" cy="22.701" r="21.531"/>
		<circle fill="none" stroke="#00BEBE" stroke-miterlimit="10" cx="212.355" cy="19.914" r="8.24"/>
		<g>
			<path fill="none" stroke="#00BEBE" stroke-miterlimit="10" d="M212.355,28.154c-6.753,0-12.452,4.49-14.291,10.645
				c3.802,3.377,8.805,5.432,14.291,5.432s10.489-2.055,14.291-5.432C224.807,32.645,219.109,28.154,212.355,28.154z"/>
		</g>
	</g>
	<g>
		<circle fill="none" stroke="#00BEBE" stroke-miterlimit="10" cx="348.976" cy="17.172" r="16.671"/>
		<path fill="none" stroke="#00BEBE" stroke-miterlimit="10" d="M361.575,17.172c0-6.961-5.641-12.602-12.6-12.602
			c-6.958,0-12.599,5.641-12.599,12.602c0,6.955,5.641,12.596,12.599,12.596C355.935,29.768,361.575,24.127,361.575,17.172z"/>
		
			<rect x="365.872" y="26.741" transform="matrix(0.7069 -0.7073 0.7073 0.7069 81.612 270.5521)" fill="none" stroke="#00BEBE" stroke-miterlimit="10" width="2.811" height="20.11"/>
	</g>
	<g>
		<polygon fill="none" stroke="#00BEBE" stroke-miterlimit="10" points="535.116,16.238 503.5,16.238 503.5,37.389 520.92,37.389 
			528.6,43.975 528.92,37.389 535.116,37.389 		"/>
		<polygon fill="none" stroke="#00BEBE" stroke-miterlimit="10" points="510.895,1.426 479.278,1.426 479.278,22.576 
			484.307,22.576 491.987,29.162 492.307,22.576 510.895,22.576 		"/>
	</g>
	<g>
		<circle fill="none" stroke="#00BEBE" stroke-miterlimit="10" cx="673.876" cy="22.701" r="21.53"/>
		<g>
			<path fill="#00BEBE" d="M673.239,31.566c-1.049-0.049-1.961-0.275-2.734-0.676c-0.773-0.402-1.457-0.932-2.047-1.586l0.332-0.48
				c0.098-0.121,0.213-0.184,0.344-0.184c0.074,0,0.164,0.047,0.271,0.135c0.105,0.092,0.236,0.203,0.393,0.338
				c0.156,0.137,0.34,0.283,0.553,0.443s0.461,0.313,0.744,0.455s0.604,0.268,0.965,0.375c0.359,0.105,0.77,0.172,1.229,0.195h0.785
				c0.656-0.039,1.24-0.172,1.752-0.398c0.512-0.225,0.943-0.521,1.291-0.885c0.348-0.365,0.613-0.787,0.799-1.266
				c0.184-0.479,0.275-0.992,0.275-1.543c0-0.539-0.102-1-0.307-1.375c-0.205-0.377-0.479-0.697-0.824-0.959
				c-0.344-0.262-0.74-0.482-1.191-0.658c-0.449-0.176-0.922-0.342-1.414-0.496l-0.773-0.234c-0.557-0.172-1.1-0.365-1.629-0.578
				c-0.527-0.213-0.998-0.486-1.412-0.816c-0.414-0.332-0.748-0.742-1.002-1.229c-0.254-0.488-0.381-1.1-0.381-1.838
				c0-0.574,0.109-1.125,0.326-1.652c0.217-0.529,0.533-0.998,0.947-1.406c0.412-0.41,0.922-0.742,1.529-0.996
				c0.605-0.254,1.297-0.393,2.076-0.418l0.787,0.012c0.826,0.059,1.551,0.24,2.174,0.547s1.191,0.719,1.709,1.236l-0.27,0.418
				c-0.082,0.139-0.193,0.207-0.332,0.207c-0.1,0-0.229-0.066-0.389-0.203c-0.16-0.135-0.367-0.283-0.627-0.447
				c-0.258-0.164-0.574-0.322-0.951-0.473c-0.377-0.152-0.832-0.248-1.365-0.289l-0.785-0.012c-0.623,0.031-1.166,0.146-1.629,0.344
				c-0.463,0.195-0.85,0.447-1.16,0.756c-0.313,0.307-0.547,0.656-0.701,1.051c-0.156,0.393-0.232,0.803-0.232,1.229
				c0,0.508,0.088,0.941,0.27,1.303c0.18,0.359,0.426,0.67,0.736,0.926c0.313,0.26,0.67,0.48,1.076,0.664
				c0.404,0.186,0.838,0.355,1.297,0.512l0.773,0.256c0.582,0.189,1.158,0.387,1.732,0.592s1.086,0.471,1.537,0.797
				c0.449,0.33,0.814,0.734,1.094,1.217c0.277,0.484,0.416,1.096,0.416,1.832c0,0.705-0.117,1.367-0.355,1.99
				c-0.236,0.623-0.58,1.17-1.025,1.641c-0.447,0.473-0.998,0.85-1.654,1.137c-0.654,0.287-1.4,0.451-2.236,0.492H673.239z"/>
		</g>
		<line fill="none" stroke="#00BEBE" stroke-miterlimit="10" x1="673.877" y1="34.889" x2="673.877" y2="10.51"/>
	</g>
	<g>
		<circle fill="none" stroke="#00BEBE" stroke-miterlimit="10" cx="827.796" cy="22.701" r="21.53"/>
	</g>
	<polyline fill="none" stroke="#00BEBE" stroke-miterlimit="10" points="815.961,23.598 823.252,30.889 839.629,14.512 	"/>
	<polyline fill-rule="evenodd" clip-rule="evenodd" fill="none" stroke="#00BEBE" stroke-miterlimit="10" points="138.258,67.738 
		142.469,76.619 137.469,84.738 	"/>
	<polyline fill-rule="evenodd" clip-rule="evenodd" fill="none" stroke="#00BEBE" stroke-miterlimit="10" points="283.03,67.738 
		287.241,76.619 282.241,84.738 	"/>
	<polyline fill-rule="evenodd" clip-rule="evenodd" fill="none" stroke="#00BEBE" stroke-miterlimit="10" points="421.233,67.738 
		425.444,76.619 420.444,84.738 	"/>
	<polyline fill-rule="evenodd" clip-rule="evenodd" fill="none" stroke="#00BEBE" stroke-miterlimit="10" points="589.741,67.738 
		593.952,76.619 588.952,84.738 	"/>
	<polyline fill-rule="evenodd" clip-rule="evenodd" fill="none" stroke="#00BEBE" stroke-miterlimit="10" points="754.592,67.738 
		758.803,76.619 753.803,84.738 	"/>
	<line fill="none" stroke="#FFFFFF" stroke-miterlimit="10" x1="114.946" y1="90.369" x2="2.973" y2="90.369"/>
</g>
</svg>
