<?xml version="1.0" encoding="utf-8"?>
<!-- Generator: Adobe Illustrator 16.0.0, SVG Export Plug-In . SVG Version: 6.00 Build 0)  -->
<!DOCTYPE svg PUBLIC "-//W3C//DTD SVG 1.1//EN" "http://www.w3.org/Graphics/SVG/1.1/DTD/svg11.dtd">
<svg version="1.1" id="Capa_1" xmlns="http://www.w3.org/2000/svg" xmlns:xlink="http://www.w3.org/1999/xlink" x="0px" y="0px"
	 width="874.395px" height="103.803px" viewBox="0 0 874.395 103.803" enable-background="new 0 0 874.395 103.803"
	 xml:space="preserve">
<g>
	<g>
		<g>
			<g>
				<path fill="none" stroke="#00BEBE" stroke-miterlimit="10" d="M713.443,32.736c1.811-3.154,2.846-6.809,2.846-10.707
					c0-11.891-9.639-21.529-21.531-21.529c-11.891,0-21.529,9.639-21.529,21.529c0,11.893,9.639,21.531,21.529,21.531
					c4.215,0,8.148-1.211,11.469-3.305"/>
				<g>
					<path fill="#00BEBE" d="M694.119,30.896c-1.049-0.049-1.959-0.275-2.734-0.678c-0.773-0.4-1.455-0.93-2.045-1.584l0.332-0.48
						c0.098-0.123,0.213-0.184,0.344-0.184c0.074,0,0.162,0.045,0.27,0.135s0.238,0.203,0.393,0.338
						c0.156,0.137,0.34,0.283,0.553,0.443c0.215,0.16,0.463,0.311,0.744,0.455c0.283,0.143,0.605,0.268,0.965,0.373
						c0.361,0.107,0.771,0.174,1.229,0.197h0.787c0.656-0.041,1.24-0.174,1.752-0.398c0.51-0.227,0.941-0.521,1.289-0.885
						c0.35-0.365,0.615-0.787,0.799-1.268c0.186-0.479,0.277-0.992,0.277-1.541c0-0.541-0.104-1-0.307-1.377
						c-0.205-0.377-0.48-0.695-0.824-0.957s-0.742-0.482-1.191-0.658c-0.451-0.176-0.922-0.342-1.414-0.498l-0.773-0.232
						c-0.559-0.174-1.1-0.365-1.629-0.578c-0.527-0.213-1-0.486-1.412-0.816c-0.414-0.332-0.748-0.742-1.002-1.23
						c-0.254-0.486-0.381-1.1-0.381-1.836c0-0.574,0.107-1.125,0.324-1.652c0.217-0.529,0.533-0.998,0.947-1.408
						c0.414-0.408,0.924-0.742,1.529-0.994c0.607-0.254,1.299-0.395,2.076-0.418l0.787,0.012c0.828,0.059,1.553,0.24,2.176,0.547
						s1.191,0.719,1.707,1.234l-0.27,0.418c-0.082,0.141-0.193,0.209-0.332,0.209c-0.1,0-0.227-0.066-0.387-0.203
						c-0.16-0.135-0.369-0.283-0.627-0.447s-0.576-0.322-0.953-0.475c-0.377-0.15-0.832-0.246-1.363-0.289l-0.787-0.012
						c-0.621,0.033-1.166,0.148-1.627,0.344c-0.463,0.197-0.85,0.449-1.162,0.756c-0.311,0.309-0.545,0.658-0.699,1.051
						c-0.156,0.395-0.234,0.803-0.234,1.229c0,0.51,0.09,0.943,0.27,1.303c0.182,0.361,0.426,0.67,0.738,0.928
						c0.311,0.258,0.67,0.48,1.076,0.664c0.404,0.186,0.836,0.355,1.295,0.51l0.775,0.258c0.58,0.189,1.158,0.387,1.732,0.592
						c0.572,0.203,1.086,0.469,1.535,0.797c0.451,0.328,0.816,0.734,1.094,1.217c0.277,0.484,0.418,1.094,0.418,1.832
						c0,0.705-0.119,1.367-0.357,1.99c-0.236,0.623-0.578,1.17-1.025,1.641c-0.445,0.471-0.996,0.85-1.652,1.137
						s-1.4,0.449-2.236,0.492H694.119z"/>
				</g>
				<line fill="none" stroke="#00BEBE" stroke-miterlimit="10" x1="694.758" y1="34.219" x2="694.758" y2="9.84"/>
			</g>
		</g>
		<polyline fill="none" stroke="#00BEBE" stroke-miterlimit="10" points="708.582,35.668 712.18,39.268 722.277,29.17 		"/>
	</g>
	<g>
		<rect x="342.651" y="6.529" fill="none" stroke="#00BEBE" stroke-miterlimit="10" width="42.926" height="31.002"/>
		<line fill="none" stroke="#00BEBE" stroke-miterlimit="10" x1="372.708" y1="32.512" x2="381.278" y2="32.512"/>
		<line fill="none" stroke="#00BEBE" stroke-miterlimit="10" x1="348.116" y1="12.023" x2="381.278" y2="12.023"/>
		<line fill="none" stroke="#00BEBE" stroke-miterlimit="10" x1="348.116" y1="17.146" x2="381.278" y2="17.146"/>
		<line fill="none" stroke="#00BEBE" stroke-miterlimit="10" x1="348.116" y1="22.268" x2="381.278" y2="22.268"/>
		<line fill="none" stroke="#00BEBE" stroke-miterlimit="10" x1="348.116" y1="27.39" x2="381.278" y2="27.39"/>
	</g>
	<g>
		<path fill="#333333" d="M790.436,69.246v1.385h-3.672v10.096h-1.648V70.631h-3.68v-1.385H790.436z"/>
		<path fill="#333333" d="M790.012,80.727v-8.12h0.871c0.166,0,0.279,0.029,0.342,0.088c0.061,0.059,0.102,0.166,0.123,0.32
			l0.096,1.184c0.256-0.538,0.57-0.962,0.945-1.271c0.373-0.31,0.82-0.464,1.344-0.464c0.176,0,0.342,0.019,0.5,0.056
			c0.156,0.037,0.293,0.096,0.412,0.176l-0.105,1.136c-0.031,0.145-0.117,0.217-0.256,0.217c-0.074,0-0.186-0.017-0.332-0.048
			c-0.146-0.032-0.307-0.049-0.484-0.049c-0.25,0-0.473,0.038-0.668,0.112c-0.193,0.075-0.369,0.184-0.523,0.328
			c-0.154,0.144-0.291,0.32-0.412,0.528c-0.119,0.208-0.23,0.445-0.332,0.712v5.096H790.012z"/>
		<path fill="#333333" d="M800.924,80.727c-0.148,0-0.264-0.024-0.344-0.072s-0.145-0.141-0.191-0.279l-0.168-0.729
			c-0.209,0.192-0.414,0.364-0.617,0.516c-0.201,0.152-0.414,0.279-0.635,0.381c-0.223,0.101-0.457,0.179-0.709,0.231
			c-0.25,0.054-0.529,0.08-0.84,0.08c-0.32,0-0.619-0.044-0.895-0.132c-0.279-0.088-0.52-0.223-0.725-0.404
			c-0.205-0.181-0.369-0.406-0.488-0.676s-0.18-0.588-0.18-0.956c0-0.32,0.086-0.627,0.26-0.92s0.455-0.556,0.848-0.788
			s0.904-0.423,1.537-0.572c0.631-0.149,1.408-0.234,2.332-0.256v-0.607c0-0.613-0.133-1.076-0.396-1.389
			c-0.264-0.312-0.652-0.468-1.164-0.468c-0.348,0-0.637,0.044-0.869,0.132c-0.23,0.088-0.432,0.185-0.6,0.288
			c-0.168,0.104-0.316,0.199-0.443,0.284c-0.129,0.085-0.256,0.128-0.385,0.128c-0.105,0-0.195-0.028-0.268-0.084
			s-0.135-0.121-0.188-0.196l-0.271-0.496c0.453-0.426,0.941-0.746,1.467-0.96c0.525-0.213,1.105-0.319,1.74-0.319
			c0.459,0,0.867,0.074,1.225,0.224s0.656,0.358,0.898,0.628c0.244,0.27,0.428,0.594,0.553,0.972
			c0.125,0.379,0.188,0.798,0.188,1.257v5.184H800.924z M797.877,79.791c0.24,0,0.463-0.024,0.668-0.072s0.396-0.117,0.576-0.208
			c0.178-0.091,0.348-0.201,0.508-0.332s0.32-0.278,0.48-0.444v-1.632c-0.641,0.021-1.186,0.072-1.633,0.152
			s-0.813,0.184-1.092,0.312c-0.281,0.128-0.484,0.281-0.613,0.46c-0.127,0.179-0.191,0.375-0.191,0.588
			c0,0.208,0.033,0.387,0.1,0.536s0.16,0.271,0.277,0.364s0.254,0.163,0.412,0.208C797.525,79.768,797.695,79.791,797.877,79.791z"
			/>
		<path fill="#333333" d="M803.715,80.727v-8.12h0.912c0.215,0,0.348,0.102,0.4,0.304l0.104,0.792c0.299-0.356,0.633-0.65,1-0.88
			c0.369-0.229,0.799-0.344,1.289-0.344c0.543,0,0.984,0.148,1.32,0.444s0.578,0.697,0.729,1.204
			c0.117-0.288,0.268-0.536,0.455-0.744s0.395-0.379,0.623-0.513c0.23-0.133,0.475-0.231,0.732-0.296
			c0.26-0.063,0.521-0.096,0.789-0.096c0.869,0,1.541,0.266,2.016,0.796c0.475,0.531,0.711,1.289,0.711,2.276v5.176h-1.52v-5.176
			c0-0.613-0.135-1.077-0.404-1.393c-0.27-0.314-0.66-0.472-1.172-0.472c-0.229,0-0.445,0.04-0.652,0.12
			c-0.205,0.08-0.385,0.197-0.539,0.352c-0.154,0.155-0.277,0.35-0.367,0.584c-0.092,0.235-0.137,0.504-0.137,0.809v5.176h-1.52
			v-5.176c0-0.63-0.127-1.098-0.381-1.404s-0.625-0.46-1.115-0.46c-0.336,0-0.652,0.09-0.949,0.268
			c-0.295,0.18-0.563,0.426-0.803,0.74v6.032H803.715z"/>
		<path fill="#333333" d="M818.805,70.087c0,0.144-0.029,0.278-0.084,0.403c-0.057,0.126-0.135,0.236-0.232,0.332
			c-0.1,0.097-0.213,0.172-0.344,0.229c-0.131,0.056-0.268,0.084-0.412,0.084c-0.139,0-0.271-0.028-0.396-0.084
			c-0.125-0.057-0.236-0.132-0.332-0.229c-0.096-0.096-0.172-0.206-0.229-0.332c-0.055-0.125-0.084-0.26-0.084-0.403
			c0-0.145,0.029-0.281,0.084-0.412c0.057-0.131,0.133-0.244,0.229-0.34c0.096-0.097,0.207-0.173,0.332-0.229
			s0.258-0.084,0.396-0.084c0.145,0,0.281,0.028,0.412,0.084s0.244,0.132,0.344,0.229c0.098,0.096,0.176,0.209,0.232,0.34
			C818.775,69.806,818.805,69.942,818.805,70.087z M818.508,72.606v8.12h-1.52v-8.12H818.508z"/>
		<path fill="#333333" d="M823.314,80.854c-0.65,0-1.15-0.182-1.504-0.544c-0.352-0.362-0.527-0.885-0.527-1.568v-4.896h-0.951
			c-0.092,0-0.166-0.028-0.225-0.084s-0.088-0.138-0.088-0.244V72.91l1.32-0.176l0.344-2.456c0.021-0.085,0.061-0.153,0.119-0.204
			c0.059-0.05,0.137-0.075,0.232-0.075h0.768v2.743h2.313v1.104h-2.313v4.792c0,0.325,0.078,0.569,0.236,0.731
			c0.158,0.163,0.363,0.244,0.619,0.244c0.145,0,0.27-0.019,0.377-0.056s0.197-0.08,0.271-0.128s0.141-0.091,0.197-0.128
			c0.055-0.037,0.104-0.057,0.146-0.057c0.049,0,0.088,0.011,0.117,0.032s0.059,0.059,0.092,0.112l0.447,0.728
			c-0.256,0.235-0.559,0.416-0.908,0.544C824.049,80.791,823.688,80.854,823.314,80.854z"/>
		<path fill="#333333" d="M829.908,72.479c0.49,0,0.943,0.081,1.359,0.244s0.775,0.398,1.08,0.708s0.541,0.689,0.713,1.14
			c0.17,0.451,0.256,0.967,0.256,1.548c0,0.235-0.025,0.393-0.076,0.473s-0.146,0.12-0.285,0.12h-5.359
			c0.016,0.496,0.086,0.928,0.213,1.296c0.125,0.368,0.295,0.673,0.512,0.916c0.215,0.242,0.475,0.424,0.779,0.544
			s0.643,0.18,1.016,0.18c0.352,0,0.654-0.04,0.908-0.12s0.473-0.168,0.656-0.264s0.34-0.185,0.469-0.264
			c0.127-0.08,0.238-0.12,0.336-0.12c0.127,0,0.221,0.048,0.279,0.144l0.432,0.552c-0.186,0.225-0.402,0.415-0.648,0.572
			c-0.244,0.157-0.508,0.288-0.791,0.392c-0.283,0.104-0.574,0.181-0.877,0.229c-0.301,0.048-0.598,0.072-0.891,0.072
			c-0.561,0-1.08-0.095-1.557-0.284s-0.889-0.467-1.236-0.832c-0.346-0.365-0.617-0.818-0.813-1.36
			c-0.193-0.541-0.291-1.164-0.291-1.868c0-0.564,0.088-1.092,0.264-1.579c0.176-0.488,0.428-0.912,0.756-1.272
			s0.729-0.644,1.201-0.852C828.783,72.583,829.316,72.479,829.908,72.479z M829.932,73.591c-0.666,0-1.191,0.193-1.572,0.58
			s-0.619,0.921-0.715,1.604h4.311c0-0.32-0.045-0.613-0.135-0.88c-0.092-0.267-0.223-0.496-0.396-0.688
			c-0.174-0.192-0.385-0.343-0.637-0.452C830.537,73.646,830.252,73.591,829.932,73.591z"/>
		<path fill="#333333" d="M840.635,68.927v11.8h-1.52v-11.8H840.635z"/>
		<path fill="#333333" d="M846.234,72.479c0.49,0,0.945,0.081,1.361,0.244s0.775,0.398,1.08,0.708
			c0.303,0.31,0.541,0.689,0.711,1.14c0.17,0.451,0.256,0.967,0.256,1.548c0,0.235-0.025,0.393-0.076,0.473s-0.145,0.12-0.283,0.12
			h-5.361c0.018,0.496,0.088,0.928,0.213,1.296s0.297,0.673,0.512,0.916c0.217,0.242,0.477,0.424,0.781,0.544
			c0.303,0.12,0.643,0.18,1.016,0.18c0.352,0,0.654-0.04,0.908-0.12c0.252-0.08,0.471-0.168,0.654-0.264
			c0.186-0.096,0.342-0.185,0.469-0.264c0.129-0.08,0.24-0.12,0.336-0.12c0.129,0,0.221,0.048,0.279,0.144l0.434,0.552
			c-0.188,0.225-0.404,0.415-0.648,0.572c-0.246,0.157-0.51,0.288-0.793,0.392c-0.281,0.104-0.574,0.181-0.875,0.229
			s-0.6,0.072-0.893,0.072c-0.561,0-1.078-0.095-1.555-0.284c-0.479-0.189-0.891-0.467-1.236-0.832
			c-0.348-0.365-0.617-0.818-0.813-1.36c-0.195-0.541-0.293-1.164-0.293-1.868c0-0.564,0.088-1.092,0.266-1.579
			c0.176-0.488,0.428-0.912,0.756-1.272s0.727-0.644,1.199-0.852S845.643,72.479,846.234,72.479z M846.26,73.591
			c-0.668,0-1.191,0.193-1.572,0.58c-0.383,0.387-0.621,0.921-0.717,1.604h4.313c0-0.32-0.045-0.613-0.137-0.88
			c-0.09-0.267-0.223-0.496-0.396-0.688c-0.172-0.192-0.385-0.343-0.635-0.452C846.863,73.646,846.578,73.591,846.26,73.591z"/>
		<path fill="#333333" d="M854.195,72.471c0.352,0,0.678,0.039,0.979,0.116c0.303,0.077,0.58,0.188,0.836,0.332h2.24v0.56
			c0,0.192-0.117,0.313-0.352,0.36l-0.889,0.128c0.166,0.341,0.248,0.715,0.248,1.12c0,0.399-0.074,0.76-0.227,1.08
			c-0.152,0.319-0.365,0.595-0.637,0.823c-0.271,0.229-0.596,0.405-0.973,0.528c-0.375,0.123-0.785,0.184-1.227,0.184
			c-0.373,0-0.721-0.04-1.041-0.119c-0.336,0.202-0.504,0.427-0.504,0.672c0,0.187,0.078,0.326,0.236,0.42
			c0.156,0.093,0.363,0.161,0.619,0.204c0.256,0.042,0.547,0.069,0.873,0.08c0.324,0.011,0.658,0.027,1,0.052
			c0.342,0.023,0.674,0.065,1,0.124c0.324,0.059,0.615,0.156,0.871,0.292s0.463,0.321,0.621,0.556
			c0.156,0.235,0.236,0.542,0.236,0.92c0,0.353-0.088,0.692-0.262,1.021c-0.172,0.328-0.424,0.618-0.752,0.872
			c-0.326,0.253-0.729,0.457-1.203,0.611c-0.475,0.155-1.01,0.232-1.607,0.232s-1.119-0.059-1.564-0.176
			c-0.445-0.118-0.816-0.275-1.111-0.473c-0.297-0.197-0.518-0.425-0.664-0.684s-0.221-0.529-0.221-0.813
			c0-0.399,0.123-0.737,0.371-1.012s0.59-0.489,1.021-0.644c-0.24-0.106-0.43-0.252-0.568-0.437
			c-0.139-0.184-0.209-0.428-0.209-0.731c0-0.117,0.021-0.239,0.064-0.364s0.107-0.251,0.197-0.376
			c0.088-0.125,0.197-0.244,0.326-0.356c0.131-0.111,0.281-0.21,0.453-0.296c-0.4-0.224-0.715-0.521-0.943-0.892
			c-0.23-0.371-0.346-0.804-0.346-1.3c0-0.4,0.078-0.761,0.232-1.08c0.154-0.32,0.369-0.595,0.645-0.824s0.602-0.405,0.98-0.528
			C853.326,72.532,853.742,72.471,854.195,72.471z M856.707,81.15c0-0.191-0.055-0.347-0.164-0.464s-0.258-0.211-0.443-0.28
			c-0.188-0.069-0.404-0.117-0.648-0.144c-0.246-0.026-0.504-0.048-0.777-0.064c-0.271-0.016-0.551-0.031-0.836-0.048
			c-0.285-0.016-0.559-0.042-0.818-0.08c-0.289,0.139-0.523,0.31-0.705,0.513c-0.182,0.202-0.271,0.439-0.271,0.712
			c0,0.176,0.045,0.34,0.135,0.491c0.092,0.152,0.229,0.283,0.412,0.393c0.186,0.109,0.42,0.196,0.705,0.26
			c0.285,0.064,0.623,0.096,1.012,0.096c0.385,0,0.725-0.034,1.023-0.104s0.551-0.165,0.752-0.288
			c0.203-0.123,0.357-0.268,0.465-0.436C856.652,81.538,856.707,81.354,856.707,81.15z M854.195,76.702
			c0.281,0,0.529-0.038,0.744-0.115c0.213-0.077,0.391-0.186,0.535-0.324s0.252-0.304,0.324-0.496s0.107-0.405,0.107-0.64
			c0-0.48-0.145-0.863-0.436-1.148s-0.717-0.428-1.275-0.428c-0.561,0-0.986,0.143-1.277,0.428s-0.436,0.668-0.436,1.148
			c0,0.229,0.037,0.439,0.111,0.632c0.076,0.191,0.186,0.358,0.328,0.5c0.145,0.142,0.324,0.251,0.537,0.328
			S853.918,76.702,854.195,76.702z"/>
		<path fill="#333333" d="M864.883,80.727c-0.148,0-0.264-0.024-0.344-0.072s-0.145-0.141-0.191-0.279l-0.168-0.729
			c-0.209,0.192-0.414,0.364-0.617,0.516c-0.201,0.152-0.414,0.279-0.635,0.381c-0.223,0.101-0.457,0.179-0.709,0.231
			c-0.25,0.054-0.529,0.08-0.84,0.08c-0.32,0-0.619-0.044-0.895-0.132c-0.279-0.088-0.52-0.223-0.725-0.404
			c-0.205-0.181-0.369-0.406-0.488-0.676s-0.18-0.588-0.18-0.956c0-0.32,0.086-0.627,0.26-0.92s0.455-0.556,0.848-0.788
			s0.904-0.423,1.537-0.572c0.631-0.149,1.408-0.234,2.332-0.256v-0.607c0-0.613-0.133-1.076-0.396-1.389
			c-0.264-0.312-0.652-0.468-1.164-0.468c-0.348,0-0.637,0.044-0.869,0.132c-0.23,0.088-0.432,0.185-0.6,0.288
			c-0.168,0.104-0.316,0.199-0.443,0.284c-0.129,0.085-0.256,0.128-0.385,0.128c-0.105,0-0.195-0.028-0.268-0.084
			s-0.135-0.121-0.188-0.196l-0.271-0.496c0.453-0.426,0.941-0.746,1.467-0.96c0.525-0.213,1.105-0.319,1.74-0.319
			c0.459,0,0.867,0.074,1.225,0.224s0.656,0.358,0.898,0.628c0.244,0.27,0.428,0.594,0.553,0.972
			c0.125,0.379,0.188,0.798,0.188,1.257v5.184H864.883z M861.836,79.791c0.24,0,0.463-0.024,0.668-0.072s0.396-0.117,0.576-0.208
			c0.178-0.091,0.348-0.201,0.508-0.332s0.32-0.278,0.48-0.444v-1.632c-0.641,0.021-1.186,0.072-1.633,0.152
			s-0.813,0.184-1.092,0.312c-0.281,0.128-0.484,0.281-0.613,0.46c-0.127,0.179-0.191,0.375-0.191,0.588
			c0,0.208,0.033,0.387,0.1,0.536s0.16,0.271,0.277,0.364s0.254,0.163,0.412,0.208C861.484,79.768,861.654,79.791,861.836,79.791z"
			/>
		<path fill="#333333" d="M869.234,68.927v11.8h-1.52v-11.8H869.234z"/>
		<path fill="#333333" d="M871.354,73.862c0-0.144,0.027-0.278,0.08-0.403c0.055-0.126,0.127-0.236,0.217-0.332
			c0.09-0.097,0.199-0.171,0.328-0.225c0.127-0.053,0.264-0.08,0.408-0.08s0.279,0.027,0.404,0.08
			c0.125,0.054,0.234,0.128,0.328,0.225c0.092,0.096,0.166,0.206,0.219,0.332c0.055,0.125,0.08,0.26,0.08,0.403
			c0,0.149-0.025,0.287-0.08,0.412c-0.053,0.126-0.127,0.235-0.219,0.328c-0.094,0.094-0.203,0.167-0.328,0.22
			c-0.125,0.054-0.26,0.08-0.404,0.08s-0.281-0.026-0.408-0.08c-0.129-0.053-0.238-0.126-0.328-0.22
			c-0.09-0.093-0.162-0.202-0.217-0.328C871.381,74.149,871.354,74.012,871.354,73.862z M871.354,79.807
			c0-0.145,0.027-0.278,0.08-0.404c0.055-0.125,0.127-0.235,0.217-0.332c0.09-0.096,0.199-0.17,0.328-0.224
			c0.127-0.054,0.264-0.08,0.408-0.08s0.279,0.026,0.404,0.08s0.234,0.128,0.328,0.224c0.092,0.097,0.166,0.207,0.219,0.332
			c0.055,0.126,0.08,0.26,0.08,0.404c0,0.149-0.025,0.287-0.08,0.412c-0.053,0.125-0.127,0.234-0.219,0.328
			c-0.094,0.093-0.203,0.166-0.328,0.22c-0.125,0.053-0.26,0.08-0.404,0.08s-0.281-0.027-0.408-0.08
			c-0.129-0.054-0.238-0.127-0.328-0.22c-0.09-0.094-0.162-0.203-0.217-0.328C871.381,80.094,871.354,79.956,871.354,79.807z"/>
		<path fill="#00BEBE" d="M800.229,94.723v4.52h-2.152V87.674h3.527c0.783,0,1.457,0.082,2.02,0.244
			c0.563,0.163,1.025,0.391,1.385,0.685c0.359,0.293,0.625,0.644,0.795,1.052c0.172,0.408,0.258,0.857,0.258,1.348
			c0,0.39-0.059,0.758-0.174,1.104c-0.113,0.347-0.279,0.661-0.496,0.943c-0.215,0.283-0.482,0.531-0.799,0.744
			c-0.318,0.214-0.68,0.384-1.084,0.513c0.271,0.154,0.506,0.376,0.703,0.663l2.896,4.272h-1.943c-0.369,0-0.635-0.144-0.801-0.432
			l-2.432-3.704c-0.09-0.139-0.191-0.237-0.301-0.296s-0.27-0.088-0.482-0.088H800.229z M800.229,93.178h1.344
			c0.404,0,0.758-0.05,1.059-0.151c0.303-0.102,0.551-0.241,0.744-0.42c0.195-0.179,0.34-0.391,0.438-0.637
			c0.096-0.245,0.143-0.515,0.143-0.808c0-0.587-0.193-1.037-0.58-1.352c-0.387-0.315-0.977-0.473-1.771-0.473h-1.375V93.178z"/>
		<path fill="#00BEBE" d="M811.012,90.906c0.518,0,0.994,0.083,1.432,0.248s0.813,0.406,1.129,0.724
			c0.314,0.317,0.561,0.707,0.74,1.168c0.178,0.462,0.268,0.988,0.268,1.58c0,0.299-0.033,0.5-0.096,0.604
			c-0.064,0.104-0.188,0.155-0.369,0.155h-5.08c0.033,0.422,0.107,0.786,0.225,1.093s0.271,0.56,0.463,0.76
			c0.193,0.2,0.42,0.35,0.686,0.448c0.264,0.099,0.555,0.147,0.875,0.147s0.596-0.037,0.828-0.111
			c0.232-0.075,0.436-0.158,0.607-0.248c0.174-0.091,0.326-0.174,0.457-0.248c0.131-0.075,0.258-0.112,0.379-0.112
			c0.166,0,0.289,0.062,0.369,0.184l0.568,0.721c-0.219,0.256-0.465,0.471-0.736,0.644c-0.271,0.174-0.557,0.313-0.852,0.416
			c-0.297,0.104-0.598,0.178-0.904,0.22c-0.307,0.043-0.604,0.064-0.893,0.064c-0.57,0-1.102-0.095-1.592-0.284
			s-0.918-0.469-1.279-0.84c-0.363-0.371-0.648-0.829-0.857-1.376c-0.207-0.547-0.311-1.18-0.311-1.9c0-0.56,0.09-1.086,0.271-1.58
			c0.182-0.493,0.441-0.922,0.779-1.288c0.34-0.365,0.752-0.654,1.24-0.867C809.848,91.013,810.398,90.906,811.012,90.906z
			 M811.051,92.322c-0.576,0-1.025,0.163-1.352,0.488c-0.324,0.325-0.533,0.786-0.623,1.384h3.727c0-0.256-0.035-0.497-0.107-0.725
			c-0.072-0.227-0.18-0.425-0.324-0.596c-0.143-0.171-0.326-0.305-0.547-0.404C811.602,92.371,811.346,92.322,811.051,92.322z"/>
		<path fill="#00BEBE" d="M821.068,92.634c-0.055,0.086-0.109,0.146-0.168,0.181c-0.061,0.034-0.135,0.052-0.225,0.052
			c-0.096,0-0.199-0.026-0.309-0.08c-0.109-0.053-0.236-0.113-0.379-0.18c-0.145-0.066-0.309-0.127-0.492-0.181
			c-0.186-0.053-0.402-0.08-0.652-0.08c-0.389,0-0.695,0.083-0.916,0.248c-0.221,0.166-0.332,0.382-0.332,0.648
			c0,0.176,0.057,0.324,0.172,0.444s0.266,0.225,0.455,0.315s0.404,0.172,0.645,0.244s0.484,0.15,0.732,0.236
			c0.248,0.085,0.492,0.183,0.732,0.292s0.453,0.248,0.643,0.416s0.342,0.369,0.457,0.604c0.115,0.235,0.172,0.518,0.172,0.849
			c0,0.395-0.07,0.759-0.213,1.092c-0.141,0.333-0.35,0.621-0.627,0.864c-0.277,0.242-0.621,0.432-1.027,0.567
			c-0.408,0.136-0.879,0.204-1.412,0.204c-0.283,0-0.559-0.025-0.828-0.076s-0.529-0.121-0.777-0.212s-0.477-0.197-0.688-0.32
			c-0.211-0.122-0.396-0.256-0.557-0.399l0.457-0.752c0.059-0.091,0.127-0.16,0.207-0.208s0.182-0.072,0.305-0.072
			s0.238,0.035,0.348,0.104s0.236,0.144,0.381,0.224s0.313,0.154,0.508,0.224s0.441,0.104,0.74,0.104
			c0.234,0,0.436-0.028,0.604-0.084c0.168-0.057,0.307-0.13,0.416-0.22c0.109-0.091,0.189-0.196,0.24-0.316s0.076-0.244,0.076-0.372
			c0-0.192-0.059-0.35-0.172-0.472c-0.115-0.123-0.268-0.229-0.457-0.32s-0.404-0.172-0.646-0.244
			c-0.244-0.072-0.492-0.15-0.744-0.235c-0.254-0.086-0.502-0.186-0.744-0.301c-0.244-0.114-0.459-0.26-0.648-0.436
			s-0.342-0.393-0.457-0.648c-0.113-0.256-0.172-0.565-0.172-0.928c0-0.336,0.066-0.656,0.201-0.96
			c0.133-0.304,0.328-0.569,0.588-0.796c0.258-0.227,0.58-0.408,0.967-0.544s0.834-0.204,1.34-0.204c0.566,0,1.08,0.094,1.545,0.28
			s0.852,0.432,1.16,0.735L821.068,92.634z"/>
		<path fill="#00BEBE" d="M824.988,91.034v5.216c0,0.502,0.115,0.89,0.348,1.164s0.58,0.412,1.043,0.412
			c0.342,0,0.662-0.076,0.961-0.228c0.299-0.152,0.582-0.361,0.848-0.629v-5.936h1.977v8.208h-1.209c-0.26,0-0.426-0.12-0.496-0.36
			l-0.135-0.655c-0.172,0.17-0.348,0.326-0.529,0.468c-0.18,0.142-0.375,0.263-0.584,0.364c-0.207,0.101-0.428,0.179-0.664,0.231
			c-0.234,0.054-0.49,0.08-0.768,0.08c-0.447,0-0.844-0.076-1.188-0.228c-0.344-0.152-0.633-0.367-0.867-0.645
			c-0.236-0.277-0.412-0.606-0.533-0.988c-0.119-0.381-0.18-0.801-0.18-1.26v-5.216H824.988z"/>
		<path fill="#00BEBE" d="M835.611,90.906c0.518,0,0.994,0.083,1.432,0.248s0.813,0.406,1.129,0.724
			c0.314,0.317,0.561,0.707,0.74,1.168c0.178,0.462,0.268,0.988,0.268,1.58c0,0.299-0.033,0.5-0.096,0.604
			c-0.064,0.104-0.188,0.155-0.369,0.155h-5.08c0.033,0.422,0.107,0.786,0.225,1.093s0.271,0.56,0.463,0.76
			c0.193,0.2,0.42,0.35,0.686,0.448c0.264,0.099,0.555,0.147,0.875,0.147s0.596-0.037,0.828-0.111
			c0.232-0.075,0.436-0.158,0.607-0.248c0.174-0.091,0.326-0.174,0.457-0.248c0.131-0.075,0.258-0.112,0.379-0.112
			c0.166,0,0.289,0.062,0.369,0.184l0.568,0.721c-0.219,0.256-0.465,0.471-0.736,0.644c-0.271,0.174-0.557,0.313-0.852,0.416
			c-0.297,0.104-0.598,0.178-0.904,0.22c-0.307,0.043-0.604,0.064-0.893,0.064c-0.57,0-1.102-0.095-1.592-0.284
			s-0.918-0.469-1.279-0.84c-0.363-0.371-0.648-0.829-0.857-1.376c-0.207-0.547-0.311-1.18-0.311-1.9c0-0.56,0.09-1.086,0.271-1.58
			c0.182-0.493,0.441-0.922,0.779-1.288c0.34-0.365,0.752-0.654,1.24-0.867C834.447,91.013,834.998,90.906,835.611,90.906z
			 M835.65,92.322c-0.576,0-1.025,0.163-1.352,0.488c-0.324,0.325-0.533,0.786-0.623,1.384h3.727c0-0.256-0.035-0.497-0.107-0.725
			c-0.072-0.227-0.18-0.425-0.324-0.596c-0.143-0.171-0.326-0.305-0.547-0.404C836.201,92.371,835.945,92.322,835.65,92.322z"/>
		<path fill="#00BEBE" d="M842.658,87.354v11.888h-1.975V87.354H842.658z"/>
		<path fill="#00BEBE" d="M847.371,99.37c-0.715,0-1.262-0.201-1.643-0.604c-0.383-0.403-0.572-0.959-0.572-1.668v-4.584h-0.84
			c-0.107,0-0.197-0.035-0.273-0.104c-0.074-0.069-0.111-0.173-0.111-0.312v-0.784l1.32-0.216l0.416-2.24
			c0.025-0.106,0.076-0.189,0.152-0.248c0.074-0.059,0.17-0.088,0.287-0.088h1.023v2.584h2.193v1.408h-2.193v4.447
			c0,0.256,0.063,0.456,0.189,0.601c0.125,0.144,0.297,0.216,0.516,0.216c0.123,0,0.225-0.015,0.309-0.044
			c0.082-0.029,0.154-0.061,0.215-0.092c0.063-0.032,0.117-0.063,0.164-0.093c0.049-0.029,0.096-0.044,0.145-0.044
			c0.059,0,0.105,0.015,0.145,0.044c0.037,0.029,0.076,0.074,0.119,0.133l0.592,0.96c-0.287,0.239-0.619,0.421-0.992,0.544
			C848.158,99.309,847.771,99.37,847.371,99.37z"/>
		<path fill="#00BEBE" d="M854.219,90.906c0.607,0,1.162,0.099,1.66,0.296s0.926,0.478,1.279,0.84
			c0.355,0.363,0.629,0.806,0.82,1.328s0.289,1.106,0.289,1.752c0,0.65-0.098,1.237-0.289,1.76c-0.191,0.523-0.465,0.969-0.82,1.336
			c-0.354,0.368-0.781,0.651-1.279,0.849s-1.053,0.296-1.66,0.296c-0.613,0-1.17-0.099-1.672-0.296s-0.93-0.48-1.283-0.849
			c-0.355-0.367-0.631-0.813-0.824-1.336c-0.195-0.522-0.293-1.109-0.293-1.76c0-0.646,0.098-1.229,0.293-1.752
			c0.193-0.522,0.469-0.965,0.824-1.328c0.354-0.362,0.781-0.643,1.283-0.84S853.605,90.906,854.219,90.906z M854.219,97.842
			c0.684,0,1.188-0.229,1.516-0.688s0.492-1.131,0.492-2.016c0-0.886-0.164-1.561-0.492-2.024s-0.832-0.696-1.516-0.696
			c-0.693,0-1.207,0.233-1.539,0.7c-0.334,0.467-0.5,1.14-0.5,2.021c0,0.88,0.166,1.55,0.5,2.012
			C853.012,97.611,853.525,97.842,854.219,97.842z"/>
	</g>
	<g>
		<path fill="#333333" d="M3.44,76.332v4.52H1.288V69.283h3.528c0.784,0,1.458,0.082,2.02,0.244
			c0.563,0.163,1.024,0.391,1.384,0.685c0.36,0.293,0.625,0.644,0.796,1.052c0.17,0.408,0.256,0.857,0.256,1.348
			c0,0.39-0.057,0.758-0.172,1.104s-0.28,0.661-0.496,0.943c-0.216,0.283-0.483,0.531-0.8,0.744
			c-0.317,0.214-0.679,0.384-1.084,0.513c0.272,0.154,0.506,0.376,0.704,0.663l2.896,4.272H8.376c-0.368,0-0.635-0.144-0.8-0.432
			l-2.432-3.704c-0.091-0.139-0.191-0.237-0.3-0.296c-0.109-0.059-0.271-0.088-0.484-0.088H3.44z M3.44,74.787h1.344
			c0.405,0,0.758-0.05,1.06-0.151c0.301-0.102,0.549-0.241,0.744-0.42s0.34-0.391,0.436-0.637c0.096-0.245,0.144-0.515,0.144-0.808
			c0-0.587-0.193-1.037-0.58-1.352c-0.387-0.315-0.977-0.473-1.772-0.473H3.44V74.787z"/>
		<path fill="#333333" d="M14.224,72.516c0.517,0,0.995,0.083,1.432,0.248c0.438,0.165,0.813,0.406,1.128,0.724
			c0.314,0.317,0.561,0.707,0.74,1.168c0.179,0.462,0.268,0.988,0.268,1.58c0,0.299-0.032,0.5-0.096,0.604
			c-0.064,0.104-0.187,0.155-0.368,0.155h-5.08c0.032,0.422,0.106,0.786,0.224,1.093c0.117,0.307,0.272,0.56,0.464,0.76
			s0.42,0.35,0.684,0.448c0.264,0.099,0.556,0.147,0.876,0.147c0.32,0,0.596-0.037,0.828-0.111c0.232-0.075,0.435-0.158,0.608-0.248
			c0.173-0.091,0.325-0.174,0.456-0.248c0.13-0.075,0.257-0.112,0.38-0.112c0.165,0,0.288,0.062,0.368,0.184l0.568,0.721
			c-0.219,0.256-0.464,0.471-0.736,0.644c-0.272,0.174-0.556,0.313-0.852,0.416c-0.296,0.104-0.597,0.178-0.904,0.22
			c-0.307,0.043-0.604,0.064-0.892,0.064c-0.571,0-1.101-0.095-1.592-0.284s-0.917-0.469-1.28-0.84s-0.648-0.829-0.856-1.376
			s-0.312-1.18-0.312-1.9c0-0.56,0.091-1.086,0.272-1.58c0.182-0.493,0.441-0.922,0.78-1.288c0.338-0.365,0.752-0.654,1.24-0.867
			C13.06,72.622,13.61,72.516,14.224,72.516z M14.264,73.932c-0.576,0-1.027,0.163-1.352,0.488
			c-0.326,0.325-0.534,0.786-0.624,1.384h3.728c0-0.256-0.036-0.497-0.108-0.725c-0.072-0.227-0.18-0.425-0.324-0.596
			s-0.327-0.305-0.548-0.404C14.814,73.98,14.557,73.932,14.264,73.932z"/>
		<path fill="#333333" d="M22.272,72.5c0.352,0,0.681,0.035,0.988,0.107s0.591,0.178,0.852,0.316h2.36v0.735
			c0,0.235-0.141,0.379-0.424,0.433l-0.736,0.136c0.053,0.139,0.095,0.285,0.124,0.44c0.029,0.154,0.044,0.317,0.044,0.487
			c0,0.405-0.082,0.772-0.244,1.101s-0.388,0.606-0.676,0.836c-0.288,0.229-0.628,0.406-1.02,0.532
			c-0.392,0.125-0.815,0.188-1.268,0.188c-0.31,0-0.611-0.029-0.904-0.088c-0.256,0.154-0.384,0.328-0.384,0.52
			c0,0.166,0.076,0.287,0.228,0.364s0.353,0.132,0.604,0.164c0.25,0.032,0.536,0.052,0.856,0.061
			c0.32,0.008,0.648,0.025,0.984,0.052s0.664,0.073,0.984,0.14c0.32,0.066,0.605,0.172,0.856,0.316
			c0.25,0.144,0.452,0.34,0.604,0.588c0.152,0.248,0.228,0.566,0.228,0.956c0,0.362-0.09,0.715-0.268,1.056
			c-0.179,0.342-0.438,0.646-0.776,0.912c-0.338,0.267-0.754,0.481-1.248,0.644c-0.494,0.163-1.055,0.244-1.684,0.244
			c-0.619,0-1.158-0.06-1.616-0.18s-0.84-0.28-1.144-0.48c-0.304-0.199-0.531-0.431-0.68-0.691
			c-0.149-0.262-0.224-0.533-0.224-0.816c0-0.379,0.116-0.698,0.348-0.96c0.232-0.261,0.548-0.469,0.948-0.624
			c-0.213-0.111-0.384-0.261-0.512-0.447c-0.128-0.188-0.192-0.433-0.192-0.736c0-0.123,0.021-0.249,0.064-0.38
			c0.043-0.131,0.108-0.261,0.196-0.389c0.088-0.128,0.2-0.249,0.336-0.363c0.136-0.115,0.294-0.218,0.476-0.309
			c-0.416-0.224-0.743-0.522-0.98-0.896s-0.356-0.811-0.356-1.313c0-0.405,0.081-0.771,0.244-1.1s0.389-0.608,0.68-0.84
			c0.291-0.232,0.635-0.409,1.032-0.532C21.369,72.561,21.803,72.5,22.272,72.5z M24.504,81.22c0-0.16-0.048-0.289-0.144-0.388
			s-0.227-0.178-0.392-0.236c-0.165-0.059-0.358-0.102-0.58-0.128c-0.221-0.026-0.456-0.047-0.704-0.061
			c-0.248-0.013-0.504-0.025-0.768-0.036c-0.264-0.01-0.521-0.031-0.772-0.063c-0.219,0.123-0.396,0.267-0.532,0.432
			c-0.136,0.166-0.204,0.357-0.204,0.576c0,0.145,0.036,0.278,0.108,0.404c0.072,0.125,0.187,0.233,0.344,0.324
			c0.157,0.09,0.361,0.161,0.612,0.212c0.251,0.051,0.558,0.076,0.92,0.076c0.368,0,0.685-0.028,0.952-0.084
			c0.267-0.057,0.487-0.134,0.66-0.232s0.3-0.216,0.38-0.353C24.464,81.527,24.504,81.38,24.504,81.22z M22.272,76.548
			c0.245,0,0.458-0.033,0.64-0.101c0.181-0.066,0.332-0.158,0.452-0.275c0.12-0.117,0.211-0.259,0.272-0.424
			c0.062-0.166,0.092-0.347,0.092-0.545c0-0.405-0.122-0.727-0.364-0.964s-0.606-0.355-1.092-0.355s-0.85,0.118-1.092,0.355
			s-0.364,0.559-0.364,0.964c0,0.192,0.031,0.371,0.092,0.536c0.062,0.166,0.152,0.309,0.272,0.429
			c0.12,0.119,0.272,0.213,0.456,0.279C21.82,76.515,22.032,76.548,22.272,76.548z"/>
		<path fill="#333333" d="M31.608,69.155l-1.976,2.088c-0.102,0.107-0.199,0.181-0.292,0.221c-0.094,0.04-0.215,0.06-0.364,0.06
			h-1.184l1.136-1.944c0.08-0.138,0.173-0.243,0.28-0.315c0.107-0.072,0.267-0.108,0.48-0.108H31.608z M29.768,72.644v8.208h-1.976
			v-8.208H29.768z"/>
		<path fill="#333333" d="M36.799,74.243c-0.053,0.086-0.109,0.146-0.168,0.181c-0.059,0.034-0.133,0.052-0.224,0.052
			c-0.096,0-0.199-0.026-0.308-0.08c-0.109-0.053-0.236-0.113-0.38-0.18s-0.308-0.127-0.492-0.181
			c-0.184-0.053-0.401-0.08-0.652-0.08c-0.389,0-0.694,0.083-0.916,0.248c-0.222,0.166-0.332,0.382-0.332,0.648
			c0,0.176,0.057,0.324,0.172,0.444s0.267,0.225,0.456,0.315c0.189,0.091,0.404,0.172,0.644,0.244
			c0.24,0.072,0.484,0.15,0.732,0.236c0.248,0.085,0.492,0.183,0.732,0.292c0.24,0.109,0.455,0.248,0.644,0.416
			c0.189,0.168,0.341,0.369,0.456,0.604c0.114,0.235,0.172,0.518,0.172,0.849c0,0.395-0.071,0.759-0.212,1.092
			c-0.142,0.333-0.351,0.621-0.628,0.864c-0.277,0.242-0.62,0.432-1.028,0.567c-0.408,0.136-0.878,0.204-1.412,0.204
			c-0.283,0-0.559-0.025-0.828-0.076c-0.27-0.051-0.528-0.121-0.776-0.212c-0.248-0.091-0.478-0.197-0.688-0.32
			c-0.211-0.122-0.396-0.256-0.556-0.399l0.456-0.752c0.059-0.091,0.128-0.16,0.208-0.208s0.181-0.072,0.304-0.072
			s0.239,0.035,0.348,0.104s0.236,0.144,0.38,0.224s0.313,0.154,0.508,0.224c0.194,0.069,0.441,0.104,0.74,0.104
			c0.235,0,0.436-0.028,0.604-0.084c0.168-0.057,0.307-0.13,0.416-0.22c0.109-0.091,0.189-0.196,0.24-0.316
			c0.05-0.12,0.076-0.244,0.076-0.372c0-0.192-0.057-0.35-0.172-0.472c-0.115-0.123-0.267-0.229-0.456-0.32
			s-0.405-0.172-0.648-0.244s-0.491-0.15-0.744-0.235c-0.253-0.086-0.501-0.186-0.744-0.301c-0.243-0.114-0.459-0.26-0.648-0.436
			c-0.189-0.176-0.341-0.393-0.456-0.648c-0.115-0.256-0.172-0.565-0.172-0.928c0-0.336,0.067-0.656,0.2-0.96
			s0.329-0.569,0.588-0.796s0.582-0.408,0.968-0.544c0.386-0.136,0.833-0.204,1.34-0.204c0.565,0,1.08,0.094,1.544,0.28
			s0.851,0.432,1.16,0.735L36.799,74.243z"/>
		<path fill="#333333" d="M41.56,80.979c-0.715,0-1.263-0.201-1.644-0.604c-0.381-0.403-0.572-0.959-0.572-1.668v-4.584h-0.84
			c-0.106,0-0.197-0.035-0.272-0.104s-0.112-0.173-0.112-0.312v-0.784l1.32-0.216l0.416-2.24c0.027-0.106,0.078-0.189,0.152-0.248
			s0.17-0.088,0.288-0.088h1.024v2.584h2.192v1.408H41.32v4.447c0,0.256,0.063,0.456,0.188,0.601
			c0.125,0.144,0.297,0.216,0.516,0.216c0.123,0,0.226-0.015,0.308-0.044s0.155-0.061,0.216-0.092
			c0.061-0.032,0.116-0.063,0.164-0.093c0.048-0.029,0.096-0.044,0.144-0.044c0.059,0,0.107,0.015,0.144,0.044
			c0.038,0.029,0.078,0.074,0.12,0.133l0.592,0.96c-0.288,0.239-0.619,0.421-0.992,0.544C42.346,80.918,41.959,80.979,41.56,80.979z
			"/>
		<path fill="#333333" d="M44.776,80.852v-8.208h1.16c0.203,0,0.344,0.036,0.424,0.108c0.08,0.071,0.133,0.201,0.16,0.388
			l0.112,0.928c0.261-0.49,0.568-0.876,0.92-1.156c0.352-0.279,0.768-0.42,1.248-0.42c0.378,0,0.683,0.083,0.912,0.248l-0.128,1.48
			c-0.027,0.096-0.065,0.164-0.116,0.204s-0.119,0.06-0.204,0.06c-0.08,0-0.199-0.013-0.356-0.04c-0.157-0.026-0.311-0.04-0.46-0.04
			c-0.219,0-0.413,0.032-0.584,0.097c-0.171,0.063-0.324,0.155-0.46,0.275s-0.256,0.266-0.36,0.437
			c-0.104,0.17-0.202,0.365-0.292,0.584v5.056H44.776z"/>
		<path fill="#333333" d="M56.008,80.852c-0.187,0-0.331-0.028-0.432-0.084c-0.102-0.056-0.182-0.169-0.24-0.34l-0.176-0.584
			c-0.208,0.187-0.411,0.351-0.608,0.492c-0.198,0.141-0.403,0.26-0.616,0.355s-0.441,0.168-0.684,0.216s-0.511,0.072-0.804,0.072
			c-0.347,0-0.667-0.047-0.96-0.14c-0.293-0.094-0.547-0.233-0.76-0.42s-0.379-0.419-0.496-0.696s-0.176-0.6-0.176-0.968
			c0-0.31,0.081-0.615,0.244-0.916c0.163-0.302,0.433-0.573,0.812-0.816c0.378-0.242,0.882-0.444,1.512-0.604
			c0.629-0.16,1.413-0.251,2.352-0.272v-0.479c0-0.55-0.117-0.956-0.352-1.221c-0.235-0.264-0.573-0.396-1.016-0.396
			c-0.32,0-0.585,0.037-0.796,0.111c-0.211,0.075-0.396,0.159-0.556,0.253c-0.16,0.093-0.305,0.177-0.436,0.252
			c-0.13,0.074-0.276,0.111-0.436,0.111c-0.139,0-0.256-0.036-0.352-0.107c-0.096-0.072-0.173-0.156-0.232-0.252l-0.352-0.633
			c0.944-0.863,2.08-1.296,3.408-1.296c0.48,0,0.909,0.079,1.288,0.236c0.378,0.157,0.699,0.376,0.96,0.656
			c0.261,0.279,0.46,0.614,0.596,1.004c0.136,0.39,0.204,0.815,0.204,1.28v5.184H56.008z M53.056,79.619
			c0.405,0,0.756-0.073,1.052-0.22c0.296-0.146,0.585-0.369,0.868-0.668v-1.384c-0.576,0.026-1.058,0.076-1.444,0.147
			c-0.387,0.072-0.698,0.164-0.932,0.276c-0.235,0.112-0.403,0.243-0.504,0.392c-0.102,0.149-0.152,0.313-0.152,0.488
			c0,0.347,0.103,0.595,0.308,0.744C52.457,79.545,52.725,79.619,53.056,79.619z"/>
		<path fill="#333333" d="M61.384,80.979c-0.715,0-1.263-0.201-1.644-0.604c-0.381-0.403-0.572-0.959-0.572-1.668v-4.584h-0.84
			c-0.106,0-0.197-0.035-0.272-0.104s-0.112-0.173-0.112-0.312v-0.784l1.32-0.216l0.416-2.24c0.027-0.106,0.078-0.189,0.152-0.248
			s0.17-0.088,0.288-0.088h1.024v2.584h2.192v1.408h-2.192v4.447c0,0.256,0.063,0.456,0.188,0.601
			c0.125,0.144,0.297,0.216,0.516,0.216c0.123,0,0.226-0.015,0.308-0.044s0.155-0.061,0.216-0.092
			c0.061-0.032,0.116-0.063,0.164-0.093c0.048-0.029,0.096-0.044,0.144-0.044c0.059,0,0.107,0.015,0.144,0.044
			c0.038,0.029,0.078,0.074,0.12,0.133l0.592,0.96c-0.288,0.239-0.619,0.421-0.992,0.544C62.17,80.918,61.784,80.979,61.384,80.979z
			"/>
		<path fill="#333333" d="M68.096,72.516c0.517,0,0.995,0.083,1.432,0.248c0.438,0.165,0.813,0.406,1.128,0.724
			c0.314,0.317,0.561,0.707,0.74,1.168c0.179,0.462,0.268,0.988,0.268,1.58c0,0.299-0.032,0.5-0.096,0.604
			c-0.064,0.104-0.187,0.155-0.368,0.155h-5.08c0.032,0.422,0.106,0.786,0.224,1.093c0.117,0.307,0.272,0.56,0.464,0.76
			s0.42,0.35,0.684,0.448c0.264,0.099,0.556,0.147,0.876,0.147c0.32,0,0.596-0.037,0.828-0.111c0.232-0.075,0.435-0.158,0.608-0.248
			c0.173-0.091,0.325-0.174,0.456-0.248c0.13-0.075,0.257-0.112,0.38-0.112c0.165,0,0.288,0.062,0.368,0.184l0.568,0.721
			c-0.219,0.256-0.464,0.471-0.736,0.644c-0.272,0.174-0.556,0.313-0.852,0.416c-0.296,0.104-0.597,0.178-0.904,0.22
			c-0.307,0.043-0.604,0.064-0.892,0.064c-0.571,0-1.101-0.095-1.592-0.284s-0.917-0.469-1.28-0.84s-0.648-0.829-0.856-1.376
			s-0.312-1.18-0.312-1.9c0-0.56,0.091-1.086,0.272-1.58c0.182-0.493,0.441-0.922,0.78-1.288c0.338-0.365,0.752-0.654,1.24-0.867
			C66.932,72.622,67.482,72.516,68.096,72.516z M68.136,73.932c-0.576,0-1.027,0.163-1.352,0.488
			c-0.326,0.325-0.534,0.786-0.624,1.384h3.728c0-0.256-0.036-0.497-0.108-0.725c-0.072-0.227-0.18-0.425-0.324-0.596
			s-0.327-0.305-0.548-0.404C68.686,73.98,68.429,73.932,68.136,73.932z"/>
		<path fill="#333333" d="M80.032,72.5c0.352,0,0.681,0.035,0.988,0.107s0.591,0.178,0.852,0.316h2.36v0.735
			c0,0.235-0.141,0.379-0.424,0.433l-0.736,0.136c0.053,0.139,0.095,0.285,0.124,0.44c0.029,0.154,0.044,0.317,0.044,0.487
			c0,0.405-0.082,0.772-0.244,1.101s-0.388,0.606-0.676,0.836c-0.288,0.229-0.628,0.406-1.02,0.532
			c-0.392,0.125-0.815,0.188-1.268,0.188c-0.31,0-0.611-0.029-0.904-0.088c-0.256,0.154-0.384,0.328-0.384,0.52
			c0,0.166,0.076,0.287,0.228,0.364s0.353,0.132,0.604,0.164c0.25,0.032,0.536,0.052,0.856,0.061
			c0.32,0.008,0.648,0.025,0.984,0.052s0.664,0.073,0.984,0.14c0.32,0.066,0.605,0.172,0.856,0.316
			c0.25,0.144,0.452,0.34,0.604,0.588c0.152,0.248,0.228,0.566,0.228,0.956c0,0.362-0.09,0.715-0.268,1.056
			c-0.179,0.342-0.438,0.646-0.776,0.912c-0.338,0.267-0.754,0.481-1.248,0.644c-0.494,0.163-1.055,0.244-1.684,0.244
			c-0.619,0-1.158-0.06-1.616-0.18s-0.84-0.28-1.144-0.48c-0.304-0.199-0.531-0.431-0.68-0.691
			c-0.149-0.262-0.224-0.533-0.224-0.816c0-0.379,0.116-0.698,0.348-0.96c0.232-0.261,0.548-0.469,0.948-0.624
			c-0.213-0.111-0.384-0.261-0.512-0.447c-0.128-0.188-0.192-0.433-0.192-0.736c0-0.123,0.021-0.249,0.064-0.38
			c0.043-0.131,0.108-0.261,0.196-0.389c0.088-0.128,0.2-0.249,0.336-0.363c0.136-0.115,0.294-0.218,0.476-0.309
			c-0.416-0.224-0.743-0.522-0.98-0.896s-0.356-0.811-0.356-1.313c0-0.405,0.081-0.771,0.244-1.1s0.389-0.608,0.68-0.84
			c0.291-0.232,0.635-0.409,1.032-0.532C79.129,72.561,79.563,72.5,80.032,72.5z M82.264,81.22c0-0.16-0.048-0.289-0.144-0.388
			s-0.227-0.178-0.392-0.236c-0.165-0.059-0.358-0.102-0.58-0.128c-0.221-0.026-0.456-0.047-0.704-0.061
			c-0.248-0.013-0.504-0.025-0.768-0.036c-0.264-0.01-0.521-0.031-0.772-0.063c-0.219,0.123-0.396,0.267-0.532,0.432
			c-0.136,0.166-0.204,0.357-0.204,0.576c0,0.145,0.036,0.278,0.108,0.404c0.072,0.125,0.187,0.233,0.344,0.324
			c0.157,0.09,0.361,0.161,0.612,0.212c0.251,0.051,0.558,0.076,0.92,0.076c0.368,0,0.685-0.028,0.952-0.084
			c0.267-0.057,0.487-0.134,0.66-0.232s0.3-0.216,0.38-0.353C82.224,81.527,82.264,81.38,82.264,81.22z M80.032,76.548
			c0.245,0,0.458-0.033,0.64-0.101c0.181-0.066,0.332-0.158,0.452-0.275c0.12-0.117,0.211-0.259,0.272-0.424
			c0.062-0.166,0.092-0.347,0.092-0.545c0-0.405-0.122-0.727-0.364-0.964s-0.606-0.355-1.092-0.355s-0.85,0.118-1.092,0.355
			s-0.364,0.559-0.364,0.964c0,0.192,0.031,0.371,0.092,0.536c0.062,0.166,0.152,0.309,0.272,0.429
			c0.12,0.119,0.272,0.213,0.456,0.279C79.58,76.515,79.792,76.548,80.032,76.548z"/>
		<path fill="#333333" d="M85.479,80.852v-8.208h1.16c0.203,0,0.344,0.036,0.424,0.108c0.08,0.071,0.133,0.201,0.16,0.388
			l0.112,0.928c0.261-0.49,0.568-0.876,0.92-1.156c0.352-0.279,0.768-0.42,1.248-0.42c0.378,0,0.683,0.083,0.912,0.248l-0.128,1.48
			c-0.027,0.096-0.065,0.164-0.116,0.204s-0.119,0.06-0.204,0.06c-0.08,0-0.199-0.013-0.356-0.04c-0.157-0.026-0.311-0.04-0.46-0.04
			c-0.219,0-0.413,0.032-0.584,0.097c-0.171,0.063-0.324,0.155-0.46,0.275s-0.256,0.266-0.36,0.437
			c-0.104,0.17-0.202,0.365-0.292,0.584v5.056H85.479z"/>
		<path fill="#333333" d="M96.711,80.852c-0.187,0-0.331-0.028-0.432-0.084c-0.102-0.056-0.182-0.169-0.24-0.34l-0.176-0.584
			c-0.208,0.187-0.411,0.351-0.608,0.492c-0.198,0.141-0.403,0.26-0.616,0.355s-0.441,0.168-0.684,0.216s-0.511,0.072-0.804,0.072
			c-0.347,0-0.667-0.047-0.96-0.14c-0.293-0.094-0.547-0.233-0.76-0.42s-0.379-0.419-0.496-0.696s-0.176-0.6-0.176-0.968
			c0-0.31,0.081-0.615,0.244-0.916c0.163-0.302,0.433-0.573,0.812-0.816c0.378-0.242,0.882-0.444,1.512-0.604
			c0.629-0.16,1.413-0.251,2.352-0.272v-0.479c0-0.55-0.117-0.956-0.352-1.221c-0.235-0.264-0.573-0.396-1.016-0.396
			c-0.32,0-0.585,0.037-0.796,0.111c-0.211,0.075-0.396,0.159-0.556,0.253c-0.16,0.093-0.305,0.177-0.436,0.252
			c-0.13,0.074-0.276,0.111-0.436,0.111c-0.139,0-0.256-0.036-0.352-0.107c-0.096-0.072-0.173-0.156-0.232-0.252l-0.352-0.633
			c0.944-0.863,2.08-1.296,3.408-1.296c0.48,0,0.909,0.079,1.288,0.236c0.378,0.157,0.699,0.376,0.96,0.656
			c0.261,0.279,0.46,0.614,0.596,1.004c0.136,0.39,0.204,0.815,0.204,1.28v5.184H96.711z M93.759,79.619
			c0.405,0,0.756-0.073,1.052-0.22c0.296-0.146,0.585-0.369,0.868-0.668v-1.384c-0.576,0.026-1.058,0.076-1.444,0.147
			c-0.387,0.072-0.698,0.164-0.932,0.276c-0.235,0.112-0.403,0.243-0.504,0.392c-0.102,0.149-0.152,0.313-0.152,0.488
			c0,0.347,0.103,0.595,0.308,0.744C93.161,79.545,93.428,79.619,93.759,79.619z"/>
		<path fill="#333333" d="M102.087,80.979c-0.715,0-1.263-0.201-1.644-0.604c-0.381-0.403-0.572-0.959-0.572-1.668v-4.584h-0.84
			c-0.106,0-0.197-0.035-0.272-0.104s-0.112-0.173-0.112-0.312v-0.784l1.32-0.216l0.416-2.24c0.027-0.106,0.078-0.189,0.152-0.248
			s0.17-0.088,0.288-0.088h1.024v2.584h5.784v8.136h-1.976v-6.728h-3.808v4.447c0,0.256,0.063,0.456,0.188,0.601
			c0.125,0.144,0.297,0.216,0.516,0.216c0.123,0,0.226-0.015,0.308-0.044s0.155-0.061,0.216-0.092
			c0.061-0.032,0.116-0.063,0.164-0.093c0.048-0.029,0.096-0.044,0.144-0.044c0.059,0,0.107,0.015,0.144,0.044
			c0.038,0.029,0.078,0.074,0.12,0.133l0.592,0.96c-0.288,0.239-0.619,0.421-0.992,0.544
			C102.874,80.918,102.487,80.979,102.087,80.979z M107.976,70.22c0,0.171-0.035,0.332-0.104,0.483
			c-0.069,0.152-0.162,0.284-0.276,0.396c-0.115,0.112-0.251,0.201-0.408,0.268c-0.157,0.067-0.324,0.101-0.5,0.101
			c-0.171,0-0.331-0.033-0.48-0.101c-0.149-0.066-0.28-0.155-0.392-0.268s-0.201-0.244-0.268-0.396
			c-0.066-0.151-0.1-0.313-0.1-0.483c0-0.176,0.034-0.34,0.1-0.492c0.067-0.152,0.156-0.285,0.268-0.4
			c0.112-0.114,0.243-0.205,0.392-0.271s0.309-0.101,0.48-0.101c0.176,0,0.343,0.034,0.5,0.101s0.293,0.157,0.408,0.271
			c0.114,0.115,0.207,0.248,0.276,0.4S107.976,70.044,107.976,70.22z"/>
		<path fill="#333333" d="M114.655,74.243c-0.053,0.086-0.109,0.146-0.168,0.181c-0.059,0.034-0.133,0.052-0.224,0.052
			c-0.096,0-0.199-0.026-0.308-0.08c-0.109-0.053-0.236-0.113-0.38-0.18s-0.308-0.127-0.492-0.181
			c-0.184-0.053-0.401-0.08-0.652-0.08c-0.389,0-0.694,0.083-0.916,0.248c-0.222,0.166-0.332,0.382-0.332,0.648
			c0,0.176,0.057,0.324,0.172,0.444s0.267,0.225,0.456,0.315c0.189,0.091,0.404,0.172,0.644,0.244
			c0.24,0.072,0.484,0.15,0.732,0.236c0.248,0.085,0.492,0.183,0.732,0.292c0.24,0.109,0.455,0.248,0.644,0.416
			c0.189,0.168,0.341,0.369,0.456,0.604c0.114,0.235,0.172,0.518,0.172,0.849c0,0.395-0.071,0.759-0.212,1.092
			c-0.142,0.333-0.351,0.621-0.628,0.864c-0.277,0.242-0.62,0.432-1.028,0.567c-0.408,0.136-0.878,0.204-1.412,0.204
			c-0.283,0-0.559-0.025-0.828-0.076c-0.27-0.051-0.528-0.121-0.776-0.212c-0.248-0.091-0.478-0.197-0.688-0.32
			c-0.211-0.122-0.396-0.256-0.556-0.399l0.456-0.752c0.059-0.091,0.128-0.16,0.208-0.208s0.181-0.072,0.304-0.072
			s0.239,0.035,0.348,0.104s0.236,0.144,0.38,0.224s0.313,0.154,0.508,0.224c0.194,0.069,0.441,0.104,0.74,0.104
			c0.235,0,0.436-0.028,0.604-0.084c0.168-0.057,0.307-0.13,0.416-0.22c0.109-0.091,0.189-0.196,0.24-0.316
			c0.05-0.12,0.076-0.244,0.076-0.372c0-0.192-0.057-0.35-0.172-0.472c-0.115-0.123-0.267-0.229-0.456-0.32
			s-0.405-0.172-0.648-0.244s-0.491-0.15-0.744-0.235c-0.253-0.086-0.501-0.186-0.744-0.301c-0.243-0.114-0.459-0.26-0.648-0.436
			c-0.189-0.176-0.341-0.393-0.456-0.648c-0.115-0.256-0.172-0.565-0.172-0.928c0-0.336,0.067-0.656,0.2-0.96
			s0.329-0.569,0.588-0.796s0.582-0.408,0.968-0.544c0.386-0.136,0.833-0.204,1.34-0.204c0.565,0,1.08,0.094,1.544,0.28
			s0.851,0.432,1.16,0.735L114.655,74.243z"/>
	</g>
	<g>
		<path fill="#333333" d="M163.046,74.982c0,0.859-0.137,1.642-0.412,2.348c-0.275,0.707-0.662,1.313-1.16,1.816
			c-0.499,0.504-1.098,0.894-1.796,1.168c-0.699,0.274-1.472,0.412-2.32,0.412h-4.304v-11.48h4.304c0.848,0,1.622,0.14,2.32,0.416
			c0.698,0.277,1.297,0.667,1.796,1.168c0.499,0.502,0.885,1.105,1.16,1.813C162.909,73.35,163.046,74.129,163.046,74.982z
			 M161.358,74.982c0-0.688-0.093-1.305-0.28-1.852c-0.187-0.547-0.455-1.008-0.804-1.385c-0.349-0.376-0.771-0.663-1.264-0.863
			c-0.494-0.2-1.044-0.3-1.652-0.3h-2.648v8.808h2.648c0.608,0,1.159-0.1,1.652-0.3c0.493-0.2,0.915-0.488,1.264-0.864
			c0.35-0.376,0.617-0.837,0.804-1.384C161.265,76.296,161.358,75.676,161.358,74.982z"/>
		<path fill="#333333" d="M168.134,72.479c0.491,0,0.944,0.081,1.36,0.244s0.776,0.398,1.08,0.708s0.541,0.689,0.712,1.14
			c0.171,0.451,0.256,0.967,0.256,1.548c0,0.235-0.025,0.393-0.076,0.473s-0.146,0.12-0.284,0.12h-5.36
			c0.016,0.496,0.086,0.928,0.212,1.296s0.296,0.673,0.512,0.916c0.216,0.242,0.476,0.424,0.78,0.544
			c0.304,0.12,0.643,0.18,1.016,0.18c0.352,0,0.655-0.04,0.908-0.12c0.253-0.08,0.472-0.168,0.656-0.264s0.34-0.185,0.468-0.264
			c0.128-0.08,0.24-0.12,0.336-0.12c0.128,0,0.221,0.048,0.28,0.144l0.432,0.552c-0.187,0.225-0.403,0.415-0.648,0.572
			c-0.246,0.157-0.51,0.288-0.792,0.392c-0.283,0.104-0.575,0.181-0.876,0.229c-0.302,0.048-0.599,0.072-0.892,0.072
			c-0.56,0-1.079-0.095-1.556-0.284c-0.478-0.189-0.889-0.467-1.236-0.832s-0.618-0.818-0.812-1.36
			c-0.195-0.541-0.292-1.164-0.292-1.868c0-0.564,0.088-1.092,0.264-1.579c0.176-0.488,0.428-0.912,0.756-1.272
			c0.328-0.36,0.728-0.644,1.2-0.852C167.01,72.583,167.542,72.479,168.134,72.479z M168.158,73.591
			c-0.667,0-1.191,0.193-1.572,0.58c-0.381,0.387-0.62,0.921-0.716,1.604h4.312c0-0.32-0.045-0.613-0.136-0.88
			c-0.091-0.267-0.223-0.496-0.396-0.688c-0.173-0.192-0.386-0.343-0.636-0.452S168.478,73.591,168.158,73.591z"/>
		<path fill="#333333" d="M173.687,80.727v-6.864l-0.864-0.104c-0.123-0.021-0.22-0.063-0.292-0.124
			c-0.072-0.062-0.108-0.148-0.108-0.26v-0.633h1.264v-0.407c0-0.496,0.079-0.954,0.236-1.372c0.157-0.419,0.392-0.777,0.704-1.076
			s0.704-0.532,1.176-0.7c0.472-0.168,1.02-0.252,1.644-0.252c0.203,0,0.413,0.014,0.632,0.04s0.405,0.063,0.56,0.112l-0.048,0.8
			c-0.005,0.053-0.025,0.092-0.06,0.116c-0.035,0.023-0.083,0.04-0.144,0.048c-0.062,0.008-0.135,0.011-0.22,0.008
			s-0.181-0.004-0.288-0.004c-0.48,0-0.892,0.048-1.236,0.144c-0.344,0.097-0.627,0.241-0.848,0.437
			c-0.221,0.194-0.383,0.438-0.484,0.728c-0.102,0.291-0.152,0.631-0.152,1.021v0.359h4.928v7.984h-1.512v-6.88h-3.368v6.88H173.687
			z"/>
		<path fill="#333333" d="M182.374,80.727v-8.12h0.912c0.213,0,0.347,0.102,0.4,0.304l0.112,0.841
			c0.352-0.379,0.744-0.686,1.176-0.921c0.432-0.234,0.931-0.352,1.496-0.352c0.442,0,0.833,0.075,1.172,0.224
			c0.338,0.149,0.623,0.359,0.852,0.628c0.229,0.27,0.402,0.593,0.52,0.969c0.117,0.376,0.176,0.793,0.176,1.252v5.176h-1.52v-5.176
			c0-0.587-0.136-1.044-0.408-1.372s-0.686-0.492-1.24-0.492c-0.411,0-0.792,0.096-1.144,0.288s-0.68,0.456-0.984,0.792v5.96
			H182.374z"/>
		<path fill="#333333" d="M194.67,72.479c0.491,0,0.944,0.081,1.36,0.244s0.776,0.398,1.08,0.708s0.541,0.689,0.712,1.14
			c0.171,0.451,0.256,0.967,0.256,1.548c0,0.235-0.025,0.393-0.076,0.473s-0.146,0.12-0.284,0.12h-5.36
			c0.016,0.496,0.086,0.928,0.212,1.296s0.296,0.673,0.512,0.916c0.216,0.242,0.476,0.424,0.78,0.544
			c0.304,0.12,0.643,0.18,1.016,0.18c0.352,0,0.655-0.04,0.908-0.12c0.253-0.08,0.472-0.168,0.656-0.264s0.34-0.185,0.468-0.264
			c0.128-0.08,0.24-0.12,0.336-0.12c0.128,0,0.221,0.048,0.28,0.144l0.432,0.552c-0.187,0.225-0.403,0.415-0.648,0.572
			c-0.246,0.157-0.51,0.288-0.792,0.392c-0.283,0.104-0.575,0.181-0.876,0.229c-0.302,0.048-0.599,0.072-0.892,0.072
			c-0.56,0-1.079-0.095-1.556-0.284c-0.478-0.189-0.889-0.467-1.236-0.832s-0.618-0.818-0.812-1.36
			c-0.195-0.541-0.292-1.164-0.292-1.868c0-0.564,0.088-1.092,0.264-1.579c0.176-0.488,0.428-0.912,0.756-1.272
			c0.328-0.36,0.728-0.644,1.2-0.852C193.546,72.583,194.078,72.479,194.67,72.479z M194.694,73.591
			c-0.667,0-1.191,0.193-1.572,0.58c-0.381,0.387-0.62,0.921-0.716,1.604h4.312c0-0.32-0.045-0.613-0.136-0.88
			c-0.091-0.267-0.223-0.496-0.396-0.688c-0.173-0.192-0.386-0.343-0.636-0.452S195.014,73.591,194.694,73.591z"/>
		<path fill="#333333" d="M206.366,80.854c-0.65,0-1.152-0.182-1.504-0.544s-0.528-0.885-0.528-1.568v-4.896h-0.952
			c-0.091,0-0.166-0.028-0.224-0.084s-0.088-0.138-0.088-0.244V72.91l1.32-0.176l0.344-2.456c0.021-0.085,0.061-0.153,0.12-0.204
			c0.059-0.05,0.136-0.075,0.232-0.075h0.768v2.743h2.312v1.104h-2.312v4.792c0,0.325,0.079,0.569,0.236,0.731
			c0.157,0.163,0.364,0.244,0.62,0.244c0.144,0,0.269-0.019,0.376-0.056c0.106-0.037,0.197-0.08,0.272-0.128s0.14-0.091,0.196-0.128
			c0.056-0.037,0.105-0.057,0.148-0.057c0.048,0,0.087,0.011,0.116,0.032s0.06,0.059,0.092,0.112l0.448,0.728
			c-0.256,0.235-0.559,0.416-0.908,0.544C207.101,80.791,206.739,80.854,206.366,80.854z"/>
		<path fill="#333333" d="M211.045,72.606v5.176c0,0.587,0.136,1.044,0.408,1.372s0.685,0.492,1.24,0.492
			c0.405,0,0.785-0.095,1.14-0.284c0.354-0.189,0.684-0.452,0.988-0.788v-5.968h1.52v8.12h-0.912c-0.213,0-0.347-0.102-0.4-0.304
			l-0.12-0.84c-0.352,0.378-0.743,0.685-1.172,0.92c-0.429,0.234-0.927,0.352-1.492,0.352c-0.448,0-0.841-0.074-1.18-0.224
			s-0.622-0.359-0.848-0.628c-0.227-0.27-0.398-0.593-0.516-0.969c-0.118-0.376-0.176-0.793-0.176-1.252v-5.176H211.045z"/>
		<path fill="#333333" d="M222.598,83.454V72.606h0.912c0.213,0,0.347,0.102,0.4,0.304l0.128,0.929
			c0.341-0.411,0.735-0.743,1.18-0.996c0.445-0.254,0.956-0.38,1.532-0.38c0.464,0,0.884,0.089,1.26,0.268s0.699,0.444,0.968,0.796
			c0.27,0.353,0.476,0.785,0.62,1.3c0.144,0.516,0.216,1.108,0.216,1.78c0,0.603-0.08,1.161-0.24,1.676s-0.392,0.962-0.696,1.341
			c-0.304,0.378-0.672,0.676-1.104,0.892c-0.432,0.216-0.92,0.324-1.464,0.324c-0.496,0-0.917-0.08-1.264-0.24
			s-0.656-0.39-0.928-0.688v3.544H222.598z M226.253,73.687c-0.458,0-0.857,0.103-1.196,0.308c-0.339,0.206-0.652,0.498-0.94,0.876
			v3.881c0.256,0.336,0.535,0.571,0.836,0.708c0.301,0.136,0.639,0.203,1.012,0.203c0.73,0,1.293-0.261,1.688-0.783
			c0.395-0.523,0.592-1.28,0.592-2.272c0-0.518-0.045-0.96-0.136-1.328c-0.091-0.368-0.222-0.67-0.392-0.908
			c-0.171-0.236-0.379-0.41-0.624-0.52C226.848,73.741,226.568,73.687,226.253,73.687z"/>
		<path fill="#333333" d="M234.941,72.479c0.491,0,0.944,0.081,1.36,0.244s0.776,0.398,1.08,0.708s0.541,0.689,0.712,1.14
			c0.171,0.451,0.256,0.967,0.256,1.548c0,0.235-0.025,0.393-0.076,0.473s-0.146,0.12-0.284,0.12h-5.36
			c0.016,0.496,0.086,0.928,0.212,1.296s0.296,0.673,0.512,0.916c0.216,0.242,0.476,0.424,0.78,0.544
			c0.304,0.12,0.643,0.18,1.016,0.18c0.352,0,0.655-0.04,0.908-0.12c0.253-0.08,0.472-0.168,0.656-0.264s0.34-0.185,0.468-0.264
			c0.128-0.08,0.24-0.12,0.336-0.12c0.128,0,0.221,0.048,0.28,0.144l0.432,0.552c-0.187,0.225-0.403,0.415-0.648,0.572
			c-0.246,0.157-0.51,0.288-0.792,0.392c-0.283,0.104-0.575,0.181-0.876,0.229c-0.302,0.048-0.599,0.072-0.892,0.072
			c-0.56,0-1.079-0.095-1.556-0.284c-0.478-0.189-0.889-0.467-1.236-0.832s-0.618-0.818-0.812-1.36
			c-0.195-0.541-0.292-1.164-0.292-1.868c0-0.564,0.088-1.092,0.264-1.579c0.176-0.488,0.428-0.912,0.756-1.272
			c0.328-0.36,0.728-0.644,1.2-0.852C233.817,72.583,234.349,72.479,234.941,72.479z M234.965,73.591
			c-0.667,0-1.191,0.193-1.572,0.58c-0.381,0.387-0.62,0.921-0.716,1.604h4.312c0-0.32-0.045-0.613-0.136-0.88
			c-0.091-0.267-0.223-0.496-0.396-0.688c-0.173-0.192-0.386-0.343-0.636-0.452S235.285,73.591,234.965,73.591z"/>
		<path fill="#333333" d="M240.053,80.727v-8.12h0.872c0.165,0,0.278,0.029,0.34,0.088s0.103,0.166,0.124,0.32l0.096,1.184
			c0.256-0.538,0.57-0.962,0.944-1.271c0.373-0.31,0.821-0.464,1.344-0.464c0.176,0,0.342,0.019,0.5,0.056
			c0.157,0.037,0.294,0.096,0.412,0.176l-0.104,1.136c-0.032,0.145-0.117,0.217-0.256,0.217c-0.075,0-0.186-0.017-0.332-0.048
			c-0.146-0.032-0.308-0.049-0.484-0.049c-0.251,0-0.474,0.038-0.668,0.112c-0.195,0.075-0.37,0.184-0.524,0.328
			c-0.155,0.144-0.292,0.32-0.412,0.528s-0.231,0.445-0.332,0.712v5.096H240.053z"/>
		<path fill="#333333" d="M246.445,80.727v-6.864l-0.864-0.104c-0.123-0.021-0.22-0.063-0.292-0.124
			c-0.072-0.062-0.108-0.148-0.108-0.26v-0.633h1.264v-0.407c0-0.496,0.079-0.954,0.236-1.372c0.157-0.419,0.392-0.777,0.704-1.076
			s0.704-0.532,1.176-0.7c0.472-0.168,1.02-0.252,1.644-0.252c0.203,0,0.413,0.014,0.632,0.04s0.405,0.063,0.56,0.112l-0.048,0.8
			c-0.005,0.053-0.025,0.092-0.06,0.116c-0.035,0.023-0.083,0.04-0.144,0.048c-0.062,0.008-0.135,0.011-0.22,0.008
			s-0.181-0.004-0.288-0.004c-0.48,0-0.892,0.048-1.236,0.144c-0.344,0.097-0.627,0.241-0.848,0.437
			c-0.221,0.194-0.383,0.438-0.484,0.728c-0.102,0.291-0.152,0.631-0.152,1.021v0.359h4.928v7.984h-1.512v-6.88h-3.368v6.88H246.445
			z"/>
		<path fill="#333333" d="M256.693,68.927v11.8h-1.52v-11.8H256.693z"/>
	</g>
	<g>
		<path fill="#333333" d="M297.783,78.295c0.091,0,0.171,0.034,0.24,0.104l0.656,0.72c-0.469,0.55-1.041,0.977-1.716,1.28
			s-1.484,0.456-2.428,0.456c-0.832,0-1.585-0.144-2.26-0.432s-1.251-0.69-1.728-1.208c-0.478-0.518-0.845-1.137-1.104-1.856
			s-0.388-1.512-0.388-2.376s0.136-1.656,0.408-2.376s0.656-1.337,1.152-1.852s1.089-0.916,1.78-1.204
			c0.69-0.288,1.452-0.433,2.284-0.433c0.816,0,1.54,0.134,2.172,0.4c0.632,0.267,1.183,0.621,1.652,1.064l-0.544,0.768
			c-0.038,0.054-0.082,0.098-0.132,0.132c-0.051,0.035-0.121,0.052-0.212,0.052c-0.101,0-0.22-0.05-0.356-0.151
			c-0.136-0.102-0.314-0.215-0.536-0.34c-0.221-0.126-0.497-0.239-0.828-0.341c-0.331-0.101-0.739-0.151-1.224-0.151
			c-0.576,0-1.105,0.102-1.588,0.304c-0.483,0.203-0.897,0.493-1.244,0.872s-0.616,0.843-0.808,1.392
			c-0.192,0.55-0.288,1.171-0.288,1.864c0,0.704,0.1,1.332,0.3,1.884c0.2,0.553,0.475,1.018,0.824,1.396
			c0.35,0.379,0.761,0.668,1.236,0.868c0.475,0.199,0.984,0.3,1.528,0.3c0.336,0,0.637-0.021,0.904-0.061s0.514-0.1,0.74-0.18
			s0.438-0.184,0.636-0.312s0.395-0.28,0.592-0.456c0.042-0.037,0.086-0.068,0.132-0.093
			C297.68,78.307,297.729,78.295,297.783,78.295z"/>
		<path fill="#333333" d="M303.382,72.479c0.598,0,1.136,0.098,1.616,0.292s0.888,0.474,1.224,0.836
			c0.336,0.363,0.595,0.802,0.776,1.316s0.272,1.092,0.272,1.731c0,0.641-0.091,1.219-0.272,1.736s-0.44,0.957-0.776,1.32
			c-0.336,0.362-0.744,0.641-1.224,0.836c-0.48,0.194-1.019,0.292-1.616,0.292c-0.597,0-1.137-0.098-1.62-0.292
			c-0.483-0.195-0.894-0.474-1.232-0.836c-0.339-0.363-0.599-0.803-0.78-1.32s-0.272-1.096-0.272-1.736
			c0-0.64,0.091-1.217,0.272-1.731s0.441-0.953,0.78-1.316c0.338-0.362,0.749-0.642,1.232-0.836
			C302.245,72.576,302.785,72.479,303.382,72.479z M303.382,79.654c0.779,0,1.36-0.261,1.744-0.784
			c0.384-0.522,0.576-1.258,0.576-2.208c0-0.943-0.192-1.68-0.576-2.208c-0.384-0.527-0.965-0.792-1.744-0.792
			c-0.789,0-1.377,0.265-1.764,0.792c-0.387,0.528-0.58,1.265-0.58,2.208c0,0.95,0.193,1.686,0.58,2.208
			C302.005,79.394,302.593,79.654,303.382,79.654z"/>
		<path fill="#333333" d="M309.022,80.727v-8.12h0.912c0.213,0,0.347,0.102,0.4,0.304l0.104,0.792c0.299-0.356,0.632-0.65,1-0.88
			c0.368-0.229,0.797-0.344,1.288-0.344c0.544,0,0.984,0.148,1.32,0.444s0.579,0.697,0.728,1.204
			c0.117-0.288,0.27-0.536,0.456-0.744s0.395-0.379,0.624-0.513c0.229-0.133,0.473-0.231,0.732-0.296
			c0.259-0.063,0.521-0.096,0.788-0.096c0.869,0,1.541,0.266,2.016,0.796c0.475,0.531,0.712,1.289,0.712,2.276v5.176h-1.52v-5.176
			c0-0.613-0.135-1.077-0.404-1.393c-0.269-0.314-0.66-0.472-1.172-0.472c-0.229,0-0.447,0.04-0.652,0.12
			c-0.206,0.08-0.385,0.197-0.54,0.352c-0.155,0.155-0.277,0.35-0.368,0.584c-0.091,0.235-0.136,0.504-0.136,0.809v5.176h-1.52
			v-5.176c0-0.63-0.127-1.098-0.38-1.404c-0.253-0.307-0.625-0.46-1.116-0.46c-0.336,0-0.652,0.09-0.948,0.268
			c-0.296,0.18-0.564,0.426-0.804,0.74v6.032H309.022z"/>
		<path fill="#333333" d="M322.223,83.454V72.606h0.912c0.213,0,0.347,0.102,0.4,0.304l0.128,0.929
			c0.341-0.411,0.735-0.743,1.18-0.996c0.445-0.254,0.956-0.38,1.532-0.38c0.464,0,0.884,0.089,1.26,0.268s0.699,0.444,0.968,0.796
			c0.27,0.353,0.476,0.785,0.62,1.3c0.144,0.516,0.216,1.108,0.216,1.78c0,0.603-0.08,1.161-0.24,1.676s-0.392,0.962-0.696,1.341
			c-0.304,0.378-0.672,0.676-1.104,0.892c-0.432,0.216-0.92,0.324-1.464,0.324c-0.496,0-0.917-0.08-1.264-0.24
			s-0.656-0.39-0.928-0.688v3.544H322.223z M325.878,73.687c-0.458,0-0.857,0.103-1.196,0.308c-0.339,0.206-0.652,0.498-0.94,0.876
			v3.881c0.256,0.336,0.535,0.571,0.836,0.708c0.301,0.136,0.639,0.203,1.012,0.203c0.73,0,1.293-0.261,1.688-0.783
			c0.395-0.523,0.592-1.28,0.592-2.272c0-0.518-0.045-0.96-0.136-1.328c-0.091-0.368-0.222-0.67-0.392-0.908
			c-0.171-0.236-0.379-0.41-0.624-0.52C326.473,73.741,326.193,73.687,325.878,73.687z"/>
		<path fill="#333333" d="M336.407,80.727c-0.149,0-0.264-0.024-0.344-0.072s-0.144-0.141-0.192-0.279l-0.168-0.729
			c-0.208,0.192-0.413,0.364-0.616,0.516c-0.203,0.152-0.415,0.279-0.636,0.381c-0.221,0.101-0.457,0.179-0.708,0.231
			c-0.25,0.054-0.531,0.08-0.84,0.08c-0.32,0-0.619-0.044-0.896-0.132s-0.519-0.223-0.724-0.404
			c-0.205-0.181-0.368-0.406-0.488-0.676s-0.18-0.588-0.18-0.956c0-0.32,0.087-0.627,0.26-0.92c0.173-0.293,0.456-0.556,0.848-0.788
			c0.392-0.232,0.904-0.423,1.536-0.572s1.409-0.234,2.332-0.256v-0.607c0-0.613-0.132-1.076-0.396-1.389
			c-0.264-0.312-0.652-0.468-1.164-0.468c-0.347,0-0.636,0.044-0.868,0.132c-0.232,0.088-0.432,0.185-0.6,0.288
			c-0.168,0.104-0.316,0.199-0.444,0.284c-0.128,0.085-0.256,0.128-0.384,0.128c-0.107,0-0.196-0.028-0.268-0.084
			c-0.072-0.056-0.135-0.121-0.188-0.196l-0.272-0.496c0.453-0.426,0.943-0.746,1.468-0.96c0.525-0.213,1.105-0.319,1.74-0.319
			c0.458,0,0.867,0.074,1.224,0.224c0.357,0.149,0.657,0.358,0.9,0.628s0.427,0.594,0.552,0.972
			c0.125,0.379,0.188,0.798,0.188,1.257v5.184H336.407z M333.359,79.791c0.24,0,0.462-0.024,0.668-0.072
			c0.205-0.048,0.397-0.117,0.576-0.208c0.178-0.091,0.348-0.201,0.508-0.332s0.32-0.278,0.48-0.444v-1.632
			c-0.64,0.021-1.184,0.072-1.632,0.152c-0.448,0.08-0.812,0.184-1.092,0.312c-0.28,0.128-0.484,0.281-0.612,0.46
			s-0.192,0.375-0.192,0.588c0,0.208,0.033,0.387,0.1,0.536c0.067,0.149,0.159,0.271,0.276,0.364
			c0.117,0.094,0.254,0.163,0.412,0.208C333.008,79.768,333.177,79.791,333.359,79.791z"/>
		<path fill="#333333" d="M339.198,80.727v-8.12h0.872c0.165,0,0.278,0.029,0.34,0.088s0.103,0.166,0.124,0.32l0.096,1.184
			c0.256-0.538,0.57-0.962,0.944-1.271c0.373-0.31,0.821-0.464,1.344-0.464c0.176,0,0.342,0.019,0.5,0.056
			c0.157,0.037,0.294,0.096,0.412,0.176l-0.104,1.136c-0.032,0.145-0.117,0.217-0.256,0.217c-0.075,0-0.186-0.017-0.332-0.048
			c-0.146-0.032-0.308-0.049-0.484-0.049c-0.251,0-0.474,0.038-0.668,0.112c-0.195,0.075-0.37,0.184-0.524,0.328
			c-0.155,0.144-0.292,0.32-0.412,0.528s-0.231,0.445-0.332,0.712v5.096H339.198z"/>
		<path fill="#333333" d="M347.574,80.854c-0.65,0-1.152-0.182-1.504-0.544s-0.528-0.885-0.528-1.568v-4.896h-0.952
			c-0.091,0-0.166-0.028-0.224-0.084s-0.088-0.138-0.088-0.244V72.91l1.32-0.176l0.344-2.456c0.021-0.085,0.061-0.153,0.12-0.204
			c0.059-0.05,0.136-0.075,0.232-0.075h0.768v2.743h2.312v1.104h-2.312v4.792c0,0.325,0.079,0.569,0.236,0.731
			c0.157,0.163,0.364,0.244,0.62,0.244c0.144,0,0.269-0.019,0.376-0.056c0.106-0.037,0.197-0.08,0.272-0.128s0.14-0.091,0.196-0.128
			c0.056-0.037,0.105-0.057,0.148-0.057c0.048,0,0.087,0.011,0.116,0.032s0.06,0.059,0.092,0.112l0.448,0.728
			c-0.256,0.235-0.559,0.416-0.908,0.544C348.309,80.791,347.948,80.854,347.574,80.854z"/>
		<path fill="#333333" d="M354.167,72.479c0.491,0,0.944,0.081,1.36,0.244s0.776,0.398,1.08,0.708s0.541,0.689,0.712,1.14
			c0.171,0.451,0.256,0.967,0.256,1.548c0,0.235-0.025,0.393-0.076,0.473s-0.146,0.12-0.284,0.12h-5.36
			c0.016,0.496,0.086,0.928,0.212,1.296s0.296,0.673,0.512,0.916c0.216,0.242,0.476,0.424,0.78,0.544
			c0.304,0.12,0.643,0.18,1.016,0.18c0.352,0,0.655-0.04,0.908-0.12c0.253-0.08,0.472-0.168,0.656-0.264s0.34-0.185,0.468-0.264
			c0.128-0.08,0.24-0.12,0.336-0.12c0.128,0,0.221,0.048,0.28,0.144l0.432,0.552c-0.187,0.225-0.403,0.415-0.648,0.572
			c-0.246,0.157-0.51,0.288-0.792,0.392c-0.283,0.104-0.575,0.181-0.876,0.229c-0.302,0.048-0.599,0.072-0.892,0.072
			c-0.56,0-1.079-0.095-1.556-0.284c-0.478-0.189-0.889-0.467-1.236-0.832s-0.618-0.818-0.812-1.36
			c-0.195-0.541-0.292-1.164-0.292-1.868c0-0.564,0.088-1.092,0.264-1.579c0.176-0.488,0.428-0.912,0.756-1.272
			c0.328-0.36,0.728-0.644,1.2-0.852C353.042,72.583,353.574,72.479,354.167,72.479z M354.19,73.591
			c-0.667,0-1.191,0.193-1.572,0.58c-0.381,0.387-0.62,0.921-0.716,1.604h4.312c0-0.32-0.045-0.613-0.136-0.88
			c-0.091-0.267-0.223-0.496-0.396-0.688c-0.173-0.192-0.386-0.343-0.636-0.452S354.51,73.591,354.19,73.591z"/>
		<path fill="#333333" d="M365.862,80.854c-0.65,0-1.152-0.182-1.504-0.544s-0.528-0.885-0.528-1.568v-4.896h-0.952
			c-0.091,0-0.166-0.028-0.224-0.084s-0.088-0.138-0.088-0.244V72.91l1.32-0.176l0.344-2.456c0.021-0.085,0.061-0.153,0.12-0.204
			c0.059-0.05,0.136-0.075,0.232-0.075h0.768v2.743h2.312v1.104h-2.312v4.792c0,0.325,0.079,0.569,0.236,0.731
			c0.157,0.163,0.364,0.244,0.62,0.244c0.144,0,0.269-0.019,0.376-0.056c0.106-0.037,0.197-0.08,0.272-0.128s0.14-0.091,0.196-0.128
			c0.056-0.037,0.105-0.057,0.148-0.057c0.048,0,0.087,0.011,0.116,0.032s0.06,0.059,0.092,0.112l0.448,0.728
			c-0.256,0.235-0.559,0.416-0.908,0.544C366.597,80.791,366.235,80.854,365.862,80.854z"/>
		<path fill="#333333" d="M370.542,72.606v5.176c0,0.587,0.136,1.044,0.408,1.372s0.685,0.492,1.24,0.492
			c0.405,0,0.785-0.095,1.14-0.284c0.354-0.189,0.684-0.452,0.988-0.788v-5.968h1.52v8.12h-0.912c-0.213,0-0.347-0.102-0.4-0.304
			l-0.12-0.84c-0.352,0.378-0.743,0.685-1.172,0.92c-0.429,0.234-0.927,0.352-1.492,0.352c-0.448,0-0.841-0.074-1.18-0.224
			s-0.622-0.359-0.848-0.628c-0.227-0.27-0.398-0.593-0.516-0.969c-0.118-0.376-0.176-0.793-0.176-1.252v-5.176H370.542z"/>
		<path fill="#333333" d="M386.862,73.982c-0.075,0.128-0.179,0.192-0.312,0.192c-0.085,0-0.18-0.029-0.284-0.088
			s-0.228-0.124-0.372-0.196s-0.316-0.138-0.516-0.196c-0.2-0.059-0.436-0.088-0.708-0.088c-0.229,0-0.438,0.029-0.624,0.088
			c-0.187,0.059-0.346,0.139-0.476,0.24c-0.131,0.102-0.232,0.22-0.304,0.356c-0.072,0.136-0.108,0.283-0.108,0.443
			c0,0.203,0.06,0.372,0.18,0.508c0.12,0.137,0.277,0.254,0.472,0.353c0.195,0.099,0.417,0.187,0.668,0.264
			c0.251,0.077,0.507,0.159,0.768,0.244s0.518,0.183,0.768,0.292s0.473,0.244,0.668,0.404s0.352,0.355,0.472,0.588
			c0.12,0.231,0.18,0.511,0.18,0.836c0,0.379-0.068,0.728-0.204,1.048c-0.136,0.32-0.336,0.598-0.6,0.832s-0.588,0.419-0.972,0.552
			c-0.384,0.134-0.827,0.2-1.328,0.2c-0.565,0-1.082-0.094-1.548-0.28s-0.86-0.424-1.18-0.712l0.352-0.576
			c0.043-0.074,0.096-0.132,0.16-0.172s0.144-0.06,0.24-0.06c0.101,0,0.205,0.037,0.312,0.112c0.106,0.074,0.236,0.155,0.388,0.243
			c0.152,0.089,0.336,0.17,0.552,0.244c0.216,0.075,0.484,0.112,0.804,0.112c0.272,0,0.508-0.034,0.708-0.104
			c0.2-0.068,0.367-0.161,0.5-0.275c0.133-0.115,0.232-0.249,0.296-0.404c0.064-0.154,0.096-0.317,0.096-0.488
			c0-0.218-0.06-0.399-0.18-0.544c-0.12-0.144-0.278-0.267-0.472-0.367c-0.195-0.102-0.417-0.189-0.668-0.265
			c-0.251-0.074-0.508-0.154-0.772-0.24c-0.264-0.085-0.521-0.183-0.772-0.292c-0.251-0.108-0.474-0.249-0.668-0.42
			c-0.195-0.17-0.352-0.377-0.472-0.62c-0.12-0.242-0.18-0.539-0.18-0.892c0-0.314,0.064-0.616,0.192-0.904
			c0.128-0.288,0.316-0.541,0.564-0.76s0.553-0.392,0.916-0.52c0.362-0.128,0.776-0.192,1.24-0.192c0.533,0,1.017,0.084,1.452,0.252
			c0.435,0.168,0.804,0.401,1.108,0.7L386.862,73.982z"/>
		<path fill="#333333" d="M392.485,72.479c0.598,0,1.136,0.098,1.616,0.292s0.888,0.474,1.224,0.836
			c0.336,0.363,0.595,0.802,0.776,1.316s0.272,1.092,0.272,1.731c0,0.641-0.091,1.219-0.272,1.736s-0.44,0.957-0.776,1.32
			c-0.336,0.362-0.744,0.641-1.224,0.836c-0.48,0.194-1.019,0.292-1.616,0.292c-0.597,0-1.137-0.098-1.62-0.292
			c-0.483-0.195-0.894-0.474-1.232-0.836c-0.339-0.363-0.599-0.803-0.78-1.32s-0.272-1.096-0.272-1.736
			c0-0.64,0.091-1.217,0.272-1.731s0.441-0.953,0.78-1.316c0.338-0.362,0.749-0.642,1.232-0.836
			C391.348,72.576,391.888,72.479,392.485,72.479z M392.485,79.654c0.779,0,1.36-0.261,1.744-0.784
			c0.384-0.522,0.576-1.258,0.576-2.208c0-0.943-0.192-1.68-0.576-2.208c-0.384-0.527-0.965-0.792-1.744-0.792
			c-0.789,0-1.377,0.265-1.764,0.792c-0.387,0.528-0.58,1.265-0.58,2.208c0,0.95,0.193,1.686,0.58,2.208
			C391.108,79.394,391.696,79.654,392.485,79.654z"/>
		<path fill="#333333" d="M399.685,68.927v11.8h-1.52v-11.8H399.685z"/>
		<path fill="#333333" d="M403.821,70.087c0,0.144-0.028,0.278-0.084,0.403c-0.056,0.126-0.134,0.236-0.232,0.332
			c-0.099,0.097-0.213,0.172-0.344,0.229c-0.131,0.056-0.268,0.084-0.412,0.084c-0.139,0-0.271-0.028-0.396-0.084
			c-0.125-0.057-0.236-0.132-0.332-0.229c-0.096-0.096-0.172-0.206-0.228-0.332c-0.056-0.125-0.084-0.26-0.084-0.403
			c0-0.145,0.028-0.281,0.084-0.412c0.056-0.131,0.132-0.244,0.228-0.34c0.096-0.097,0.207-0.173,0.332-0.229
			s0.257-0.084,0.396-0.084c0.144,0,0.281,0.028,0.412,0.084c0.13,0.056,0.245,0.132,0.344,0.229
			c0.099,0.096,0.176,0.209,0.232,0.34C403.793,69.806,403.821,69.942,403.821,70.087z M403.525,72.606v8.12h-1.52v-8.12H403.525z"
			/>
		<path fill="#333333" d="M411.485,74.103c-0.043,0.059-0.087,0.104-0.132,0.136c-0.045,0.032-0.108,0.048-0.188,0.048
			c-0.085,0-0.176-0.033-0.272-0.1c-0.096-0.066-0.213-0.139-0.352-0.216s-0.309-0.149-0.512-0.216
			c-0.203-0.067-0.451-0.101-0.744-0.101c-0.389,0-0.733,0.069-1.032,0.208c-0.298,0.139-0.548,0.339-0.748,0.601
			c-0.2,0.261-0.351,0.575-0.452,0.943c-0.102,0.368-0.152,0.784-0.152,1.248c0,0.48,0.054,0.907,0.164,1.28
			s0.264,0.688,0.464,0.944c0.2,0.256,0.442,0.45,0.728,0.584c0.285,0.133,0.604,0.199,0.956,0.199c0.341,0,0.621-0.041,0.84-0.124
			c0.219-0.082,0.4-0.172,0.544-0.268s0.265-0.186,0.364-0.268c0.099-0.083,0.199-0.124,0.3-0.124c0.128,0,0.224,0.048,0.288,0.144
			l0.432,0.552c-0.187,0.225-0.395,0.416-0.624,0.576c-0.229,0.16-0.475,0.291-0.736,0.393c-0.261,0.101-0.533,0.176-0.816,0.224
			s-0.571,0.072-0.864,0.072c-0.507,0-0.979-0.094-1.416-0.28c-0.438-0.187-0.817-0.459-1.14-0.816
			c-0.323-0.356-0.576-0.796-0.76-1.315c-0.184-0.521-0.276-1.11-0.276-1.772c0-0.603,0.084-1.158,0.252-1.668
			c0.168-0.509,0.415-0.95,0.74-1.324c0.325-0.373,0.727-0.663,1.204-0.871c0.477-0.208,1.025-0.313,1.644-0.313
			c0.582,0,1.092,0.094,1.532,0.28s0.828,0.448,1.164,0.784L411.485,74.103z"/>
		<path fill="#333333" d="M415.341,70.087c0,0.144-0.028,0.278-0.084,0.403c-0.056,0.126-0.134,0.236-0.232,0.332
			c-0.099,0.097-0.213,0.172-0.344,0.229c-0.131,0.056-0.268,0.084-0.412,0.084c-0.139,0-0.271-0.028-0.396-0.084
			c-0.125-0.057-0.236-0.132-0.332-0.229c-0.096-0.096-0.172-0.206-0.228-0.332c-0.056-0.125-0.084-0.26-0.084-0.403
			c0-0.145,0.028-0.281,0.084-0.412c0.056-0.131,0.132-0.244,0.228-0.34c0.096-0.097,0.207-0.173,0.332-0.229
			s0.257-0.084,0.396-0.084c0.144,0,0.281,0.028,0.412,0.084c0.13,0.056,0.245,0.132,0.344,0.229
			c0.099,0.096,0.176,0.209,0.232,0.34C415.313,69.806,415.341,69.942,415.341,70.087z M415.045,72.606v8.12h-1.52v-8.12H415.045z"
			/>
		<path fill="#333333" d="M419.853,80.854c-0.65,0-1.151-0.182-1.504-0.544s-0.528-0.885-0.528-1.568v-4.896h-0.951
			c-0.092,0-0.166-0.028-0.225-0.084s-0.088-0.138-0.088-0.244V72.91l1.32-0.176l0.344-2.456c0.021-0.085,0.061-0.153,0.12-0.204
			c0.059-0.05,0.136-0.075,0.231-0.075h0.769v2.743h2.312v1.104h-2.312v4.792c0,0.325,0.079,0.569,0.235,0.731
			c0.158,0.163,0.365,0.244,0.621,0.244c0.144,0,0.269-0.019,0.375-0.056c0.107-0.037,0.197-0.08,0.272-0.128
			s0.14-0.091,0.196-0.128c0.056-0.037,0.105-0.057,0.147-0.057c0.048,0,0.087,0.011,0.116,0.032s0.061,0.059,0.092,0.112
			l0.448,0.728c-0.256,0.235-0.559,0.416-0.908,0.544C420.588,80.791,420.227,80.854,419.853,80.854z"/>
		<path fill="#333333" d="M424.533,72.606v5.176c0,0.587,0.136,1.044,0.408,1.372c0.271,0.328,0.685,0.492,1.239,0.492
			c0.405,0,0.785-0.095,1.14-0.284c0.355-0.189,0.685-0.452,0.988-0.788v-5.968h1.52v8.12h-0.911c-0.214,0-0.347-0.102-0.4-0.304
			l-0.12-0.84c-0.352,0.378-0.742,0.685-1.172,0.92c-0.43,0.234-0.927,0.352-1.492,0.352c-0.447,0-0.841-0.074-1.18-0.224
			s-0.621-0.359-0.848-0.628c-0.227-0.27-0.398-0.593-0.516-0.969c-0.118-0.376-0.177-0.793-0.177-1.252v-5.176H424.533z"/>
		<path fill="#333333" d="M437.893,80.727c-0.214,0-0.348-0.102-0.4-0.304l-0.136-0.952c-0.171,0.208-0.354,0.396-0.552,0.563
			s-0.408,0.313-0.633,0.433c-0.224,0.12-0.461,0.212-0.711,0.275c-0.252,0.064-0.521,0.097-0.809,0.097
			c-0.464,0-0.884-0.09-1.26-0.269c-0.377-0.179-0.699-0.443-0.969-0.796c-0.27-0.352-0.476-0.785-0.619-1.3
			c-0.145-0.515-0.217-1.108-0.217-1.78c0-0.603,0.08-1.161,0.24-1.676s0.393-0.961,0.696-1.34s0.672-0.676,1.104-0.893
			c0.432-0.216,0.92-0.323,1.463-0.323c0.491,0,0.911,0.081,1.261,0.244c0.349,0.162,0.659,0.391,0.932,0.684v-4.464h1.521v11.8
			H437.893z M435.148,79.614c0.453,0,0.851-0.103,1.191-0.308c0.342-0.205,0.656-0.497,0.944-0.876v-3.872
			c-0.256-0.341-0.536-0.58-0.84-0.716s-0.64-0.204-1.008-0.204c-0.731,0-1.294,0.262-1.688,0.784s-0.592,1.279-0.592,2.271
			c0,0.518,0.045,0.96,0.137,1.328c0.09,0.368,0.221,0.671,0.391,0.908c0.172,0.237,0.379,0.411,0.625,0.52
			C434.554,79.56,434.834,79.614,435.148,79.614z"/>
	</g>
	<g>
		<path fill="#333333" d="M479.68,78.295c0.092,0,0.172,0.034,0.24,0.104l0.656,0.72c-0.469,0.55-1.041,0.977-1.716,1.28
			s-1.483,0.456-2.429,0.456c-0.832,0-1.584-0.144-2.26-0.432c-0.674-0.288-1.25-0.69-1.728-1.208s-0.845-1.137-1.104-1.856
			c-0.258-0.72-0.388-1.512-0.388-2.376s0.136-1.656,0.408-2.376s0.655-1.337,1.151-1.852s1.09-0.916,1.781-1.204
			c0.689-0.288,1.451-0.433,2.283-0.433c0.816,0,1.54,0.134,2.172,0.4c0.633,0.267,1.184,0.621,1.652,1.064l-0.544,0.768
			c-0.038,0.054-0.081,0.098-0.132,0.132c-0.051,0.035-0.121,0.052-0.213,0.052c-0.101,0-0.219-0.05-0.355-0.151
			c-0.136-0.102-0.314-0.215-0.536-0.34c-0.222-0.126-0.497-0.239-0.827-0.341c-0.332-0.101-0.739-0.151-1.225-0.151
			c-0.576,0-1.105,0.102-1.588,0.304c-0.482,0.203-0.897,0.493-1.244,0.872s-0.616,0.843-0.809,1.392
			c-0.191,0.55-0.287,1.171-0.287,1.864c0,0.704,0.1,1.332,0.3,1.884c0.2,0.553,0.475,1.018,0.823,1.396
			c0.35,0.379,0.762,0.668,1.236,0.868c0.475,0.199,0.984,0.3,1.528,0.3c0.336,0,0.638-0.021,0.903-0.061
			c0.268-0.04,0.514-0.1,0.74-0.18s0.439-0.184,0.637-0.312s0.395-0.28,0.592-0.456c0.043-0.037,0.086-0.068,0.132-0.093
			C479.578,78.307,479.627,78.295,479.68,78.295z"/>
		<path fill="#333333" d="M485.28,72.479c0.598,0,1.136,0.098,1.616,0.292s0.889,0.474,1.225,0.836
			c0.336,0.363,0.594,0.802,0.775,1.316s0.271,1.092,0.271,1.731c0,0.641-0.09,1.219-0.271,1.736s-0.439,0.957-0.775,1.32
			c-0.336,0.362-0.744,0.641-1.225,0.836c-0.48,0.194-1.019,0.292-1.616,0.292c-0.597,0-1.138-0.098-1.62-0.292
			c-0.482-0.195-0.893-0.474-1.231-0.836c-0.339-0.363-0.599-0.803-0.78-1.32s-0.271-1.096-0.271-1.736
			c0-0.64,0.09-1.217,0.271-1.731s0.441-0.953,0.78-1.316c0.339-0.362,0.749-0.642,1.231-0.836S484.684,72.479,485.28,72.479z
			 M485.28,79.654c0.778,0,1.36-0.261,1.744-0.784c0.384-0.522,0.576-1.258,0.576-2.208c0-0.943-0.192-1.68-0.576-2.208
			c-0.384-0.527-0.966-0.792-1.744-0.792c-0.789,0-1.377,0.265-1.764,0.792c-0.387,0.528-0.58,1.265-0.58,2.208
			c0,0.95,0.193,1.686,0.58,2.208C483.903,79.394,484.491,79.654,485.28,79.654z"/>
		<path fill="#333333" d="M490.92,80.727v-8.12h0.912c0.214,0,0.348,0.102,0.4,0.304l0.111,0.841
			c0.353-0.379,0.744-0.686,1.177-0.921c0.433-0.234,0.931-0.352,1.496-0.352c0.442,0,0.833,0.075,1.172,0.224
			c0.339,0.149,0.622,0.359,0.853,0.628c0.229,0.27,0.402,0.593,0.52,0.969s0.176,0.793,0.176,1.252v5.176h-1.52v-5.176
			c0-0.587-0.137-1.044-0.408-1.372s-0.686-0.492-1.24-0.492c-0.41,0-0.792,0.096-1.145,0.288c-0.352,0.192-0.68,0.456-0.983,0.792
			v5.96H490.92z"/>
		<path fill="#333333" d="M502.28,80.854c-0.65,0-1.151-0.182-1.504-0.544s-0.528-0.885-0.528-1.568v-4.896h-0.951
			c-0.092,0-0.166-0.028-0.225-0.084s-0.088-0.138-0.088-0.244V72.91l1.32-0.176l0.344-2.456c0.021-0.085,0.061-0.153,0.12-0.204
			c0.059-0.05,0.136-0.075,0.231-0.075h0.769v2.743h2.312v1.104h-2.312v4.792c0,0.325,0.079,0.569,0.235,0.731
			c0.158,0.163,0.365,0.244,0.621,0.244c0.144,0,0.269-0.019,0.375-0.056c0.107-0.037,0.197-0.08,0.272-0.128
			s0.14-0.091,0.196-0.128c0.056-0.037,0.105-0.057,0.147-0.057c0.048,0,0.087,0.011,0.116,0.032s0.061,0.059,0.092,0.112
			l0.448,0.728c-0.256,0.235-0.559,0.416-0.908,0.544C503.016,80.791,502.654,80.854,502.28,80.854z"/>
		<path fill="#333333" d="M510.712,80.727c-0.149,0-0.264-0.024-0.344-0.072s-0.144-0.141-0.192-0.279l-0.168-0.729
			c-0.208,0.192-0.413,0.364-0.615,0.516c-0.203,0.152-0.416,0.279-0.637,0.381c-0.221,0.101-0.457,0.179-0.708,0.231
			c-0.251,0.054-0.53,0.08-0.84,0.08c-0.319,0-0.618-0.044-0.896-0.132s-0.52-0.223-0.725-0.404
			c-0.205-0.181-0.367-0.406-0.488-0.676c-0.119-0.27-0.18-0.588-0.18-0.956c0-0.32,0.087-0.627,0.26-0.92
			c0.174-0.293,0.457-0.556,0.848-0.788c0.393-0.232,0.904-0.423,1.537-0.572c0.631-0.149,1.408-0.234,2.332-0.256v-0.607
			c0-0.613-0.133-1.076-0.396-1.389c-0.264-0.312-0.652-0.468-1.164-0.468c-0.347,0-0.636,0.044-0.868,0.132
			c-0.231,0.088-0.432,0.185-0.6,0.288c-0.168,0.104-0.315,0.199-0.444,0.284c-0.128,0.085-0.256,0.128-0.384,0.128
			c-0.106,0-0.196-0.028-0.269-0.084c-0.071-0.056-0.135-0.121-0.188-0.196l-0.271-0.496c0.453-0.426,0.942-0.746,1.467-0.96
			c0.525-0.213,1.105-0.319,1.74-0.319c0.459,0,0.867,0.074,1.225,0.224s0.657,0.358,0.9,0.628c0.242,0.27,0.426,0.594,0.551,0.972
			c0.126,0.379,0.188,0.798,0.188,1.257v5.184H510.712z M507.664,79.791c0.24,0,0.463-0.024,0.668-0.072s0.397-0.117,0.576-0.208
			c0.178-0.091,0.348-0.201,0.508-0.332s0.32-0.278,0.48-0.444v-1.632c-0.641,0.021-1.185,0.072-1.633,0.152
			c-0.447,0.08-0.812,0.184-1.092,0.312c-0.279,0.128-0.484,0.281-0.611,0.46c-0.129,0.179-0.192,0.375-0.192,0.588
			c0,0.208,0.033,0.387,0.1,0.536c0.067,0.149,0.159,0.271,0.276,0.364s0.254,0.163,0.412,0.208
			C507.313,79.768,507.482,79.791,507.664,79.791z"/>
		<path fill="#333333" d="M519.184,74.103c-0.042,0.059-0.087,0.104-0.132,0.136c-0.045,0.032-0.107,0.048-0.188,0.048
			c-0.086,0-0.177-0.033-0.272-0.1s-0.213-0.139-0.352-0.216s-0.31-0.149-0.512-0.216c-0.203-0.067-0.451-0.101-0.744-0.101
			c-0.39,0-0.734,0.069-1.033,0.208c-0.298,0.139-0.547,0.339-0.747,0.601c-0.2,0.261-0.351,0.575-0.452,0.943
			s-0.152,0.784-0.152,1.248c0,0.48,0.055,0.907,0.164,1.28s0.264,0.688,0.465,0.944c0.199,0.256,0.441,0.45,0.728,0.584
			c0.285,0.133,0.604,0.199,0.956,0.199c0.341,0,0.621-0.041,0.84-0.124c0.219-0.082,0.4-0.172,0.544-0.268s0.265-0.186,0.364-0.268
			c0.099-0.083,0.198-0.124,0.3-0.124c0.128,0,0.224,0.048,0.288,0.144l0.432,0.552c-0.187,0.225-0.395,0.416-0.624,0.576
			s-0.475,0.291-0.735,0.393c-0.262,0.101-0.533,0.176-0.816,0.224s-0.57,0.072-0.863,0.072c-0.508,0-0.979-0.094-1.416-0.28
			c-0.438-0.187-0.818-0.459-1.141-0.816c-0.322-0.356-0.576-0.796-0.76-1.315c-0.184-0.521-0.276-1.11-0.276-1.772
			c0-0.603,0.084-1.158,0.252-1.668c0.168-0.509,0.415-0.95,0.74-1.324c0.325-0.373,0.727-0.663,1.204-0.871
			c0.477-0.208,1.025-0.313,1.644-0.313c0.581,0,1.093,0.094,1.532,0.28c0.44,0.187,0.828,0.448,1.164,0.784L519.184,74.103z"/>
		<path fill="#333333" d="M523.68,80.854c-0.65,0-1.151-0.182-1.504-0.544c-0.352-0.362-0.528-0.885-0.528-1.568v-4.896h-0.951
			c-0.091,0-0.166-0.028-0.225-0.084s-0.088-0.138-0.088-0.244V72.91l1.32-0.176l0.344-2.456c0.021-0.085,0.062-0.153,0.12-0.204
			c0.059-0.05,0.136-0.075,0.231-0.075h0.769v2.743h2.312v1.104h-2.312v4.792c0,0.325,0.078,0.569,0.236,0.731
			c0.157,0.163,0.363,0.244,0.619,0.244c0.145,0,0.27-0.019,0.376-0.056c0.107-0.037,0.197-0.08,0.272-0.128
			c0.074-0.048,0.14-0.091,0.196-0.128c0.056-0.037,0.104-0.057,0.147-0.057c0.048,0,0.087,0.011,0.116,0.032
			s0.06,0.059,0.092,0.112l0.448,0.728c-0.256,0.235-0.559,0.416-0.908,0.544C524.414,80.791,524.053,80.854,523.68,80.854z"/>
		<path fill="#333333" d="M532.111,80.727c-0.149,0-0.264-0.024-0.344-0.072s-0.145-0.141-0.192-0.279l-0.168-0.729
			c-0.208,0.192-0.413,0.364-0.616,0.516c-0.202,0.152-0.414,0.279-0.636,0.381c-0.222,0.101-0.457,0.179-0.708,0.231
			c-0.251,0.054-0.53,0.08-0.84,0.08c-0.32,0-0.619-0.044-0.896-0.132c-0.278-0.088-0.52-0.223-0.725-0.404
			c-0.205-0.181-0.368-0.406-0.488-0.676c-0.119-0.27-0.18-0.588-0.18-0.956c0-0.32,0.087-0.627,0.26-0.92
			c0.174-0.293,0.456-0.556,0.849-0.788c0.392-0.232,0.903-0.423,1.536-0.572c0.632-0.149,1.409-0.234,2.332-0.256v-0.607
			c0-0.613-0.133-1.076-0.396-1.389c-0.264-0.312-0.652-0.468-1.164-0.468c-0.347,0-0.636,0.044-0.868,0.132
			c-0.231,0.088-0.432,0.185-0.6,0.288c-0.168,0.104-0.316,0.199-0.444,0.284s-0.256,0.128-0.384,0.128
			c-0.106,0-0.196-0.028-0.268-0.084c-0.072-0.056-0.135-0.121-0.188-0.196l-0.271-0.496c0.453-0.426,0.942-0.746,1.468-0.96
			c0.525-0.213,1.105-0.319,1.739-0.319c0.459,0,0.867,0.074,1.225,0.224s0.657,0.358,0.899,0.628
			c0.243,0.27,0.427,0.594,0.553,0.972c0.125,0.379,0.188,0.798,0.188,1.257v5.184H532.111z M529.063,79.791
			c0.24,0,0.463-0.024,0.668-0.072s0.397-0.117,0.576-0.208s0.348-0.201,0.508-0.332s0.32-0.278,0.48-0.444v-1.632
			c-0.641,0.021-1.185,0.072-1.633,0.152c-0.447,0.08-0.812,0.184-1.092,0.312s-0.483,0.281-0.612,0.46
			c-0.128,0.179-0.191,0.375-0.191,0.588c0,0.208,0.033,0.387,0.1,0.536s0.159,0.271,0.276,0.364s0.255,0.163,0.412,0.208
			S528.882,79.791,529.063,79.791z"/>
		<path fill="#333333" d="M544.151,80.727c-0.149,0-0.264-0.024-0.344-0.072s-0.145-0.141-0.192-0.279l-0.168-0.729
			c-0.208,0.192-0.413,0.364-0.616,0.516c-0.202,0.152-0.414,0.279-0.636,0.381c-0.222,0.101-0.457,0.179-0.708,0.231
			c-0.251,0.054-0.53,0.08-0.84,0.08c-0.32,0-0.619-0.044-0.896-0.132c-0.278-0.088-0.52-0.223-0.725-0.404
			c-0.205-0.181-0.368-0.406-0.488-0.676c-0.119-0.27-0.18-0.588-0.18-0.956c0-0.32,0.087-0.627,0.26-0.92
			c0.174-0.293,0.456-0.556,0.849-0.788c0.392-0.232,0.903-0.423,1.536-0.572c0.632-0.149,1.409-0.234,2.332-0.256v-0.607
			c0-0.613-0.133-1.076-0.396-1.389c-0.264-0.312-0.652-0.468-1.164-0.468c-0.347,0-0.636,0.044-0.868,0.132
			c-0.231,0.088-0.432,0.185-0.6,0.288c-0.168,0.104-0.316,0.199-0.444,0.284s-0.256,0.128-0.384,0.128
			c-0.106,0-0.196-0.028-0.268-0.084c-0.072-0.056-0.135-0.121-0.188-0.196l-0.271-0.496c0.453-0.426,0.942-0.746,1.468-0.96
			c0.525-0.213,1.105-0.319,1.739-0.319c0.459,0,0.867,0.074,1.225,0.224s0.657,0.358,0.899,0.628
			c0.243,0.27,0.427,0.594,0.553,0.972c0.125,0.379,0.188,0.798,0.188,1.257v5.184H544.151z M541.104,79.791
			c0.24,0,0.463-0.024,0.668-0.072s0.397-0.117,0.576-0.208s0.348-0.201,0.508-0.332s0.32-0.278,0.48-0.444v-1.632
			c-0.641,0.021-1.185,0.072-1.633,0.152c-0.447,0.08-0.812,0.184-1.092,0.312s-0.483,0.281-0.612,0.46
			c-0.128,0.179-0.191,0.375-0.191,0.588c0,0.208,0.033,0.387,0.1,0.536s0.159,0.271,0.276,0.364s0.255,0.163,0.412,0.208
			S540.922,79.791,541.104,79.791z"/>
		<path fill="#333333" d="M548.503,68.927v11.8h-1.521v-11.8H548.503z"/>
		<path fill="#333333" d="M559.999,80.727c-0.149,0-0.264-0.024-0.344-0.072s-0.145-0.141-0.192-0.279l-0.168-0.729
			c-0.208,0.192-0.413,0.364-0.616,0.516c-0.202,0.152-0.414,0.279-0.636,0.381c-0.222,0.101-0.457,0.179-0.708,0.231
			c-0.251,0.054-0.53,0.08-0.84,0.08c-0.32,0-0.619-0.044-0.896-0.132c-0.278-0.088-0.52-0.223-0.725-0.404
			c-0.205-0.181-0.368-0.406-0.488-0.676c-0.119-0.27-0.18-0.588-0.18-0.956c0-0.32,0.087-0.627,0.26-0.92
			c0.174-0.293,0.456-0.556,0.849-0.788c0.392-0.232,0.903-0.423,1.536-0.572c0.632-0.149,1.409-0.234,2.332-0.256v-0.607
			c0-0.613-0.133-1.076-0.396-1.389c-0.264-0.312-0.652-0.468-1.164-0.468c-0.347,0-0.636,0.044-0.868,0.132
			c-0.231,0.088-0.432,0.185-0.6,0.288c-0.168,0.104-0.316,0.199-0.444,0.284s-0.256,0.128-0.384,0.128
			c-0.106,0-0.196-0.028-0.268-0.084c-0.072-0.056-0.135-0.121-0.188-0.196l-0.271-0.496c0.453-0.426,0.942-0.746,1.468-0.96
			c0.525-0.213,1.105-0.319,1.739-0.319c0.459,0,0.867,0.074,1.225,0.224s0.657,0.358,0.899,0.628
			c0.243,0.27,0.427,0.594,0.553,0.972c0.125,0.379,0.188,0.798,0.188,1.257v5.184H559.999z M556.951,79.791
			c0.24,0,0.463-0.024,0.668-0.072s0.397-0.117,0.576-0.208s0.348-0.201,0.508-0.332s0.32-0.278,0.48-0.444v-1.632
			c-0.641,0.021-1.185,0.072-1.633,0.152c-0.447,0.08-0.812,0.184-1.092,0.312s-0.483,0.281-0.612,0.46
			c-0.128,0.179-0.191,0.375-0.191,0.588c0,0.208,0.033,0.387,0.1,0.536s0.159,0.271,0.276,0.364s0.255,0.163,0.412,0.208
			S556.77,79.791,556.951,79.791z"/>
		<path fill="#333333" d="M562.79,80.727v-11.8h1.521v4.824c0.336-0.39,0.719-0.699,1.148-0.929
			c0.429-0.229,0.918-0.344,1.468-0.344c0.475,0,0.902,0.092,1.284,0.276c0.381,0.184,0.705,0.446,0.972,0.788
			c0.267,0.341,0.471,0.759,0.612,1.252c0.141,0.493,0.212,1.047,0.212,1.659c0,0.656-0.082,1.254-0.244,1.792
			c-0.163,0.539-0.395,1-0.696,1.385c-0.301,0.384-0.667,0.681-1.096,0.892c-0.43,0.211-0.913,0.316-1.452,0.316
			c-0.533,0-0.98-0.101-1.34-0.301c-0.36-0.199-0.676-0.476-0.948-0.827l-0.072,0.695c-0.048,0.214-0.176,0.32-0.384,0.32H562.79z
			 M566.423,73.687c-0.454,0-0.847,0.103-1.181,0.308c-0.333,0.206-0.644,0.498-0.932,0.876v3.881
			c0.256,0.336,0.536,0.571,0.84,0.708c0.304,0.136,0.635,0.203,0.992,0.203c0.741,0,1.31-0.261,1.704-0.783
			c0.395-0.523,0.592-1.313,0.592-2.368c0-0.971-0.175-1.685-0.524-2.141C567.565,73.915,567.067,73.687,566.423,73.687z"/>
		<path fill="#333333" d="M575.223,72.479c0.598,0,1.137,0.098,1.616,0.292c0.48,0.194,0.888,0.474,1.224,0.836
			c0.336,0.363,0.595,0.802,0.776,1.316s0.272,1.092,0.272,1.731c0,0.641-0.091,1.219-0.272,1.736s-0.44,0.957-0.776,1.32
			c-0.336,0.362-0.743,0.641-1.224,0.836c-0.479,0.194-1.019,0.292-1.616,0.292c-0.597,0-1.137-0.098-1.62-0.292
			c-0.482-0.195-0.893-0.474-1.231-0.836c-0.339-0.363-0.599-0.803-0.78-1.32s-0.271-1.096-0.271-1.736
			c0-0.64,0.09-1.217,0.271-1.731s0.441-0.953,0.78-1.316c0.339-0.362,0.749-0.642,1.231-0.836
			C574.086,72.576,574.626,72.479,575.223,72.479z M575.223,79.654c0.779,0,1.36-0.261,1.744-0.784
			c0.384-0.522,0.576-1.258,0.576-2.208c0-0.943-0.192-1.68-0.576-2.208c-0.384-0.527-0.965-0.792-1.744-0.792
			c-0.789,0-1.377,0.265-1.764,0.792c-0.387,0.528-0.58,1.265-0.58,2.208c0,0.95,0.193,1.686,0.58,2.208
			C573.846,79.394,574.434,79.654,575.223,79.654z"/>
		<path fill="#333333" d="M583.711,72.471c0.352,0,0.679,0.039,0.979,0.116c0.302,0.077,0.58,0.188,0.836,0.332h2.24v0.56
			c0,0.192-0.117,0.313-0.352,0.36l-0.889,0.128c0.166,0.341,0.248,0.715,0.248,1.12c0,0.399-0.075,0.76-0.228,1.08
			c-0.152,0.319-0.364,0.595-0.636,0.823c-0.272,0.229-0.597,0.405-0.973,0.528s-0.785,0.184-1.228,0.184
			c-0.373,0-0.72-0.04-1.04-0.119c-0.336,0.202-0.504,0.427-0.504,0.672c0,0.187,0.078,0.326,0.235,0.42
			c0.157,0.093,0.364,0.161,0.62,0.204c0.256,0.042,0.547,0.069,0.872,0.08s0.659,0.027,1,0.052c0.342,0.023,0.675,0.065,1,0.124
			s0.616,0.156,0.872,0.292s0.463,0.321,0.62,0.556c0.157,0.235,0.236,0.542,0.236,0.92c0,0.353-0.087,0.692-0.261,1.021
			c-0.173,0.328-0.424,0.618-0.752,0.872c-0.327,0.253-0.729,0.457-1.203,0.611c-0.476,0.155-1.011,0.232-1.608,0.232
			s-1.119-0.059-1.564-0.176c-0.445-0.118-0.815-0.275-1.111-0.473s-0.518-0.425-0.664-0.684s-0.22-0.529-0.22-0.813
			c0-0.399,0.123-0.737,0.371-1.012s0.589-0.489,1.021-0.644c-0.24-0.106-0.43-0.252-0.568-0.437
			c-0.139-0.184-0.208-0.428-0.208-0.731c0-0.117,0.021-0.239,0.064-0.364c0.042-0.125,0.107-0.251,0.196-0.376
			c0.088-0.125,0.197-0.244,0.327-0.356c0.131-0.111,0.281-0.21,0.452-0.296c-0.399-0.224-0.715-0.521-0.943-0.892
			c-0.229-0.371-0.345-0.804-0.345-1.3c0-0.4,0.077-0.761,0.232-1.08c0.154-0.32,0.369-0.595,0.644-0.824
			c0.275-0.229,0.602-0.405,0.98-0.528C582.842,72.532,583.258,72.471,583.711,72.471z M586.223,81.15
			c0-0.191-0.055-0.347-0.164-0.464s-0.257-0.211-0.443-0.28c-0.188-0.069-0.403-0.117-0.648-0.144s-0.504-0.048-0.776-0.064
			c-0.271-0.016-0.551-0.031-0.836-0.048c-0.285-0.016-0.559-0.042-0.819-0.08c-0.288,0.139-0.523,0.31-0.704,0.513
			c-0.182,0.202-0.272,0.439-0.272,0.712c0,0.176,0.046,0.34,0.136,0.491c0.091,0.152,0.229,0.283,0.412,0.393
			c0.185,0.109,0.419,0.196,0.704,0.26c0.285,0.064,0.623,0.096,1.013,0.096c0.384,0,0.725-0.034,1.023-0.104
			s0.55-0.165,0.752-0.288c0.203-0.123,0.357-0.268,0.464-0.436C586.169,81.538,586.223,81.354,586.223,81.15z M583.711,76.702
			c0.282,0,0.53-0.038,0.744-0.115c0.213-0.077,0.392-0.186,0.536-0.324c0.144-0.139,0.252-0.304,0.323-0.496
			c0.072-0.192,0.108-0.405,0.108-0.64c0-0.48-0.146-0.863-0.437-1.148c-0.29-0.285-0.716-0.428-1.275-0.428
			c-0.561,0-0.985,0.143-1.276,0.428s-0.436,0.668-0.436,1.148c0,0.229,0.037,0.439,0.111,0.632c0.075,0.191,0.185,0.358,0.328,0.5
			c0.145,0.142,0.323,0.251,0.536,0.328C583.188,76.664,583.434,76.702,583.711,76.702z"/>
		<path fill="#333333" d="M594.398,80.727c-0.149,0-0.264-0.024-0.344-0.072s-0.145-0.141-0.192-0.279l-0.168-0.729
			c-0.208,0.192-0.413,0.364-0.616,0.516c-0.202,0.152-0.414,0.279-0.636,0.381c-0.222,0.101-0.457,0.179-0.708,0.231
			c-0.251,0.054-0.53,0.08-0.84,0.08c-0.32,0-0.619-0.044-0.896-0.132c-0.278-0.088-0.52-0.223-0.725-0.404
			c-0.205-0.181-0.368-0.406-0.488-0.676c-0.119-0.27-0.18-0.588-0.18-0.956c0-0.32,0.087-0.627,0.26-0.92
			c0.174-0.293,0.456-0.556,0.849-0.788c0.392-0.232,0.903-0.423,1.536-0.572c0.632-0.149,1.409-0.234,2.332-0.256v-0.607
			c0-0.613-0.133-1.076-0.396-1.389c-0.264-0.312-0.652-0.468-1.164-0.468c-0.347,0-0.636,0.044-0.868,0.132
			c-0.231,0.088-0.432,0.185-0.6,0.288c-0.168,0.104-0.316,0.199-0.444,0.284s-0.256,0.128-0.384,0.128
			c-0.106,0-0.196-0.028-0.268-0.084c-0.072-0.056-0.135-0.121-0.188-0.196l-0.271-0.496c0.453-0.426,0.942-0.746,1.468-0.96
			c0.525-0.213,1.105-0.319,1.739-0.319c0.459,0,0.867,0.074,1.225,0.224s0.657,0.358,0.899,0.628
			c0.243,0.27,0.427,0.594,0.553,0.972c0.125,0.379,0.188,0.798,0.188,1.257v5.184H594.398z M591.351,79.791
			c0.24,0,0.463-0.024,0.668-0.072s0.397-0.117,0.576-0.208s0.348-0.201,0.508-0.332s0.32-0.278,0.48-0.444v-1.632
			c-0.641,0.021-1.185,0.072-1.633,0.152c-0.447,0.08-0.812,0.184-1.092,0.312s-0.483,0.281-0.612,0.46
			c-0.128,0.179-0.191,0.375-0.191,0.588c0,0.208,0.033,0.387,0.1,0.536s0.159,0.271,0.276,0.364s0.255,0.163,0.412,0.208
			S591.169,79.791,591.351,79.791z"/>
		<path fill="#333333" d="M603.055,80.727c-0.213,0-0.347-0.102-0.399-0.304l-0.137-0.952c-0.17,0.208-0.354,0.396-0.552,0.563
			s-0.408,0.313-0.632,0.433s-0.461,0.212-0.712,0.275c-0.251,0.064-0.521,0.097-0.809,0.097c-0.464,0-0.884-0.09-1.26-0.269
			s-0.698-0.443-0.968-0.796c-0.27-0.352-0.476-0.785-0.62-1.3c-0.144-0.515-0.216-1.108-0.216-1.78c0-0.603,0.08-1.161,0.24-1.676
			s0.392-0.961,0.695-1.34c0.305-0.379,0.673-0.676,1.104-0.893c0.432-0.216,0.92-0.323,1.464-0.323c0.49,0,0.911,0.081,1.26,0.244
			c0.35,0.162,0.66,0.391,0.933,0.684v-4.464h1.52v11.8H603.055z M600.311,79.614c0.454,0,0.851-0.103,1.192-0.308
			c0.341-0.205,0.656-0.497,0.944-0.876v-3.872c-0.257-0.341-0.536-0.58-0.841-0.716c-0.304-0.136-0.64-0.204-1.008-0.204
			c-0.73,0-1.293,0.262-1.688,0.784s-0.592,1.279-0.592,2.271c0,0.518,0.045,0.96,0.136,1.328s0.221,0.671,0.392,0.908
			s0.379,0.411,0.624,0.52C599.716,79.56,599.996,79.614,600.311,79.614z"/>
		<path fill="#333333" d="M609.622,72.479c0.598,0,1.137,0.098,1.616,0.292c0.48,0.194,0.888,0.474,1.224,0.836
			c0.336,0.363,0.595,0.802,0.776,1.316s0.272,1.092,0.272,1.731c0,0.641-0.091,1.219-0.272,1.736s-0.44,0.957-0.776,1.32
			c-0.336,0.362-0.743,0.641-1.224,0.836c-0.479,0.194-1.019,0.292-1.616,0.292c-0.597,0-1.137-0.098-1.62-0.292
			c-0.482-0.195-0.893-0.474-1.231-0.836c-0.339-0.363-0.599-0.803-0.78-1.32s-0.271-1.096-0.271-1.736
			c0-0.64,0.09-1.217,0.271-1.731s0.441-0.953,0.78-1.316c0.339-0.362,0.749-0.642,1.231-0.836
			C608.485,72.576,609.025,72.479,609.622,72.479z M609.622,79.654c0.779,0,1.36-0.261,1.744-0.784
			c0.384-0.522,0.576-1.258,0.576-2.208c0-0.943-0.192-1.68-0.576-2.208c-0.384-0.527-0.965-0.792-1.744-0.792
			c-0.789,0-1.377,0.265-1.764,0.792c-0.387,0.528-0.58,1.265-0.58,2.208c0,0.95,0.193,1.686,0.58,2.208
			C608.245,79.394,608.833,79.654,609.622,79.654z"/>
	</g>
	<g>
		<path fill="#333333" d="M655.482,80.727h-1.279c-0.145,0-0.262-0.036-0.354-0.108c-0.09-0.071-0.158-0.166-0.207-0.283
			l-1.031-2.696h-5.098l-1.031,2.696c-0.031,0.101-0.098,0.191-0.195,0.271c-0.1,0.08-0.219,0.12-0.357,0.12h-1.279l4.576-11.48
			h1.672L655.482,80.727z M647.971,76.454h4.184l-1.736-4.52c-0.059-0.144-0.119-0.311-0.18-0.5s-0.121-0.396-0.18-0.62
			c-0.059,0.224-0.117,0.432-0.176,0.624s-0.117,0.36-0.176,0.504L647.971,76.454z"/>
		<path fill="#333333" d="M662.074,74.103c-0.043,0.059-0.086,0.104-0.131,0.136c-0.047,0.032-0.109,0.048-0.189,0.048
			c-0.084,0-0.176-0.033-0.271-0.1s-0.213-0.139-0.352-0.216s-0.311-0.149-0.512-0.216c-0.203-0.067-0.451-0.101-0.744-0.101
			c-0.391,0-0.734,0.069-1.033,0.208s-0.547,0.339-0.748,0.601c-0.199,0.261-0.35,0.575-0.451,0.943s-0.152,0.784-0.152,1.248
			c0,0.48,0.055,0.907,0.164,1.28s0.264,0.688,0.465,0.944c0.199,0.256,0.441,0.45,0.727,0.584c0.285,0.133,0.605,0.199,0.957,0.199
			c0.342,0,0.621-0.041,0.84-0.124c0.219-0.082,0.4-0.172,0.545-0.268c0.143-0.096,0.264-0.186,0.363-0.268
			c0.098-0.083,0.199-0.124,0.299-0.124c0.129,0,0.225,0.048,0.289,0.144l0.432,0.552c-0.188,0.225-0.395,0.416-0.623,0.576
			c-0.23,0.16-0.475,0.291-0.736,0.393c-0.262,0.101-0.533,0.176-0.816,0.224s-0.57,0.072-0.863,0.072
			c-0.508,0-0.979-0.094-1.416-0.28s-0.818-0.459-1.141-0.816c-0.322-0.356-0.576-0.796-0.76-1.315
			c-0.184-0.521-0.275-1.11-0.275-1.772c0-0.603,0.084-1.158,0.252-1.668c0.168-0.509,0.414-0.95,0.738-1.324
			c0.326-0.373,0.727-0.663,1.205-0.871c0.477-0.208,1.025-0.313,1.645-0.313c0.58,0,1.092,0.094,1.531,0.28
			s0.828,0.448,1.164,0.784L662.074,74.103z"/>
		<path fill="#333333" d="M667.25,72.479c0.49,0,0.945,0.081,1.361,0.244s0.775,0.398,1.08,0.708c0.303,0.31,0.541,0.689,0.711,1.14
			c0.17,0.451,0.256,0.967,0.256,1.548c0,0.235-0.025,0.393-0.076,0.473s-0.145,0.12-0.283,0.12h-5.361
			c0.018,0.496,0.088,0.928,0.213,1.296s0.297,0.673,0.512,0.916c0.217,0.242,0.477,0.424,0.781,0.544
			c0.303,0.12,0.643,0.18,1.016,0.18c0.352,0,0.654-0.04,0.908-0.12c0.252-0.08,0.471-0.168,0.654-0.264
			c0.186-0.096,0.342-0.185,0.469-0.264c0.129-0.08,0.24-0.12,0.336-0.12c0.129,0,0.221,0.048,0.279,0.144l0.434,0.552
			c-0.188,0.225-0.404,0.415-0.648,0.572c-0.246,0.157-0.51,0.288-0.793,0.392c-0.281,0.104-0.574,0.181-0.875,0.229
			s-0.6,0.072-0.893,0.072c-0.561,0-1.078-0.095-1.555-0.284c-0.479-0.189-0.891-0.467-1.236-0.832
			c-0.348-0.365-0.617-0.818-0.813-1.36c-0.195-0.541-0.293-1.164-0.293-1.868c0-0.564,0.088-1.092,0.266-1.579
			c0.176-0.488,0.428-0.912,0.756-1.272s0.727-0.644,1.199-0.852S666.658,72.479,667.25,72.479z M667.275,73.591
			c-0.668,0-1.191,0.193-1.572,0.58c-0.383,0.387-0.621,0.921-0.717,1.604h4.313c0-0.32-0.045-0.613-0.137-0.88
			c-0.09-0.267-0.223-0.496-0.396-0.688c-0.172-0.192-0.385-0.343-0.635-0.452C667.879,73.646,667.594,73.591,667.275,73.591z"/>
		<path fill="#333333" d="M672.361,83.454V72.606h0.912c0.215,0,0.348,0.102,0.4,0.304l0.129,0.929
			c0.34-0.411,0.734-0.743,1.18-0.996c0.445-0.254,0.955-0.38,1.531-0.38c0.465,0,0.885,0.089,1.26,0.268
			c0.377,0.179,0.699,0.444,0.969,0.796c0.27,0.353,0.477,0.785,0.619,1.3c0.145,0.516,0.217,1.108,0.217,1.78
			c0,0.603-0.08,1.161-0.24,1.676s-0.391,0.962-0.695,1.341c-0.305,0.378-0.672,0.676-1.104,0.892
			c-0.434,0.216-0.92,0.324-1.465,0.324c-0.496,0-0.918-0.08-1.264-0.24c-0.348-0.16-0.656-0.39-0.928-0.688v3.544H672.361z
			 M676.018,73.687c-0.459,0-0.857,0.103-1.195,0.308c-0.338,0.206-0.652,0.498-0.939,0.876v3.881
			c0.256,0.336,0.533,0.571,0.836,0.708c0.301,0.136,0.639,0.203,1.012,0.203c0.73,0,1.293-0.261,1.688-0.783
			c0.395-0.523,0.592-1.28,0.592-2.272c0-0.518-0.045-0.96-0.135-1.328c-0.092-0.368-0.223-0.67-0.393-0.908
			c-0.17-0.236-0.379-0.41-0.625-0.52C676.613,73.741,676.332,73.687,676.018,73.687z"/>
		<path fill="#333333" d="M683.779,80.854c-0.65,0-1.152-0.182-1.504-0.544s-0.529-0.885-0.529-1.568v-4.896h-0.951
			c-0.09,0-0.166-0.028-0.225-0.084s-0.088-0.138-0.088-0.244V72.91l1.32-0.176l0.344-2.456c0.021-0.085,0.063-0.153,0.121-0.204
			c0.059-0.05,0.135-0.075,0.23-0.075h0.77v2.743h2.311v1.104h-2.311v4.792c0,0.325,0.078,0.569,0.236,0.731
			c0.156,0.163,0.363,0.244,0.619,0.244c0.145,0,0.27-0.019,0.375-0.056c0.107-0.037,0.197-0.08,0.273-0.128
			c0.074-0.048,0.139-0.091,0.195-0.128s0.105-0.057,0.148-0.057c0.047,0,0.086,0.011,0.115,0.032s0.061,0.059,0.092,0.112
			l0.449,0.728c-0.256,0.235-0.559,0.416-0.908,0.544C684.514,80.791,684.152,80.854,683.779,80.854z"/>
		<path fill="#333333" d="M692.211,80.727c-0.15,0-0.264-0.024-0.344-0.072s-0.145-0.141-0.193-0.279l-0.168-0.729
			c-0.207,0.192-0.412,0.364-0.615,0.516c-0.203,0.152-0.414,0.279-0.637,0.381c-0.221,0.101-0.457,0.179-0.707,0.231
			c-0.252,0.054-0.531,0.08-0.84,0.08c-0.32,0-0.619-0.044-0.896-0.132s-0.52-0.223-0.725-0.404
			c-0.205-0.181-0.367-0.406-0.488-0.676c-0.119-0.27-0.18-0.588-0.18-0.956c0-0.32,0.088-0.627,0.26-0.92
			c0.174-0.293,0.457-0.556,0.85-0.788c0.391-0.232,0.902-0.423,1.535-0.572s1.41-0.234,2.332-0.256v-0.607
			c0-0.613-0.133-1.076-0.396-1.389c-0.264-0.312-0.652-0.468-1.164-0.468c-0.346,0-0.635,0.044-0.867,0.132s-0.432,0.185-0.6,0.288
			c-0.168,0.104-0.316,0.199-0.445,0.284c-0.127,0.085-0.256,0.128-0.383,0.128c-0.107,0-0.197-0.028-0.268-0.084
			c-0.072-0.056-0.135-0.121-0.189-0.196l-0.271-0.496c0.453-0.426,0.943-0.746,1.469-0.96c0.525-0.213,1.105-0.319,1.738-0.319
			c0.459,0,0.867,0.074,1.225,0.224s0.658,0.358,0.9,0.628s0.426,0.594,0.553,0.972c0.125,0.379,0.188,0.798,0.188,1.257v5.184
			H692.211z M689.162,79.791c0.24,0,0.463-0.024,0.668-0.072s0.398-0.117,0.576-0.208c0.18-0.091,0.348-0.201,0.508-0.332
			s0.32-0.278,0.48-0.444v-1.632c-0.641,0.021-1.184,0.072-1.633,0.152c-0.447,0.08-0.811,0.184-1.092,0.312
			c-0.279,0.128-0.482,0.281-0.611,0.46s-0.191,0.375-0.191,0.588c0,0.208,0.033,0.387,0.1,0.536s0.158,0.271,0.275,0.364
			s0.256,0.163,0.412,0.208C688.813,79.768,688.98,79.791,689.162,79.791z"/>
		<path fill="#333333" d="M700.619,68.927v11.8h-1.521v-11.8H700.619z"/>
		<path fill="#333333" d="M708.059,80.727c-0.15,0-0.264-0.024-0.344-0.072s-0.145-0.141-0.193-0.279l-0.168-0.729
			c-0.207,0.192-0.412,0.364-0.615,0.516c-0.203,0.152-0.414,0.279-0.637,0.381c-0.221,0.101-0.457,0.179-0.707,0.231
			c-0.252,0.054-0.531,0.08-0.84,0.08c-0.32,0-0.619-0.044-0.896-0.132s-0.52-0.223-0.725-0.404
			c-0.205-0.181-0.367-0.406-0.488-0.676c-0.119-0.27-0.18-0.588-0.18-0.956c0-0.32,0.088-0.627,0.26-0.92
			c0.174-0.293,0.457-0.556,0.85-0.788c0.391-0.232,0.902-0.423,1.535-0.572s1.41-0.234,2.332-0.256v-0.607
			c0-0.613-0.133-1.076-0.396-1.389c-0.264-0.312-0.652-0.468-1.164-0.468c-0.346,0-0.635,0.044-0.867,0.132s-0.432,0.185-0.6,0.288
			c-0.168,0.104-0.316,0.199-0.445,0.284c-0.127,0.085-0.256,0.128-0.383,0.128c-0.107,0-0.197-0.028-0.268-0.084
			c-0.072-0.056-0.135-0.121-0.189-0.196l-0.271-0.496c0.453-0.426,0.943-0.746,1.469-0.96c0.525-0.213,1.105-0.319,1.738-0.319
			c0.459,0,0.867,0.074,1.225,0.224s0.658,0.358,0.9,0.628s0.426,0.594,0.553,0.972c0.125,0.379,0.188,0.798,0.188,1.257v5.184
			H708.059z M705.01,79.791c0.24,0,0.463-0.024,0.668-0.072s0.398-0.117,0.576-0.208c0.18-0.091,0.348-0.201,0.508-0.332
			s0.32-0.278,0.48-0.444v-1.632c-0.641,0.021-1.184,0.072-1.633,0.152c-0.447,0.08-0.811,0.184-1.092,0.312
			c-0.279,0.128-0.482,0.281-0.611,0.46s-0.191,0.375-0.191,0.588c0,0.208,0.033,0.387,0.1,0.536s0.158,0.271,0.275,0.364
			s0.256,0.163,0.412,0.208C704.66,79.768,704.828,79.791,705.01,79.791z"/>
		<path fill="#333333" d="M717.434,80.854c-0.65,0-1.15-0.182-1.504-0.544c-0.352-0.362-0.527-0.885-0.527-1.568v-4.896h-0.951
			c-0.092,0-0.166-0.028-0.225-0.084s-0.088-0.138-0.088-0.244V72.91l1.32-0.176l0.344-2.456c0.021-0.085,0.061-0.153,0.119-0.204
			c0.059-0.05,0.137-0.075,0.232-0.075h0.768v2.743h2.313v1.104h-2.313v4.792c0,0.325,0.078,0.569,0.236,0.731
			c0.158,0.163,0.363,0.244,0.619,0.244c0.145,0,0.27-0.019,0.377-0.056s0.197-0.08,0.271-0.128s0.141-0.091,0.197-0.128
			c0.055-0.037,0.104-0.057,0.146-0.057c0.049,0,0.088,0.011,0.117,0.032s0.059,0.059,0.092,0.112l0.447,0.728
			c-0.256,0.235-0.559,0.416-0.908,0.544C718.168,80.791,717.807,80.854,717.434,80.854z"/>
		<path fill="#333333" d="M725.865,80.727c-0.148,0-0.264-0.024-0.344-0.072s-0.145-0.141-0.191-0.279l-0.168-0.729
			c-0.209,0.192-0.414,0.364-0.617,0.516c-0.201,0.152-0.414,0.279-0.635,0.381c-0.223,0.101-0.457,0.179-0.709,0.231
			c-0.25,0.054-0.529,0.08-0.84,0.08c-0.32,0-0.619-0.044-0.895-0.132c-0.279-0.088-0.52-0.223-0.725-0.404
			c-0.205-0.181-0.369-0.406-0.488-0.676s-0.18-0.588-0.18-0.956c0-0.32,0.086-0.627,0.26-0.92s0.455-0.556,0.848-0.788
			s0.904-0.423,1.537-0.572c0.631-0.149,1.408-0.234,2.332-0.256v-0.607c0-0.613-0.133-1.076-0.396-1.389
			c-0.264-0.312-0.652-0.468-1.164-0.468c-0.348,0-0.637,0.044-0.869,0.132c-0.23,0.088-0.432,0.185-0.6,0.288
			c-0.168,0.104-0.316,0.199-0.443,0.284c-0.129,0.085-0.256,0.128-0.385,0.128c-0.105,0-0.195-0.028-0.268-0.084
			s-0.135-0.121-0.188-0.196l-0.271-0.496c0.453-0.426,0.941-0.746,1.467-0.96c0.525-0.213,1.105-0.319,1.74-0.319
			c0.459,0,0.867,0.074,1.225,0.224s0.656,0.358,0.898,0.628c0.244,0.27,0.428,0.594,0.553,0.972
			c0.125,0.379,0.188,0.798,0.188,1.257v5.184H725.865z M722.818,79.791c0.24,0,0.463-0.024,0.668-0.072s0.396-0.117,0.576-0.208
			c0.178-0.091,0.348-0.201,0.508-0.332s0.32-0.278,0.48-0.444v-1.632c-0.641,0.021-1.186,0.072-1.633,0.152
			s-0.813,0.184-1.092,0.312c-0.281,0.128-0.484,0.281-0.613,0.46c-0.127,0.179-0.191,0.375-0.191,0.588
			c0,0.208,0.033,0.387,0.1,0.536s0.16,0.271,0.277,0.364s0.254,0.163,0.412,0.208C722.467,79.768,722.637,79.791,722.818,79.791z
			 M725.898,69.118l-1.881,2.064c-0.074,0.085-0.15,0.146-0.229,0.18c-0.076,0.035-0.174,0.053-0.291,0.053h-0.912l1.184-1.937
			c0.074-0.123,0.156-0.213,0.244-0.271c0.088-0.06,0.223-0.089,0.404-0.089H725.898z"/>
		<path fill="#333333" d="M728.658,80.727v-8.12h0.871c0.166,0,0.279,0.029,0.342,0.088c0.061,0.059,0.102,0.166,0.123,0.32
			l0.096,1.184c0.256-0.538,0.57-0.962,0.945-1.271c0.373-0.31,0.82-0.464,1.344-0.464c0.176,0,0.342,0.019,0.5,0.056
			c0.156,0.037,0.293,0.096,0.412,0.176l-0.105,1.136c-0.031,0.145-0.117,0.217-0.256,0.217c-0.074,0-0.186-0.017-0.332-0.048
			c-0.146-0.032-0.307-0.049-0.484-0.049c-0.25,0-0.473,0.038-0.668,0.112c-0.193,0.075-0.369,0.184-0.523,0.328
			c-0.154,0.144-0.291,0.32-0.412,0.528c-0.119,0.208-0.23,0.445-0.332,0.712v5.096H728.658z"/>
		<path fill="#333333" d="M736.395,70.087c0,0.144-0.029,0.278-0.084,0.403c-0.057,0.126-0.135,0.236-0.232,0.332
			c-0.1,0.097-0.213,0.172-0.344,0.229c-0.131,0.056-0.268,0.084-0.412,0.084c-0.139,0-0.271-0.028-0.396-0.084
			c-0.125-0.057-0.236-0.132-0.332-0.229c-0.096-0.096-0.172-0.206-0.229-0.332c-0.055-0.125-0.084-0.26-0.084-0.403
			c0-0.145,0.029-0.281,0.084-0.412c0.057-0.131,0.133-0.244,0.229-0.34c0.096-0.097,0.207-0.173,0.332-0.229
			s0.258-0.084,0.396-0.084c0.145,0,0.281,0.028,0.412,0.084s0.244,0.132,0.344,0.229c0.098,0.096,0.176,0.209,0.232,0.34
			C736.365,69.806,736.395,69.942,736.395,70.087z M736.098,72.606v8.12h-1.52v-8.12H736.098z"/>
		<path fill="#333333" d="M738.912,80.727v-6.864l-0.863-0.104c-0.123-0.021-0.221-0.063-0.295-0.124
			c-0.076-0.062-0.113-0.148-0.113-0.26v-0.633h1.271V71.99c0-0.464,0.068-0.877,0.201-1.239c0.133-0.363,0.322-0.668,0.568-0.916
			c0.244-0.248,0.541-0.438,0.891-0.568s0.74-0.196,1.172-0.196c0.178,0,0.35,0.014,0.521,0.04c0.17,0.027,0.332,0.064,0.488,0.112
			l-0.033,0.768c-0.006,0.064-0.027,0.113-0.064,0.148c-0.037,0.034-0.088,0.06-0.15,0.076c-0.064,0.016-0.141,0.023-0.225,0.023
			c-0.086,0-0.182,0-0.289,0c-0.244,0-0.467,0.031-0.664,0.092c-0.197,0.062-0.365,0.162-0.508,0.301
			c-0.141,0.139-0.248,0.323-0.324,0.556c-0.074,0.232-0.111,0.516-0.111,0.852v0.704h2.305v1.104h-2.256v6.88H738.912z"/>
		<path fill="#333333" d="M749.193,80.727c-0.15,0-0.264-0.024-0.344-0.072s-0.145-0.141-0.193-0.279l-0.168-0.729
			c-0.207,0.192-0.412,0.364-0.615,0.516c-0.203,0.152-0.414,0.279-0.637,0.381c-0.221,0.101-0.457,0.179-0.707,0.231
			c-0.252,0.054-0.531,0.08-0.84,0.08c-0.32,0-0.619-0.044-0.896-0.132s-0.52-0.223-0.725-0.404
			c-0.205-0.181-0.367-0.406-0.488-0.676c-0.119-0.27-0.18-0.588-0.18-0.956c0-0.32,0.088-0.627,0.26-0.92
			c0.174-0.293,0.457-0.556,0.85-0.788c0.391-0.232,0.902-0.423,1.535-0.572s1.41-0.234,2.332-0.256v-0.607
			c0-0.613-0.133-1.076-0.396-1.389c-0.264-0.312-0.652-0.468-1.164-0.468c-0.346,0-0.635,0.044-0.867,0.132s-0.432,0.185-0.6,0.288
			c-0.168,0.104-0.316,0.199-0.445,0.284c-0.127,0.085-0.256,0.128-0.383,0.128c-0.107,0-0.197-0.028-0.268-0.084
			c-0.072-0.056-0.135-0.121-0.189-0.196l-0.271-0.496c0.453-0.426,0.943-0.746,1.469-0.96c0.525-0.213,1.105-0.319,1.738-0.319
			c0.459,0,0.867,0.074,1.225,0.224s0.658,0.358,0.9,0.628s0.426,0.594,0.553,0.972c0.125,0.379,0.188,0.798,0.188,1.257v5.184
			H749.193z M746.145,79.791c0.24,0,0.463-0.024,0.668-0.072s0.398-0.117,0.576-0.208c0.18-0.091,0.348-0.201,0.508-0.332
			s0.32-0.278,0.48-0.444v-1.632c-0.641,0.021-1.184,0.072-1.633,0.152c-0.447,0.08-0.811,0.184-1.092,0.312
			c-0.279,0.128-0.482,0.281-0.611,0.46s-0.191,0.375-0.191,0.588c0,0.208,0.033,0.387,0.1,0.536s0.158,0.271,0.275,0.364
			s0.256,0.163,0.412,0.208C745.795,79.768,745.963,79.791,746.145,79.791z"/>
	</g>
	<g>
		<line fill="none" stroke="#00BEBE" stroke-miterlimit="10" x1="59.795" y1="9.795" x2="59.795" y2="34.266"/>
		<line fill="none" stroke="#00BEBE" stroke-miterlimit="10" x1="46.789" y1="22.031" x2="72.802" y2="22.031"/>
		<circle fill="none" stroke="#00BEBE" stroke-miterlimit="10" cx="59.795" cy="22.031" r="21.531"/>
	</g>
	<g>
		<circle fill="none" stroke="#00BEBE" stroke-miterlimit="10" cx="204.729" cy="22.031" r="21.531"/>
		<circle fill="none" stroke="#00BEBE" stroke-miterlimit="10" cx="204.729" cy="19.244" r="8.24"/>
		<g>
			<path fill="none" stroke="#00BEBE" stroke-miterlimit="10" d="M204.729,27.484c-6.754,0-12.452,4.49-14.291,10.645
				c3.803,3.377,8.806,5.432,14.291,5.432s10.488-2.055,14.291-5.432C217.181,31.975,211.483,27.484,204.729,27.484z"/>
		</g>
	</g>
	<g>
		<polygon fill="none" stroke="#00BEBE" stroke-miterlimit="10" points="570.107,15.568 538.492,15.568 538.492,36.719 
			555.912,36.719 563.592,43.305 563.912,36.719 570.107,36.719 		"/>
		<polygon fill="none" stroke="#00BEBE" stroke-miterlimit="10" points="545.887,0.756 514.27,0.756 514.27,21.906 519.299,21.906 
			526.979,28.492 527.299,21.906 545.887,21.906 		"/>
	</g>
	<g>
		<g>
			<circle fill="none" stroke="#00BEBE" stroke-miterlimit="10" cx="827.794" cy="22.031" r="21.53"/>
		</g>
		<polyline fill="none" stroke="#00BEBE" stroke-miterlimit="10" points="815.959,22.928 823.25,30.219 839.627,13.842 		"/>
	</g>
	<polyline fill-rule="evenodd" clip-rule="evenodd" fill="none" stroke="#00BEBE" stroke-miterlimit="10" points="134.445,67.066 
		138.656,75.947 133.656,84.066 	"/>
	<polyline fill-rule="evenodd" clip-rule="evenodd" fill="none" stroke="#00BEBE" stroke-miterlimit="10" points="271.59,67.066 
		275.801,75.947 270.801,84.066 	"/>
	<polyline fill-rule="evenodd" clip-rule="evenodd" fill="none" stroke="#00BEBE" stroke-miterlimit="10" points="453.215,67.066 
		457.426,75.947 452.426,84.066 	"/>
	<polyline fill-rule="evenodd" clip-rule="evenodd" fill="none" stroke="#00BEBE" stroke-miterlimit="10" points="627.738,67.066 
		631.949,75.947 626.949,84.066 	"/>
	<polyline fill-rule="evenodd" clip-rule="evenodd" fill="none" stroke="#00BEBE" stroke-miterlimit="10" points="764.348,67.066 
		768.559,75.947 763.559,84.066 	"/>
	<line fill="none" stroke="#000000" stroke-miterlimit="10" x1="111.974" y1="90.468" x2="0" y2="90.468"/>
</g>
</svg>
